<?xml version="1.0" encoding="utf-8"?>
<!-- Generator: Adobe Adobe Illustrator 24.2.0, SVG Export Plug-In . SVG Version: 6.00 Build 0)  -->
<svg version="1.1" id="Vector_layer_1_" xmlns="http://www.w3.org/2000/svg" xmlns:xlink="http://www.w3.org/1999/xlink" x="0px"
	 y="0px" viewBox="0 0 500 500" style="enable-background:new 0 0 500 500;" xml:space="preserve">
<style type="text/css">
	.st0{fill:#F20519;}
	.st1{fill:#A2A2A2;}
</style>
<path class="st0" d="M181.51,138.93c-5.69-0.6-33.94-1.35-24.18-11.49c8.37-5.29,17.6-9.26,26.84-12.79
	c24.59-8.49,50.12-14.59,75.8-18.68c20.74-2.93,41.73-4.35,62.66-3.44c9.19,0.61,52.06,1.43,49.13,12.52
	c0.95-13.26-54.83-7.36-64.83-7.33c-29.41,2.66-58.68,6.91-87.44,13.66c-20.31,4.65-41.72,9.06-59.6,20
	c1.79,2.08,4.87,2.53,7.39,3.29c10.18,2.21,20.46,3.95,30.67,5.97C192.55,140.09,186.97,139.44,181.51,138.93z"/>
<path class="st0" d="M176.94,170.95c-7.01-1.22-29.07-3.05-20.98-14.3c10.34-7.91,23.78-10.79,36-14.7
	c17.41-4.98,35.21-8.69,53.24-10.51c22.4-2.54,44.97-2.94,67.48-1.95c6.91,0.47,66.37,3.13,60.87,11.1
	c0.07,0.02,0.12,0.03,0.19,0.05c0.06-0.03,0.12-0.06,0.18-0.08c1.71-9.14-67.63-5.04-76.5-5.33c-40.46,1.67-81.18,5.39-120.12,17.07
	c-4.07,1.68-26.09,6.63-15.79,12.27c10.08,4.6,21.16,6.25,31.86,8.25C187.89,172.2,182.39,171.72,176.94,170.95z"/>
<path class="st0" d="M159.1,209.08c-6.15-0.61-18.78-2.85-15.79-11.41c3.23-4.19,8.64-6.14,13.12-8.73
	c9.73-4.95,20.09-8.54,30.45-11.92c15.58-4.62,31.62-7.39,47.7-9.59c31.16-4.31,62.8-4.05,94.1-1.44
	c12.75,1.66,26.67,1.49,38.69,5.44c-0.54,0.22-1.08-0.01-1.61-0.19c0.35,0.02,1,0.3,1.41,0.1c-28.94-3.7-58.63-1.5-87.74-0.04
	c-40.52,3.52-95.76,7.83-130.32,29.71c7.71,7.94,45.83,7.58,58.35,8.86C191.44,209.64,175.16,210.18,159.1,209.08z"/>
<path class="st0" d="M166.02,249.53c-16.8-10.47-21.07-15.21-0.41-25.17c23.67-11.18,49.43-17.13,75.32-20.32
	c27.41-3.62,55.13-3.4,82.66-1.43c2.04-0.03,25.71,1.79,20.08,2.7c0.22,0.05,0.7,0.05,0.95-0.14c0.01-0.03,0.02-0.07,0.03-0.1
	c-28.06-1.85-56.51,1.39-84.53,3.89c-28.22,3.23-56.54,6.97-83.61,15.91c-5.89,2.68-21.57,5.55-22.18,12.84
	C156.42,242.85,162.27,245.73,166.02,249.53z"/>
<path class="st0" d="M260.71,243.7c8.74-0.15,17.46-0.81,26.16-1.6C278.33,243.28,269.35,243.93,260.71,243.7z"/>
<path class="st0" d="M164.87,286.79c-6.9-1.33-14.28-2.06-20.29-5.97c-5.45-3.75-6.04-10.51-0.47-14.53
	c5.26-3.62,11.44-5.68,17.39-7.91c7.55-2.98,15.42-4.97,23.2-7.24c16.19-3.81,32.55-7.21,49.08-9.12
	c29.02-3.72,58.39-2.45,87.46,0.18c7.43,0.82,15.02,1.07,22.21,3.21c0.15,0.06,1.22,0.47,1.4,0.62c0.58,0.47,0.46,0.21,0.57,0.8
	c-0.44,0.41-1.24,0.2-1.77,0.04c0.43,0.03,1.25,0.33,1.68-0.05c-0.03-0.11-0.06-0.23-0.09-0.34c-1.97-1.38-4.63-1.45-6.92-1.85
	c-4.54-0.45-9.1-0.59-13.67-0.75c-9.94-0.22-19.67-0.09-29.57,0.11c-31.17,0.85-62.25,4.3-92.87,10.18
	c-10.36,1.8-20.57,4.2-30.77,6.76c-6.06,2.26-25.52,6.11-26.88,12.23c-0.55,1.79,0.31,3.58,1.3,4.79c4.15,4.17,10.25,5.41,15.69,7.1
	c4.6,1.24,9.19,2.52,13.81,3.7C171.93,288.14,168.35,287.41,164.87,286.79z"/>
<path class="st0" d="M156.95,317.42c-3.38-0.39-7.23-3.04-6.02-6.85c2.35-6.41,19.6-11.84,26.07-14.06
	c18.92-6.17,38.49-10.19,58.11-13.4c23.45-3.01,47.17-3.47,70.77-2.22c5.15,0.29,10.29,0.56,15.43,0.92
	c2.73,0.43,15.89,0.06,15.19,3.45c-0.01,0.23-0.33,0.53-0.48,0.68c0.04-0.13,0.38-0.46,0.44-0.7c0.62-3.79-17.18-2.33-20.1-2.65
	c-33.71,0.36-67.29,4.51-100.37,10.87c-14.17,2.79-28.39,5.55-42.19,9.28c-3.97,1.25-7.96,2.4-11.83,3.93
	c-2.66,1.18-5.76,2.24-7.68,4.48c-1.19,1.45-0.34,3.21,1.1,3.99c1.94,0.98,4.04,1.31,6.16,1.58c3.92,0.41,7.86,0.8,11.81,0.86
	C167.99,317.7,162.35,318.14,156.95,317.42z"/>
<path class="st0" d="M165.53,364.48c-4.89-2.3-10.23-3.85-14.73-6.87c-5.44-3.84-2.34-9.84,2.38-12.7
	c12.89-8.52,27.74-13.61,42.42-18.11c21.65-6.39,44.17-9.52,66.66-10.92c15.01-0.27,30.04-0.22,45,1.23
	c6.72,0.75,27.36,1.76,30.57,7.46c0.31,0.66,0.32,1.57,0.29,2.2c0.04-1.71-0.7-3.31-2.31-4.04c-11.53-4.76-24.46-3.5-36.66-3.96
	c-12.03,0.15-24.02,0.94-36.01,1.89c-28.65,3.66-57.45,8.01-84.89,17.31c-7.78,2.5-15.68,5.39-22.67,9.29
	c-2.87,1.49-6.4,4.44-4.67,7.96c1.73,2.42,4.38,3.62,6.89,5.02C160.33,361.71,163.02,363.14,165.53,364.48z"/>
<path class="st0" d="M167.99,391.33c-0.93-4.62-1.65-10.26,2.02-13.9c9.48-9.43,23.06-13.06,35.56-16.69
	c25.18-6.93,51.54-8.74,77.56-8.42c8.47,0.12,16.95,0.51,25.36,1.56c4.18,0.7,8.63,0.76,12.53,2.57c1.95,1.41-2.19,1.54-2.97,1.72
	c0.79-0.22,1.91-0.31,2.78-0.57c0,0-0.01,0-0.01,0c0.15-0.08,0.3-0.15,0.44-0.23c0.05-0.1,0.09-0.21,0.14-0.31
	c-0.53-0.8-1.63-0.93-2.49-1.16c-3.17-0.71-6.35-0.87-9.56-1.09c-4.98-0.41-9.98-0.17-14.97-0.23c-19.45,0.72-38.75,3.22-58.04,5.62
	c-17.91,2.99-36.39,6.08-53.39,12.38c-4.84,2.18-10.29,4.33-13.42,8.84C167.91,384.41,167.97,388.09,167.99,391.33z"/>
<path class="st0" d="M207.88,408.79c-4.09-6.2-7.78-11.6,1.13-15.59c8.18-3.75,17.41-5.43,26.15-7.11
	c25.1-3.66,50.61-2.4,75.76,0.16c1.15,0.15,5.94,0.71,5.33,2.15c-0.31,0.48-1.38,0.37-1.87,0.39c0.48-0.14,1.34,0.03,1.77-0.43
	c0.01-0.08,0.03-0.15,0.04-0.23c-0.75-1.1-2.4-1.07-3.58-1.27c-7.21-0.6-14.27-0.32-21.42-0.11c-15.6,0.57-31.22,1.59-46.75,3.17
	c-10.08,0.92-20.17,2.42-30.01,4.72C204.05,397.24,204.17,399.45,207.88,408.79z"/>
<path class="st0" d="M241.52,439.92c-4.87-9.76-2.97-14.25,7.6-17.13c16-4.66,32.93-6.06,49.55-6.05c3.68,0.24,7.69,0.41,11.04,2.03
	c-5.22-1.65-10.96-0.81-16.35-0.28c-14.51,2.46-29.12,4.42-43.5,7.61C240.34,427.98,239.9,431.07,241.52,439.92z"/>
<path class="st1" d="M151.85,145.42c-0.61-2.38,2.64-3.82,4.02-5.3c13.62-11.07,38.13-20.77,55.6-16.63
	c-7.53,0.74-14.37,4.58-21.62,6.56c-12.43,3.67-24.89,7.5-35.61,14.82c2.41,0.2,4.92,0,7.28,0.03
	C158.52,145.18,154.33,147.9,151.85,145.42z"/>
<path class="st1" d="M149.56,179.76c-4.53-1.1-7.97-2.46-2.17-5.9c8.22-5.22,17.44-8.7,26.74-11.47c8.02-2.5,16.35-3.75,24.64-4.97
	c3.55-0.65,7.32-0.8,10.61-2.23c0.01-0.03,0.02-0.06,0.03-0.09c-0.16-0.16-0.4-0.21-0.59-0.32c0.02-0.03,0.23,0.08,0.32,0.1
	c2.02,0.59-5.42,2.74-5.96,2.96c-14.73,4.76-29.8,8.48-44.38,13.71c-4.04,1.52-8.3,3-12.15,4.88
	C143.94,177.66,148.72,179.03,149.56,179.76z"/>
<path class="st1" d="M152.77,220.76c-3.5-0.35-12.46-1.31-8.58-6.63c1.51-1.58,3.52-2.55,5.41-3.61c5.93-3.04,12.02-5.71,18.18-8.22
	c12.51-4.85,25.55-9.14,38.94-10.53c1.17,0.03,2.53-0.17,3.58,0.44c0.27,0.26,0.06,0.37-0.22,0.38c-0.01,0-0.02-0.02,0-0.02
	c0.07-0.01,0.17-0.02,0.23-0.04c0,0,0,0,0,0c0.02-0.02,0.03-0.03,0.05-0.05c0-0.03,0.01-0.06,0.01-0.09
	c-0.11-0.16-0.33-0.2-0.48-0.27c-1.82-0.29-3.68,0.22-5.44,0.6c-6.95,1.88-13.57,4.81-20.22,7.51c-9.82,4.1-19.8,8-29.6,11.93
	c-1.5,0.88-11.77,3.76-7.43,5.85c3.26,1.47,6.88,2.35,10.28,3.28C155.89,221.16,154.33,220.97,152.77,220.76z"/>
<path class="st1" d="M137.35,255.42c-15.55-5.76,13.08-15.48,18.27-17.33c12.54-4.2,25.58-6.61,38.54-9.15
	c3.42-0.2,27.79-7.44,27.02-3.22c0.2-0.41-0.16-0.87-0.63-0.93c-10.57,1.17-20.34,6.78-30.78,9.03
	c-14.64,4.06-29.67,6.82-43.85,12.37c-3.63,1.57-15.62,5.85-5.6,7.83c4.5,0.91,9.07,1.56,13.63,2.09
	C148.5,256.06,142.79,256.31,137.35,255.42z"/>
<path class="st1" d="M147.36,299.08c-1.71-1.04-3.27-2.28-4.84-3.52c-1.82-1.46-3.88-2.99-4.51-5.35
	c-1.56-7.66,11.94-12.76,17.48-15.42c19.29-8.6,40.27-11.81,60.96-15.19c0-0.02-0.16,0.02-0.11-0.02c0.1,0,0.21-0.01,0.31-0.01
	c0.3-0.05,0.6-0.13,0.9-0.1c0.05,0.01,0.08,0.08,0.01,0.1c-7.39,1.81-14.73,4-22.02,6.22c-11.8,3.65-23.53,7.53-35.16,11.7
	c-4.95,2.28-19.75,6.5-19.95,12.57c0.1,0.91,0.42,1.74,0.93,2.41C143.17,294.87,145.21,297.11,147.36,299.08z"/>
<path class="st1" d="M145.28,339.91c-13.74-3.63-14.03-8.51-1.42-14.82c9.19-4.88,19.05-8.51,29.13-11.08
	c10.06-2.79,25.5-5.03,33.4-4.53c-18.92,1.23-37.05,7.99-54.39,15.27c-2.92,1.68-15.04,5.89-14.49,9.42
	c0.85,1.62,2.61,2.28,4.1,3.13c2.89,1.45,5.83,2.89,8.84,4.1C148.78,341.03,146.97,340.44,145.28,339.91z"/>
<path class="st1" d="M159.63,374.9c-4.63-1.48-9.68-2.5-13.74-5.27c-7.55-6.97,8.06-11.82,12.91-13.69
	c13.43-5.09,27.41-8.48,41.38-11.7c4.18-0.9,8.36-1.82,12.59-2.4c0.47-0.05,1.18-0.21,1.62,0.04c-0.02,0.1-0.2,0.12-0.04,0.03
	c0-0.01,0-0.02,0.01-0.03c-0.05-0.02-0.09-0.04-0.14-0.06c0,0,0,0,0.01,0c-9.97,1.63-19.45,5.58-29.03,8.72
	c-7.56,2.68-15.16,5.25-22.73,7.89c-3.14,1.49-16.65,4.64-15.23,8.98c0.53,0.79,0.99,1.25,1.69,1.75
	C152.37,371.32,156.07,373.17,159.63,374.9z"/>
<path class="st1" d="M192.52,393.53c-5.01-0.29-16.81-2-11.18-9.29c11.73-9.65,27.54-12.79,41.91-16.64
	c-0.16-0.08-0.5-0.08-0.59-0.2c0.26,0.09,0.8-0.03,0.82,0.27c-6.51,2.75-13.04,5.38-19.48,8.31c-6.72,3.44-14.82,5.56-20.24,10.96
	c-1.88,4.14,7.33,4.47,9.84,5.76C201.79,394.88,198.33,394.12,192.52,393.53z"/>
<path class="st1" d="M220.53,415.02c-4.1-1.1-16.37-4.36-7.05-8.41c13.78-4.85,28.49-8.18,43.06-8.76
	c-10.74,1.63-21.22,5.16-31.68,7.59c-4.15,1.54-9.62,1.5-12.91,4.54C214.06,412.42,217.8,413.44,220.53,415.02z"/>
<path class="st1" d="M261.8,450.96c-1.17-0.74-2.22-1.63-3.17-2.63c-0.99-0.82-1.95-1.98-1.6-3.36c1.78-4.52,15.54-5.7,20.09-6.14
	c-0.05,0.15-0.69,0.14-0.89,0.21c-3.24,0.78-6.42,1.77-9.54,2.94c-1.65,0.58-3.28,1.2-4.91,1.84c-1.04,0.56-2.4,0.82-2.77,1.93
	c-0.05,0.44,0.02,0.88,0.29,1.24C260.19,448.28,260.95,449.73,261.8,450.96z"/>
<path class="st0" d="M188.77,92.2c-3.68-0.27-12.85,1.31-14.73-2c-0.36-1.72,1.14-2.67,2.58-3.22
	c27.09-10.51,55.73-16.66,84.25-21.83c23.51-3.94,47.65-6,71.37-2.7c3.25,0.76,7.89,1.06,9.26,4.55
	c-3.37-5.48-22.95-2.17-29.22-2.13c-29.83,2.45-59.47,6.8-88.84,12.53c-7.74,1.52-14.82,3.23-22.35,4.88
	c-8.09,2.4-17.26,3.55-24.57,7.51c7.21,1.91,14.84,1.48,22.24,2.26C195.52,92.14,192.08,92.13,188.77,92.2z"/>
<path class="st1" d="M168.46,116.38c-8.7,0.22-26.1-4.73-10.72-12.8c10.47-5.86,22.13-9.09,33.86-11.26
	c4.71-0.63,9.61-2.56,14.35-1.52c-4.53,0.13-8.76,2.77-13.1,4.07c-8.79,3.25-17.87,5.65-26.56,9.18c-2.78,1.21-5.57,2.39-8.24,3.83
	c-8.57,4.62,13.44,8.33,16.4,8.88C172.52,116.73,170.43,116.51,168.46,116.38z"/>
<path class="st1" d="M201.28,68.37c-1.52-0.1-4.73,0.04-4.73-2.07c0.13-2.48,12.57-5.61,15.11-6.27c7.25-1.68,14.83-2.2,22.16-2.94
	c-3.87,0.9-7.77,1.64-11.67,2.35c-5.23,1.01-10.43,2.22-15.52,3.82c-2.68,1.08-6,1.52-8.26,3.27c0.25,0.17,0.68,0.3,0.88,0.36
	c5.09,0.85,10.3,0.67,15.37,1.03C210.18,68.1,205.73,68.37,201.28,68.37z"/>
</svg>
