<?xml version="1.0" encoding="utf-8"?>
<!-- Generator: Adobe Adobe Illustrator 24.2.0, SVG Export Plug-In . SVG Version: 6.00 Build 0)  -->
<svg version="1.1" xmlns="http://www.w3.org/2000/svg" xmlns:xlink="http://www.w3.org/1999/xlink" x="0px" y="0px"
	 viewBox="0 0 500 500" style="enable-background:new 0 0 500 500;" xml:space="preserve">
<style type="text/css">
	.st0{fill:#FFFFFF;}
	.st1{fill:#F20519;}
</style>
<g id="Vector_layer_11_">
</g>
<g id="Vector_layer_10_">
</g>
<g id="Vector_layer_9_">
	<path class="st0" d="M167.69,83.87c-7.19-0.35-18.4-4.87-15.11-13.84c4.39-7.31,17.22-8.97,24.86-11.78
		c21.32-6.04,43.83-5.43,65.79-5.7c23.01,0.28,45.72,5.05,68.33,8.96c7.1,1.48,14.08,3.53,21.16,5.14
		c6.11,0.99,11.15,4.39,16.07,7.8c0.02-0.01,0.04-0.04,0.05-0.04c0,0,0-0.01,0-0.01c0.09,0.45-2.94-1.14-3.29-1.34
		c-3.55-1.88-7.44-3.09-11.45-3.32c-22.25-2.24-44.57-0.97-66.88-0.98c-12.71-0.11-25.37,0.83-38.07,1.19
		c-19.09,0.36-38.34-0.1-57.06,4.29c15.03,2.45,30.39,3.73,45.38,6.14C200.83,80.7,184.32,84.44,167.69,83.87z"/>
	<path class="st0" d="M158.13,112.89c-2.71-0.39-5.35-1.28-7.54-2.96c-5.07-3.55-3.27-10.95,2-13.31c2.96-1.72,6.53-2.48,9.85-3.15
		c5.83-1.16,11.76-1.87,17.66-2.55c16.97-2.06,34.11-2.13,51.15-0.93c20.21,0.83,40.27,3.23,60.2,6.63
		c13.7,1.95,27.28,4.47,40.79,7.44c4.03,0.91,8.19,1.28,12.12,2.6c0.49,0.18,0.9,0.38,1.13,0.85c-0.1,0.12-0.22,0.06-0.38,0.03
		c-0.02,0-0.01-0.03,0-0.02c0.09,0.02,0.17,0.03,0.25,0.04c0.03-0.01,0.05-0.03,0.07-0.04c-0.36-0.68-1.3-0.75-1.95-0.99
		c-2.82-0.6-5.69-0.84-8.55-1.18c-5.42-0.63-10.83-1.26-16.25-1.89c-21.45-1.55-43-1.29-64.5-1.2c-17.46,0.76-34.92-0.09-52.38,0
		c-13.67,0.35-27.43,0.79-41.01,2.5c13.43,4.67,27.56,5.57,41.57,6.14C187.88,112.81,172.82,115.32,158.13,112.89z"/>
	<path class="st0" d="M169.24,148.86c-5.46-0.24-12.96-4.1-10.4-10.57c4.08-9.89,50.9-12.78,61.9-12.77
		c27.58,0.14,55.13,1.86,82.28,6.86c3.38,0.53,6.76,1.05,10.14,1.56c6.9,0.67,13.27,3.96,19.87,5.37c0.02-0.05,0.05-0.11,0.08-0.16
		c0-0.04-0.01-0.07-0.02-0.11c0,0,0,0,0,0c0.16,0.94-2.26-0.01-2.93-0.1c-5.44-1.69-11.08-2.89-16.74-3.34
		c-22.99-1.61-45.98-1.62-68.96,0.2c-22.89,0.89-45.85,1.21-68.45,5.41c13.85,2.91,28.03,3.58,42.14,4.2
		C202.04,147.24,185.58,150.44,169.24,148.86z"/>
	<path class="st0" d="M244.85,194.02c-15.88-1.4-31.79-2.35-47.71-3.17c-7.36-0.29-14.66-1.52-21.56-4.14
		c-2.76-1-5.7-2.46-7.74-4.62c-3.04-3.09-1.6-8.22,2.08-10.05c3.22-1.35,6.82-1.73,10.24-2.37c16.98-3.05,34.33-3.51,51.53-2.69
		c13.79,0.38,27.57,0.8,41.34,1.67c13.48,1.48,26.93,3.2,40.38,4.96c3.85,0.65,7.67,1.5,11.49,2.33c-7.05-1.39-14.38-2.35-21.6-2.93
		c-9.9-0.72-19.79-1.29-29.71-1.68c-17.58,0.3-35.1,1.97-52.65,2.91c-12.94,0.89-25.91,1.95-38.63,4.54
		c11.47,4.79,24.02,5.98,35.98,9.12C227.09,190.03,236.09,192.09,244.85,194.02z"/>
	<path class="st0" d="M157.16,221.1c-2.14-0.06-4.02-1.21-5.65-2.53c-1.9-1.49-0.42-3.94,1.05-5.14c4.76-2.53,10.31-3.36,15.49-4.78
		c13.06-3.17,26.38-5.16,39.72-6.55c16.2-1.09,32.41-0.58,48.63-0.12c8.55,0.2,17.1,0.34,25.63,1.02c9.2,0.6,18.2,2.74,27.26,4.23
		c-0.12-0.21-0.59-0.33-0.67-0.49c0.28,0.16,0.53,0.3,0.77,0.51c0.02,0.02,0.01,0.05-0.02,0.05c-5.23-0.46-10.54-1.58-15.77-1.96
		c-19.11-1.56-38.17,1.36-57.2,2.68c-26.46,2.1-52.93,4.71-79.12,9.05c5.81,1.99,12.01,2.63,17.94,3.69
		C169.22,221.07,163.17,221.72,157.16,221.1z"/>
	<path class="st0" d="M188.54,285.11c-8.16,0.27-50.34-2.31-37.23-16.96c13.82-5.9,29.22-7.61,43.96-10.14
		c41.36-5.18,83.05,0.64,124.04,6.44c3.2,0.52,6.31,1.32,9.42,2.25c0.69,0.21,0.39,1.26-0.3,1.07c-0.48-0.11-0.95-0.22-1.35-0.31
		c-20.78-2.85-41.98-1.21-62.9-0.99c-35,1.68-69.64,2.33-104.23,7.93C168.78,279.73,178.61,282.88,188.54,285.11z"/>
	<path class="st0" d="M165.5,299.79c2.59-0.77,5.21-1.43,7.86-2C170.71,298.36,168.09,299.02,165.5,299.79z"/>
	<path class="st0" d="M258.81,300.6c-26.97,0-53.94,0.9-80.63,3.94C204.87,301.5,231.84,300.6,258.81,300.6z"/>
	<path class="st0" d="M164.42,300.61c-1.15,1.13-1.76,2.76-1.38,4.38C162.66,303.37,163.27,301.73,164.42,300.61z"/>
	<path class="st0" d="M251.98,324.31c17.36,0.31,35.01,0.16,52.07,3.61C286.98,324.47,269.33,324.62,251.98,324.31z"/>
	<path class="st0" d="M293.29,365.19c0.06,0,0.12-0.03,0.19-0.05c-0.2-0.58-0.74-0.82-1.27-1.02c-1.75-0.54-3.53-1-5.29-1.39
		c-12.1-2.74-24.23-4.07-36.58-3.79c-21.75-0.04-43.53-0.75-65.21,1.47c2.65,0.4,5.44,0.74,8.03,1.17
		c-7.91,0.59-15.94,2.74-23.86,1.75c-2.88-0.45-5.49-4.62-2.3-6.5c1.36-0.72,2.72-1.04,3.82-1.24c17.48-3.32,35.36-5.2,53.13-3.38
		c11.2,1.17,22.38,2.57,33.57,3.88c10.86,1.42,21.58,3.9,32.06,7.04c1.02,0.32,2.3,0.59,3.23,1.16c0.57,0.34,0.48,0.33,0.7,0.89
		c-0.18,0.05-0.11,0.04-0.21,0.05C293.28,365.21,293.27,365.19,293.29,365.19z"/>
	<path class="st0" d="M226.3,399.42c-9-0.75-18.02-1.34-27.04-1.7c-9.56-0.45-19.66-0.11-28.53-4.2c-5.45-1.74-8.23-9.16-2.15-12.06
		c3.85-1,7.85-0.92,11.79-1.35c19.84-0.21,39.75,0.29,59.56,1.46c12.71,1.36,25.18,4.26,37.71,6.73c-14.06-0.1-28.6-1.64-42.61-1.14
		c-14.96,0.98-29.92,2.18-44.93,2.17c14.01,2.82,27.79,6.55,41.5,10.55c-1.71-0.09-3.6-0.34-5.37-0.47
		C226.24,399.42,226.3,399.42,226.3,399.42z"/>
	<path class="st0" d="M213.4,427.24c-5.92-0.14-40.6-1.82-29.96-12.87c14.29-4.62,30.11-1.66,44.89-0.96
		c16.12,0.65,32.32,1.82,48,5.5c-25.01-2.59-50.05,0.55-75.11,0.68c10.44,3.01,21.18,5.43,31.56,8.4
		C226.32,427.7,219.86,427.55,213.4,427.24z"/>
</g>
<g id="Vector_layer_8_">
</g>
<g id="Vector_layer_7_">
	<path class="st1" d="M190.63,315.4c-6.14-1.16-12.36-2.14-18.62-2.1c-5.7-0.11-12.46,0.73-17.08-3.23
		c-2.16-1.9-2.25-5.76-0.58-7.97c3.45-3.56,8.93-4.14,13.4-5.94c15.85-5.12,32.63-7.24,49.23-7.99c24.04-0.66,47.87,4.03,70.73,11.2
		c5.77,1.74,11.56,3.52,17.16,5.75c0.72,0.32,1.09,0.6,1.47,1.26c0.07,0.12-0.03,0.28-0.17,0.26c-0.45-0.07-0.86-0.16-1.29-0.3
		c0.16-0.06,0.71,0.05,0.95-0.01c-2.25-1.1-5.04-0.77-7.51-1.12c-21.26-1.19-42.55,0.75-63.77,1.92c-18.95,1.43-37.97,1-56.94,1.83
		c5.1,2.27,10.12,4.76,15.28,6.92c-0.7-0.09-1.54-0.34-2.29-0.47C190.61,315.39,190.63,315.4,190.63,315.4z"/>
	<path class="st1" d="M170.11,340.95c-2.82-0.52-5.92-1.36-8.12-3.29c-3.12-2.6-3.23-7.52-0.25-10.29
		c4.36-3.82,10.64-4.13,16.05-5.52c13.29-2.98,26.78-5.2,40.45-4.96c16.97,0.02,33.72,3.26,50.2,7.04
		c7.22,1.75,14.5,3.36,21.59,5.59c1.1,0.47,2.52,0.77,3.38,1.49c-0.13,0.02-0.26,0-0.39,0c0-0.07,0.24-0.01,0.32-0.03
		c-4.8-1.92-10.26-2.24-15.32-2.61c-12.75-0.79-25.54-0.2-38.27,0.82c-13.76,1.16-27.52,2.25-41.3,3.26
		c-8.03,0.79-16.06,1.65-24.13,2.08c7.28,3.29,15.46,4.24,23.16,5.67C188.26,340.06,179.24,342.27,170.11,340.95z"/>
</g>
<g id="Vector_layer_6_">
	<path class="st0" d="M154.54,243.46c-4.14-0.76-10.42-4.05-7.89-9.07c5.05-5.44,21.28-6.59,28.8-8.18
		c13.02-2.07,26.42-2.4,39.34,0.53c0.53,0.08,1.99,0.61,1.54,1.3c0.02-0.14-0.05-0.27-0.09-0.41c-20.11-1.62-39.96,5.71-59.56,9.58
		c10.46,3.18,21.63,4.11,32.53,4.08C178,243.5,165.98,245.45,154.54,243.46z"/>
	<path class="st0" d="M231.72,240.82c-2.11-0.13-4.48-0.51-6-2.13c-1.67-1.71-0.46-4.26,1.55-5c4.53-1.76,9.43-2.22,14.22-2.86
		c4.28-0.63,8.6-1.06,12.93-1.26c6.39-0.29,12.82,0.15,19.17,0.89c3.91,0.54,7.81,1,11.64,2.02c1.28,0.3,2.67,0.76,3.7,1.63
		c0.04,0.12-0.08,0.12-0.02,0.08c0-0.02,0-0.04-0.01-0.06c-1.57-1.09-3.64-1.12-5.47-1.44c-4.65-0.42-9.32-0.38-13.99-0.12
		c-12.79,0.66-25.38,3.43-38.1,4.83c3.49,1.37,7.27,2.01,10.79,2.92C238.66,240.61,235.18,241.03,231.72,240.82z"/>
</g>
</svg>
