<?xml version="1.0" encoding="utf-8"?>
<!-- Generator: Adobe Adobe Illustrator 24.2.0, SVG Export Plug-In . SVG Version: 6.00 Build 0)  -->
<svg version="1.1" id="Vector_layer_1_" xmlns="http://www.w3.org/2000/svg" xmlns:xlink="http://www.w3.org/1999/xlink" x="0px"
	 y="0px" viewBox="0 0 500 500" style="enable-background:new 0 0 500 500;" xml:space="preserve">
<style type="text/css">
	.st0{fill:#F20519;}
	.st1{fill:#F9A2FD;}
</style>
<path class="st0" d="M134.78,143.67c-5.4-0.53-10.84-1.06-16.09-2.48c-3.39-0.84-7.88-1.46-9.21-5.21c-0.69-1.81-0.38-4,1.36-5.09
	c6.09-3.96,13.46-5.12,20.36-6.99c12.35-3.22,24.89-5.61,37.38-8.2c56.22-10.02,113.2-16.16,170.33-16.99
	c17.7-0.49,35.39,0.24,53.08,0.01c0.41-0.01,0.7-0.08,1.03-0.05c-12.98,0.88-26.07,0.62-39.07,1.12
	c-33.72,1.02-67.29,4.01-100.84,7.45c-35.51,4.26-70.98,8.76-105.86,16.03c-6.23,1.11-12.35,2.75-18.52,4.15
	c-5.46,1.36-11.1,2.37-15.9,5.41c-0.53,0.34-0.75,1.01-0.65,1.61c0.08,1.14,0.67,2.28,1.66,2.82c11.55,4.99,24.5,5.15,36.8,6.94
	c9.56,1.13,19.13,2.23,28.71,3.2C164.59,146.21,149.63,144.88,134.78,143.67z"/>
<path class="st0" d="M172.44,174.29c-10.53-0.61-21.06-1.13-31.59-1.8c-3.07-0.15-6.38-0.49-9.3-1.17
	c-2.82-0.66-6.38-0.81-8.03-3.53c-1.11-2.56,0.07-5.65,2.6-6.86c6-3.12,12.64-4.6,19.18-6.15c6.96-1.64,13.91-3.39,20.89-4.91
	c15.22-3.11,30.39-6.47,45.82-8.37c15.99-2.6,32.08-4.12,48.24-5.13c21.81-1.64,43.72-0.9,65.54,0.23c18.96,1.37,37.91,3.01,56.69,6
	c1.09,0.17,2.21,0.31,3.21,0.53c-11.61-1.52-23.29-2.51-34.96-3.49c-26.71-1.73-53.82-2.15-80.49-0.88
	c-11.78,1.08-23.56,2.11-35.35,3.1c-20.8,2.82-41.6,5.69-62.16,9.97c-12.35,2.35-24.65,5.09-36.89,7.98c-2.39,0.7-4.7,1.6-7.02,2.48
	c-0.93,0.43-1.58,0.72-2.23,1.34c-0.53,0.42-0.65,1.11-0.77,1.62c-0.13,0.78-0.09,1.5,0.28,2.14c0.63,0.73,1.5,1.01,2.37,1.34
	c5.12,1.59,10.39,2.45,15.72,2.91C153.57,172.62,163.11,173.51,172.44,174.29z"/>
<path class="st0" d="M127.4,218.81c-5.83-0.02-11.63-0.5-17.43-1.09c-2.21-0.2-4.53-0.57-6.55-1.56c-2.17-0.84-3.27-2.92-4.4-4.82
	c-1.24-2.54,2.77-3.5,4.23-4.73c5.71-3.23,12.46-3.48,18.7-5.13c9.04-1.98,18.09-3.99,27.2-5.67c36.1-7.34,72.57-12.56,109.21-16.29
	c17.51-0.84,35.01-2.52,52.55-2.54c24.37-0.26,48.75,0.51,72.99,3.17c2.34,0.25,4.78,0.45,7.04,0.77
	c-15.57-1.1-31.15-1.54-46.75-1.71c-58.26,0.05-116.15,7.84-173.5,17.56c-15.14,2.83-30.31,5.58-45.38,8.78
	c-6.78,1.8-14.36,1.73-20.38,5.64c0.24,0.67,1.05,1.47,1.64,1.62c11.87,3.13,24.42,3.06,36.63,3.73
	c21.76,0.95,43.56,1.21,65.34,1.55c0.02,0,0.02,0.02,0,0.02C181.5,218.22,154.46,219.05,127.4,218.81z"/>
<path class="st0" d="M132.68,258.78c-4.83-0.33-10.69,1.13-14.53-2.53c-2.87-3.31-1.17-7.46,2.75-8.86
	c16.72-7.05,34.94-9.27,52.52-13.32c22.19-3.93,44.41-7.77,66.82-10.29c36.83-4.74,74.14-5.2,111.15-2.54
	c9.18,0.74,18.52,2.15,27.23,4.98c-9.36-2.22-18.85-3.08-28.4-3.22c-45.28-0.9-90.27,4.51-135.05,10.65
	c-19.73,3.21-38.59,5.81-57.84,9.61c-9.84,1.86-19.86,3.27-29.33,6.62c-1.79,0.95-6.05,0.91-5.79,3.4
	c3.08,3.76,25.36,2.2,31.29,2.59c13.55-0.08,27.09-0.24,40.64-0.56C173.74,256.23,153.18,258.54,132.68,258.78z"/>
<path class="st0" d="M119.86,295.08c-2.76-0.16-5.08-1.86-6.5-4.18c-4.29-6.7,25.18-10.98,29.57-12.28
	c31.29-6.83,62.87-12.23,94.59-16.67c38.94-4.79,78.17-7.07,117.4-6.7c3.32-0.08,7.72,0.33,10.32-0.26
	c-2.1,0.77-4.52,0.51-6.76,0.72c-39.38,1.95-78.46,7.27-117.48,12.72c-39.34,6.57-79.27,11.55-117.92,21.4
	c33.88-0.61,67.78-1.86,101.64-3.32C189.84,288.74,154.81,293.53,119.86,295.08z"/>
<path class="st0" d="M122.65,330.15c-4.66-0.23-11.42,0.33-12.8-5.4c-0.69-3.64,4.83-3.47,7.11-4.66
	c36.99-7.75,74.46-13.63,112.04-17.78c34.82-3.56,69.84-5.04,104.84-4.19c7.84,0.35,15.83,0.65,23.57,1.44
	c-7.83-0.25-15.65-0.01-23.34,0.07c-72.54,3.32-144.89,13.3-216.36,25.63c26.63,3.48,53.6,3.39,80.41,4.19
	C173.06,329.53,147.75,331.44,122.65,330.15z"/>
<path class="st0" d="M140.6,367.24c-0.12-6.54,10.92-5.13,15.32-7.11c14.23-2.86,28.51-5.53,42.85-7.77
	c43.14-6.76,86.85-10.82,130.54-9.28c6.17,0.47,12.48,0.82,18.56,1.52c-27.24-0.98-54.41,1.57-81.47,4.3
	c-40.05,4.79-80.07,9.95-119.81,16.86c15.66,0.32,31.45-1.22,47.02-2c-13.36,1.51-26.71,3.12-40.06,4.7
	C151.02,368.24,140.59,370.48,140.6,367.24z"/>
<path class="st0" d="M200.02,419.29c-15.89-0.35-32.14,1.01-47.8-1.98c-2.76-0.68-4.57-2.84-5.26-5.54
	c-0.69-4.86,18.23-7.51,22.15-8.41c49.56-10.41,100.04-17.21,150.73-17.31c8.51-0.13,17.02,0.29,25.51,0.75
	c-12.36,0.16-24.89,0.87-37.28,1.86c-27.49,2-54.75,6.2-82.05,9.91c-16.12,2.7-31.51,4.92-47.25,7.94
	c-8.68,1.92-17.85,2.17-26.06,5.8c1.33,2.9,16.11,3.15,19.86,3.89c18.74,1.33,37.51,2.28,56.27,3.17
	C219.34,419.36,209.61,419.29,200.02,419.29z"/>
<path class="st0" d="M173.56,100.48c-4.5-0.3-8.98-0.78-13.47-1.26c-4.96-0.18-10.83-0.71-13.27-5.72
	c-4.94-9.89,81.31-21.81,90.79-22.89c36.39-4.1,73.07-4.57,109.62-3.45c-31.54,0.98-72.74,4.77-107.42,8.9
	c-18.69,2.46-37.33,5.16-55.86,8.66c-5.92,1.11-11.77,2.58-17.67,3.76c-4.88,1.14-10.21,1.46-14.34,4.57
	c2.43,3.75,8.14,2.67,11.98,3.91c13.01,2.24,26.05,4.28,39.12,6.19c-9.76-0.86-19.71-1.89-29.54-2.67
	C173.5,100.47,173.56,100.48,173.56,100.48z"/>
<path class="st0" d="M242.38,447.02c-6.12-0.48-12.59,0.42-18.48-1.47c-1.2-0.63-4.71-3.39-3.01-4.61c2.11-1.37,4.09-2.89,6.43-3.86
	c27.08-8.47,55.31-13.04,83.38-16.88c13.45-1.53,27.1-2.49,40.5-3.87c-26.72,3.83-53.4,7.45-79.75,13.26
	c-8.17,1.59-16.3,3.36-24.41,5.22c-7.86,2.01-16.37,2.61-23.15,7.35c3.24,3.91,9.37,2.25,13.86,3.44c6.24,0.6,12.47,1.27,18.71,1.86
	C251.87,447.34,247.06,447.14,242.38,447.02z"/>
<path class="st1" d="M102.16,124.01c-1.64-0.22-3.48-0.3-4.87-1.32c-1.65-1.17-2.01-3.88-0.46-5.29c2.79-2.16,6.39-3.14,9.68-4.29
	c19.32-6.53,38.97-11.98,59.03-15.7c25.11-4.42,50.56-6.37,76.04-6.69c2.54-0.04,5.17-0.24,7.66-0.19
	c-8.57,0.75-17.13,1.38-25.68,2.32c-27.96,2.94-55.71,8.09-83.05,14.59c-10.22,2.64-19.74,5.2-29.7,8.11
	c-14.37,3.71-15.87,5.91,0.28,7.16c6.35,0.43,12.86,0.74,19.16,1.05c-5.51,0.12-11.02,0.28-16.53,0.45
	C109.87,124.33,105.99,124.52,102.16,124.01z"/>
<path class="st1" d="M105.73,157.75c-15.45-6.94,44.86-23.34,49.5-24.17c25.83-6.29,52.52-9.72,79.11-9.4
	c4.32,0.1,8.77,0.2,12.98,0.88c-2.13-0.15-4.26-0.13-6.39-0.18c-25.55,0.66-50.67,5.7-75.61,10.9
	c-19.85,5.07-40.62,9.18-58.78,18.91c0,0,0,0,0,0c0.71,2.2,4.35,0.78,6.17,1.27c6.74,0.12,13.48,0.08,20.22-0.06
	C123.97,156.31,114.72,158.3,105.73,157.75z"/>
<path class="st1" d="M108.47,194.01c-17.92-10.65,67.5-26.39,74.09-27.61c21.88-3.54,44.13-5.08,66.3-4.65
	c3.04,0.17,6.22,0.38,9.17,0.77c-2.85-0.16-5.71-0.12-8.56-0.16c-28.3,1.09-56.29,5.72-83.94,11.64
	c-13.43,2.84-26.99,6.13-39.99,9.65c-5.74,1.86-12.14,2.71-16.64,7.09c1.15,3.21,5.35,2.1,7.93,2.66
	c5.56,0.42,11.14,0.75,16.71,0.79C125.36,193.99,116.51,195.76,108.47,194.01z"/>
<path class="st1" d="M115.31,229.57c-14.94-3.78,3.65-9.39,9.03-11.27c16.35-6.15,33.24-10.75,50.31-14.39
	c24.72-4.96,49.9-8.47,75.17-8.01c2.51,0.09,5.28,0.16,7.62,0.88c-3.36-0.61-6.89-0.43-10.25-0.34
	c-43.96,3.38-87.13,15.03-128.73,29.27c17.76,0.42,35.62-0.88,53.27-1.82C152.92,225.42,134.19,229.42,115.31,229.57z"/>
<path class="st1" d="M145.44,272.35c-6.03-0.43-12.32-0.11-17.97-2.49c-0.7-0.21-1.59-0.89-1.34-1.75c0.49-1.86,0.86-3.88,2.55-5.06
	c3.83-2.78,9.09-4.27,13.44-6.23c8.41-3.1,16.97-5.79,25.54-8.41c21.45-5.64,43.29-9.52,65.36-11.77c5.43-0.6,10.91-1.08,16.38-0.77
	c1.15,0.1,2.37,0.33,3.16,1.23c0.03,0.02,0.02,0.06-0.01,0.08c-0.45,0.34-0.72,0.47-1.26,0.69c0.26-0.2,0.86-0.39,1.12-0.73
	c-3.94-3.05-24.55,2.54-30.3,3.45c-9.42,1.84-18.68,4.43-28.07,6.43c-14.73,3.47-29.34,7.32-43.79,11.82
	c-4.43,1.33-8.83,2.8-13.13,4.51c-2.39,1.07-5.98,1.39-6.72,4.33c3.73,2.13,8.01,2.5,12.16,3.2c4.52,0.83,9.07,1.58,13.63,2.17
	C152.69,272.86,149,272.57,145.44,272.35z"/>
<path class="st1" d="M114.63,311.9c-0.67-0.2-1.43-0.55-1.94-1.04c-0.88-0.89-0.92-1.8-1.18-2.74c-1.51-3.14,14.06-7.28,16.5-8.07
	c13.18-4.16,26.58-7.61,40-10.89c25.22-5.3,50.78-8.88,76.51-10.47c5.13-0.26,10.39-0.7,15.45-0.55c-3.03,0.12-6.09,0.28-9.11,0.66
	c-26.37,2.58-52.36,7.84-78.17,13.73c-14.3,3.35-28.59,7.25-42.68,11.36c-4.6,1.35-9.24,2.43-13.5,4.68
	c15.65,1.72,31.7-0.56,47.34-1.1c-9.34,1.05-18.68,2.19-28.01,3.39C128.85,311.57,121.63,312.99,114.63,311.9z"/>
<path class="st1" d="M114.08,358.45c-1.14-0.33-2.07-1.42-1.9-2.66c0.85-3.42,5.44-3.26,8.08-4.61c8.07-3.35,16.18-6.62,24.31-9.81
	c30.06-10.62,61.8-17.44,93.7-18.68c4.81-0.04,9.7,0.26,14.39,0.99c-3.15-0.2-6.32-0.28-9.43-0.19c-19.07,0.85-37.53,5.7-56.03,9.96
	c-24.34,5.76-48.36,14.45-71.67,22.73c9.63,0.22,19.43-0.22,29.02-0.42C134.41,356.35,124.17,358.7,114.08,358.45z"/>
<path class="st1" d="M150.92,389.86c-15.75-4.79,24.99-10.59,28.14-11.99c17.8-3.55,75.85-15.31,89.64-7.21
	c-11.46-4.83-40.2,2.85-53.33,4.74c-20.99,4.12-42.27,7.29-63.07,12.19c9.66,1.02,19.64,0.36,29.3,0.6
	C171.4,388.42,161.07,390.52,150.92,389.86z"/>
<path class="st1" d="M207.59,423.59c11.8-7.94,61.67-14.49,75.3-9.96c-14.35-2.23-29.32,2.53-43.77,3.75
	C228.78,419.7,217.25,419.44,207.59,423.59z"/>
<path class="st1" d="M182.25,69.42c35.14-9.21,71.37-18.59,107.85-18.17C253.73,53.88,218.13,63.58,182.25,69.42z"/>
</svg>
