<?xml version="1.0" encoding="utf-8"?>
<!-- Generator: Adobe Adobe Illustrator 24.2.0, SVG Export Plug-In . SVG Version: 6.00 Build 0)  -->
<svg version="1.1" id="Vector_layer_1_" xmlns="http://www.w3.org/2000/svg" xmlns:xlink="http://www.w3.org/1999/xlink" x="0px"
	 y="0px" viewBox="0 0 500 500" style="enable-background:new 0 0 500 500;" xml:space="preserve">
<style type="text/css">
	.st0{fill:#00FFFF;}
	.st1{fill:#F007BE;}
</style>
<path class="st0" d="M196.91,152.72c-10.52-1.59-24.15-2.41-32.33-9.79c-3.95-4.33-3.19-8.93,1.88-11.91
	c8.5-4.09,17.99-5.81,27.22-7.48c13.9-2.57,28.03-3.52,42.13-4.34c20.93-1.15,41.89-0.19,62.75,1.66
	c17.08,1.79,34.22,3.91,50.82,8.49c2.45,0.63,4.92,1.6,7.32,2.11c-0.53,0.1-1.16-0.22-1.69-0.35c-24.18-6.69-49.55-6.53-74.44-6.66
	c-27.73,0.72-55.55,1.93-83.06,5.64c-7.3,0.96-14.55,2.34-21.68,4.2c-2.54,0.93-8.84,2.01-6.18,5.74c-0.05-0.07-0.11-0.15-0.16-0.22
	c-0.03-0.05-0.06-0.11-0.08-0.12c6.95,7.37,24.74,9.44,34.59,11.79c9.84,1.92,19.69,3.81,29.55,5.63
	C221.42,155.66,209.08,154.24,196.91,152.72z"/>
<path class="st0" d="M178.31,178.7c-1.53-1.15-2.89-2.48-4.23-3.83c-1.65-1.4-3.83-3.71-2.27-5.93c4.52-5.82,23.06-9.39,30.61-11.17
	c28.81-6.07,58.49-7.5,87.86-6.26c18.3,0.7,36.52,2.68,54.66,5.1c-12.59-1.18-25.37-2.32-38.09-2.39
	c-32.92-0.45-65.88,2.09-98.49,6.51c-11.17,2.17-23.01,3.03-33.44,7.83c-1.84,0.9-2.79,2.62-1.38,4.38
	C175.05,174.89,176.61,176.99,178.31,178.7z"/>
<path class="st0" d="M203.81,205.36c-9.33-1.48-20.92-2.11-27.17-10.09c-1.69-2.99-0.04-6.61,2.97-7.95
	c18.25-6.93,38.25-7.57,57.54-8.94c26.52-0.97,53.12,1.1,79.23,5.82c4.51,1.03,20.48,3.42,20.27,6.22
	c-0.05-0.16-0.09-0.31-0.14-0.47c-7.74-3.43-16.81-2.88-25.12-4c-17.81-1.17-35.64-1.06-53.47-0.69
	c-17.63,0.79-35.26,1.47-52.8,3.55c-7.13,1.33-14.87,1.35-21.48,4.5c8.58,8.96,31.85,11.24,44.2,14.74
	C219.91,207.16,211.81,206.25,203.81,205.36z"/>
<path class="st0" d="M195.87,238.18c-5.82-0.85-12.36-2.07-16.48-6.64c-3.65-3.95-3.07-10.2,1.43-13.21
	c4.55-3.25,10.38-4.09,15.75-5.16c8.74-1.52,17.55-2.69,26.39-3.43c31.44-3.05,75.94,0.67,99.95,6.5
	c-29.5-2.63-59.31-0.51-88.81,1.38c-10.51,0.82-21.06,1.49-31.51,2.86c-5.63,0.93-12.12,0.71-16.9,4.13
	c-1.03,1.1-1.26,2.78-0.46,4.08c-0.05-0.1-0.1-0.19-0.16-0.29c-0.03-0.1-0.07-0.2-0.11-0.29c0.15,0.52,0.9,1.58,1.18,1.77
	c8.15,6.46,19.36,7.36,29.06,10.36C208.84,239.57,202.27,239.02,195.87,238.18z"/>
<path class="st0" d="M203.45,275.86c-5.69-0.84-11.38-2.12-16.55-4.69c-7.48-3.29-13.34-12.71-4.37-18.18
	c9.44-5.08,20.44-6.41,30.88-8.21c31.35-4.1,63.22-1.26,94.27,3.92c9.71,2.05,20.57,2.78,29.37,7.21c-0.47-0.35-1.07-0.58-1.62-0.77
	c-32.25-6.08-65.43-6.14-98.15-5.33c-9.53,0.47-19.01,1.26-28.44,2.71c-5.42,1.46-30.97,3.05-22.09,12.53
	c9.85,8.67,23.94,9.9,36.07,13.74C216.44,277.84,209.89,276.79,203.45,275.86z"/>
<path class="st0" d="M207.16,316.61c-9.54-5.33-34.13-17.39-18.16-29.25c15.3-7.18,33.22-6.31,49.78-6.99
	c22,0.71,43.81,3.93,65.44,7.86c3.06,0.78,17.05,2.72,16.59,4.8c0.03-0.04,0.06-0.08,0.09-0.13c-8.69-3.54-19.24-2.35-28.61-3.43
	c-12.57-0.73-25.16-1.07-37.74-1.27c-9.45,0.56-65.15-2.54-64.47,8.77C191.58,305.91,201.19,310.77,207.16,316.61z"/>
<path class="st0" d="M214.43,357.7c-8.38-5.74-31.01-11.78-25.66-25.18c9.03-13.73,67.7-9.71,83.74-7.52
	c16.67,2.19,33.46,4.42,49.6,9.27c-4.83-0.96-9.84-1.71-14.78-2.4c-34.08-3.45-68.65-5.2-102.75-1.28
	C177.26,334.35,204.99,350.82,214.43,357.7z"/>
<path class="st0" d="M207.31,388.4c-18.16-16.84-7.35-20.39,11.77-21.43c24.48-1.64,48.92,1.74,72.73,7.31c6.1,1.5,12.3,3,17.9,5.76
	c-10.66-3.49-22.02-3.96-33.1-5.24c-17.35-1.39-34.72-2.59-52.12-2.72c-5.76,0.5-21.13-2.17-23.33,3.8
	C201.69,380.54,205.36,384.34,207.31,388.4z"/>
<path class="st0" d="M247.16,442.32c-3.33-1.91-6.64-3.85-9.96-5.77c-4.8-2.99-10.52-5.61-13.1-10.96
	c-1.95-4.79,2.55-8.05,6.89-8.47c27.26-2.14,54.55,2.64,81.5,6.27c-12.65-1.39-25.41-2.75-38.17-3.13
	c-10.48-0.45-20.96-0.34-31.44-0.02c-3.11,0.39-13.06-0.2-14.17,2.88c-1.34,4.19,8.88,10.78,11.75,13.51
	C242.66,438.51,245.03,440.43,247.16,442.32z"/>
<path class="st0" d="M247.11,464.15c1.44-4.48,4.26-8.99,9.36-9.47c12.52-2.13,25.54-0.24,37.53,3.71
	c-4.29,0.18-8.72,0.44-13.06,0.38c-8.65,0.76-17.65-1.03-26.12-0.38C251.51,459.08,249.37,461.99,247.11,464.15z"/>
<path class="st0" d="M222.62,104.68c-11.56-5.13-42.03-15.77-9.94-18.62c26.02-2.96,52.37-1.65,78.19,2.47
	c14.03,2.51,28.08,5.43,41.8,9.14c-6.49-1.13-13-2.15-19.5-3.25c-31.08-4.88-62.58-7.34-94.04-5.94
	C185.18,89.22,207.84,95.66,222.62,104.68z"/>
<path class="st0" d="M342.2,74.63c-26.44-11.81-56.22-14.16-84.77-16.26c-1.87,0.05-3.74,0.45-5.3,1.37
	c1.7-1.38,3.79-1.97,5.93-2.19C286.63,56.6,317.41,59.4,342.2,74.63z"/>
<path class="st1" d="M189.23,119.28c-3.8-1.71-7.5-3.65-11.17-5.64c-1.82-1.03-3.6-2.2-4.65-4.06
	c-5.16-10.42,38.68-11.25,44.86-11.3c7.31-0.12,14.63,0.19,21.94,0.45c7.58,0.27,15.17,0.82,22.74,0.66
	c1.18-0.12,2.62-0.02,3.38-0.92c-1.01,1.31-3.28,1.03-4.8,1.29c-4.19,0.27-8.38,0.46-12.58,0.57c-9.98,0.27-20.46,0.66-30.33,1.18
	c-13.21,0.76-26.28,1.14-39.05,4.33c-4.11,0.92-4.15,3.16-1.07,5.64C181.93,114.24,185.64,116.88,189.23,119.28z"/>
<path class="st1" d="M189.5,155.66c-4.78-1.33-14.45-4.34-10.41-10.88c8.65-7.46,24.48-7.81,35.5-10.16
	c15.9-1.58,32.51-2.25,48.02,2.2c-12.46-1.34-25.18,0.26-37.59,1.91c-9.1,1.35-18.15,2.96-27.23,4.43
	c-3.22,1.19-18.35,1.34-14.31,6.99c3.38,3.05,7.56,5.03,11.57,7.08c-1.84-0.35-3.8-1.03-5.64-1.6
	C189.4,155.63,189.5,155.66,189.5,155.66z"/>
<path class="st1" d="M171.44,187.65c-6.87-9.32,6.11-10.61,12.37-12.85c22.22-5.85,45.31-8.23,68.26-7.92
	c4.99,0.04,25.47,1.44,10.51,1.48c-19.87,0.99-39.53,4.34-59.25,6.75c-9.74,1.21-19.61,2.47-29.11,4.88
	C169.94,180.49,170.33,184.6,171.44,187.65z"/>
<path class="st1" d="M169.44,215.44c-1.18-9.98,6.71-10.9,14.28-13.17c24.09-6.12,49.68-5.94,74.03-1.44
	c0.62,0.12,1.28,0.26,1.88,0.24c-3.2,0.21-6.43-0.49-9.66-0.44c-18.46-0.44-36.92,0.88-55.26,2.89c-7.3,1.27-14.97,1.73-21.85,4.63
	C170.59,209.84,170.23,212.98,169.44,215.44z"/>
<path class="st1" d="M184.6,253.2c-24.32-11.57-6.32-14.48,8.9-17.3c22.44-3.71,45.25-3.28,67.89-3.78c0,0,0,0,0,0
	c0.07-0.04,0.14-0.08,0.21-0.12c0-0.02,0-0.05,0-0.07c-0.03-0.01-0.05-0.06-0.01-0.04c0.05,0.05,0.04,0.03,0.05,0.12
	c-0.4,0.28-0.77,0.26-1.29,0.35c-5.28,0.32-10.58,0.58-15.87,1.04c-16.82,1.22-33.51,3.66-50.2,6.01
	c-5.52,1.01-10.62,1.79-15.95,3.16c-2.98,0.75-2.76,2.05-0.83,4C179.7,248.92,182.17,251.25,184.6,253.2z"/>
<path class="st1" d="M200.08,283.18c-8.3-1.26-23.35,0.59-27.43-8.35c-0.61-2.05,0.87-3.88,2.49-4.97
	c8.44-3.76,18.14-4.04,27.22-5.25c19.74-1.57,39.71-1.24,59.43-0.59c-27.25,3.32-54.89,4.77-81.8,10.26
	c0.22,0.35,1.11,1.07,1.31,1.14c5.08,3.94,39.59,9.98,18.64,7.75C199.93,283.17,200.08,283.18,200.08,283.18z"/>
<path class="st1" d="M190.27,326.34c-6.82-0.68-26.23-3.58-17.88-13.86c4.85-3.31,11.22-3.5,16.85-4.65
	c13.21-2.16,26.58-3.55,39.97-3.72c13-0.37,26.16-0.1,39.08,0.51c-30.12,3.51-60.88,5.3-90.43,12.02c-0.03,0.07-0.06,0.14-0.09,0.21
	c0.02-0.07,0.04-0.13,0.06-0.2c0,0-0.01,0-0.01,0.01c-0.04,0.14-0.08,0.28-0.1,0.43c0,0,0,0.02,0,0.02c2.77,2.6,6.48,3.43,9.93,4.65
	c8.26,2.56,16.72,4.6,25.09,6.73C205.31,327.84,197.72,327.16,190.27,326.34z"/>
<path class="st1" d="M212.51,366.74c-6.6-1.39-29.9-3.83-23.01-14.56c6.45-5.09,29.7-4.06,38.71-4.44
	c14.41,0.56,29.1,1.72,42.91,5.87c-25.01-2.68-50.5-1.19-75.35,2.29c10.77,7.13,24.17,9.36,36.18,13.89
	C225.52,368.85,218.97,367.77,212.51,366.74z"/>
<path class="st1" d="M229.68,410.39c-7.68-1.97-26.83-3.2-28.08-12.8c0.03-2.36,1.94-3.64,3.84-4.59
	c8.52-3.02,17.86-3.26,26.82-3.82c15.51-0.47,31.29-0.26,46.49,2.81c-23.12,0.17-46.57,1.92-69.27,6.28
	c0.03,0.04,0.05,0.08,0.08,0.12c-0.03-0.04-0.07-0.07-0.1-0.11c0,0-0.01,0-0.01,0c9.1,6.64,20.38,9.56,30.64,13.98
	C236.68,411.72,233.14,411,229.68,410.39z"/>
<path class="st1" d="M239.38,441.28c-3.46-1.14-7.98-1.46-10.25-4.61c-1.56-3.4,2.14-5.79,5.1-6.21
	c11.64-2.47,24.16-2.48,35.78,0.07c1.1,0.39,2.38,0.85,3.01,1.91c-0.19-0.09-0.47-0.32-0.69-0.43c-7.03-1.73-14.52,0.71-21.67,1.03
	c-5.38,0.62-11.1,1.05-16.33,2.32c4.26,2.95,9.11,5.19,13.44,7.92C244.94,442.69,242.16,442.02,239.38,441.28z"/>
<path class="st1" d="M220.12,72.88c-6.47-4.79-11.71-9.85,0.61-9.96c17.56-0.5,35.09,1.84,52.34,4.92
	c4.38,0.83,8.75,1.73,13.09,2.77c-1.62-0.07-3.38-0.26-4.99-0.37c-21.98-0.92-43.97-4.92-65.89-4.8
	C215.32,68.24,218.66,70.61,220.12,72.88z"/>
</svg>
