<?xml version="1.0" encoding="utf-8"?>
<!-- Generator: Adobe Adobe Illustrator 24.2.0, SVG Export Plug-In . SVG Version: 6.00 Build 0)  -->
<svg version="1.1" id="Vector_layer_1_" xmlns="http://www.w3.org/2000/svg" xmlns:xlink="http://www.w3.org/1999/xlink" x="0px"
	 y="0px" viewBox="0 0 500 500" style="enable-background:new 0 0 500 500;" xml:space="preserve">
<style type="text/css">
	.st0{fill:#CECECE;}
</style>
<path class="st0" d="M260,449.22c-9.95-0.98-20.4-1.29-29.81-4.75c21.84,0.97,43.74-1.81,65.64-0.81
	c8.15,0.06,16.32,0.48,24.46,0.17c9.53-0.23,6.45-4.92,3.54-11.01c1.75,2.24,3.43,4.8,4.73,7.38c1.99,8.36-19.13,7.45-24.46,8.4
	C289.43,449.71,274.69,450.27,260,449.22z"/>
<path class="st0" d="M304.52,420.28c-15.61-0.66-31.14-2.48-46.63-4.45c-8.01-0.91-16.34-2.13-24.25-2.12c0,0,0,0,0,0
	c22.65-1.18,45.41,0.53,68,2.4c10.26,0.49,20.51,1.72,30.79,1.3c4.8-0.33,9.54-1.16,14.3-1.85c-2.8,0.94-5.86,1.74-8.76,2.6
	C327.1,421.12,315.67,420.43,304.52,420.28z"/>
<path class="st0" d="M324.45,388.99c-19.97,0.05-39.97-1.6-59.61-5.23c-6.89-1.48-13.95-2.38-20.67-4.52l-1.07-0.8
	c0,0.03-0.01,0.06-0.01,0.09c19.38,4.01,39.88,3.38,59.64,5.82c8,0.84,16.31,1.43,24.24,2.15c6.71,0.78,13.91,1.2,17.63-5.53
	C341.72,389.53,332.01,389.09,324.45,388.99z"/>
<path class="st0" d="M332.95,365.17c-14.16-0.45-28.22-2.22-42.11-5c-9.89-2.04-19.69-4.51-28.86-8.82
	c2.28,0.04,4.93,0.53,7.35,0.71c7.3,0.68,14.5,2.34,21.68,3.65c14.16,2.43,28.35,4.62,42.63,6.11c7.1,0.37,14.2,1.2,21.32,0.94
	c4.29-0.05,8.17-1.66,11.77-3.86c-5.3,4.61-11.39,5.69-18.28,5.94C343.29,365.06,338.11,365.19,332.95,365.17z"/>
<path class="st0" d="M371.37,338c-25.54-0.52-51.32-0.46-76.56-4.76c-4.65-0.79-9.26-1.73-13.81-2.98
	c-2.38-0.77-5.01-1.31-7.03-2.82c-0.54-0.56-0.49-0.86,0.23-1.29c-0.04,0.17-0.41,0.36-0.47,0.6c0.29,0.74,1.22,1.02,1.9,1.22
	c3.34,0.94,6.81,1.28,10.27,1.52c9.7,0.46,19.41,0.44,29.12,0.85c26.47,0.81,52.92,2.26,79.35,3.87c3.12,0.26,6.26,0.2,9.37,0.51
	c0.32,0.01,0.64,0.01,0.73,0c0.3-0.05,0.67-0.02,0.76-0.37c-5.92-4.11-13.18-6.13-19.76-8.77c7.44,2.3,15.38,3.57,22.18,7.5
	c0.45,0.23,0.93,0.79,0.75,1.34c-0.21,1.07-0.67,2.2-1.8,2.6c-1.75,0.67-3.58,0.44-5.15,0.53c-3.5,0.26-7,0.28-10.51,0.34
	C384.42,338.01,377.9,338.08,371.37,338z"/>
<path class="st0" d="M393.73,312.44c-27.64-0.49-55.31-3.33-82.39-8.91c-8.41-2.04-17.11-3.46-25.16-6.68
	c-0.81-0.31-2.13-1.29-1.26-2.15c0.01,0.19-0.22,0.48-0.13,0.75c3.68,2.68,9.12,1.98,13.5,2.86c6.12,0.65,12.25,1.2,18.37,1.84
	c13.94,1.49,27.8,3.56,41.7,5.36c8.69,1.23,17.4,2.35,26.09,3.54c5.57,0.63,11.14,1.42,16.59,1.85c3.89,0.31,9.44,0.82,9.1-4.59
	C411.65,314.58,398.81,311.95,393.73,312.44z"/>
<path class="st0" d="M396.32,283.73c-26.41-1.01-52.76-4.03-78.69-9.19c-9.84-2.04-19.68-4.17-29.39-6.78
	c-4.01-1.36-8.88-1.72-12.11-4.59c4.3,2.86,10.11,2.78,15.07,4c36.89,5.25,73.95,9.48,111.01,13.34c7.81,0.41,15.31,1.31,23.04,1.25
	c6.03,0.02,9.88-1.6,8.47-8.35c3.37,9.48-5.39,9.79-12.34,10.29C413.04,283.97,404.66,284.18,396.32,283.73z"/>
<path class="st0" d="M372.55,243.8c-31.47,0.01-66.04-2.05-95.84-5.57c29.4-0.17,58.97-1.41,88.42,0.37
	c20.03,0.44,74.42,4.92,20.84-13.17c5.23,1.34,10.61,2.79,15.82,4.35c4.11,1.36,13.61,3.84,9.24,9.67
	C401.83,245.16,383.57,243.03,372.55,243.8z"/>
<path class="st0" d="M295.16,208.53c-7.52-0.37-15.27,0.09-22.66-1.41c-0.61-0.23-0.41-0.98,0.23-0.91
	c10.87,0.23,21.74-1.74,32.59-2.48c36.39-3.38,73.01-3.79,109.5-5.04c2.22-0.27,4.78-0.04,6.64-1.33c-3.7,2.52-8.75,2.1-13.04,2.92
	c-7.04,0.88-14.06,1.77-21.12,2.5C356.69,205.81,325.97,209.17,295.16,208.53z"/>
<path class="st0" d="M276.32,178.28c-0.96-0.01-2.43-0.05-3.1-0.82c0.8,0.59,2.05,0.51,3.03,0.46c8.1-0.84,16.12-2.37,24.19-3.45
	c16.73-2.16,33.52-3.91,50.36-4.86c11.09-0.78,22.19-1.33,33.27-2.18c4.15-0.39,8.53-0.92,12.58-1.73c1.77-0.32,2.83-1.6,3.46-3.18
	c-7.37-7.57-18.23-10.49-27.54-14.84c10.85,3.35,22.86,5.75,31.43,13.61c1.76,1.56-1.23,6.07-2.84,7.01
	c-13.95,5.52-29.64,4.97-44.41,6.69C330,176.61,303.08,177.04,276.32,178.28z"/>
<path class="st0" d="M230.09,150.37c21.83-5.49,43.73-10.73,65.88-14.79c9.55-2,19.09-2.65,28.05-6.45
	c6.19-3.93-6.16-8.48-8.88-10.38c28.68,9.72,2.44,16.21-11.77,18.89C279.12,142.68,254.57,146.87,230.09,150.37z"/>
<path class="st0" d="M223.41,126.56c5.96-2.25,13.2-2.84,18.12-7.03c4.64-7.5-23.56-8.26-28.06-9.17
	c-9.61-0.93-19.18-2.2-28.73-3.66c10-0.45,20.27-0.39,30.25,0.25c9.28,0.84,19.21,1.13,27.22,6.34c2.82,1.63,4.23,4.92,1.66,7.46
	C238.4,125.43,230.15,125.23,223.41,126.56z"/>
</svg>
