<?xml version="1.0" encoding="utf-8"?>
<!-- Generator: Adobe Adobe Illustrator 24.2.0, SVG Export Plug-In . SVG Version: 6.00 Build 0)  -->
<svg version="1.1" xmlns="http://www.w3.org/2000/svg" xmlns:xlink="http://www.w3.org/1999/xlink" x="0px" y="0px"
	 viewBox="0 0 500 500" style="enable-background:new 0 0 500 500;" xml:space="preserve">
<style type="text/css">
	.st0{fill:#FFFFFF;}
	.st1{fill:#CECECE;}
</style>
<g id="Vector_layer_3_">
	<path class="st0" d="M122.32,158.14c33.79-15.23,71.35-28.8,107.76-39.57c19.76-5.92,39.77-10.97,59.75-16.08
		c8.9-2.38,17.85-4.58,26.7-7.16c5.24-1.79,11.21-2.14,15.76-5.5c0-0.03-0.01-0.07-0.01-0.1c0,0,0.03-0.05,0.03-0.05
		c-2.43-6.21-17.98-8.82-24.12-10.66c-24.36-5.71-49.47-7.29-74.36-7.61c28.43-1.94,57.22-1.5,85.04,5.28
		c5.99,1.74,12.56,3.24,17.44,7.29c4.03,3.7,4.52,8.95-0.8,11.71c-38.23,15.96-79.46,24.33-119.01,36.66
		c-31.1,9.52-62.69,17.62-94.18,25.58c0.01,0.03,0.03,0.06,0.04,0.09c0.22,0.05,0.47-0.13,0.63-0.14
		C122.74,158.04,122.57,158.1,122.32,158.14z"/>
	<path class="st0" d="M357.26,132.91c-44.84,7.85-89.63,15.99-134.3,24.72c-21.81,3.8-43.4,11.07-65.73,10.27
		c-0.68-0.23,0.18-0.9,0.49-1.14c0.07,0.16-0.22,0.42-0.23,0.62c25.5-11.73,53.29-16.59,80.6-22.37
		c44.13-9.1,89.28-13.16,133.97-18.02c18.65-4.39-35.2-15.64-38.57-14.94c6.26-0.11,47.61,5.44,45.31,13.38
		C378.49,131.16,361.96,131.48,357.26,132.91z"/>
	<path class="st0" d="M185.08,197.15c1.72-1.7,4.1-2.29,6.26-3.24c5.83-2.43,11.74-4.69,17.62-6.98
		c32.08-12.13,65.84-18.82,99.72-23.62c15.59-1.9,31.18-3.65,46.82-5.01c4.23-0.4,8.46-0.85,12.69-1.26
		c3.44-0.48,7.26-0.09,10.4-1.65c-0.12-0.28-0.28-0.54-0.49-0.76c-1.75-1.26-3.92-1.67-5.94-2.31c-8.34-2.56-16.91-3.77-25.5-5.13
		c-6.25-0.95-12.51-1.88-18.78-2.73c6.71,0.5,13.59,1.16,20.36,1.73c8.05,0.83,16.56,1.44,24.3,3.24c3.92,0.94,8.82,1.41,10.72,5.52
		c0.74,0.84,0.75,2.17-0.32,2.76c-5.86,4.01-13.58,3.52-20.39,4.99c-20.42,3.16-40.96,5.53-61.35,8.89
		c-23.3,3.53-46.42,8.05-69.47,12.87c-11.24,2.39-22.47,4.88-33.55,7.98C193.83,193.96,188.85,194.57,185.08,197.15z"/>
	<path class="st0" d="M369.76,198.83c-52.02,4.03-103.97,10.25-156.07,12.47c0.42,0.16,1.05,0.24,1.43,0.4
		c-6.53-0.37,4.66-2.29,5.95-2.65c31.45-7.87,63.8-10.82,96.07-13.07c13.82-0.82,27.64-1.53,41.48-2.03
		c9.14-0.67,18.79,0.44,27.37-3.35c-4.43-9.25-48.6-15.31-60.14-18.36c15.27,2.32,30.86,4.1,45.89,7.95
		c7.25,1.9,15.72,3.17,19.62,10.4c2.28,2.89-8.05,5.79-10.05,6.54C377.52,198.04,373.65,198.45,369.76,198.83z"/>
	<path class="st0" d="M364.46,235.94c-47.3,6.1-95.18,2.4-142.65,4.76c-0.95,0.08-2.12,0.34-3,0.19c2.94-0.39,6-1.29,9.01-1.67
		c30.08-4.32,60.48-6.19,90.84-6.96c9.53-1.16,55.24,0.95,57.93-6.15c-1.58-10.54-44.52-16.46-54.61-18.84
		c9.52,1.16,19.2,2.44,28.72,4c9.49,1.87,19.33,4,27.69,9.04C389.38,231.01,372.68,234.46,364.46,235.94z"/>
	<path class="st0" d="M358.2,268.57c-28.07,4.69-56.7,4.65-85.07,3.7c-7.04-0.24-14.08-0.61-21.12-0.93
		c-5.77,0.26-15.94-2.08-20.59,0.62c0.28-2.58,16.31-2.68,20.73-3.25c24.4-1.82,48.82-3.35,73.29-3.92
		c4.93-0.61,49.92-0.6,44.15-8.17c0,0,0.02-0.04,0.02-0.04c-2.32-2.57-6.13-3.04-9.16-4.49c-8.68-2.94-17.61-5.1-26.46-7.43
		c-0.01-0.01,0-0.02,0.01-0.02c12.72,2.75,26.47,3.01,38.36,8.51C383.37,262.64,365.63,267.31,358.2,268.57z"/>
	<path class="st0" d="M338.4,300.76c-36.54,4.56-74.26,0.44-110.37,2.19c28.28-3.4,56.9-4.55,85.39-5.6
		c8.61-0.28,17.21-0.72,25.79-1.45c5.17-0.19,10.43-0.75,14.7-3.95c-0.46-2.51-1.12-4.95-3.14-6.47
		c-5.61-4.42-11.61-8.06-17.58-11.88c-3.08-2.01-6.35-4.01-9.37-5.97c10.44,6.34,22.79,10.27,31.97,18.39
		c1.03,1.86,4.18,6.89,2.06,8.2C352.4,298.99,345.41,300.33,338.4,300.76z"/>
	<path class="st0" d="M292.35,325.76c-28.36,3.16-57.08,3.72-85.57,2.43c0.3-0.07,0.59,0.01,0.93-0.02
		c21.81-0.9,43.57-2.96,65.29-5.14c10.82-1.53,37.43-1.92,44.36-9.42c-1.58-5.02-12.41-4.6-17.01-5.69
		c-9.04-1.04-18.09-2.06-27.14-2.94c-0.02,0-0.02-0.02,0-0.02c14.53,0.47,29.53-1.15,43.74,2.29c2.9,0.76,4.37,3.36,5.7,5.82
		c1.03,1.34-0.47,2.67-1.36,3.38C313.88,324.03,302.15,323.82,292.35,325.76z"/>
	<path class="st0" d="M312.18,359.93c-21.06,2-42.19,3.34-63.36,2.85c-7.8-0.52-33.41,0.3-36.46-3.93c2.66,2.02,6.76,1.16,9.86,1.45
		c12.79-0.22,25.56-1.41,38.33-2.06c18.99-1.65,38.34-0.61,57.19-2.7c-2.86-4.21-14.09-6.42-18.93-8.98
		c6.35,1.88,12.87,3.24,19.1,5.48c1.79,0.63,2.72,2.31,3.58,3.88C322.37,358.65,314.13,359.74,312.18,359.93z"/>
	<path class="st0" d="M276.53,394.6c-11.18,1.82-22.43,3.21-33.67,4.51c-6.92,0.34-15.9,2.8-21.85,0.89c6.14,0.85,12.43-2,18.5-2.97
		c8.15-1.81,16.32-3.52,24.52-5.05c15.52-3.25,31.37-4.33,46.82-7.47c5.79-2.1-6.77-9.1-8.67-10.72c4,1.85,7.66,4.38,11.44,6.6
		c2.48,2.25,1.12,5.92-2.01,6.58C300.23,390.73,288.27,392.39,276.53,394.6z"/>
	<path class="st0" d="M235.21,429.67c12.72-5.18,25.9-9.78,39.17-13.57c7.16-2,14.48-3.52,21.51-5.99c4.26-1.3,5.91-5.09,6.38-9.09
		c1.93,9.19-6.38,12.17-13.3,15.12C271.8,423.21,253.6,427.4,235.21,429.67z"/>
	<path class="st0" d="M195.2,110.04c9.5-4.13,18.99-8.32,28.53-12.38c5.27-2.3,11.17-4.19,14.55-9.14
		c-4.42-5.36-12.15-3.92-18.24-5.21c-15.65-1.51-31.39-2.09-47.07-3.32c20.2-0.11,40.85-1.79,60.95,1.33
		c3.84,0.64,6.81,3.02,9.14,6.02c2.22,2.34-5.58,7.76-7.53,8.8C222.5,101.74,208.66,105.8,195.2,110.04z"/>
	<path class="st0" d="M114.5,91.8c16.75-7.41,34.57-13.33,52.96-14.43c0.55-0.01,3.78,0.22,2.66,0.97
		c-4.1,1.05-8.37,1.95-12.46,2.76c3.57-0.98,7.16-1.88,10.71-2.93C149.92,80.22,132.49,87.77,114.5,91.8z"/>
</g>
<g id="Vector_layer_2_">
	<path class="st1" d="M265.31,410.85c-9.96,0.89-20.29,2.53-30.17,0.89c21.64-3.11,42.64-9.92,64.34-13.01
		c8.02-1.46,16.12-2.57,24.06-4.39c9.32-2,5.43-6.04,1.43-11.47c2.14,1.88,4.27,4.08,6.02,6.37c3.51,7.84-17.41,10.88-22.47,12.81
		C294.32,405.86,279.94,409.15,265.31,410.85z"/>
	<path class="st1" d="M303.67,374.14c-15.46,2.25-31.06,3.36-46.64,4.31c-8.04,0.59-16.45,0.95-24.22,2.43c0,0,0,0,0,0
		c22.03-5.37,44.72-7.93,67.26-10.3c10.17-1.43,20.47-2.13,30.49-4.45c4.65-1.21,9.15-2.92,13.7-4.48c-2.57,1.44-5.43,2.8-8.12,4.18
		C326.01,370.76,314.65,372.21,303.67,374.14z"/>
	<path class="st1" d="M317.43,339.68c-19.61,3.76-39.57,5.86-59.54,5.95c-7.05-0.17-14.15,0.26-21.15-0.59l-1.2-0.59
		c0,0.03,0,0.06,0,0.09c19.79,0.33,39.82-4.11,59.68-5.38c8.02-0.67,16.29-1.63,24.22-2.4c6.73-0.48,13.89-1.41,16.29-8.72
		C334.49,337,324.87,338.37,317.43,339.68z"/>
	<path class="st1" d="M321.34,314.69c-14,2.19-28.14,3.07-42.3,2.93c-10.09-0.17-20.19-0.77-30-3.29c2.24-0.39,4.95-0.4,7.35-0.67
		c7.3-0.69,14.68-0.4,21.98-0.45c14.36-0.25,28.71-0.74,43.03-1.93c7.05-0.96,14.18-1.46,21.12-3.05c4.21-0.85,7.72-3.15,10.85-5.98
		c-4.35,5.51-10.13,7.71-16.85,9.24C331.48,312.66,326.42,313.76,321.34,314.69z"/>
	<path class="st1" d="M354.04,280.85c-25.19,4.24-50.51,9.1-76.11,9.57c-4.71,0.09-9.42,0.02-14.12-0.36
		c-2.48-0.31-5.17-0.35-7.44-1.47c-0.63-0.45-0.64-0.76-0.02-1.3c-0.01,0.17-0.33,0.43-0.35,0.68c0.42,0.67,1.39,0.77,2.09,0.85
		c3.46,0.3,6.93-0.01,10.38-0.42c9.62-1.35,19.16-3.18,28.77-4.59c26.16-4.13,52.41-7.62,78.68-10.96c3.11-0.33,6.19-0.97,9.3-1.25
		c0.32-0.05,0.63-0.11,0.72-0.13c0.28-0.1,0.65-0.14,0.68-0.5c-6.58-2.93-14.09-3.57-21.04-4.94c7.74,0.88,15.78,0.64,23.19,3.24
		c0.49,0.15,1.06,0.61,0.98,1.18c-0.01,1.09-0.25,2.28-1.29,2.89c-1.59,0.98-3.43,1.1-4.96,1.48c-3.39,0.9-6.83,1.58-10.26,2.29
		C366.86,278.43,360.47,279.71,354.04,280.85z"/>
	<path class="st1" d="M371.25,251.57c-27.24,4.66-54.97,7.02-82.61,6.59c-8.64-0.44-17.45-0.22-25.97-1.88
		c-0.86-0.15-2.34-0.87-1.64-1.88c0.05,0.18-0.13,0.51,0.02,0.76c4.12,1.95,9.33,0.25,13.79,0.3c6.13-0.5,12.26-1.1,18.39-1.61
		c13.97-1.13,27.98-1.68,41.97-2.5c8.77-0.41,17.53-0.93,26.3-1.38c5.59-0.42,11.21-0.68,16.64-1.27c3.88-0.42,9.42-0.95,8.09-6.2
		C389.26,250.34,376.15,250.15,371.25,251.57z"/>
	<path class="st1" d="M368.45,222.89c-26.14,3.92-52.59,5.86-79.02,5.62c-10.05-0.18-20.11-0.43-30.14-1.2
		c-4.19-0.59-9.05-0.04-12.75-2.25c4.76,2.01,10.45,0.85,15.56,1.13c37.22-1.71,74.42-4.45,111.55-7.56
		c7.75-1.05,15.29-1.57,22.87-3.06c5.93-1.1,9.41-3.41,6.77-9.78c5.07,8.69-3.47,10.63-10.21,12.41
		C384.92,220,376.73,221.77,368.45,222.89z"/>
	<path class="st1" d="M337.66,188.07c-30.92,5.87-65.26,10.28-95.2,12.36c28.85-5.64,57.67-12.36,86.94-16.09
		c19.76-3.3,74.03-9.02,18.02-16.82c5.39,0.34,10.95,0.77,16.36,1.33c4.29,0.57,14.09,1.24,10.87,7.78
		C366.69,183.96,348.35,185.26,337.66,188.07z"/>
	<path class="st1" d="M255.06,167.82c-7.46,1.04-14.99,2.93-22.53,2.84c-0.64-0.11-0.59-0.89,0.05-0.94
		c10.72-1.8,21.04-5.76,31.56-8.51c35.13-10.1,71.03-17.31,106.65-25.33c2.13-0.68,4.69-0.93,6.28-2.54
		c-3.17,3.16-8.2,3.69-12.26,5.29c-6.75,2.17-13.49,4.35-20.28,6.39C315.01,153.7,285.45,162.72,255.06,167.82z"/>
	<path class="st1" d="M230.92,141.61c-0.95,0.17-2.4,0.4-3.2-0.23c0.89,0.43,2.11,0.12,3.06-0.11c7.8-2.33,15.4-5.32,23.13-7.89
		c16.03-5.24,32.21-10.08,48.58-14.14c10.75-2.83,21.56-5.44,32.29-8.33c4-1.15,8.21-2.49,12.04-4.05c1.68-0.64,2.48-2.1,2.81-3.77
		c-8.65-6.06-19.87-6.91-29.82-9.45c11.28,1.27,23.53,1.4,33.41,7.53c2.02,1.21-0.08,6.2-1.49,7.41
		c-12.68,8.02-28.2,10.4-42.39,14.84C283.35,129.98,256.99,135.41,230.92,141.61z"/>
	<path class="st1" d="M180.31,122.79c20.42-9.46,40.97-18.68,61.97-26.8c9.01-3.74,18.26-6.16,26.36-11.56
		c5.35-5.02-7.63-7.19-10.66-8.55c29.99,4.22,5.41,15.47-8.05,20.75C227.04,106.11,203.7,114.8,180.31,122.79z"/>
	<path class="st1" d="M169.31,100.64c5.44-3.32,12.44-5.25,16.5-10.28c3.17-8.23-24.69-3.73-29.27-3.79
		c-9.62,0.88-19.26,1.41-28.91,1.75c9.74-2.3,19.84-4.15,29.77-5.38c9.28-0.91,19.08-2.46,27.93,1.16c3.07,1.07,5.07,4.04,3.02,7.02
		C183.82,96.74,175.68,98.08,169.31,100.64z"/>
</g>
</svg>
