<?xml version="1.0" encoding="utf-8"?>
<!-- Generator: Adobe Adobe Illustrator 24.2.0, SVG Export Plug-In . SVG Version: 6.00 Build 0)  -->
<svg version="1.1" id="Vector_layer_1_" xmlns="http://www.w3.org/2000/svg" xmlns:xlink="http://www.w3.org/1999/xlink" x="0px"
	 y="0px" viewBox="0 0 500 500" style="enable-background:new 0 0 500 500;" xml:space="preserve">
<style type="text/css">
	.st0{fill:#CECECE;}
	.st1{fill:#FFFFFF;}
</style>
<path class="st0" d="M149.46,209.61c-22.3-0.6-28.27-12.58-8.6-25.9c7.9-5.33,16.44-9.66,24.95-13.91
	c3.49-1.63,6.91-3.56,10.64-4.54c0.29-0.06,1-0.23,1.12,0.21c-0.04,0.02-0.1-0.1-0.15-0.13c-4.28,1.62-7.49,5.54-11.19,8.2
	c-3.9,3.18-7.86,6.27-11.77,9.44c-5.17,4.78-14.35,9.38-15.99,16.52c5.06,2.37,10.76,2.28,16.23,2.31
	c7.59,0.21,15.18-0.11,22.75-0.54c53.12-4.14,106.28-7.8,159.46-11.25c2.77-0.18,5.62-0.45,8.34-0.6
	c-54.65,6.32-109.12,14.35-163.92,19.33C170.75,209.76,160.08,209.99,149.46,209.61z"/>
<path class="st0" d="M144.6,238.73c-6.48-0.31-19.02-4.16-14.57-12.75c4.42-6.19,12.16-8.65,19.06-10.97
	c-1.13,0.81-2.48,1.6-3.68,2.38c-3.2,2.68-13.06,8.05-9.94,12.93c0,0-0.08-0.01-0.08-0.01c2.95,1.67,6.45,1.94,9.77,2.18
	c16.98,0.6,33.91-1.33,50.85-2.22c50.2-3.65,100.54-3.64,150.84-3.64c-38.18,2.57-75.99,5.31-114.01,8.05
	C203.49,236.56,174.04,240.25,144.6,238.73z"/>
<path class="st0" d="M160.92,275.88c-7.24-0.52-20.51-1.62-19.7-11.5c1.75-7.66,10.22-10.23,16.01-14.22
	c7.12-0.97-8.76,11.8-8.48,14.35c-2.81,8.9,53.96,2.95,61.22,3.56c42.91-1.9,85.85-3.34,128.78-4.71c0.01,0,0.02,0.02,0,0.02
	C279.62,268.6,220.38,277.04,160.92,275.88z"/>
<path class="st0" d="M171.18,313.5c-7.5-0.9-18.16,0.42-22.31-7.31c-0.81-1.47-0.3-3.15,0.58-4.46c5.64-6.4,14.49-9.4,22.41-12.05
	c-2,1.04-4.13,2.19-6,3.39c-2.48,2.08-16.12,9.55-10.99,12.89c3.36,1.8,7.16,1.03,10.69,1.49c14.47,0.43,28.96-0.71,43.43-0.88
	c35.25-0.99,70.51-0.52,105.77-0.45C267.03,309.3,219.09,313.25,171.18,313.5z"/>
<path class="st0" d="M239.45,356.51c-23.46-0.5-47.26-0.06-70.44-4.09c-5.19-0.6-13.73-4.96-10.37-11.21
	c2.9-3.65,7.35-5.29,11.05-7.93c-0.82,0.37,0.67-0.68,0.59-0.14c-2.18,3.74-12.62,9.69-5.06,13.09c11.09,3.08,22.43,2.89,33.8,3.66
	c36.93,2.19,73.66,3.54,110.43,5.58C286.12,355.91,262.79,356.6,239.45,356.51z"/>
<path class="st0" d="M196.22,395.67c-7.03-0.59-29.08,0.2-28.86-9.73c1.98-5.69,23.81-13.38,30.11-15.77c0,0,0-0.01,0-0.01
	c0,0,0,0,0,0c-6.01,3.11-12.47,6.84-18.29,10.72c-2.66,1.88-5.66,2.96-7.07,5.89c4.64,4.87,33.83,3.14,42,3.63
	c29.37,0.39,58.74-0.08,88.11,0C267.09,393.87,231.62,396.56,196.22,395.67z"/>
<path class="st0" d="M220.39,430.15c-10.79-0.2-21.66,0.19-32.37-1.33c-1.92-0.31-12.25-3.09-10.41-5.75
	c1.93-3.63,5.86-4.91,9.54-5.88c4.46-1.62,9.24-2.44,13.78-3.63c0-0.04,0-0.09,0-0.13c0.26,0.35-1.03,0.66-1.39,0.78
	c-3.58,1.34-7.13,2.68-10.58,4.25c-2.55,1.42-5.8,1.82-7.1,4.61c10.45,3.4,21.78,0.81,32.59,1.56c27.36,0.25,54.72,0.76,82.05,1.98
	C271.27,428.52,245.77,430.2,220.39,430.15z"/>
<path class="st0" d="M225.51,463.52c-5.56-0.31-11.12-0.71-16.63-1.51c-1.69-0.18-3.63-0.22-5-1.35c-0.3-0.4-0.97-1.33-0.35-1.66
	c2.02-0.81,4.18-1.19,6.31-1.64c-1.71,0.76-3.72,1.29-5.43,2.19c0.38,0.91,1.59,0.88,2.43,1c8.75,0.29,17.51-0.12,26.26-0.2
	c20.6-0.21,41.17,0.99,61.7,2.59C271.8,464.33,248.57,465.05,225.51,463.52z"/>
<path class="st0" d="M238.85,170.83c-20.38-0.29-40.77-0.87-61.1-2.28c-9.17-0.49-18.76-1.25-26.1-7.34
	c-2.61-1.62-0.31-4.48,0.77-6.35c4.36-5.07,11.54-6.59,17.18-9.91c6.43-2.73,12.9-6.55,19.65-7.97c-0.04,0.34-0.32,0.39-0.6,0.57
	c0.03-0.11,0.32-0.29,0.43-0.42c0-0.01,0-0.03,0-0.04c-6.09,2.67-11.42,6.79-17.15,10.15c-3.92,3.32-12.69,6.55-14.46,10.99
	c5.19,3.42,11.58,3.25,17.55,3.72c9.51,0.63,19.02,1.19,28.53,1.76c37.48,1.91,74.93,4.46,112.35,7.3
	C290.3,171.18,264.51,171.12,238.85,170.83z"/>
<path class="st0" d="M181.5,124.59c-5.48-0.01-11.37-1.11-15.84-4.26c-1.29-0.65-3.29-1.68-2.43-3.44c1.44-3.39,3.65-6.33,7.1-7.87
	c8.56-4.75,17.45-8.93,26.6-12.4c4.07-1.4,8.17-3.01,12.45-3.62c-0.34,0.13-0.85,0.19-1.23,0.36c-7.7,2.65-36.92,16.68-39.1,23.51
	c9.36,4.93,21.81,1.33,32.13,1.78c26.79-0.71,53.58-1.35,80.38-1.27C248.4,120.92,214.95,124.48,181.5,124.59z"/>
<path class="st0" d="M190.54,79.47c-2.15-0.49-9.42-0.18-8.75-3.05c0.46-3.03,3.07-4.73,5.63-5.96
	c12.48-7.13,25.9-12.49,39.29-17.62c-0.43,0.26-1.04,0.48-1.53,0.73c-13.1,6.81-27.61,12.6-38.99,21.91
	c11.54,1.3,22.98-2.07,34.43-3.15c29.08-3.67,58.24-6.68,87.43-9.41C269.15,69.25,230,77.56,190.54,79.47z"/>
<path class="st0" d="M294.91,51.58c-8.02-1.36-16.65-0.96-24.15-4.36c-1.52-1.28-6.37-2.86-4.53-5.36
	c2.55-3.56,6.51-5.41,10.75-6.11c11.88-2.8,24.3-4.28,36.45-3.87c-8.43,0.99-37.67,5.02-42.33,10.93
	c4.98,3.96,11.52,3.87,17.44,5.32c8.97,1.86,17.91,3.82,26.87,5.74C308.64,53.18,301.72,52.38,294.91,51.58z"/>
<path class="st1" d="M206.4,416.64c-12.62-0.7-26.08,1.53-37.96-3.56c-2.66-0.83-2.53-3.39-1.83-5.61
	c2.12-4.23,7.73-5.25,11.58-7.52c1.76-1.3,6.47-1.68,5.62,1.6c-2.73,2.98-7,4.31-10.1,6.97c9.25,2.49,19.1,1.24,28.59,2.11
	c21.54,0.94,43.03,2.68,64.51,4.43C246.75,415.86,226.52,416.74,206.4,416.64z"/>
<path class="st1" d="M210.1,449.29c-5.76-0.59-18.77,0.52-20.25-6.72c0.89-4.34,6.25-5.27,9.95-5.93c0.27-0.03,0.69,0.11,0.69,0.45
	c0.03,0.26-0.07,0.5-0.34,0.57c-1.77,1.09-3.77,2.64-4.72,4.53c10.7,3.13,22.44,0.96,33.5,1.51c24.46-0.1,48.91,0.53,73.36,1.41
	C271.68,447.24,240.85,449.66,210.1,449.29z"/>
<path class="st1" d="M206.81,369.37c-10.81-0.61-32.15,1.39-40.76-4.48c-1.94-1.85-1.55-5.08,0.98-6.17
	c3.83-2.43,9.52-2.53,12.51-5.97c0,0,0,0,0,0c0-0.04,0.01-0.07,0.01-0.11c0-0.01,0-0.01,0-0.02c0.17,3.41-6.41,6.78-8.68,9.24
	c11.76,2.49,23.98,1.71,35.93,2.2c30.92,0.69,61.97,1.17,92.84,1.92C268.71,367.53,237.78,369.55,206.81,369.37z"/>
<path class="st1" d="M185.23,332.23c-9.31-0.9-20.92,0.72-28.17-6.28c-3.18-6.04,4.74-9.47,9.49-10.49c2.36-0.4,5.35-1.06,7.49,0.21
	c0.03,0.08-0.41,0.22-0.1,0.02c-0.03-0.03-0.06-0.05-0.09-0.08c-4.16-0.04-10.76,3.15-12.46,6.98c-1.03,7.42,55.29,4.93,63.42,5.98
	c11.47,0.31,23.07,0.47,34.48,0.85C234.64,331.02,209.94,332.59,185.23,332.23z"/>
<path class="st1" d="M173.04,296.3c-7.85-0.54-20.09,1.01-26.25-4.37c-1.89-2.31-0.82-4.81,1.57-6.17
	c3.71-2.43,8.45-3.83,11.56-6.99c0.42,1-4.03,4.12-5.46,5.47c-1.25,1.65-6.49,3.96-3.85,5.94c0,0,0,0.03,0,0.03
	c12.84,3.13,26.41,1.4,39.53,2.04c22.4-0.08,44.93-0.18,67.27-0.12C229.32,293.99,201.22,296.6,173.04,296.3z"/>
<path class="st1" d="M175.77,259.91c-10.22-0.53-32.76,1.16-39.86-6.22c-1.97-1.93-1.17-4.83,0.8-6.41
	c3.45-2.56,8.26-2.65,12.37-2.91c0.18,0.05,0.17,0.27,0.01,0.29c-2.59,1.46-5.19,2.97-7.58,4.74c-0.49,0.58-0.71,0.83-0.99,1.56
	c5.51,4.17,19.43,3.71,26.56,4.58c22.2,1.31,44.32,2.22,66.42,3.44C214.25,259.4,195.01,260.08,175.77,259.91z"/>
<path class="st1" d="M149.69,221.19c-9.67,0.05-26.15-5.12-10.55-13.83c-9.55,8.83-0.01,9.63,8.18,9.62
	c13.85,0.81,27.73,0.24,41.6,0.5c14.76,0.07,29.64,0.22,44.34,0.44C205.47,219.83,177.57,222.18,149.69,221.19z"/>
<path class="st1" d="M161.6,186.04c-9.71,0.51-31.17-3.74-15.15-15.01c0.24-0.19,0.5-0.45,0.67-0.65
	c-1.66,2.97-7.06,7.47-1.86,10.02c12.04,2.97,24.72,1.43,37.01,1.73c13.45-0.09,26.89,0.1,40.34,0.49
	C202.41,184.4,181.96,186.38,161.6,186.04z"/>
<path class="st1" d="M197.75,145.08c-8.75-0.68-28.44,0.94-34.92-4.25c-4.34-5.43,4.11-8.04,7.57-10.5c-0.25,0-0.61,0.05-0.8-0.05
	c2.94-0.91,0.46,1.05-0.41,1.89c-1.93,1.9-7.05,6.21-1.73,7.1c5.12,0.38,10.24,0.99,15.38,1.17c16.27,0.89,32.52,2.37,48.71,4.17
	C220.38,145.05,208.99,145.23,197.75,145.08z"/>
<path class="st1" d="M202.1,101.81c-5.88-0.2-11.77-0.42-17.64-0.77c-2.43,0.08-14.8-0.24-11.64-4.7c2.94-2.71,10.78-4.26,11.65-8.1
	c0.82,2.89-5.31,6.25-7,8.52c22.41,0.71,44.72,3.23,66.91,6.5C230.36,103.03,216.16,102.5,202.1,101.81z"/>
<path class="st1" d="M279.41,64.03c-7.39-0.56-14.85-1.25-22.15-2.4c-4-0.66-7.99-1.28-11.88-2.48c-2.13-0.6-4.52-1.01-6.18-2.58
	c-1.62-1.7-0.93-4.29,1.48-4.65c2.87-0.92,5.91-1.35,8.93-1.35c0.77,0.01,2.01,0.08,2.54,0.53c-0.07-0.04-0.14-0.08-0.2-0.12
	c-0.19-0.05-0.38-0.1-0.57-0.15c0,0,0,0,0,0c-1.91-0.49-12.14,0.93-11.53,3.5c0.11,0.86,0.77,1.46,1.51,1.74
	c8.09,2.2,16.54,2.19,24.83,3.21c11.56,1.29,23.07,2.97,34.53,4.95c2.15,0.39,4.41,0.73,6.49,1.16
	C297.93,65.13,288.66,64.71,279.41,64.03z"/>
</svg>
