<?xml version="1.0" encoding="utf-8"?>
<!-- Generator: Adobe Adobe Illustrator 24.2.0, SVG Export Plug-In . SVG Version: 6.00 Build 0)  -->
<svg version="1.1" id="Vector_layer_1_" xmlns="http://www.w3.org/2000/svg" xmlns:xlink="http://www.w3.org/1999/xlink" x="0px"
	 y="0px" viewBox="0 0 500 500" style="enable-background:new 0 0 500 500;" xml:space="preserve">
<style type="text/css">
	.st0{fill:#3A9E31;}
	.st1{fill:#FFFFFF;}
	.st2{fill:#F20519;}
</style>
<path class="st0" d="M318.81,107.77c5.22-3.17,10.61-6.02,15.49-9.67c-30.19-5.14-60.96-5.67-91.49-6.79
	c-22.63-0.61-45.6-0.59-68.02,2.44c-5.22,0.72-10.41,1.82-15.28,3.8c-0.49,0.23-1.73,1.03-2.31,0.61c0,0,0-0.01,0-0.01
	c0-0.02,0.02-0.02,0.02,0c0,0,0,0,0,0c0.03,0.01,0.06,0.03,0.08,0.04c9.98-5.89,21.37-8.59,32.64-11.05
	c22.07-5.19,44.71-7.99,67.38-8.45c16.51-0.19,33.06,1.25,49.26,4.44c6.59,1.75,34.96,6.65,34.84,13.86
	C341.09,104.46,324.5,105.64,318.81,107.77z"/>
<path class="st0" d="M320.89,129.63c6.21-4.06,13.13-6.76,19.6-10.28c-27.17-5.56-55.28-4.91-82.91-5.86
	c-30.1-0.81-63.47-2.18-91.25,7.69c30.57-15.9,68.8-19.17,102.88-19.72c16.32,0,32.65,1.34,48.68,4.42
	c6.31,2.25,33.77,4.96,29.51,14.73C344.05,126.49,327.8,126.43,320.89,129.63z"/>
<path class="st0" d="M294.4,159.68c12.71-5.36,26.08-8.64,39.5-11.67c-36.51-9.9-74.48-13.67-112.24-13.19
	c-15.88,0.58-31.92,1.64-46.61,8.02c-2.7,1.09-5.12,2.79-7.78,3.91c-0.32,0.08-0.61,0.22-0.77-0.08c0-0.04,0.03,0,0.04,0.02v0
	c0.04,0.04,0.09,0.07,0.13,0.11c3.47-1.19,6.43-3.84,9.9-5.2c10.39-4.93,21.7-7.6,32.96-9.69c22.99-3.95,46.37-6.41,69.72-5.32
	c18.6,1.18,37.05,4.88,54.79,10.57c5.43,2.13,11.5,3.14,16.29,6.58c3.32,2.6,1.3,7.58-1.81,9.41c-4.64,2.21-10.01,2.1-15.04,2.64
	C320.43,156.56,307.15,156.94,294.4,159.68z"/>
<path class="st0" d="M338.19,186.75c3.78-3.43,7.95-6.63,11.04-10.72c-5.97-3.24-12.97-3.42-19.53-4.55
	c-15.31-2.13-30.7-3.06-46.13-3.74c-23.29-0.91-46.72-1.05-69.92,1.5c-3.6-0.09-15.56,4.85-16.95,1.52
	c2.68,2.75,10.94-2.67,14.64-3.16c6.59-1.98,13.4-3.08,20.16-4.28c21.93-4.22,44.3-6.39,66.62-4.62
	c15.92,1.58,41.18,4.38,54.16,13.59C358.91,179.35,342.53,183.99,338.19,186.75z"/>
<path class="st0" d="M341.03,204.36c9.97-4.92-3.56-6.88-8.14-7.6c-16.57-2.05-33.13-4.3-49.85-4.5
	c-20.28-0.52-40.82-2.38-60.53,2.97c-4.54,1.36-8.99,3.39-13.41,4.91c3.71-1.96,7.36-4.06,11.13-5.9
	c23.97-10.03,55.53-10.08,81.19-7.85C306.6,185.99,364.68,196.93,341.03,204.36z"/>
<path class="st0" d="M299.77,286.35c16.34-5.64,32.01-12.87,46.96-21.48c-25.21-8.27-51.8-12.31-78.28-13.23
	c-19.28-1.03-39.01-0.47-58.08,2.04c-11.32,1.54-22.37,4.48-33.19,8.12c-2.17,0.51-9.33,3.74-9.26,2.38
	c0.01,0.08,0.03,0.15,0.04,0.22c3.3-0.2,6.34-2.28,9.51-3.24c2.78-1.05,5.56-2.12,8.33-3.19c7.18-2.77,14.63-4.93,22.08-6.85
	c20.95-5.11,42.33-8.48,63.9-9.27c24.46-0.96,49.13,2.92,72.3,10.71c4.48,1.72,9.25,3.13,13.28,5.79
	c5.68,4.55,2.37,10.93-3.19,13.73c-5.65,3.15-12.05,4.67-18.19,6.57C324.16,282.13,311.87,284.44,299.77,286.35z"/>
<path class="st0" d="M310.06,304.13c7.19-2.03,14.52-4.2,20.9-8.17c-21.98-10.57-142.72-19.29-158.17-1.48
	c8.79-16.22,78.84-22.45,97.89-20.28c21.96,1.75,45.04,4.93,64.21,16.48C348.42,302.28,316.55,304.12,310.06,304.13z"/>
<path class="st0" d="M326.22,416.77c-5.34-0.12-10.58-1.4-15.85-2.16c5.57-0.89,11.38-1.3,16.88-2.79
	c-11.71-5.82-24.39-9.31-37.02-11.86c-10.98-2-22.02-4.15-33.16-3.92c-3.66,0.32-12.98-0.2-14.13,4.07
	c0.08,0.22,0.26,0.51,0.31,0.66c-2.16-3.41,7.08-5.09,9.11-5.32c15.36-2.38,31.11-1.73,46.48,0.21
	c12.07,2.07,24.56,5.58,34.46,13.02c2.42,2.09,2.1,5.12-0.48,6.91C331.01,416.88,328.41,416.79,326.22,416.77z"/>
<path class="st0" d="M290.07,442.39c-25.08-1.75-50.42-6.88-75.48-2.54c15.21-7.74,32.44-10.34,49.41-10.63
	c-6.79-1.61-35.02-7.51-39.65-3.81c-0.44-1.73,6.14-2.37,8.92-2.47c17.96-1.06,36.15-0.25,53.59,4.44c3.94,1.37,8.59,1.98,11.2,5.57
	C301.73,438.86,295.6,442.72,290.07,442.39z"/>
<path class="st1" d="M256.34,223.8c2.47-2.97,5.88-4.88,9.16-6.9c-13.17-0.73-26.32-0.58-39.48,0.1c-8.28,0.81-17.18-1.42-25.03,1.8
	c6.24-6.36,29.4-10.05,38.92-11.75c8.91-1.08,18.06,0.32,26.88,1.76c3.99,0.69,11.49,1,10.04,6.88
	C273.15,222.97,262.67,220.56,256.34,223.8z"/>
<path class="st1" d="M340.48,227.37c1.68-1.23,3.36-2.52,5.14-3.61c0.96-0.59,1.93-1.16,2.9-1.72c-6.56-2.21-13.44-3.09-20.2-4.44
	c-12.29-2.52-25.15-6.22-37.66-3.41c8.42-6.86,27.14-6.76,39.43-4.24c4.03,0.5,32.32,7.31,25.61,13.51
	C351.21,226.07,345.34,225.78,340.48,227.37z"/>
<path class="st1" d="M226.86,329.5c2.04-3.35,6.59-3.49,10.06-4.26c9.7-1.4,21.64-3.22,30.15,2.73c0.41,0.45,0.42,0.72,0.36,1.3
	c-0.16-0.51-0.56-0.9-1.16-1.02c-7.99-1.76-16.31-0.7-24.39-1.06c-3.58-0.02-7.14-0.05-10.68,0.3
	C229.6,327.67,227.81,328.19,226.86,329.5z"/>
<path class="st1" d="M303.78,334.09c0.51-0.82,1.19-1.63,1.31-2.6c-5-0.92-10.09-1.46-15.04-2.27c-3.66-0.27-7.59-0.74-10.96,0.78
	c0.22,0.01,0.58-0.13,0.73-0.09c-0.26,0.1-1.06,0.5-1.03,0.09c0.23-0.39,0.27-0.49,0.76-0.75c6.07-3.17,13.33-3.36,19.91-1.84
	c2.29,0.6,4.8,0.98,6.78,2.31C308.23,331.58,305.53,333.62,303.78,334.09z"/>
<path class="st1" d="M331.42,341.26c-2.5-1.7-5.97-1.49-8.83-2.44c-4.95-1.31-9.98-2.68-15.1-2.4c7.25-3.47,15.59-1.02,22.18,2.85
	C330.47,339.79,331.31,340.36,331.42,341.26z"/>
<path class="st2" d="M328.31,323.07c7.73,3.97,20.63,13.16,2.89,12.57c23.66-3.86-31.39-14.51-36.06-15.5
	c-17.52-3.5-34.98-5.11-52.41-5.06c-12.15,0.52-24.82,0.64-35.57,6.64c-1.11,0.7-2.18,1.45-3.27,2.19c1.92-1.96,4.11-3.96,6.54-5.39
	c24.18-11.86,53.02-12.61,79.22-8.33C303.02,312.83,316.08,317.06,328.31,323.07z"/>
<path class="st2" d="M329.73,380.61c3.88-1.5,7.68-2.65,11.11-4.86c-26.39-8.96-54.38-13.58-82.09-15.45
	c-11.12-0.74-21.9-1.06-32.85,0.39c-7.93,1.04-15.52,3.66-23.47,4.5c5.12-0.94,10.18-2.9,15.21-4.5c26.1-7.26,54.29-7.03,80.89-2.75
	C309.79,359.16,373.93,377.23,329.73,380.61z"/>
</svg>
