<?xml version="1.0" encoding="utf-8"?>
<!-- Generator: Adobe Adobe Illustrator 24.2.0, SVG Export Plug-In . SVG Version: 6.00 Build 0)  -->
<svg version="1.1" id="Vector_layer_1_" xmlns="http://www.w3.org/2000/svg" xmlns:xlink="http://www.w3.org/1999/xlink" x="0px"
	 y="0px" viewBox="0 0 500 500" style="enable-background:new 0 0 500 500;" xml:space="preserve">
<style type="text/css">
	.st0{fill:#3A9E31;}
	.st1{fill:#FFFFFF;}
	.st2{fill:#F20519;}
</style>
<path class="st0" d="M181.16,97.63c-3.9-7.97-0.85-10.05,6.26-13.48c10.41-4.93,21.88-7.04,33.23-8.43
	c25.19-3.48,50.72-0.95,75.6,3.58c6.32,1.38,12.63,2.76,18.95,4.13c4.02,0.67,8.28,2.87,12.27,1.96c-0.51,0.39-1.37,0.37-1.95,0.35
	c-3.16-0.12-6.18-0.98-9.26-1.61c-7.19-1.32-14.4-2.51-21.59-3.79c-26.28-3.23-52.9-3.29-79.19-0.06
	c-9.67,1.14-19.03,2.7-28.06,6.07C180.64,88.94,178.93,90.24,181.16,97.63z"/>
<path class="st0" d="M183.04,124.77c-6.79-2.81-25.51-7.26-17.78-17.47c11.7-7.99,41.7-8.67,56.47-9.89
	c25.34-0.17,50.63,2.22,75.73,5.55c5.13,1.19,28.72,2.69,28.93,7.87c0.11-1.64-2.1-2.14-3.4-2.56c-15.13-2.85-30.62-2.95-45.96-3.62
	c-25.79-0.86-51.61-1.7-77.36,0.05C180.51,107.05,146.06,106.07,183.04,124.77z"/>
<path class="st0" d="M169.93,144.77c-4.71-1.6-10.76-2.36-13.82-6.66c-2.61-3.92,0.82-6.74,4.39-8.07
	c19.23-7.21,40.18-8.28,60.48-9.79c27.21-1.26,54.41,1.48,81.34,5.3c13.34,1.84,26.52,4.69,39.68,7.54
	c-18.5-2-37.23-3.76-55.89-4.81c-23.13-1.46-46.21-1.78-69.35-1.08c-19.24,2.05-39.8,0.62-57.93,8.12
	c1.65,5.93,17.18,9.48,22.71,11.86C177.75,146.52,173.76,145.68,169.93,144.77z"/>
<path class="st0" d="M176.49,177.45c-2.67-3.46-8.01-8.38-7.34-13.05c1.11-5.22,6.54-7.06,11.05-8.48c14.96-4,30.59-4.5,45.96-5.47
	c39.25-0.57,78.44,4.55,116.88,11.68c-17.62-2.53-35.3-4.97-53.04-6.43c-13.91-1.1-27.85-1.37-41.8-1.71
	c-18.39-0.03-36.75,0.59-55.04,2.54c-6.01,0.98-21.45,1.71-22.43,8.9C171,169.98,174.41,173.68,176.49,177.45z"/>
<path class="st0" d="M169.49,224.21c-6.86-0.48-13.89-0.72-20.39-3.23c-7.46-3.08-11.9-10.12-3.77-15.8
	c16.13-8.54,34.93-9.61,52.67-12.45c25.51-2.58,51.19-2.14,76.77-0.89c13.83,0.66,27.67,1.6,41.39,3.54
	c2.16,0.39,4.38,0.71,6.48,1.35c0.75,0.29,1.08,0.44,1.33,1.15c-0.28,0.12-0.44,0.15-0.74,0.2c0.04-0.07,0.31-0.06,0.43-0.11
	c0,0,0,0,0,0c0.09-0.04,0.18-0.09,0.27-0.13c-0.08-0.17-0.17-0.33-0.26-0.5c-8.09-2.64-17.12-2.03-25.49-2.72
	c-6.21-0.02-12.43-0.01-18.64,0c-16.63,0.21-33.24,0.99-49.82,2.32c-15.12,1.2-30.19,2.91-45.16,5.31
	c-12.27,1.96-25.07,3.17-36.41,8.55c-0.46,0.44-0.9,0.89-1.21,1.45c3.42,7.58,25.76,10.14,33.96,12.72
	C177.19,224.8,173.27,224.48,169.49,224.21z"/>
<path class="st0" d="M187.09,265.23c-9.36-0.89-27.5-3.51-24.51-16.54c9.48-11.92,30.52-14.35,44.89-16.34
	c25.68-3.34,51.68-2.96,77.45-0.83c7.16,0.74,35.87,2.85,35.59,7.15c-3.28-3.01-8.57-1.93-12.67-2.43
	c-22.33-0.13-44.66,0.53-66.94,1.86c-22.43,2.32-46.17,1.13-67.45,9.13C155.47,253.36,179.59,263.32,187.09,265.23z"/>
<path class="st0" d="M185.72,291.37c-19.21-17.62,8.11-21.94,21.66-24.81c25.4-5.36,51.61-5.11,77.33-2.44
	c12.38,1.47,24.6,4.48,36.5,7.9c-8.95-1.38-17.91-2.76-26.93-3.63c-34.66-2.09-69.62-1.4-103.62,5.7
	C178.16,276.61,179.16,282.52,185.72,291.37z"/>
<path class="st0" d="M181.56,314.38c-4.98-5.71-8.19-10.62,1.22-13.66c15.71-5.25,32.67-6.09,49.12-6.68
	c20.57-0.32,41.17,2.18,61.43,5.66c4.28,0.75,9.05,1.69,12.82,3.78c-8.9-2.69-18.44-2.07-27.63-2.79
	c-19.86-0.32-39.73-0.61-59.59-0.15c-11.81,0.76-23.69,0.45-35.28,2.85C175.31,304.57,179,309.34,181.56,314.38z"/>
<path class="st0" d="M156.5,352.61c-36.76-21.19,23.18-28.63,38.92-29.58c15.71-0.79,31.53-0.25,47.2,0.98
	c17.78,1.56,35.45,4.85,52.82,8.59c-12.42-0.35-24.82-1.1-37.23-1.57c-19.17,0.42-101.71-4.92-110.62,8.97
	C146.9,345.66,153.33,348.95,156.5,352.61z"/>
<path class="st0" d="M148.27,389.9c-56.85-24.5,24.04-31.7,44.76-32.5c16.32-0.14,32.63,0.88,48.87,2.39
	c16.71,1.56,33.54,3.55,49.33,9.55c-5.27-1.28-10.74-2.66-16.12-3.45c-34.06-3.73-68.64-3.41-102.78-0.86
	c-10.41,2.23-33.86,1.16-40.37,9.32C132.96,382.07,142.91,385.5,148.27,389.9z"/>
<path class="st0" d="M183.77,428.1c-10.88-1.14-22.31-2.42-31.92-8.04c-7.97-3.68-10.69-13.62-1.52-17.77
	c23.88-11.48,51.65-8.61,77.32-7.06c17.08,2.03,34.13,5.29,50.79,9.33c-23.85-1.42-47.72-2.86-71.62-2.1
	c-18.08,1.48-37.47-0.01-54.17,8.13c11.44,12.16,34.84,14.26,50.62,18.87C196.85,429.17,190.24,428.69,183.77,428.1z"/>
<path class="st0" d="M211.98,463.13c-7.52-0.8-22.34-2.63-21.62-12.8c0.49-5.65,12.61-5.72,17-6.55c7.91-0.76,15.85-1.45,23.8-1.6
	c19.59-0.18,39.24,2.42,58.68,3.91c-26.17-1.48-52.43-3.67-78.42,0.63c-4.07,0.51-8.15,1.1-12.15,2.02c-1.79,0.6-3.42,0.8-4.78,1.83
	c-0.34,0.98,0.19,2.4,0.82,3.03c6.1,6.65,20.22,7.91,28.82,10.3C220.17,463.78,216,463.44,211.98,463.13z"/>
<path class="st1" d="M159.97,228.65c-3.29,0.17-7.93-1.87-5.14-5.66c2.45-1.97,5.77-2.6,8.7-3.61c12.62-3.36,25.79-3.84,38.79-4.02
	c3.06,0.07,6.23-0.34,9.24,0.18c0.28,0.26-0.78,0.09-0.87,0.07c-16.53,2.39-33.26,4.7-49.31,9.44c3.74,1,7.63,1.87,11.29,2.96
	C168.46,228.34,164.2,228.75,159.97,228.65z"/>
<path class="st1" d="M229.88,221.05c-2.32-1.7-5.65-4.86-3.31-7.82c1.19-1.31,3.07-1.84,4.7-2.31c4.89-1.37,9.94-2.02,14.98-2.59
	c5.06-0.23,26.65-2.53,29.27,0.57c-0.77-0.76-2.1-0.82-3.17-0.89c-5.32-0.06-10.56,0.84-15.82,1.44c-6.07,0.8-12.13,1.7-18.2,2.5
	c-2.96,0.39-5.89,0.96-8.63,1.73C225.36,214.76,228.5,218.81,229.88,221.05z"/>
<path class="st2" d="M146.8,353.5c-7.9-0.32-28.93-2.42-23.02-14.47c4.28-3.95,10.78-4.47,16.32-5.28
	c27.63-3.05,55.48-4.75,83.22-2.03c19.35,2.39,39.41,3.11,57.85,9.9c-3.54-0.4-7.25-0.81-10.87-0.87
	c-23.58,0.49-47.18,1.41-70.78,1.45c-22.75,0.42-45.85-1.12-68.43,1.47c7.81,5.76,17.73,7.51,26.86,10.26
	C154.3,353.85,150.5,353.63,146.8,353.5z"/>
<path class="st2" d="M130.59,367.74c-23.2-16.41,47.09-20.82,55.22-20.4c25.32-0.71,50.92,1.35,75.7,6.67
	c4.65,1.04,9.25,2.31,13.78,3.82c-7.35-1.64-14.84-2.79-22.35-3.7c-25.96-2.44-52.07-1.81-78.08-0.69
	c-12.65,0.42-25.73,0.89-38.02,3.77C129.91,358.94,123.29,360.38,130.59,367.74z"/>
</svg>
