<?xml version="1.0" encoding="utf-8"?>
<!-- Generator: Adobe Adobe Illustrator 24.2.0, SVG Export Plug-In . SVG Version: 6.00 Build 0)  -->
<svg version="1.1" id="Vector_layer_1_" xmlns="http://www.w3.org/2000/svg" xmlns:xlink="http://www.w3.org/1999/xlink" x="0px"
	 y="0px" viewBox="0 0 500 500" style="enable-background:new 0 0 500 500;" xml:space="preserve">
<style type="text/css">
	.st0{fill:#F20519;}
	.st1{fill:#F9A3FE;}
</style>
<path class="st0" d="M236.07,128.03c26.13-6.15,52.78-11,79.33-14.74c12.16-2.63,39.23-4.02,46.32-14.21
	c-0.01,0.1-0.02,0.2-0.02,0.31c-0.02,0.1-0.04,0.2-0.06,0.3c0.02-0.09,0.04-0.19,0.05-0.17c0.04-0.32,0.07-1.03,0.08-0.99
	c-5.22-12.59-56.61-13.48-70.5-16.94c8.41,0.11,16.99-0.14,25.45-0.13c12.31,0.12,65.59,1.43,48.28,23.63
	c-17.2,12.37-40.1,12.11-60.35,15.04C281.78,122.48,258.83,125.42,236.07,128.03z"/>
<path class="st0" d="M266.91,158.17c24.2-7.05,49.3-10,74.04-14.49c8.77-2.13,18.44-3,25.61-8.77c4.8-4.1-3.25-6.59-6.68-6.61
	c-6.69-0.64-13.59-0.72-20.23-0.95c8.81-0.06,27-5.7,32.14,3.33C374.15,152.67,284.64,154.65,266.91,158.17z"/>
<path class="st0" d="M282.34,190.13c22.56-9.19,47.6-8.07,70.97-13.89c23.65-4.89,6.04-15.09-7.49-16.14
	c-2.53-0.32-5.06-0.56-7.6-0.78c4.35-0.19,8.87-0.19,13.25,0.32c21.3,1.88,22.34,16.46,1.46,21
	C329.95,186.93,305.55,185.56,282.34,190.13z"/>
<path class="st0" d="M271.68,223.41c-19.06-6.8,58-8.32,61.24-10.19c7.64-0.42,28.5-6.74,13.61-14.67
	c-7.47-2.41,6.49-0.42,7.01,4.15c1.44,10.66-13.64,13.69-21.48,16.07c-20.22,4.51-41.22,3.38-61.7,2.57
	C272.15,222.99,276.99,225.34,271.68,223.41z"/>
<path class="st0" d="M278.3,251.97c20.24-6.2,42.65-4.03,62.32-11.5c5.57-4.68-3.93-8.15-7.17-10.24c3.92,1.6,11.57,2.38,10.94,8.03
	C337.74,253.81,293.51,251.37,278.3,251.97z"/>
<path class="st0" d="M267.4,283.1c9.46-4.57,74.66-4.5,67.17-17.82c-2.58-3.18-6.91-4.31-10.42-5.95c4.17,0.94,9.16,1.4,12.25,4.63
	c2.37,3.12,1.24,7.13-1.83,9.27C315.18,285.97,289.47,281.93,267.4,283.1z"/>
<path class="st0" d="M288.19,323.03c12.44-4.13,25.65-5.7,38.39-8.79c18.32-3.53,2.02-9.84-5.8-13.77
	c6.26,0.92,14.23,0.9,18.79,5.96C344.78,325.75,299.79,322.77,288.19,323.03z"/>
<path class="st0" d="M255.17,353.08c14.6-5.29,68.65-3.24,72.82-12.63c0.36-5.41-6.77-6.78-10.6-8.72c2.63,0.48,5.45,1.14,7.94,2.25
	c7.64,2.68,5.58,10.08-0.86,12.82C302.91,356.2,278.13,352.89,255.17,353.08z"/>
<path class="st0" d="M213.01,387.13c26.47-3.14,53.32-4.33,79.81-7.76c5.17-1.26,27.17-3.14,27.58-8.38
	c-5.79-4.89-15.37-4.81-22.2-8.68c7.21,1.78,14.76,2.76,22.05,4.39c10.32,5.32-1.99,11.47-7.82,13.28
	C280.32,389.15,246.1,387.18,213.01,387.13z"/>
<path class="st0" d="M241,421.92c-12.17-0.26-24.48-1.4-36.35-3.73c22.03-0.78,95.84,1.85,108.8-12.73c3-6.97-9.78-8.43-14.23-10.26
	c5.39,1.11,12.24,0.8,16.1,5.39c3.08,3.13-0.25,7.17-2.8,9.41C291.9,423.65,264.78,421.95,241,421.92z"/>
<path class="st0" d="M197.07,450.56c-30.27-0.46-60.49-2.54-90.64-5.2c40.32-0.44,80.83,0.52,121.21,1.07
	c18.02,0.29,36.01,0.28,53.9-1.77c7.18-0.43,28.49-6.64,11.95-12.67c1.9,0.6,4.27,1.09,5.73,2.58
	C306.09,453.12,209.97,450.22,197.07,450.56z"/>
<path class="st0" d="M174.11,102.26c27.43-3.3,54.94-6.01,82.46-8.51c14.7-2.37,30.71-0.71,44.39-7.21
	c-0.53-1.17-1.72-1.97-2.9-2.19c-10.94-2.57-21.9-5.11-33-6.91c6.35,0.62,12.89,1.43,19.25,2.51
	C361.31,93.26,183.58,102.33,174.11,102.26z"/>
<path class="st0" d="M139.55,95.06c29.15-6.15,58.43-11.94,88.19-14.06c17.96-2.72,37.15,0.05,54.47-5.56
	c-13.24-10.17-31.72-12.58-47.97-14.39c11.67-0.94,48.69,2,53.31,13.95c-0.03,11.12-42.65,8.96-51.96,10.52
	C203.44,87.16,171.41,91.35,139.55,95.06z"/>
<path class="st1" d="M210.66,279.93c26.83-4.37,53.78-7.81,80.74-11.29c14.85-2.21,30.29-3.06,44.35-8.28
	c1.69-0.71,3.64-1.77,3.81-3.8c-0.71-2.06-3.23-3.15-4.89-4.45c-1.34-0.79-0.75-2.76,0.61-3.14c0.47-0.14,0.99-0.18,1.46-0.01
	c1.76,0.68,3.48,1.59,4.9,2.86c4.6,3.2,1.11,9.43-2.93,11.38c-15.35,6.81-32.48,6.94-48.8,9.18
	C263.54,275.1,237,277.65,210.66,279.93z"/>
<path class="st1" d="M173.2,317.64c34.26-4.56,68.58-8.67,102.9-12.77c7.17-1.98,71.65-4.26,59.44-17.39
	c-2.19-1.51-5.01-1.85-7.49-2.29c3.45,0.2,7.98,0.27,9.97,3.57c3.86,15.06-53.03,17.67-63.83,19.72
	C240.61,312.15,206.8,315.12,173.2,317.64z"/>
<path class="st1" d="M217.39,340.25c26.85-1.56,53.74-2.53,80.55-4.69c10.29-1.68,27.3-1.22,35.08-7.93
	c-0.02,0.07-0.03,0.15-0.05,0.22c0.54-8.01-14.09-8.43-19.7-10.71c6.19,0.63,12.8,0.62,18.55,3.46c3.07,0.95,5.14,3.73,4.44,7
	c-1.13,5.21-7.61,6.11-11.88,7.52C289.3,341.93,252.88,339.4,217.39,340.25z"/>
<path class="st1" d="M235.14,384.28c15.29-2.42,30.82-4.46,46.12-6.63c12.77-2.44,27.33-3.28,38.09-10.97c0,0,0.03-0.01,0.04-0.01
	c4.16-7.92-14.22-8.53-18.94-9.9c6.42,0.05,13.32-0.15,19.37,2.48c3.54,1.07,4.09,5.06,2.68,8.06c-1.95,4-6.61,5.56-10.42,7.26
	C287.61,383.34,260.69,382.22,235.14,384.28z"/>
<path class="st1" d="M225.22,415.25c17.7-3.83,35.63-6.49,53.52-9.2c5.82-1.56,42.66-4.74,34.79-14.66
	c-4.32-3.26-10.01-4.59-15-6.26c6.37,1.56,17.88,1.17,19.03,9.42C309.88,412.62,244.69,411.49,225.22,415.25z"/>
<path class="st1" d="M213.66,442.72c14.58-2.66,83.07-2.45,87.1-13.15c-0.36-7.16-22.89-8.74-29.03-10.29
	c7.11,0.32,14.32,1.23,21.34,2.68c20.17,4.37,6.5,15.68-6.39,16.79C262.72,443.22,237.88,442.38,213.66,442.72z"/>
<path class="st1" d="M275.51,243.06c14.83-3.36,62.23-5.54,70.2-15.26c-3.67-3.82-15.24-2.46-20.76-3.66
	c5.5-0.5,11.19-0.96,16.77-0.9c13.44,0.61,6.08,10.16-2.3,12.2C318.72,241.27,296.75,241.38,275.51,243.06z"/>
<path class="st1" d="M275.65,207.94c15.93-2.77,79.44-2.04,86.03-13c-0.02,0.11-0.04,0.19-0.06,0.3c0.04-0.17,0.09-0.35,0.08-0.52
	c-2.76-3.51-7.77-4.5-11.42-6.74c-0.41-0.01-1.42,0.12-1.51-0.56c0.81-3.77,8.56-0.79,11.13-0.03c11.92,4.77,4.08,14.79-5.26,15.93
	C328.73,208.38,301.82,206.78,275.65,207.94z"/>
<path class="st1" d="M276.81,176.59c19.61-2.85,39.31-5.12,58.85-8.35c4.64-0.93,32.38-6.16,27.85-13.25
	c0.05,0.05,0.09,0.09,0.14,0.14c-2.91-2.16-7.13-2.04-10.55-2.14c-6.21-0.11-12.67,1.66-18.69-0.45c2.05,0.25,4.35,0.42,6.41,0.09
	c6.49-0.87,29.47-6.96,26.04,5.8c-4.96,9.25-30.56,12.42-40.53,13.59C309.89,173.84,293.23,175.23,276.81,176.59z"/>
<path class="st1" d="M285.82,142.25c18.86-5.31,59.33-8.32,72.56-20.25c-3.99-4.98-28.72-2.43-36.62-3.92
	c4.82-0.3,9.82-0.51,14.71-0.76c5.09,0.14,26.7-2.9,24.87,5.31C348.12,137.08,305.75,137.93,285.82,142.25z"/>
<path class="st1" d="M270.06,119.49c19.26-5.3,39.53-8.15,57.94-15.9c6.83-8.32-16.7-6.95-20.88-7.26
	c-3.28-0.04-6.55-0.09-9.83-0.07c4.12-0.39,8.43-0.54,12.62-0.76c6.01-0.21,27.65-1.72,19.4,9.24
	C311.01,113.57,289.67,115,270.06,119.49z"/>
</svg>
