<?xml version="1.0" encoding="utf-8"?>
<!-- Generator: Adobe Adobe Illustrator 24.2.0, SVG Export Plug-In . SVG Version: 6.00 Build 0)  -->
<svg version="1.1" id="Vector_layer_1_" xmlns="http://www.w3.org/2000/svg" xmlns:xlink="http://www.w3.org/1999/xlink" x="0px"
	 y="0px" viewBox="0 0 500 500" style="enable-background:new 0 0 500 500;" xml:space="preserve">
<style type="text/css">
	.st0{fill:#F20519;}
	.st1{fill:#F9A3FE;}
</style>
<path class="st0" d="M190.15,406.89c-11.65-0.44-40.94,6.05-42.5-10.26c6.7-12.35,38.39-20.66,49.96-20.82
	c-11.66,2.26-38.27,11.87-44.02,22.25c4.93,9.3,45.71,2.14,57.19,2.59c37.38-1.92,74.79-2.65,112.21-3.03
	C278.82,400.91,234.38,403.34,190.15,406.89z"/>
<path class="st0" d="M191.26,372.1c-7.12,0.4-17.72,2.42-20.38-6.4c-0.51-0.96-0.31-2.29,0.62-2.95c7.72-7,38.46-14.38,47.47-13.38
	c-0.03-0.05-0.07-0.1-0.11-0.15c-13.8,4.06-28.43,8.92-40.76,16.4c0.07,0.13,0.14,0.26,0.22,0.39c0.03,0.05,0.06,0.1,0.1,0.15
	c48.47-0.49,97.33-6.33,146.02-7.11C280.17,363.61,235.73,369.27,191.26,372.1z"/>
<path class="st0" d="M224.21,337.25c-15.45-0.25-31.29,1.24-46.49-1.78c-16.49-7.85,8.71-12.69,15.57-14.19
	c11.18-2.25,22.43-4.96,33.87-5.21c0.76-0.13,3.73,0.7,1.94,0.7c0.16-0.01,0.32-0.01,0.45-0.1c-9.19-0.27-18.23,3.75-27.14,5.83
	c-8.21,2.59-17.09,3.64-24.57,8.11c10.45,4.09,23.11,2.25,34.33,3.49c15.83,0.69,31.66,1.54,47.48,2.47
	C247.93,336.93,236,337.1,224.21,337.25z"/>
<path class="st0" d="M239.4,304.41c-14.81-0.48-61.5,5.44-68.59-8.06c2.12-7.85,13.04-5.46,19.21-7.96
	c16.03-3.43,32.25-6.03,48.57-7.64c1.54-0.12,3.18-0.34,4.66-0.39c-22.26,4.3-46.83,7.79-67.32,15.93c9.92,5.46,22,4.1,32.92,5.07
	c23.93,0.51,47.87,0.73,71.8,1.3C267.01,303.33,253.13,303.89,239.4,304.41z"/>
<path class="st0" d="M223.84,269.69c-15.29-0.02-30.9,3.07-46.03,1.09c-12.6-5.32-3.49-7.73,4.14-10.38
	c23.64-4.45,47.82-8.05,71.83-8.83c-15.03,1.33-29.86,4.3-44.68,7.05c-10.59,2.42-21.93,2.79-31.75,7.76
	c9.65,3.46,20.69-0.05,30.84,0.88c19.21-0.15,38.42-0.11,57.64-0.07C251.93,268.16,237.82,268.94,223.84,269.69z"/>
<path class="st0" d="M241.85,244.59c-12.86-1.07-56.59,2.55-61.55-9.47c2.68-8.92,13.5-8.85,20.91-11.58
	c7.86-1.53,18.83-5.28,25.54-2.75c-5.39-2.25-41.39,7.89-41.58,14.38c12.1,5.46,25.77,3.81,38.68,5.07
	c19.95,1.24,39.9,2.45,59.84,3.96C269.82,244.49,255.77,244.58,241.85,244.59z"/>
<path class="st0" d="M234.85,215.5c-20.32,0.05-41.08,3.03-60.94-2.51c-1.08-0.23-2.42-1.26-2.08-2.53
	c0.57-9.27,11.92-8.26,18.62-10.38c2.09-1.04,34.48-4.57,21.59-0.96c0.74-0.37,1.93-0.32,2.54-1.04
	c-5.47,0.49-37.25,6.36-37.39,11.44c31.91,6.29,65.09,2.44,97.48,4.67C261.49,214.72,248.1,215.11,234.85,215.5z"/>
<path class="st0" d="M266.9,181.22c-19.7-0.04-39.39-0.15-59.08-0.47c-15.81-0.67-31.36,0.61-46.87-2.42
	c-32.68-8.6,14.41-12.54,23.6-12.96c15.17-0.06,40.65-5.03,53.75,1.53c-7.34-4.07-17.08-1.42-25.25-1.53
	c-18.92,2.42-38.43,2.28-56.62,7.45c12.93,4.72,27.01,3.31,40.52,4.44C220.26,178.44,243.68,179.78,266.9,181.22z"/>
<path class="st0" d="M205.11,146.45c-6.13-1.17-75.49-1.65-66.86-10.02c22.12-11.21,48.51-7.73,72.55-11
	c20.9-0.97,41.9-1.56,62.75,0.54c-1.44-0.01-3.03-0.16-4.51-0.19c-26.3-0.53-52.55,1.7-78.68,4.55
	c-14.88,2.15-30.74,1.39-44.79,7.15c32.94,5.98,66.64,7.23,99.9,11.11C232.09,148,218.54,147.19,205.11,146.45z"/>
<path class="st0" d="M327.27,118.58c-46.35-3.68-92.95-6.06-139.09-11.41c-4.82-0.87-8.88-3.38-12.22-6.89
	c-4.28-4.8,19.14-6.29,22-6.18c26.24-0.28,52.65,0.21,78.71,2.72c-31.37,0.05-64.7-3.04-95.47,3.15
	c10.69,7.65,25.37,4.45,37.74,6.86C255.04,110.59,291.25,114.64,327.27,118.58z"/>
<path class="st0" d="M376.24,94.02c-22.16-4.96-120.67-10.01-127.62-26.26c-3.09-20.26,60.03-9.73,70.86-4.91
	c-7.65-3.56-70.87-9.85-66.29,4.96c0,0-0.07-0.06-0.07-0.06c2.92,3.9,8.63,4.05,12.97,5.43c12.62,3.81,25.33,5.59,38.23,7.94
	C328.28,85.33,352.36,89.69,376.24,94.02z"/>
<path class="st0" d="M264.19,437.98c-17.35,0.09-34.7,0.95-52.03,0.26c-8.89-0.4-18.44,0.6-26.68-3.38
	c-2.06-1.61-9.36-6.05-8.34-8.64c8.03-13.98,30.66-15.13,45.29-16.11c-12.55,1.87-35.36,4.58-41.53,16.88
	c10.23,11.07,26.99,6.22,40.31,7.96c22.17,0.34,44.39,0.98,66.53,1.74c4.13,0.14,8.38,0.2,12.44,0.38
	C288.18,437.45,276.18,437.79,264.19,437.98z"/>
<path class="st1" d="M257.5,421.81c-22.55,0.69-45.12,0.95-67.68,0.54c-2.61-0.04-5.22-0.27-7.82-0.44
	c-2.37-0.06-5.18,0.19-7.1-1.45c-0.86-0.76-1.2-2.43-0.29-3.28c2.14-1.35,4.32-2.44,6.35-3.9c0.49-0.45,1.36-0.83,1.45-1.56
	c-0.02-0.02-0.04-0.05-0.07-0.06c-0.01-0.01,0-0.02,0.01-0.02c0.85,0.36-1.76,2.81-1.99,3.03c-0.86,0.84-1.75,1.65-2.64,2.45
	c-0.59,0.6-2.02,1.07-1.12,2.03c1.87,0.93,4.09,0.4,6.1,0.58c1.74,0.11,3.51,0.26,5.24,0.29C211.1,420.4,234.41,420.71,257.5,421.81
	z"/>
<path class="st1" d="M220.49,387.59c-17.97-0.3-36.87,2.4-54.24-3.1c-9.95-7.22,0.43-10.22,7.26-11.94c-0.5,1.8-4.24,3.65-5.79,5.48
	c-1.06,0.63-0.63,1.63-0.28,2.39c9.75,4.64,21.6,3.38,32.21,4.36c15.85,0.81,31.71,1.37,47.57,1.98
	C238.41,387.14,229.38,387.36,220.49,387.59z"/>
<path class="st1" d="M214.83,350.62c-6.82-0.69-44.36,2.59-37.77-10.15c2.17-1.23,5.97-2.55,8.2-1.23
	c-1.98-0.53-6.97,1.26-6.82,3.81c-0.12,0.63,0.53,1.19,0.99,1.39c29.49,6.48,60.52,3.1,90.58,5.81
	C251.7,350.63,233.2,350.7,214.83,350.62z"/>
<path class="st1" d="M242.36,327c-19.52-0.44-39.44,1-58.66-2.83c-2.9-0.83-6.41-3.5-5.75-6.86c1-2.2,3.56-3.15,5.68-3.97
	c1.69-0.47,5.33-1.88,6.1,0.45c0.1,0.68-0.48,1.22-1.11,1.33c-2.26,0.64-4.53,1.62-6.21,3.3c1.2,2.77,4.89,2.64,7.44,3.19
	c5.6,1.07,10.78,1.49,16.37,2C218.25,324.66,230.4,325.79,242.36,327z"/>
<path class="st1" d="M215,292.28c-7.3-1.03-46.89,2.88-46.18-5.65c2.1-3.35,6.19-3.6,9.63-4.72c2.06-0.16,4.53-1.9,6.44-1.2
	c0.07,0.34-1.69,0.79-0.62,0.21c-3.44,2.32-7.58,3.68-10.92,6.06c23.61,4.44,48.54,2.7,72.47,5.21
	C235.55,292.26,225.27,292.3,215,292.28z"/>
<path class="st1" d="M221.2,248.76c-13.91,0.27-28.62,2.08-42.13-1.46c-4.1-3.07,0.28-4.03,3.3-4.28c0.05-0.01,0.8-0.07,0.93,0.08
	c-1.76-0.08-3.56,0.79-5.14,1.56c2.51,4.92,13.39,1.54,18.35,2.39c17.08-0.72,34.18-0.75,51.27-0.22
	C239.03,247.68,230.04,248.28,221.2,248.76z"/>
<path class="st1" d="M191.56,226.75c-26.84,3.11-23.9-10.38-10.76-6.33c0,0,0,0,0,0.01c-1.54,0.59-2.88,1.55-4.36,2.25
	c17.1,2.37,35,0.4,52.26,1.5C216.33,225.22,203.95,226.13,191.56,226.75z"/>
<path class="st1" d="M199.4,197.83c-6.25-0.79-46.75,0.67-32.47-11.72c-0.02-0.24-0.21-0.49-0.25-0.65
	c1.92,2.02-4.46,4.77-0.96,6.44c12.56,3.9,26.38,1.54,39.38,3.35c8.67,0.6,17.32,1.36,25.97,2.17
	C220.61,197.81,209.93,197.94,199.4,197.83z"/>
<path class="st1" d="M213.55,164.31c-17.71-0.5-35.52-0.48-53.14-2.33c-3.41-0.84-12.18-2.05-11.59-6.79
	c0.1-0.7,0.49-1.38,0.88-1.95c0.89-1.03,2.44-1.23,3.41-2.16c-0.01-0.03-0.03-0.06-0.04-0.09c-0.16-0.11-0.42-0.17-0.49-0.29
	c0.28,0.08,0.71,0.07,0.87,0.34c-0.07,1.34-1.97,2.06-2.08,3.42c-0.68,3.01,4.76,3.38,6.77,4.24c5.09,1.36,10.39,1.42,15.6,1.95
	C187,161.75,200.37,162.95,213.55,164.31z"/>
<path class="st1" d="M196,121.51c-12.71-0.49-26.67,2.68-38.44-3.28c-1.85-0.9-0.16-3.21,0.61-4.37c2.58-1.81,8.86-3.03,10.67-2.98
	c-2.78,1.62-7.84,2.2-8.81,5.5c20.35,5.21,42.26,2.07,63.17,4.25C214.21,121.06,205.04,121.3,196,121.51z"/>
<path class="st1" d="M291.42,90.61c-16.83-2.34-86.16-0.61-92.13-13.98c0.88-6.16,24.09-7.48,30.22-9.1
	c2.47-0.35,5.05-0.7,7.48-0.92c-10.98,3.14-24.8,4.06-34,10.14c5.97,4.47,14.15,4.26,21.03,5.52
	C246.45,85.19,269.06,87.67,291.42,90.61z"/>
</svg>
