<?xml version="1.0" encoding="utf-8"?>
<!-- Generator: Adobe Adobe Illustrator 24.2.0, SVG Export Plug-In . SVG Version: 6.00 Build 0)  -->
<svg version="1.1" id="Vector_layer_1_" xmlns="http://www.w3.org/2000/svg" xmlns:xlink="http://www.w3.org/1999/xlink" x="0px"
	 y="0px" viewBox="0 0 500 500" style="enable-background:new 0 0 500 500;" xml:space="preserve">
<style type="text/css">
	.st0{fill:#1C05F2;}
	.st1{fill:#00FFFF;}
</style>
<path class="st0" d="M210.53,110.64c19.74-5.66,40.35-6.81,60.71-8.62c12.93-1.32,46.85-2.61,52.78-15.57
	c0.41-1.92-1.77-2.8-3.08-3.67c-6.13-3.43-13.23-4.46-20.09-5.2c-2.27-0.22-4.67-0.35-6.88-0.56c6.35,0,12.7,0.19,19.01,0.86
	c5.82,1.01,19.07,2.18,16.77,10.75c-3.25,8.8-13.61,11.88-21.85,14.15c-14.7,3.53-29.93,3.54-44.96,4.18
	C245.46,107.62,227.81,108.05,210.53,110.64z"/>
<path class="st0" d="M233.77,134.11c20.17-4.18,40.81-4.59,61.29-6c10.39-1.13,26.95-1.02,34.87-8.19c1.14-1.38,0.97-3.11,0.15-4.44
	c-5.53-6.55-14.75-8.04-22.38-11c5.08,0.87,10.21,2.13,15.19,3.67c5.79,1.73,15.48,6.65,10.98,13.91
	c-5.85,7.62-16.65,8.88-25.53,10.39C283.6,135.19,258.53,133.17,233.77,134.11z"/>
<path class="st0" d="M235.61,172.81c24.2-8.12,50.14-6.91,74.99-11.74c8.3-2.03,18.04-3.73,23.66-10.76
	c3.84-5.48-3.51-9.05-7.52-11.22c-6.09-3.12-12.94-4.71-19.46-6.39c9.25,1.88,18.66,3.99,26.9,8.8c5.82,3.26,5.28,9.21,0.83,13.45
	c-5.7,5.64-13.73,8.21-21.35,10.04C288.01,170.58,261.24,168.24,235.61,172.81z"/>
<path class="st0" d="M218.07,199.45c29.52-6.63,60.18-5.25,89.89-10.66c7.42-1.74,16.3-3.07,21.13-9.57
	c3.43-5.93-5.71-7.66-9.65-9.09c-3.41-0.95-6.89-1.62-10.38-2.2c5.1,0.4,10.36,1.16,15.34,2.6c8.02,1.67,11.21,7.46,4.68,13.59
	c-7.29,6.56-17.43,8.76-26.79,10.65C274.49,199.49,246,197.14,218.07,199.45z"/>
<path class="st0" d="M225.53,229.73c8.8-4.34,18.68-5.62,28.27-7.09c16.58-2.36,33.31-3.62,49.77-6.8
	c32.77-7.08,10.13-14.69-8.01-17.33c4.38,0.26,8.93,0.44,13.34,1.03c30.56,4.88,12.11,19.67-6.93,22.76
	C276.88,227.96,250.57,224.48,225.53,229.73z"/>
<path class="st0" d="M222.77,257.09c5.13-3.76,11.9-4.08,17.94-5.47c10.75-1.78,21.58-2.96,32.42-4.05
	c11.37-2.01,29.65-1.16,38.14-9.3c4.83-7.19-11.05-7.98-15.15-9.8c3.74,0.46,7.64,0.87,11.38,1.61c8.93,1.08,11.3,8,4.19,13.78
	c-10,7.5-23.21,8.32-35.2,9.77c-15.8,1.33-31.87,0.84-47.59,1.97C226.77,255.78,224.65,256.22,222.77,257.09z"/>
<path class="st0" d="M217.66,283.25c14.98-5.98,31.12-8.07,47.1-9.24c9.12-0.79,17.53-0.8,26.33-2.45
	c9.04-1.58,15.28-6.03,2.67-9.59c-1.55-0.43-3.27-0.83-4.72-1.34c1.86,0.45,3.74,0.78,5.6,1.23c3.72,0.78,10.9,3.03,6.59,7.76
	c-4.77,4.31-11.46,5.59-17.54,7.06C261.82,280.82,239.46,280.08,217.66,283.25z"/>
<path class="st0" d="M220.86,315.58c12.03-2.21,24.01-4.67,36.07-6.7c8.21-2.17,30.74-4.09,32.85-13.61
	c-1.02-5.57-9.03-5.64-13.4-7.2c4.69,0.61,10.37,0.48,14.24,3.68c6.92,6.83-4.33,14.05-10.2,16.45
	C261.74,315.93,240.65,314.9,220.86,315.58z"/>
<path class="st0" d="M241.33,354.95c-6.44-0.19-12.87-0.55-19.28-1.21c10.91-1.13,21.97-2.24,32.89-3.07
	c7.8-1.27,20.38-0.84,25.4-7.69c0.19-0.38,0.35-0.78,0.48-1.19c0.04-0.18,0.08-0.35,0.1-0.32c-0.2-6.86-7.7-10.59-12.05-14.82
	c8.87,4.44,23.78,14.38,9.99,23.09C267.56,356.05,253.85,355.06,241.33,354.95z"/>
<path class="st0" d="M228.61,388.98c12.56-1.81,25.16-3.43,37.64-5.79c5.7-1.41,14.99-2.39,18.37-7.57
	c2.84-6.59-7.85-10.53-12.56-11.84c5.95,1.36,17.98,5.32,14.32,13.42C277.7,390.11,243.05,388.67,228.61,388.98z"/>
<path class="st0" d="M245.3,409.45c9.24-2.74,18.72-4.54,28.15-6.51c4.94-1.27,10.6-2,14.4-5.69c1.53-1.48,1.34-3.68-0.67-4.55
	c-1.28-0.69-2.62-1.28-3.96-1.85c1.35,0.39,2.82,1.01,4.17,1.59c6.57,3.41-2.54,9.35-6.23,10.65
	C269.87,407.76,257.33,408.76,245.3,409.45z"/>
<path class="st0" d="M229.75,429.52c9.3-1.27,19.15-2.35,28.48-2.85c7.44-0.8,37.67-0.28,25.19-13.7c-0.53-0.55-1.24-1.11-1.72-1.62
	c1.8,1.23,3.47,2.58,4.88,4.26c4.09,5.66-3.59,10.19-8.34,11.49C262.56,431.7,245.86,430.06,229.75,429.52z"/>
<path class="st0" d="M206.9,440.16c-7.51-0.23-15.11-0.94-22.5-1.88c21.1-0.86,42.19-1.72,63.31-0.82
	c6.84-0.42,17.1,1.29,22.79-2.49c-0.57,1.1-2,1.51-3.16,1.88C247.55,440.82,227.01,440.21,206.9,440.16z"/>
<path class="st0" d="M217.16,80.44c15.51-3.7,31.27-6.08,47.13-7.67c5.17-0.56,10.4-1.03,15.51-1.92c1.26-0.41,2.91-0.34,3.89-1.29
	c-5.95-1.35-12.06-0.57-18.09-0.83c4.94-0.1,9.98-0.8,14.98-0.67c1.83,0.07,6.81-0.44,4.69,2.7c-0.85,0.95-2.17,1.28-3.34,1.7
	c-3.2,1.1-6.54,1.66-9.85,2.3C253.86,77.95,235.4,78.63,217.16,80.44z"/>
<path class="st0" d="M185.33,62.73c14.18-3.63,28.95-4.26,43.51-4.99c-4.67-0.23-9.46-0.42-14.06-0.74
	c9.94-0.4,20.21-1.97,30.06-0.71C253.03,63.78,189.97,62.33,185.33,62.73z"/>
<path class="st1" d="M224.28,73.52c8.53-3.04,17.16-5.8,26-7.78c4.4-1.04,8.82-1.98,13.25-2.9c1.96-0.54,3.95-0.82,5.61-1.83
	c-2.64,0.02-5.12,1.04-7.75,1.09c0.25-0.08,0.71-0.12,1.02-0.2c2.17-0.23,6.56-3.03,8.21-1.43c0.46,0.55,0.28,1.06-0.11,1.58
	c-1.11,1.24-2.78,1.84-4.26,2.54c-4.32,1.8-8.86,2.95-13.42,3.94C243.39,70.45,233.78,72.2,224.28,73.52z"/>
<path class="st1" d="M246.36,87.64c10.73-1.9,21.49-3.64,32.2-5.71c4.39-1.15,17.09-3.1,19.34-6.71c-2.25-1.18-4.91-1.2-7.26-2.15
	c2.14,0.27,4.44,0.19,6.63,0.45c1.58,0.05,3.32,1.36,2.67,3.08c-2.56,4.54-8.47,5.71-13.11,7.11
	C273.62,86.93,259.85,87.69,246.36,87.64z"/>
<path class="st1" d="M276.21,117.87c5.58-1.45,11.19-2.85,16.89-3.73c2.58-0.78,38.22-2.38,29.47-8.15c-2.21-1.7-4.84-3.03-7.6-3.05
	c2.51-0.34,5.01,0.29,7.28,1.38c2.02,0.83,4.87,2.36,4.11,4.98c-3.69,7.36-25.14,6.37-32.79,7.09
	C287.79,116.75,281.93,117.37,276.21,117.87z"/>
<path class="st1" d="M297.45,147.68c-3.44-0.03-6.87-0.14-10.31-0.26c7.14-0.65,14.47-1.01,21.65-1.71
	c3.93-0.45,8.08-0.8,11.88-1.63c2.68-0.38,16.34-4.32,8.1-6.8c-2.1-0.73-4.46-0.65-6.56-1.07c3.19,0.07,11.35-1.09,11.2,3.78
	C330.06,148.49,305.51,147.59,297.45,147.68z"/>
<path class="st1" d="M295.41,180.85c5.53-1.75,11.09-3.42,16.71-4.91c2.24-0.8,16.77-3.72,15.72-6.23c-2.11-0.63-4.28-0.54-6.4-1.1
	c1.8,0.17,3.73,0.07,5.59,0.12c1.3-0.07,2.95,0.94,2.14,2.36c-1.78,2.5-4.93,3.63-7.69,4.72
	C313.07,178.51,304.15,180.14,295.41,180.85z"/>
<path class="st1" d="M293.22,202.75c-0.87-0.07-1.83-0.07-2.65-0.19c3.49-0.59,32.02-2.97,30.03-7.11
	c-1.89-1.07-4.27-0.71-6.23-1.33c2.72,0.15,6.69-1.49,8.42,1.43C324.62,203.78,298.45,203.08,293.22,202.75z"/>
<path class="st1" d="M287.61,235.02c6.85-2.67,14.11-3.84,21.29-5.16c1.72-0.43,3.4-0.65,4.83-1.45c-2.42-0.85-6.44-1.06-8.07-1.7
	c2.62,0.43,9.27-1.24,10.56,1.51C318.15,233.8,291.67,234.24,287.61,235.02z"/>
<path class="st1" d="M274.18,264.32c5.56-1.91,11.13-3.78,16.82-5.23c3.18-1,6.79-1.34,9.58-3.23c-2.64-1.42-5.64-2.61-8.58-1.72
	c2.35-1.7,5.27-1.41,7.9-0.63c2.66,0.37,4.82,3.05,1.91,4.89c-2.54,1.56-5.58,2.1-8.44,2.8
	C287.06,262.58,280.56,263.62,274.18,264.32z"/>
<path class="st1" d="M260.5,293.56c-1.19-0.07-2.48-0.1-3.61-0.29c9.01-1.19,18.13-2.14,27.02-4.08c2.5-0.84,2.13-1.87-0.24-2.28
	c-1.22-0.31-2.79-0.04-3.82-0.45c1.83,0.07,3.7-0.56,5.54-0.06c0.99,0.19,2.01,1.01,1.91,2.11c-0.24,1.8-2.26,2.6-3.77,3.17
	C276.11,293.85,268.17,293.78,260.5,293.56z"/>
<path class="st1" d="M240.38,326.78c6.88-1.04,13.95-2.09,20.97-2.53c5.17-0.6,26.55,0.39,12.23-5.45c4.82,0.2,9.55,4.03,2.69,6.38
	C264.61,328.12,252.3,327.2,240.38,326.78z"/>
<path class="st1" d="M251.85,369.69c8.69-2.96,18.01-3.07,26.28-6.67c-2.41-0.87-5.16-0.77-7.57-1.44c2.12,0.02,4.21-0.27,6.33-0.25
	c2.46-0.22,5.04,1.75,2.56,3.94C271.34,370.06,260.93,369.26,251.85,369.69z"/>
<path class="st1" d="M259.3,397.01c2.76-0.63,5.7-1.33,8.53-1.96c4.75-1.15,9.88-1.54,14.48-3.12c-1.38-0.44-2.81-0.53-4.25-0.54
	c0.11-0.1,0.44-0.12,0.6-0.21c1.64-0.56,3.59-1.16,5.27-0.53C291.58,396.67,262.02,397.32,259.3,397.01z"/>
<path class="st1" d="M264.46,417.24c5.24-2.03,11.34-2.23,16.78-3.28c2.29-0.42,3.48-1.66,0.87-2.9c0.14,0.01,0.41,0.15,0.59,0.19
	c3.18,0.61,1.82,3.51-0.41,4.38C276.77,418.09,270.36,418.02,264.46,417.24z"/>
</svg>
