<?xml version="1.0" encoding="utf-8"?>
<!-- Generator: Adobe Adobe Illustrator 24.2.0, SVG Export Plug-In . SVG Version: 6.00 Build 0)  -->
<svg version="1.1" id="Vector_layer_1_" xmlns="http://www.w3.org/2000/svg" xmlns:xlink="http://www.w3.org/1999/xlink" x="0px"
	 y="0px" viewBox="0 0 500 500" style="enable-background:new 0 0 500 500;" xml:space="preserve">
<style type="text/css">
	.st0{fill:#1C05F2;}
	.st1{fill:#00FFFF;}
</style>
<path class="st0" d="M209.48,101.53c25.64-6.27,52.18-6.27,78.32-8.72c13.97-1.49,46.6-3.72,56.48-12.75
	c2.97-2.9,0.44-4.73-2.23-6.29c-2.96-1.7-5.94-3.07-8.83-4.33c-10.34-4.18-19.03-6.74-29.97-3.6c2.72-0.82,5.43-1.73,8.24-2.17
	c5.32-0.76,10.72,0.18,15.91,1.36c6.54,1.77,19.07,4.69,22.54,10.7c7.66,21.31-75.56,22.32-88.96,22.64
	C243.75,98.57,226.48,99.18,209.48,101.53z"/>
<path class="st0" d="M233.23,125.04c23.05-7.63,47.76-5.15,71.63-6.83c15.41-0.35,61.34-8.88,20.82-17.48
	c-5.61-1.02-11.17-0.48-16.77,0c9.99-2.76,20.74-2.24,30.57,1.24c20.82,7.28-5.11,18.81-14.96,19.65
	C294.44,127.43,263.39,120.93,233.23,125.04z"/>
<path class="st0" d="M225.37,157.42c24.54-5.86,49.76-7.76,74.78-10.47c10.92-1.39,21.57-2.01,31.47-6.46
	c9.74-5.36,0.61-8.78-5.74-9.69c-9.15-1.62-18.53-2.52-27.65-3.9c12.35,0.32,25.35-1,37.15,3.29c13.77,7.17-3.03,17.82-11.69,19.08
	C291.5,156.33,258.03,155.17,225.37,157.42z"/>
<path class="st0" d="M227.74,190.95c20.7-6.89,42.43-9.5,64.03-11.82c13.99-1.72,28.18-1.97,42.09-4.28
	c24.56-6.69-12.23-12.57-19.55-13.46c9.98,0.98,21.42-0.3,29.97,5.8c6.42,6.85-5.09,11.82-10.74,12.83
	C298.77,187.12,262.79,186.22,227.74,190.95z"/>
<path class="st0" d="M235.73,228.01c21.21-4.62,43.07-4.84,64.68-5.46c9.41-0.64,31.78,0.68,36.25-8.97
	c1.54-5.14-1.17-10.81-4.64-14.56c-2.42-2.52-5.81-3.56-8.95-4.87c1.14,0.29,2.45,0.74,3.65,1.09c8.21,1.81,17.16,14.09,12.36,22.06
	c-7.7,11.47-38.4,8.92-51.45,9.63C270.36,227.07,252.93,227.17,235.73,228.01z"/>
<path class="st0" d="M253.63,265.97c-9.21-0.27-18.56-0.69-27.66-1.68c30.2-3.62,60.66-3.05,90.69-7.75
	c3.53-0.81,7.37-1.61,10.45-3.55c1.92-1.16,3.27-3.69,0.51-4.66c-8.29-2.71-17.25-0.95-25.7-0.94c6.74-0.23,34.51-7.24,30.84,6.02
	c-4.56,8.77-22.86,10.14-31.87,11.18C285.18,266.01,269.39,266.36,253.63,265.97z"/>
<path class="st0" d="M223.52,302.37c4.65-2.02,9.73-2.81,14.68-3.77c16.46-2.84,33.15-3.99,49.78-5.39
	c4.67-0.9,42.52-1.36,37.96-8.81c-1.79-2.63-4.1-5.05-7.01-6.42c-5.52-2.13-11.39-3.15-17.05-4.82c2.69,0.38,5.57,0.95,8.33,1.36
	c4.43,0.74,9.06,0.9,13.12,2.99c5.72,2.89,12.97,9.54,5.6,15.05c-8.1,5.18-18.27,5.31-27.55,6.44c-14.96,1.44-29.98,1.91-45,2.1
	C245.4,301.48,234.29,300.92,223.52,302.37z"/>
<path class="st0" d="M256.93,330.75c-5.53-0.22-11.06-0.51-16.59-0.82c-3.27-0.17-6.54-0.46-9.77-0.35c-1.08,0.09-2.36,0.19-3,1.09
	c0.94-2.31,6.44-2.4,8.68-2.81c6.99-0.81,14.02-1.32,21.04-1.75c15.8-1.49,56.79-1.41,67.76-11.19c6.63-6.36-26.12-8.58-29.49-9.03
	c-0.01,0-0.02-0.02,0-0.02c8.21,0.07,16.47-0.01,24.63,1.05c4.71,0.56,11.72,2.17,11.46,8.14c-1.07,6.14-7.75,8.9-12.99,10.8
	C298.73,331.94,277.53,331.3,256.93,330.75z"/>
<path class="st0" d="M276.98,364.72c-17.96,0.93-36.76-4.25-54.28-0.65c18.9-10.59,85.75,1.91,96.35-18.77
	c-0.79-10.73-16.01-9.72-23.91-10.58C335.39,324.06,345.54,368.02,276.98,364.72z"/>
<path class="st0" d="M211.09,399.2c21.21-2.93,42.58-4.04,63.87-6.18c9.96-1.19,36.75-5.11,41.16-14.5c1.05-4.2-4.92-5.13-7.89-5.39
	c-2.79-0.12-5.53,0.39-8.27,0.83c-0.41,0.07-1.56,0.33-1.81-0.04c0,0,0,0,0,0c1.57,0.24,3.22-0.7,4.79-0.99
	c2.16-0.57,4.34-0.96,6.58-0.99c6.02-0.2,12.7,3.64,9.14,10.35c-5.02,7.6-14.65,10.2-22.98,12.46c-10.15,2.56-20.66,3.43-31.1,3.84
	C246.78,399.2,228.84,399.2,211.09,399.2z"/>
<path class="st0" d="M189.14,430.68c25.14-5.5,51.04-5.74,76.66-6.23c8.48-0.51,32.42,1.04,36.99-6.52c0.88-2.73-1.6-4.63-3.38-6.14
	c-4.92-4.06-11.35-4.75-17.36-6.02c-3.27-0.77-6.59-1.7-9.69-2.83c2.49,0.67,4.97,1.28,7.5,1.8c6.57,1.16,13.5,1.22,19.46,4.57
	c2.82,1.61,5.96,3.65,7.06,6.85c3.01,14.24-31.99,12.89-40.89,13.34C240.06,429.85,214.46,429.18,189.14,430.68z"/>
<path class="st0" d="M212.51,77.18c19.12-4.62,38.55-7.79,58.1-9.85c5.68-0.62,11.37-1.17,17.04-1.89c1.48-0.19,3.21-0.16,4.52-0.87
	c-7.56-2.58-15.84-3.4-23.03-6.96c2.99,1.41,6.64,1.88,9.87,2.6c3.27,0.6,6.55,1.17,9.83,1.71c1.51,0.27,7.37,0.91,6.54,3.15
	c-1.26,2.7-4.53,2.99-7.14,3.43c-11.85,2.39-23.93,3.44-35.94,4.76C239.06,74.61,225.73,76.24,212.51,77.18z"/>
<path class="st0" d="M176.27,54.7c13.34-2.95,26.88-4.77,40.43-6.37c6.07-1.09,29.71-2.63,32.11-7.6c0.09-0.66-0.46-1.07-0.98-1.37
	c-1.45-0.82-3.13-1.27-4.53-2.18c-0.85-0.62-1.72-1.41-2.38-2.15c1.7,1.56,3.77,2.31,5.99,2.75c2.47,0.36,5.18,2.5,3.49,5.14
	c-2.16,3.08-6.16,4.13-9.61,5.09c-10.86,2.83-22.11,3.74-33.26,4.8C197.15,53.71,186.64,54.41,176.27,54.7z"/>
<path class="st1" d="M226.6,61.62c5.43-2.13,59.09-11.17,31.45-16.14c13.41,0.19,12.45,6.16,1.16,10.3
	C248.77,59.47,237.47,60.27,226.6,61.62z"/>
<path class="st1" d="M263.22,81.66c8.4-2.3,46.83-2.07,44.38-14.62c-0.52-1.05-1.87-1.22-2.77-1.61c1.31,0.19,2.73,0.51,3.4,1.78
	c1.66,3.37-1.54,6.63-4.16,8.37C291.91,82.95,276.86,81.36,263.22,81.66z"/>
<path class="st1" d="M291.78,112.22c8.08-2.73,16.28-5.14,24.57-7.18c4.75-1.19,9.53-2.25,14.19-3.78c1.38-0.65,3.32-0.97,4.19-2.29
	c-6.06-2.17-12.52-3.7-18.65-5.54c4.84,0.78,9.6,1.95,14.41,2.84c1.99,0.56,4.45,0.37,6.05,1.86c3.1,4.81-11.34,7.47-14.37,8.36
	C312.13,108.72,301.88,110.69,291.78,112.22z"/>
<path class="st1" d="M291.24,135.66c12.02-3.02,24.65-3.83,36.5-7.19c1.53-0.53,6.43-2.58,3.64-4.4c-2.92-1.18-6.12-0.95-9.19-1.36
	c3.33,0.23,7.45-0.66,10.48,1.23c1.83,1.52,0.03,3.83-1.51,4.75C321.15,134.56,302.91,134.9,291.24,135.66z"/>
<path class="st1" d="M295.8,170.45c4.44-1.23,8.9-2.38,13.38-3.43c5.64-1.57,20.81-3.76,24.01-8.18c-4.29-1.47-9.17-1.44-13.53-0.57
	c4.04-1.96,8.76-2.66,13.2-2.07c5.55,1.19,4.05,5.71-0.17,7.68C321.26,169.17,308.1,169.31,295.8,170.45z"/>
<path class="st1" d="M297.03,207.3c11.23-4.23,24.15-4.68,34.56-10.67c-5.33-2.21-11.28-2.85-16.96-1.91
	c2.27-0.81,4.77-1.47,7.27-1.59c3.97,0.12,15.6-0.96,13.12,5.8C327.22,206.46,307.65,206.05,297.03,207.3z"/>
<path class="st1" d="M288.07,250.8c4.05-1.02,8.12-1.99,12.19-2.95c8.29-2.12,17.34-3.35,24.49-8.31c4.21-3-11.67-5.4-13.39-5.72
	c-0.03-0.05,0.13,0,0.16-0.01c3.86,0.31,14.18,0.42,16.33,3.75c1.74,3.23-2.34,5.83-4.78,7.18
	C312.29,250.01,299.74,249.88,288.07,250.8z"/>
<path class="st1" d="M294.87,281.97c-7.22-0.34-14.39-1.24-21.55-2.14c13.24-0.8,26.9,0.15,40.07-2.14
	c10.9-2.1,13.78-6.72,0.47-7.68c-0.93-0.06-1.96-0.03-2.83-0.1c3.5-0.13,15.9-0.98,13.05,5.3C318,282.38,303.61,282.4,294.87,281.97
	z"/>
<path class="st1" d="M289.16,312.3c6.09-1.4,12.18-2.76,18.27-3.95c2.41-0.5,19.79-3.66,14.66-7.83c-4.22-2.32-9.16-1.24-13.73-1.02
	c1.42-0.24,3.05-0.55,4.54-0.82c3.71-0.51,7.99-1.01,11.22,1.27c3.49,3.03-0.42,6.69-3.48,7.97
	C310.78,312.03,299.59,311.52,289.16,312.3z"/>
<path class="st1" d="M294.25,343.33c-8.51-0.05-17.13-0.7-25.55-1.46c9.58-1.02,19.3-1.37,28.84-2.26
	c7.13-1.14,14.97-1.03,21.4-4.57c-2.9-1.32-5.94-2.32-9.04-3.06c-0.32-0.08-0.7-0.16-0.99-0.35c-0.04-0.02-0.02-0.09,0.01-0.1
	c0.12-0.03,0.27-0.04,0.07,0.04c0.02,0,0.05,0.02,0.05,0.02c4.04-0.07,8.34-0.75,12.17,0.89c3.43,1.75,2.94,5.09-0.2,6.83
	C312.79,343.26,303.2,343.08,294.25,343.33z"/>
<path class="st1" d="M284.13,380.1c6.22-2.1,12.8-3.84,18.98-5.85c2.31-0.82,4.85-1.8,6.8-3.25c5.06-3.85-6.17-5.41-8.61-5.03
	c-1.6,0.08-3.24,0.51-4.74,0.75c3.62-1.27,7.5-1.92,11.3-1.19c2.93,0.24,7.33,2.57,5.3,6.03c-1.9,2.84-5.5,4.18-8.62,5.14
	C297.91,378.57,290.93,379.37,284.13,380.1z"/>
<path class="st1" d="M278.65,413.21c-4.17-0.05-8.45-0.14-12.56-0.47c12.6-2.47,25.5-2.6,38.17-4.55c2.37-0.59,5.26-1.11,6.63-3.32
	c0.9-3.16-3.61-3.05-5.64-2.86c1.96-0.42,4.36-0.83,6.11,0.59c2.35,1.88,0.3,4.93-1.72,6.15
	C301.06,413.78,288.4,412.96,278.65,413.21z"/>
</svg>
