<?xml version="1.0" encoding="utf-8"?>
<!-- Generator: Adobe Adobe Illustrator 24.2.0, SVG Export Plug-In . SVG Version: 6.00 Build 0)  -->
<svg version="1.1" id="Vector_layer_1_" xmlns="http://www.w3.org/2000/svg" xmlns:xlink="http://www.w3.org/1999/xlink" x="0px"
	 y="0px" viewBox="0 0 500 500" style="enable-background:new 0 0 500 500;" xml:space="preserve">
<style type="text/css">
	.st0{fill:#F007BE;}
	.st1{fill:#00FFFF;}
	.st2{fill:#FFFFFF;}
</style>
<path class="st0" d="M138.08,86.6c-10.5-0.39-21.19-0.57-31.48-2.37c49.54,2.17,98.93-6.82,148.41-8.82
	c21.78-1.36,43.57-2.76,65.34-4.19c14.83-2.04,30.86,0.36,44.96-5.01c-0.38-0.9-1.07-2.27-1.8-2.81
	c-21.48-11.72-46.17-17.18-69.29-25.03c-1.22-0.36-2.59-0.64-3.73-1.01c10.25,1.77,20.34,4.27,30.45,6.7
	c15.71,4.2,32.34,6.79,46.87,14.27c2.71,1.56,3.88,4.56,5.39,7.13c2.38,4.89-9.21,8.01-12.55,9.34
	C286.91,84.84,212.43,86.69,138.08,86.6z"/>
<path class="st0" d="M146.48,118.25c10.49-4.64,24.68-4.18,36.5-6.29c34.54-4.19,69.27-6.13,104.03-7.29
	c13.16-0.51,26.33-1.11,39.5-1.52c15.62-1.7,36.03,0.83,49.78-6.76c-3.71-7.73-37.05-10.7-46.54-13.21
	c11.85,1.16,23.95,2.05,35.77,3.99c6.32,0.85,13.11,1.89,16.41,8.06c0.84,1.02,0.48,2.48-0.61,3.19
	c-7.97,6.99-18.59,7.94-28.67,9.23c-46.98,5.28-94.36,6.43-141.59,7.83c-21.25,0.95-42.93-0.62-63.95,2.58
	c0.98,0.22,2.05,0.18,3.03,0.07C149.07,118.51,147.64,118.56,146.48,118.25z"/>
<path class="st0" d="M174.79,143.72c0.05-0.3,0.3-0.4,0.57-0.55c1.65-0.85,3.7-0.35,5.41-0.99c-0.2,0.12-0.59,0.18-0.86,0.29
	c60.5-8.56,121.79-6.26,182.7-8.38c6.81-0.19,13.62-0.41,20.43-0.49c5.31-0.06,10.71-0.2,15.77-1.99c-2.17-3.8-7.94-3.94-11.72-5.3
	c-10.61-3.34-21.47-5.64-32.27-8.21c-7.2-1.7-14.41-3.37-21.62-5.01c9.86,1.5,19.89,3.14,29.8,4.66c9.29,1.4,18.56,2.9,27.72,4.99
	c6.3,1.22,12.68,2,14.8,9.07c0.34,0.66,0.12,1.52-0.25,2.12c-0.46,0.75-1.22,1.23-2.04,1.49c-3.38,1.1-6.7,2.46-10.23,3.02
	c-45.28,3.96-90.88,3.99-136.33,4.35C229.21,143.26,201.7,141.31,174.79,143.72z"/>
<path class="st0" d="M295.99,175.09c-36.63-0.45-73.38-2.68-109.92-3.25c41.32-2.6,82.75-2.61,124.13-2.59
	c12.09,0.01,24.19-0.13,36.27-0.68c12.12-0.3,25.02,0.25,35.43-6.96c-3.58-6.08-9.26-9.71-15.05-13.37
	c-6.49-4.58-13.22-9.09-19.94-13.16c13.45,8.03,29.8,13.04,39.69,25.66c2.74,3.07-14.29,10.34-16.95,10.6
	C345.41,175.45,320.52,174.96,295.99,175.09z"/>
<path class="st0" d="M195.92,199.23c-10.54-0.08-21.22,0.03-31.71-0.12c-6.28-0.48-13.66,0.76-19.24-2.28
	c2.79,1.8,6.63,1.23,9.82,1.52c13.8-0.07,27.59-1.13,41.38-1.6c28.48-1.16,56.97-1.95,85.48-2.21c12.19-0.09,24.38-0.25,36.52-1.45
	c4.39-0.26,11.94-0.49,11.7-6.45c-6.62-6.63-15.7-10.96-23.44-16.11c7.02,3.38,14.02,6.86,20.76,10.78
	c2.02,1.18,4.51,2.26,5.46,4.54c1.07,9.26-10.97,10.37-17.56,10.75c-7.48,1-14.98,1.66-22.53,1.79
	C260.37,199.44,228.14,199.53,195.92,199.23z"/>
<path class="st0" d="M306.73,199.76c0.39,0.14,0.79,0.29,1.18,0.43l-0.03,0.01l-0.15,0.03l-0.07,0.02
	C307.36,200.08,307.04,199.92,306.73,199.76z"/>
<path class="st0" d="M214.05,292.69c24.26-3.7,48.59-7.14,72.95-10.21c5.68-1.68,54.48-3.21,44.59-13.38
	c-5.53-3.69-11.68-6.68-17.68-9.52l0.2-0.09l0.2-0.09l0.15-0.07c8.95,2.52,24.81,5.42,22.83,14.52
	c-10.63,16.81-100.66,17.04-123.31,18.89C213.92,292.67,214.37,292.44,214.05,292.69z"/>
<path class="st0" d="M242.16,322.9c-12.65-0.77-35.6,0.58-42.91-2.84c10.68,2.42,21.99-0.01,32.87,0.05
	c15.94-0.74,31.88-1.07,47.84-1.32c12.42-1.12,26.25,2.28,37.73-3.3c-0.48-0.98-0.87-1.75-1.5-2.49
	c-6.93-4.57-15.25-6.96-22.92-10.12c3.87,0.76,7.84,1.85,11.7,2.88c6.21,2.01,14.1,2.46,16.98,9.28c1.13,3.02-7.12,5.39-9.38,6.31
	C289.36,324.58,265.57,322.97,242.16,322.9z"/>
<path class="st0" d="M237.59,362.61c-4.84-0.7-33.25,0.1-32.99-3.66c-0.06,0.22-0.06,0.42,0.02,0.63c21.85,2.38,44.57-1.57,66.71-1
	c12.17-0.88,29.57,1.58,40.28-3.88c4.29-3.37-12.33-10.67-15.13-12.07c4.47,0.62,8.82,2.88,12.82,4.65c3.2,1.3,8.83,4.07,5.57,8.13
	C305.71,366.87,253.5,362.25,237.59,362.61z"/>
<path class="st0" d="M254.12,404.94c-17.5-0.53-35.05-0.36-52.51-1.75c-1.96-0.32-6.31-0.21-7.46-1.88
	c10.78,2.99,23.1,0.09,34.36,0.32c7.44-0.3,14.88-0.59,22.32-0.83c28.12-1.75,56.7,1.08,84.65-1.28c-1.79-2.6-5.39-2.77-8.05-4.09
	c-8.54-3.46-17.06-6.97-25.62-10.36c5.88,1.56,11.88,3.29,17.78,4.91c6.64,2.97,18.67,2.05,20.93,9.99c0.48,1.19-0.6,2.47-1.73,2.74
	c-9.62,2.98-19.71,2.24-29.64,2.51C290.79,405.57,272.45,405.45,254.12,404.94z"/>
<path class="st0" d="M210.69,446.41c-3.08-0.06-12.24-0.04-11.86-1.87c0,0.13,0,0.26,0,0.4c19.94,0.8,39.87-4.57,59.8-5.89
	c15.66-2.92,32.96-0.66,47.36-8.1c-0.17-0.69-0.33-1.37-0.53-2.05c-0.08-0.19-0.16-0.39-0.14-0.39c-4.99-5.17-11.8-8.92-17.55-13.21
	c6.78,3.47,14.22,6.34,20.31,10.84c0.98,1.89,3.64,5.33,1.19,6.93c-17.88,12.74-75.01,12.7-98.71,13.35
	C210.56,446.41,210.69,446.41,210.69,446.41z"/>
<path class="st0" d="M156.33,464.86c-3.02-0.08-6.19-0.08-9.13-0.31c27.69-2.5,55.24-4.39,82.58-8.55
	c-18.95-5.26-38.9-6.77-58.14-11.03c19.39,1.59,39.25,1.78,58.46,5.28c22.71,6.04-3.81,12.93-13.03,12.64
	C196.85,464.08,176.59,465.19,156.33,464.86z"/>
<path class="st0" d="M173.49,57.62c-9.58-0.58-21.32,1.1-29.16-5.39c-0.29-0.45,0.41-1.23,0.63-1.55c-0.14,0.41-0.54,0.91-0.41,1.45
	c13.49,7.43,41.75-0.68,57.6-1.39c13.33-2.16,27.82-3.28,40.75-5.96c4.17-1.49,9.64-1.06,12.73-4.39c-0.03,0.06-0.06,0.12-0.09,0.17
	c-0.06,0.08-0.11,0.16-0.17,0.23c4.45-7.88-48.29-15.18-55.47-17.5c7.17,0.63,14.5,1.41,21.73,2.09
	c8.81,1.69,49.09,1.62,40.45,17.07C253.8,55.82,190.3,57.27,173.49,57.62z"/>
<path class="st1" d="M256.12,227.44c-20.97-1.04-42.09-1.35-62.85-4.67c1.15-0.12,2.52,0.06,3.76,0.01
	c32.28-1.17,64.46-5.06,96.83-3.67c14.46,0.25,28.92,0.8,43.37,1.33c7.51-0.32,15.45,1.2,22.8-0.2
	c-0.89-4.48-16.71-12.9-21.04-15.83c-0.7-0.42-1.54-0.81-2.17-1.22c4.3,1.45,8.44,3.3,12.56,5.18c5.47,3.29,15.46,5.55,16.06,12.91
	c0.23,1.04-0.54,1.93-1.45,2.31c-7.9,3.64-16.97,2.34-25.42,3.42C311.12,228.2,283.59,228.19,256.12,227.44z"/>
<path class="st1" d="M271.14,255.51c-19.17-0.4-38.35-1.1-57.43-3.04c-1.77-0.15-29.29-2.65-21.92-6.39
	c3.21-0.53,6.56-0.6,9.81-0.66c-0.58,0.27-1.39,0.46-2.05,0.69c27.08,0.11,54.37,0.47,81.39,1.51c16.45,0.53,33.77,1.13,50.02,1.55
	c7.39-0.19,14.81-0.13,22.18-0.72c4.38-0.47,15.47-0.83,10-7.46c-1.28-1.6-2.7-3.28-4.21-4.57c2.89,2.09,9.7,6.05,7.04,10.24
	C356.73,256.97,287.78,255.7,271.14,255.51z"/>
<path class="st2" d="M302.15,389.78c4.46-2.32,10.06-3.36,13.89-6.3c-3.8-1.9-8.44-0.91-12.3-2.55c4.22-0.55,8.51-2.57,12.86-1.07
	c4.12,0.8,5.66,5.52,1.32,7.36C312.96,389.13,307.38,389.49,302.15,389.78z"/>
<path class="st2" d="M267.97,393.22c7.56-2.07,15.61-1.57,22.99-3.46c-1.71-1.12-3.66-2.14-5.67-2.11c2.56-1.84,10.33-1.15,10,3.04
	C293.81,397.4,273.42,393.58,267.97,393.22z"/>
<path class="st2" d="M252.52,395.03c-5.69-0.12-11.37-0.76-16.97-1.81c7.21-1.58,15.15-1.01,22.27-2.04
	c-1.77-0.99-3.55-1.59-5.38-2.19c2.98-0.2,8.02-0.81,9.04,2.83c0.21,0.56-0.11,1.09-0.58,1.39
	C258.57,395.14,255.42,395.16,252.52,395.03z"/>
<path class="st2" d="M219.36,394.32c-7.05-0.43-14.26-1.5-20.81-4.12c4.38,0.03,8.73,0.26,13.09,0.67
	c5.42-0.03,12.64,3.05,17.53,0.73c-0.33-1.42-1.94-1.92-3.1-2.48c2.36,0.38,6.21,2.31,2.48,4.29
	C225.71,394.58,222.4,394.27,219.36,394.32z"/>
<path class="st2" d="M293.56,371.09c6.28-1.46,12.88-1.92,19.27-3.01c0.72-0.25,1.79-0.35,2.24-0.95c0,0,0,0,0,0
	c-1.11-0.88-2.6-1.12-3.73-1.96c1.12,0.14,2.37,0.01,3.54,0.14c1.32,0.02,2.84,0.7,3.05,2.14
	C318.39,373.51,297.7,371.34,293.56,371.09z"/>
<path class="st2" d="M282.24,372.86c-4.69-0.09-9.45-0.59-13.98-1.67c2.82-0.53,5.64-0.92,8.5-1.13c4.47-0.74,9.85,0.67,13.84-1.01
	c-0.92-0.86-2.12-1.33-3.28-1.74c1.44-0.18,3.11,0.08,4.46,0.75C295.74,372.63,284.87,373.09,282.24,372.86z"/>
<path class="st2" d="M250.91,374.2c-3.66-0.44-7.38-1.07-10.89-2.07c4.66-0.31,9.32-0.35,13.95-0.17c3.13,0.08,6.26,0.16,9.39,0.31
	c1.05,0.01,2.2,0.07,3.04-0.65c-0.83-0.74-2.13-0.95-3.02-1.5c1.51,0.27,3.14,0.2,4.4,1.21c0.89,0.63-0.58,1.71-1.04,2.21
	c-1.2,0.79-2.76,0.98-4.18,1.08C258.69,374.92,254.78,374.7,250.91,374.2z"/>
<path class="st2" d="M221.06,376.85c-8.08-0.41-16.21-1.77-23.89-4.2c6.72,0.2,13.41,0.96,20.11,1.43c5.8,0,13.71,2.72,18.86-0.11
	c-0.75-0.93-2.15-1.1-3.17-1.69c1.05,0.23,2.21,0.55,3.25,0.94c1.17,0.78,0.69,1.14-0.14,1.91
	C231.63,377.55,225.97,376.8,221.06,376.85z"/>
</svg>
