<?xml version="1.0" encoding="utf-8"?>
<!-- Generator: Adobe Adobe Illustrator 24.2.0, SVG Export Plug-In . SVG Version: 6.00 Build 0)  -->
<svg version="1.1" xmlns="http://www.w3.org/2000/svg" xmlns:xlink="http://www.w3.org/1999/xlink" x="0px" y="0px"
	 viewBox="0 0 500 500" style="enable-background:new 0 0 500 500;" xml:space="preserve">
<style type="text/css">
	.st0{fill:#3A9E31;}
	.st1{fill:#FFFFFF;}
	.st2{fill:#F20519;}
</style>
<g id="Vector_layer_3_">
</g>
<g id="Vector_layer_2_">
	<path class="st0" d="M153.45,124.02c-2.48-2.59,15.58-4.16,17.24-4.35c17-1.79,34.02-3.5,51-5.52c20.44-2.46,42.13-5.19,62.49-6.21
		c10.11-0.74,18.6-1.18,28.14-1.83c7.4-0.6,15.12-0.31,22.13-3.05c-4.74-6.35-13.39-8.94-20.22-11.75
		c-4.86-1.66-9.69-3.43-14.74-4.46c-4.62-0.85-9.3-1.17-13.87-1.36c2.81-0.49,5.63-0.9,8.46-1.27c4.91-0.64,9.91-0.62,14.82-0.01
		c10.86,1.44,22.64,2.55,31.59,9.48c5.4,3.74,8.32,10.57,4.14,16.37c-6.66,7.65-18.34,8.1-27.75,9.29
		c-35.8,4.29-71.88,2.95-107.82,1.76c-11.16-0.33-22.3-0.5-33.46-0.3c-3.58,0.07-7.2,0.15-10.75,0.33c-3.8,0.42-8.14,0.1-11.46,2.09
		c-0.03,0.12-0.07,0.23-0.1,0.34c0.02,0.11,0.03,0.23,0.05,0.34C153.34,123.94,153.5,123.98,153.45,124.02z"/>
	<path class="st0" d="M168.12,150.13c-4.61-0.08-9.34-0.49-13.85-1.01c35.41,0.37,70.64-5.49,106.08-5.84
		c23.21-1.1,46.28-2.33,69.45-3.89c13.67-1.39,28.12-0.53,41.33-4.42c-12.09-10.05-29.21-10.59-43.73-15.23
		c14.47,2.05,30.06,1.46,43.67,7.61c4.15,1.95,9.14,6.35,6.05,11.19c-5.61,6.6-16.05,6.2-23.98,7.88
		c-30.39,4.38-61.15,6.54-91.85,5.28C230.26,149.56,199.19,150.01,168.12,150.13z"/>
	<path class="st0" d="M179.04,175.33c-7.87-0.32-15.89-1.55-23.53-3.09c8.96,1.41,18.04,2.53,27.08,2.19
		c21.22-1.07,42.35-3.32,63.54-4.79c36.29-2.61,72.67-2.97,109.03-2.37c-11.56-5.38-24.24-8.35-36.41-11.81
		c6.43,0.76,12.86,1.37,19.27,2.3c7.43,1.53,27.42,1.85,26.41,12.54c-0.03,1.55-1.09,3-2.63,3.36c-6.72,1.38-13.67,1.24-20.5,1.62
		c-32.37,0.62-64.75,0.71-97.12,0C222.46,175,200.75,175.52,179.04,175.33z"/>
	<path class="st0" d="M179.06,204.26c-5.71-0.32-11.56-0.91-17.2-0.64c32.56-2.49,65.7-5.18,98.19-7.46
		c16.87-0.96,33.75-1.61,50.65-1.57c7.86-0.17,15.9,1.03,23.63-0.68c0,0,0,0.06,0,0.06c0.28-0.11,0.55-0.24,0.81-0.39
		c-0.04-0.25-0.24-0.44-0.28-0.68c-8.24-6.94-20.57-6.56-30.49-9.33c7.99-0.04,16.01-0.61,23.97,0.28
		c16.6,1.05,20.19,17.61,1.4,18.87C279.63,206.48,229.27,206.23,179.06,204.26z"/>
	<path class="st0" d="M275.3,204.19c7.59-0.66,15.44,0.11,23.02,1.22c2.32,0.42,4.7,0.82,7.08,1.29l-0.2,0l-0.69,0l-0.66,0.01
		l-0.64,0.02l-0.62,0.03l-0.61,0.04l-0.62,0.04l-0.63,0.04l-0.65,0.04l-0.68,0.02l-0.71,0.01l-0.73-0.01l-0.74-0.03l-0.73-0.04
		l-0.72-0.04l-0.7-0.05l-0.67-0.05l-0.65-0.04l-0.63-0.04l-0.62-0.03l-0.61-0.01l-0.6,0l-0.6,0.01l-0.61,0.03l-0.61,0.04l-0.63,0.06
		l-0.1,0.01C283.54,205.49,278.78,204.59,275.3,204.19z"/>
	<path class="st0" d="M288.3,275.86c-10.92-8.35-27.25-9.29-40.61-10.39l0.02-0.02l0.07-0.07c2.58-0.57,5.36-0.92,8.01-1.33
		c0.97-0.09,2.05-0.19,3.21-0.27l0.17,0l0.28-0.01l0.28-0.01l0.28-0.01l0.27-0.01l0.27-0.01l0.27-0.02l0.27-0.02l0.27-0.02
		l0.27-0.02l0.27-0.02l0.29-0.02l0.29-0.03l0.31-0.03l0.24-0.03c13.25-0.62,32.4,0.51,34.7,13.24c-0.34,8.48-11.44,7.53-17.52,8.65
		c-8.29,1.03-16.56,2.14-24.9,2.67c-23.73,1.32-47.56,3.56-71.26,4.34C218.6,285.47,253.4,280.44,288.3,275.86z"/>
	<path class="st0" d="M180.82,323.82c30.25-2.11,60.41-6.37,90.36-10.73c-13-7.55-28.81-7.36-43.28-9.82
		c5.75-0.29,11.75-0.61,17.58-0.55c7.24-0.11,36.33,1.14,31.21,13.13c-5.66,5.05-24.45,3.21-32.74,4.88
		C222.99,322.7,201.81,324.54,180.82,323.82z"/>
	<path class="st0" d="M199.58,352.93c5.3,1.52,11.16,0.34,16.54-0.53c17.36-3.2,34.76-6.26,52.3-8.32
		c-8.61-3.79-18.21-4.9-27.41-5.85c10.8-1.7,22.56-2.58,32.7,2.27c2.58,1.12,4.66,5.74,1.4,7.27c-3.19,1.47-6.83,0.88-10.24,1.25
		c-13.29,1.09-26.58,2.19-39.85,3.48C216.63,353.14,207.81,355.62,199.58,352.93z"/>
	<path class="st0" d="M205.21,388.47c-4.41-0.24-8.95-0.48-13.26-0.94c23.49-1.15,46.84-4.5,70.31-6.16
		c21.26-2.18,42.92-2.24,63.87-6.55c-0.17,0.08-0.31,0.15-0.48,0.22c0.3-0.13,0.59-0.27,0.87-0.43
		c-6.73-12.6-31.76-17.05-44.95-19.87c15.82,0.15,33.72,1.07,47.08,10.59c7.49,5.36,8.44,15.82-2.09,17.9
		c-11.21,2.6-22.76,3.57-34.2,4.63C263.35,388.97,234.22,389.38,205.21,388.47z"/>
	<path class="st0" d="M250.62,413.03c-12.58-1.42-29.39-0.58-39.51-3.51c6.5,0.91,12.99-0.5,19.48-0.79
		c15-0.82,30.04-1.23,45.03-2.23c15.81-1.54,32.28-0.18,47.62-4.7c-3.64-8.58-14.93-13.78-23.4-16.67
		c8.97,0.05,32.08,7.46,28.73,19.24C320.39,415.9,265.55,413.72,250.62,413.03z"/>
	<path class="st0" d="M200.6,434.08c-1.71-0.26-7.42-0.27-7.6-2.04c2.44-1.47,5.37-1.32,8.05-2c-2.31,0.79-5.1,0.92-7.29,2.17
		c14.85,2.44,30.09-2.33,44.87-4.05c18.32-3.31,36.89-4.65,55.43-6.09c-6.48-4.67-14.2-6.91-21.87-8.73
		c8.91-0.89,18.45-0.32,26.49,4.13c5.59,2.12,7.48,10.05,0.02,10.67C266.12,431.04,233.31,434.23,200.6,434.08z"/>
	<path class="st0" d="M184.33,90.49c3.17-0.08,6.32-1.64,9.52-2.16c14.51-2.66,28.96-5.28,43.44-7.95
		c7.68-1.54,15.7-2.84,22.55-6.84c0,0,0,0,0,0c-1.42-2.95-4.74-4.31-7.46-5.82c-10.83-5.31-22.49-6.78-34.21-8.01
		c12.19-1.05,24.74-2.23,36.6,1.54c4.8,1.4,10.36,3.88,12.61,8.68c5.33,12.42-13.6,13.91-21.68,15.34
		c-15.6,1.42-31.28,1.95-46.89,3.3C193.91,88.59,189.19,90.42,184.33,90.49z"/>
	<path class="st0" d="M155.49,76.33c11.37-5.55,22.85-11,34.84-15.08c-11.64-3.22-23.7-5.74-35.68-6.94
		c13.04-3.75,27.4-3.74,40.52-0.32c4.6,1.39,12.85,5.87,8.96,11.55c-3.59,3.42-9.48,1.67-13.96,3.25
		C178.69,71.58,167.08,74.34,155.49,76.33z"/>
	<path class="st1" d="M293.22,237.7c-1.84-0.23-3.8-0.47-5.55-0.78c10.62-0.07,21.09-2.06,31.54-3.74c3.67-0.7,7.37-1.37,10.79-2.92
		c-9.56-2.97-19.75-5.51-29.65-5.32c6.99-2.35,14.44-2.23,21.77-1.6c4.38,0.87,15.45,0.69,15.57,6.69
		c-0.99,5.67-7.96,6.93-12.73,7.79C314.45,239.05,303.74,238.74,293.22,237.7z"/>
	<path class="st1" d="M222.44,238.64c-7.05-0.61-14.19-1.57-21.13-2.65c14.04-1.82,28.22-2.46,42.36-2.97
		c7.7-0.56,15.59,0.42,23.18-1.08c-7.24-2.23-14.87-1.54-22.32-1.48c6.47-1.44,13.26-3.13,20.01-2.54c3.17,0.13,8.99,0.84,7.55,5.35
		C268.13,241.79,231.65,239.12,222.44,238.64z"/>
	<path class="st2" d="M200.5,369.38c7.05-0.38,14.11-1.84,20.99-3.64c15.52-3.19,31.16-5.88,46.9-7.8
		c13.39-1.88,27.25-2.12,40.2-6.15c-3.52-3.25-7.85-5.65-12.12-7.79c-2.03-1.04-3.98-0.71-6.06-0.3c-0.81-0.07-1.62-0.23-2.31-0.55
		c2.84,0.61,5.14-1.84,8.07-1.06c5.91,1.37,12.5,2.99,17.31,6.84c3.5,3.63-0.09,8.9-4.11,10.22c-16.52,6.88-34.95,6.29-52.5,7.99
		C238.18,367.81,219.11,371.13,200.5,369.38z"/>
	<path class="st2" d="M205.89,383.79c4.26-4.33,10.64-5.29,16.27-6.8c18.37-5.04,37.55-5.6,56.5-5.81
		c11.52-0.14,23.01,0.92,34.51,1.29c4.02,0,8.16,0.14,11.99-1.26c4.04-2.11-2.36-6.42-4.43-7.78c-2.93-1.86-6.29-2.45-9.69-2.39
		c16.22-3.62,33.21,15.88,0.97,18.24c-22.82,2.29-45.78,1.75-68.68,1.78c-6.49,0.01-12.96,0.24-19.45,0.43
		C217.89,381.81,211.32,380.97,205.89,383.79z"/>
</g>
</svg>
