<?xml version="1.0" encoding="utf-8"?>
<!-- Generator: Adobe Adobe Illustrator 24.2.0, SVG Export Plug-In . SVG Version: 6.00 Build 0)  -->
<svg version="1.1" id="Vector_layer_1_" xmlns="http://www.w3.org/2000/svg" xmlns:xlink="http://www.w3.org/1999/xlink" x="0px"
	 y="0px" viewBox="0 0 500 500" style="enable-background:new 0 0 500 500;" xml:space="preserve">
<style type="text/css">
	.st0{fill:#00FFFF;}
	.st1{fill:#CDCDCD;}
	.st2{fill:#F3761A;}
</style>
<path class="st0" d="M152.72,140.1c-0.45,0.08-0.9,0.16-1.36,0.24h0c-1.5-0.3-3-0.59-4.48-0.88c-1.65-0.33-3.3-0.64-4.96-0.96
	c0.74-0.15,1.48-0.3,2.22-0.45C147,138.76,149.86,139.42,152.72,140.1z"/>
<path class="st0" d="M161.14,170.18c-1.31,0.25-2.61,0.5-3.91,0.76h0c-4.13-0.32-8.26-0.62-12.39-0.92
	c1.86-0.43,3.72-0.85,5.59-1.25C154,169.24,157.57,169.71,161.14,170.18z"/>
<path class="st0" d="M152.52,311.51c-3.04,0.59-6.08,1.18-9.12,1.78c0,0,0,0-0.01,0c-3.22-0.11-6.45-0.3-9.64-0.66
	c-0.28-0.04-0.56-0.07-0.85-0.1c0.2-0.05,0.4-0.1,0.6-0.16c1.42-0.37,2.62-0.7,3.45-1c1.19-0.31,2.37-0.62,3.56-0.92h0
	C144.51,310.86,148.51,311.2,152.52,311.51z"/>
<path class="st0" d="M177.94,382.61c-0.47,0.09-0.94,0.19-1.41,0.29h0c-1.41-0.35-2.82-0.68-4.24-0.99c0,0,0.01,0,0.02,0
	c0.15-0.06,0.3-0.12,0.45-0.18c0.19-0.07,0.38-0.14,0.57-0.21c0.14-0.05,0.28-0.1,0.42-0.15h0
	C175.14,381.79,176.54,382.2,177.94,382.61z"/>
<path class="st0" d="M211.81,97.75c0.02,0,0.02,0.02,0,0.02c-9.92,0.12-19.83,0.28-29.75,0.47c3.08-0.43,6.16-0.83,9.25-1.2
	C198.14,97.34,204.97,97.67,211.81,97.75z"/>
<path class="st0" d="M264.57,52.87c9.26-1.5,18.42-2.16,26.42-1.77C282.17,51.66,273.36,52.31,264.57,52.87z"/>
<path class="st1" d="M342.89,72.25c0.03-0.04,0.06-0.07,0.09-0.11c-2.55-0.58-5.19-0.11-7.76,0.05c-6.95,0.78-13.89,1.54-20.83,2.43
	c-18.87,2.39-37.75,4.7-56.65,6.86c-22.23,2.72-44.39,5.81-66.52,9.27c-6.13,0.89-12.2,2.23-17.99,4.45
	c0.08,0.26,0.09,0.55,0.26,0.77c1.03,0.58,1.99,0.55,3.07,0.62c4.92,0.06,9.84,0.26,14.75,0.47c-3.09,0.37-6.17,0.77-9.25,1.2
	c-0.08,0-0.16,0-0.23,0c-3.41-0.11-7.15,1.13-10.26-0.72c-0.84-0.5-1.11-1.55-1.38-2.43c-0.36-0.65-0.2-1.5,0.56-1.77
	c2.32-0.89,4.61-1.91,6.96-2.72c15.44-4.54,31.55-6.31,47.33-9.35c30.85-4.73,61.91-8.11,93.12-9.32
	c5.39-0.25,10.79-0.31,16.18-0.48c2.89,0.06,6.15-0.35,8.8,0.68c-0.22,0.23-0.12,0.18-0.41,0.23c-0.2,0.04-0.42,0.03-0.62,0.02
	c-0.02,0-0.02-0.02,0-0.02c0.07,0,0.16-0.01,0.23-0.02C342.49,72.32,342.72,72.3,342.89,72.25z"/>
<path class="st1" d="M411.64,121.61c0.08,0.02-0.08,0.03-0.14,0c-15.7-4.51-32.7-2.27-48.9-2.74c-29.52,0.11-59.04,0.39-88.56,1.09
	c-31.89,1.25-63.77,2.91-95.58,5.62c-15.79,1.18-31.42,2.71-47.11,4.26c-1.94,0.3-4.57,0.37-5.32,2.46
	c5.87,2.52,11.96,4.23,18.12,5.74c-0.74,0.15-1.48,0.3-2.22,0.45c-6.11-1.16-12.21-2.39-17.99-4.78c-1.74-0.61-0.17-2.75,0.45-3.7
	c2.36-2.28,5.86-2.44,8.95-2.82c6.6-0.87,13.16-2.06,19.79-2.75c36.15-4.52,72.4-8.22,108.79-10.03
	c33.05-1.64,66.27-2.51,99.31-0.28C378.02,115.84,395.73,115.63,411.64,121.61z"/>
<path class="st1" d="M385.71,151.66c5.03,0.91,10.02,2.15,14.96,3.46c-8.93-2.04-18.19-3.2-27.37-3.96
	c-84.21-5.19-168.91,1.66-252.21,14.19c9.79,0.97,19.56,2.16,29.32,3.42c-1.87,0.4-3.73,0.81-5.59,1.25
	c-8.71-0.62-17.43-1.2-26.11-1.78c-17.2-5.67,14.77-8.41,19.04-9.39c14.43-2.41,28.92-4.36,43.41-6.34
	C248.99,144.19,317.96,141.36,385.71,151.66z"/>
<path class="st1" d="M365.29,182.24c-21.21-1.05-44.12-0.8-65.91-0.19c-27,0.8-53.99,2.19-80.88,4.85
	c-15.57,1.36-31.1,2.98-46.63,4.73c-7.03,0.75-14.04,1.67-21.06,2.5c-5.57,0.65-11.27,0.94-16.55,3.01
	c0.05,0.44,0.07,0.92,0.49,1.17c1.58,0.86,3.45,0.94,5.16,1.46c6.48,1.38,13.05,2.46,19.6,3.41c-6.81-0.66-13.85-1.22-20.68-2.28
	c-2.82-0.51-6.81-0.43-6.97-4.18c-0.11-0.43,0.14-0.86,0.56-1.01c2.2-0.82,4.32-1.71,6.61-2.27c22.66-3.98,45.49-7.14,68.38-9.61
	c22.22-2.53,44.54-4.26,66.89-5.11C304.66,178,335.07,179.52,365.29,182.24z"/>
<path class="st1" d="M354.47,213.48c-0.12,0.06-0.56-0.01-0.65-0.07c0.19,0.02,0.39,0.05,0.57,0.04c-0.01-0.04-0.02-0.08-0.02-0.12
	c-9.87-2.12-20.31-0.62-30.37-0.54c-15.6,0.48-31.17,1.59-46.74,2.61c-38.96,2.68-77.85,6.47-116.63,11.12
	c-13.65,2.74-64.59,6.83-22.1,11.77c-5.85-0.54-11.98-0.51-17.62-1.85c-6.48-5.87,13.77-8.06,17-9.18
	c17.46-3.77,35.15-6.31,52.86-8.65c37.96-4.68,76.12-7.84,114.39-7.9c12.14,0.23,24.28,0.18,36.41,0.81
	c4.18,0.28,8.48,0.4,12.53,1.53C354.46,213.25,354.43,213.21,354.47,213.48z"/>
<path class="st1" d="M313.16,250.41c-0.2,0.16-0.43,0.12-0.7,0.15c0.09-0.07,0.5,0,0.65-0.14c-0.64-0.77-1.68-0.96-2.61-1.1
	c-2.25-0.28-4.55-0.39-6.81-0.45c-6.65-0.11-13.32,0.41-19.96,0.86c-23.6,1.52-47.11,4.1-70.62,6.55
	c-15.59,1.5-31.11,3.66-46.65,5.55c-6.3,0.8-12.61,1.52-18.86,2.67c-3.34,0.73-7.55,0.47-10.05,3.06c3.73,1.66,7.82,2.02,11.81,2.61
	c5.89,0.87,11.89,1.66,17.75,2.45c-0.1,0.02-0.2,0.04-0.3,0.06c-8.32-0.7-16.67-1.13-24.98-1.92c-2.4-0.23-4.67-1.05-6.96-1.75
	c-1.02-0.32-1.2-1.48-0.34-2.13c0.88-1.15,1.87-2.27,3.25-2.82c6.08-2.34,12.72-2.97,19.09-4.24c13.01-2.06,26.06-3.86,39.1-5.68
	c25.01-2.88,49.86-5.23,74.95-5.86c12.1,0.07,24.25-0.71,36.31,0.46C309.23,249.06,311.69,248.86,313.16,250.41z"/>
<path class="st1" d="M336.67,279.3c0-0.01-0.01-0.02-0.02-0.03c-6.05-1.36-12.5-0.63-18.68-0.49c-7.29,0.46-14.57,0.93-21.86,1.37
	c0.01,0,0.03,0,0.04-0.01c-35.3,3.3-69.98,7.12-104.96,12.25c-5.83,0.71-11.6,1.74-17.37,2.8c-13.22,2.49-26.7,4.11-39.61,8
	c-2.59,0.93-5.52,1.16-7.8,2.79c-0.59,0.47-0.41,1.29-0.2,1.9c0.97,0.85,2.61,0.92,3.75,1.14c2.36,0.25,4.88,0.69,7.14,1.07
	c1.14,0.12,2.27,0.25,3.41,0.36c-1.19,0.3-2.38,0.61-3.56,0.92c-0.94,0.34-2.37,0.73-4.05,1.16c-3.2-0.32-6.56-0.08-9.41-1.76
	c-1.86-1.07-2.49-3.41-2.09-5.42c1.72-4.24,7.19-4.57,10.96-6.02c17.49-5.21,35.7-7.8,53.62-11.05c12.06-1.69,24.17-3.52,36.23-5.06
	c15.5-1.43,31-3.16,46.55-3.96c16.65-0.97,33.3-1.59,49.98-1.54c5.65,0.07,11.39,0.12,16.96,1.16c0.24,0.05,0.96,0.12,0.98,0.43
	C336.61,279.32,336.62,279.28,336.67,279.3z"/>
<path class="st1" d="M307.3,316.26c3.68,0.52,7.89,0.28,11.13,2.22c-4.43-2.04-9.98-1.53-14.79-1.84
	c-31.89,0.24-63.63,4.56-95.21,8.59c-18.29,2.54-36.54,5.27-54.73,8.43c-7.39,1.45-15.18,2.23-21.6,6.5
	c2.26,2.18,5.34,2.43,8.23,3.13c3.32,0.84,6.65,1.64,10.01,2.34c-2.02-0.28-4.2-0.71-6.27-1.05c-52.43-7.04,64.25-22.9,72.24-23.98
	C246.51,317.6,276.93,314.43,307.3,316.26z"/>
<path class="st1" d="M308.43,350.61c2.05-0.04,4.2-0.05,6.18,0.04c-5.13,0.01-10.25,0.3-15.37,0.57
	c-31.05,1.95-61.85,6.5-92.67,10.59c-11.35,1.79-22.73,3.37-34.09,5.16c-4,0.58-7.96,1.35-11.87,2.36
	c-2.52,0.71-5.67,0.63-7.54,2.68l0.04-0.02c-0.34,0.84-0.48,2.1,0.22,2.78c1.96,1.46,4.56,1.61,6.79,2.49
	c2.58,0.91,5.2,1.67,7.84,2.41c1.92,0.56,3.84,1.13,5.77,1.7c-0.49,0.17-0.98,0.34-1.46,0.54c-6.63-1.48-13.33-2.72-19.79-4.79
	c-3.45-1.21-3.67-6.42-0.45-8.06c3.78-2.01,7.76-2.23,11.7-3.44c8.36-1.82,16.86-2.88,25.3-4.21c18.62-2.85,37.33-5.16,56.08-6.94
	C266.2,352.61,287.29,350.99,308.43,350.61z"/>
<path class="st1" d="M323.38,391.2c-3.09,0.18-6.19,0.22-9.29,0.31c-27.86,0.7-55.39,4.14-82.93,7.26
	c-10.84,1.22-21.72,2.26-32.5,3.96c-6.88,1.14-18.09,1.65-18.09,10.38c-0.18-5.66,0.95-6.42,6.44-9.05
	c12.45-4.31,25.86-5.43,38.84-7.31c26.41-3.61,53.02-5.73,79.68-5.86C311.46,390.98,317.52,391.12,323.38,391.2z"/>
<path class="st1" d="M177.94,382.61c3.68,1.08,7.37,2.14,11.08,3.14c-4.07-0.88-8.26-1.89-12.36-2.82
	c-0.05-0.01-0.09-0.02-0.14-0.04C177,382.8,177.47,382.71,177.94,382.61L177.94,382.61z"/>
<path class="st1" d="M205.67,314.38c-3.37-0.07-6.74-0.14-10.09-0.21c-15.43-0.26-30.75-0.46-46.12-0.75
	c-2.02-0.03-4.04-0.07-6.06-0.14c3.04-0.6,6.08-1.19,9.12-1.78c12.74,0.97,25.51,1.51,38.26,2.17
	C195.72,313.94,200.8,314.11,205.67,314.38z"/>
<path class="st1" d="M197.55,435.04c30.54-4.23,61.51-7.32,92.3-5.89C259.09,430.8,228.28,433.84,197.55,435.04z"/>
<path class="st1" d="M249.06,53.73c26.29-4.28,53.55-6.69,80.05-4.2c-12.69,0.05-25.41,0.73-38.12,1.56
	c-8-0.38-17.16,0.27-26.42,1.77C259.39,53.2,254.22,53.5,249.06,53.73z"/>
<path class="st2" d="M298.94,51.88c-10.45-1.04-21.95,0.7-32.57,2.76c-16.29,3.52-33.35,6.38-47.99,14.59
	c11.03-7.69,28.78-13.54,46.18-16.37c0.94-0.15,1.88-0.3,2.82-0.43c0.46-0.07,0.92-0.13,1.38-0.19c0.47-0.06,0.95-0.12,1.42-0.18
	c0.46-0.06,0.93-0.11,1.39-0.17c0.33-0.04,0.66-0.07,0.98-0.11c0.69-0.08,1.38-0.15,2.07-0.21c0.37-0.04,0.73-0.07,1.09-0.1
	c5.35-0.46,10.51-0.6,15.27-0.38c0,0,0.01,0,0.01,0C293.8,51.23,296.47,51.49,298.94,51.88z"/>
<path class="st2" d="M265.76,97.47c-2.18-0.62-4.39-1.1-6.62-1.48c-10.05-1.58-20.14-0.48-30.18,0.45
	c-9.7,0.77-19.33,2.29-29.01,3.33c-25.86,3.55-51.59,7.88-77.25,12.64c13.08,0.04,26.08,1.46,39.09,2.74c0.02,0,0.01,0.02,0,0.02
	c-9.08-0.42-18.14-0.9-27.22-0.8c-6.2,0.19-12.7,0.42-18.8,0.84c-1.6,0.13-3.26,0.32-4.84-0.09c-0.94-0.34-2.29-0.8-2.12-2.04
	c0.11-0.66,0.7-1.09,1.32-1.26c4.02-1.19,8.14-1.91,12.23-2.8c9.46-2,18.94-3.86,28.44-5.64c10.39-1.95,20.81-3.7,31.27-5.14h0
	c0.62-0.09,1.24-0.17,1.86-0.25c1.69-0.23,3.38-0.45,5.07-0.66c0.77-0.1,1.54-0.19,2.3-0.29c9.5-1.14,19.03-2.02,28.59-2.56
	c12.25-0.46,24.63-1.36,36.8,0.61C259.75,95.62,262.92,96.41,265.76,97.47z"/>
<path class="st2" d="M255.93,129.28c-6.31-0.21-12.82,0.17-19.06,0.47c-47.21,4.55-95.2,9.44-140.57,23.71
	c9.79,1.77,20.14,0.68,30.12,1.34c-10,0.07-20.32,1.45-30.35,0.75c-9.62-2.98,5.89-6.52,8.94-7.54c6.25-1.94,12.53-3.81,18.88-5.42
	c5.98-1.48,12-2.85,18.04-4.09c0.74-0.15,1.48-0.3,2.22-0.45c34.91-7.01,70.75-10.04,106.29-9.21
	C252.25,128.98,254.19,129.05,255.93,129.28z"/>
<path class="st2" d="M228.61,161.45c-9.34-1.53-19.02,1-28.38,1.86c-21.01,3.32-41.9,7.28-62.72,11.63
	c-8.65,2.02-17.47,3.43-25.99,5.93c-4.93,1.45-0.01,5.88,1.96,7.73c-3.99-2.76-8.88-6.82-1.55-9.36c7.89-3.02,16.18-4.84,24.3-7.13
	c2.86-0.73,5.73-1.43,8.6-2.09h0c0.8-0.19,1.61-0.37,2.41-0.55c0.3-0.07,0.61-0.13,0.91-0.2c0.76-0.17,1.52-0.34,2.27-0.5
	c15.46-3.32,31.13-5.67,46.89-7.09C207.4,161.19,219.41,159.19,228.61,161.45z"/>
<path class="st2" d="M229.64,198.93c0.03-0.04,0.04-0.08,0.06-0.12c-0.55-0.7-1.62-0.67-2.44-0.72c-2.07,0-4.11,0.03-6.16,0.17
	c-4.35,0.36-8.66,0.95-12.99,1.52c-9.98,1.16-19.84,3.11-29.76,4.65c-15.21,2.98-30.49,5.62-45.69,8.71
	c-5.01,1.29-10.54,1.15-15.18,3.54c0.38,0.52,0.91,0.88,1.5,1.11c2.89,1.1,5.7,2.4,8.66,3.29c-1.71-0.25-3.54-0.77-5.27-1.18
	c-2.48-0.75-5.27-0.82-7.07-2.92c-0.43-0.39-0.26-0.94,0.19-1.21c3.53-2.64,7.92-3.31,12.09-4.36c10.48-2.78,21.07-5.16,31.73-7.13
	c14.66-2.72,29.46-4.62,44.34-5.62c7.86-0.42,15.74-1.28,23.61-0.73c0.84,0.05,1.97,0.13,2.46,0.89c-0.06,0.12-0.04,0.09-0.08,0.13
	C229.65,198.95,229.64,198.94,229.64,198.93z"/>
<path class="st2" d="M134.67,243.88c26.2-5.73,53-9.92,79.84-9.71c-22.65,1.71-45.54,7.35-68.22,10.74
	c-8.61,1.46-17.38,2.98-25.95,4.47c-6.37,1.34-12.08,2.31-6.23,9.37c-1.73-1.94-5.1-4.97-2.73-7.57
	C118.21,246.66,126.91,246.04,134.67,243.88z"/>
<path class="st2" d="M223.39,267.59c-2.62-0.75-5.5-0.54-8.14-0.4c-16.74,1.73-32.84,6.74-49.23,10.29
	c-14.29,3.31-28.63,6.39-42.87,9.94c-6.84,2.05-14.24,2.58-20.62,5.95c1.16,3.07,12.46,4.07,15.91,5.13
	c-4.39-0.33-8.98-1.03-13.38-1.75c-2.36-0.13-4.59-1.05-5.22-3.54c-0.23-0.46,0.13-0.93,0.51-1.16c11.38-6.5,24.87-8.68,37.32-12.54
	c9.65-2.41,19.37-4.77,29.15-6.82c0.1-0.02,0.2-0.04,0.3-0.06c15.57-3.25,31.31-5.69,47.17-6.3
	C217.27,266.33,220.71,266.39,223.39,267.59z"/>
<path class="st2" d="M198.21,300.26c6.59-0.52,15.45-2.13,20.91-1.16c-16.84,0.96-33.41,6.15-50.02,9.01
	c-5.5,1.22-11.04,2.31-16.59,3.39c-3.04,0.59-6.08,1.18-9.12,1.78c-7.98,1.57-15.93,3.23-23.76,5.32c3.25,2.3,7.49,3.32,11.2,4.82
	c-1.98-0.36-4.07-0.98-6.07-1.49c-17.09-3.71-0.94-7.11,8.13-9.4h0c0.2-0.05,0.4-0.1,0.6-0.16c1.42-0.36,2.62-0.7,3.45-1
	c1.18-0.31,2.37-0.62,3.56-0.92C159.46,305.66,178.8,302.55,198.21,300.26z"/>
<path class="st2" d="M221.73,333.08c1.12,0.13,2.49,0.37,3.27,1.11c-0.98-0.64-2.2-0.68-3.31-0.73
	c-15.62,0.62-30.59,5.98-45.81,9.11c-14.94,3.46-30.02,6.99-44.39,12.23c16.98-9.12,35.86-14.02,54.61-17.99
	C197.85,334.83,209.76,332.05,221.73,333.08z"/>
<path class="st2" d="M234.45,369.28c-15.41,4.11-32.87,7.35-48.84,11.57c-2.25,0.74-4.94,1.22-7.66,1.77
	c-0.11,0.02-0.22,0.04-0.34,0.07c-0.3,0.06-0.59,0.12-0.89,0.18c-0.07,0.02-0.13,0.03-0.2,0.04c-6.33,1.36-12.39,3.43-12.82,10.56
	c-1.24-6.25,3.46-9.55,8.57-11.55c0,0,0.01,0,0.02,0c0.15-0.06,0.3-0.12,0.45-0.18c0.19-0.07,0.38-0.14,0.57-0.21
	c0.14-0.05,0.28-0.1,0.42-0.15c1-0.34,1.98-0.64,2.93-0.91C195.34,374.09,215,371.56,234.45,369.28z"/>
<path class="st2" d="M252.04,407.4c4.09-0.37,8.27-0.69,12.36-0.24c-1.39,0.01-2.94,0-4.36,0.12c-18.19,1.94-36.25,5.87-54.14,9.12
	c-5.56,1.1-11.22,2.14-16.78,3.15c-2.49,0.42-4.78,1.18-6.63,2.88c2.91,3.21,7.79,4.25,11.46,6.25c-2.76-1.16-14.36-3.41-13.5-6.87
	c4.64-4.88,11.83-4.8,17.95-6.46C216.09,411.46,234.01,408.83,252.04,407.4z"/>
<path class="st2" d="M258.08,443.2c5.89-0.23,11.91-0.51,17.74-0.53c-24.11,2.9-48.53,5.01-72.47,8.7c3.02,1.64,6.59,2.3,9.89,3.23
	c-1.61-0.16-3.36-0.6-5-0.95c-14.27-2.76-0.6-4.55,5.09-5.37C228.14,445.79,243.07,443.94,258.08,443.2z"/>
<path class="st1" d="M161.14,170.18c8.77,1.16,17.53,2.34,26.3,3.45c-10.03-1.03-20.11-1.9-30.22-2.68
	C158.53,170.69,159.83,170.44,161.14,170.18z"/>
<path class="st1" d="M152.73,140.1c2.9,0.69,5.79,1.4,8.67,2.2c-3.29-0.61-6.66-1.29-10.03-1.96
	C151.82,140.26,152.27,140.18,152.73,140.1L152.73,140.1z"/>
</svg>
