<?xml version="1.0" encoding="utf-8"?>
<!-- Generator: Adobe Adobe Illustrator 24.2.0, SVG Export Plug-In . SVG Version: 6.00 Build 0)  -->
<svg version="1.1" id="Vector_layer_1_" xmlns="http://www.w3.org/2000/svg" xmlns:xlink="http://www.w3.org/1999/xlink" x="0px"
	 y="0px" viewBox="0 0 500 500" style="enable-background:new 0 0 500 500;" xml:space="preserve">
<style type="text/css">
	.st0{fill:#CDCDCD;}
	.st1{fill:#FFFFFF;}
</style>
<path class="st0" d="M192.71,133.23c-14.19,0.05-28.52-0.43-42.62-1.27c28.76-0.7,57.41-3.05,86.04-5.75
	c17.41-1.82,77.81-7.51,80.09-28.44c-4.47-12.14-42.42-14.28-54.49-16.43c-0.01,0-0.02-0.02,0-0.02
	c18.27-0.58,46.29-2.37,60.41,10.85c9.37,11.91-6.14,22.91-16.25,27.04C270.31,133.89,230.51,132.03,192.71,133.23z"/>
<path class="st0" d="M150.21,175.94c37.54-4.21,75.22-6.85,112.89-9.49c20.74-1.94,42.14-3.48,61.3-11.2
	c6.31-2.61,18.22-10.71,8.12-16.56c-11.62-6.8-25.04-8.56-38.01-10.19c14.48-0.55,42.36-0.82,49.62,14.15
	c2.31,32.94-90.4,30.35-113.45,31.75C203.88,174.82,176.95,175.44,150.21,175.94z"/>
<path class="st0" d="M147.63,206.92c33.26-2.88,66.7-5.93,100.07-8.37c22.34-3.04,74.56-2.14,89.59-16.97c0,0-0.09,0.05-0.09,0.05
	c0.09-8.15-28.18-12.66-34.97-13.36c11.27-0.31,23.01,0.89,33.61,5.08c15.37,6.16,5.78,17.97-5.71,21.14
	c-23.19,7.46-47.91,8.34-72.05,9.87C221.29,206.05,184.45,207.21,147.63,206.92z"/>
<path class="st0" d="M156.43,252.36c28.41-6.12,169.1-9.52,174.7-28.95c0,0,0.04,0.03,0.04,0.03c0.05-1.23-0.38-2.44-1.02-3.47
	c0,0,0-0.07,0-0.07c-9.06-7.28-21.38-8.45-32.18-11.4c9,0.52,18.11,1.27,26.76,3.89c20.36,5.8,13.38,21.3-3.22,26.08
	c-30.32,9.78-62.79,9.98-94.32,11.9c0.07,0,0.15-0.01,0.23-0.01C203.78,251.32,180.02,252.05,156.43,252.36z"/>
<path class="st0" d="M174.02,294.24c29.9-6.53,60.25-10.75,90.61-14.43c15.17-2.82,47.69-2.38,58.28-12.11
	c-6.99-6.6-17.43-9.1-26.69-10.67c6.66-0.46,13.37,0.05,19.75,2.09c17.95,4.81,17.67,14.82,0.15,19.95
	c-17.8,5.12-36.48,5.79-54.8,7.84C232.26,289.67,203.07,292.24,174.02,294.24z"/>
<path class="st0" d="M165.22,323.33c7.06-3.03,168.89-14.06,133.25-29.35c-2.15-1.01-4.48-1.85-6.67-2.62
	c4.48,1.14,9.98,1.71,13.3,5.16c5.04,9.05-18.62,14.27-24.55,16.48C243.05,322.7,203.78,323.83,165.22,323.33z"/>
<path class="st0" d="M168.96,364.5c18.23-4.41,36.66-7.91,55.09-10.84c8.53-1.99,71.45-8.62,58.48-23.55
	c-2.8-2.14-6.24-3.24-9.36-4.6c3.72,1.13,7.81,1.88,10.92,4.35C302.57,355.46,183.9,363.02,168.96,364.5z"/>
<path class="st0" d="M178.82,413.42c15.61-5.77,31.51-10.76,47.77-14.34c5.87-1.99,50.99-7.18,39.71-17.52
	c0.65,0.24,1.4,0.64,1.99,1.09C277.53,398.38,190.47,410.29,178.82,413.42z"/>
<path class="st0" d="M166.11,97.94c12.52-1.53,25.08-2.66,37.6-4.1c8.38-0.94,16.84-1.73,25.06-3.65c3.36-0.79,7.13-1.28,9.95-3.36
	c0.31-0.3,0.6-0.62,0.88-0.94c0.33-0.41,0.66-0.83,1-1.24c-0.91-2.02-3.45-1.92-5.25-2.7c-7.77-2.76-16.12-3.26-23.99-5.55
	c-0.49-0.16-0.98-0.3-1.46-0.39c1.45,0.02,3.03,0.54,4.53,0.62c7.74,0.33,15.52,0.68,23,2.86c1.58,0.4,3.26,0.55,4.68,1.42
	c1.28,0.7,2.04,2,2.95,3.09c1.39,1.64-0.89,3.18-1.64,4.56c-1.77,2.45-4.76,3.43-7.54,4.27c-10.32,2.76-21.03,3.53-31.66,4.1
	C191.56,97.67,178.75,97.9,166.11,97.94z"/>
<path class="st1" d="M177.47,120.7c35.53-9.2,72.25-14.2,107.89-22.62c9.5-3.03,34.7-9.83,25.25-23.64
	c-4.83-5.52-11.52-11.2-19.26-10.96c-0.79,0.05-1.82,0.63-2.5,0.28c4.4-3.23,10.38-2.83,15.39-0.96
	c25.56,10.02,21.25,31.61-3.3,39.13c-16.13,5.72-33.31,7.23-50.14,9.64C226.35,114.44,201.81,117.55,177.47,120.7z"/>
<path class="st1" d="M194.08,147.83c29.81-4.54,59.79-7.84,89.74-11.37c17.48-2.8,40.28-2.92,54.93-13.4
	c3.32-4.05-4.2-6.05-6.59-7.68c0,0,0.01,0,0.01,0.01c0,0,0,0,0,0c6.23-1.4,15.83,3.37,11.08,10.6c-4.24,5.58-11.87,7.34-18.29,9.27
	C282.09,144.51,237.63,144.58,194.08,147.83z"/>
<path class="st1" d="M209.6,188.45c31.68-3.72,63.48-6.23,95.3-8.3c10.15-1.16,37.54-2.16,42.91-11.11
	c-0.01,0.05-0.02,0.09-0.04,0.14c-0.02,0.03-0.03,0.07-0.03,0.13c0.29-0.81,0.15-1.78-0.05-2.52c-2.12-2.5-9.72-6.77-12.79-4.98
	c1.12-2.25,8.45-0.78,10.95,0.21c1.74,0.69,3.46,1.59,4.75,2.97c2.14,2.52,2.17,6.79-0.34,9.07c-4.89,5.04-12.16,6.38-18.74,7.89
	c-13.93,2.5-28.12,3.04-42.23,3.63C262.75,186.53,236.08,187.74,209.6,188.45z"/>
<path class="st1" d="M229.09,227.85c22.86-3.07,45.72-6.09,68.64-8.65c9.43-1.67,41.62-2.2,44.77-11.75
	c-2.16-6.56-11.26-8.56-17.04-11.13c4.68,0.06,9.56,0.87,13.93,2.78c14.28,6.08,9.49,17.56-3.73,20.45
	C300.77,226.8,264.51,226.21,229.09,227.85z"/>
<path class="st1" d="M203.39,270.08c17.62-1.93,35.26-3.79,52.96-4.77c18.13-1.32,36.4-1.38,54.37-4.31
	c4.59-0.77,19.43-3.12,19.82-8.64c0.79-3.98-8.45-8.05-11.47-9.56c-2.14-0.9-4.31-1.76-6.46-2.65c3.28,0.95,6.79,1.97,10.04,3.26
	c4.54,1.97,11.67,4.71,10.69,10.8c-0.2,1.51-0.89,2.89-2.08,3.86c-9.38,6.8-24.24,7.46-35.54,8.78
	C265.01,268.74,234.09,269.02,203.39,270.08z"/>
<path class="st1" d="M259.2,308.21c-20.25-0.26-40.47-1.54-60.69-2.74c23.32-1.08,46.89-1.11,70.29-1.71
	c10.01-0.42,19.99-1.12,29.67-3.72c13.57-3.8,22.64-11.52,2.91-15.79c-1.89-0.55-3.77-1.13-5.65-1.68
	c3.36,0.27,6.93,0.79,10.34,1.34c4.9,0.63,11.74,3.6,9.94,9.66C306.81,310.17,275.81,307.97,259.2,308.21z"/>
<path class="st1" d="M189.36,350.57c14.04-4.21,118.48-9.15,110.95-25.77c-3.44-4.73-10.22-5.13-15.53-6.23
	c5.55,0.31,12.15,0.65,16.45,4.71C315.2,348.1,204.28,348.9,189.36,350.57z"/>
<path class="st1" d="M182.09,401.62c16.67-3.05,33.44-5.43,50.16-8.14c12.7-2.04,60.68-7.8,37.63-27.88
	c-5.55-4.02-12.29-5.65-19-6.29c8.73-1.01,18.53,0.91,25.05,7.24C304.62,400.28,198.85,399.49,182.09,401.62z"/>
<path class="st1" d="M181.5,423.12c-5.26-0.1-10.63-0.17-15.82-0.43c17.5-1.81,35.08-2.85,52.66-3.55
	c13.34-0.95,27.68,0.48,40.35-4.06c-5.16,4.12-19.18,5.59-27.81,6.58C214.47,423.2,197.98,423.36,181.5,423.12z"/>
<path class="st1" d="M171.84,85.76c8.13-2.9,16.28-5.8,24.48-8.5c5.53-2.27,12.53-3.38,16.21-8.47c0.34-2.54-2.25-3.22-4.14-3.79
	c-1.93-0.52-3.86-1-5.79-1.3c-2.37-0.35-4.88-0.33-7.18-0.73c5.72-0.36,11.73-0.71,17.12,1.62c8.39,6.26-7.02,11.78-11.82,13.11
	C191.22,80.71,181.46,83.38,171.84,85.76z"/>
<path class="st1" d="M151.51,95.71c31.89-8.44,64.46-14.51,95.92-24.52c8.34-2.38,46.62-17.11,22.71-24.27
	c-4.27-1.31-8.98-1.19-12.98-3.3c3.56,1.35,7.6,0.98,11.37,1.5c28.5,4.06,2.77,22.75-10.98,26.44
	C223.38,83.81,186.96,88.73,151.51,95.71z"/>
<path class="st1" d="M148.02,76.34c4.4-2.77,116.86-21.11,80.43-27.59c-1.67-0.24-3.5-0.43-5.09-0.69c2.95,0.11,5.9,0.29,8.85,0.51
	c12.94,1.55-2.69,11.42-7.85,12.5C199.69,69.22,173.56,72.42,148.02,76.34z"/>
</svg>
