<?xml version="1.0" encoding="utf-8"?>
<!-- Generator: Adobe Adobe Illustrator 24.2.0, SVG Export Plug-In . SVG Version: 6.00 Build 0)  -->
<svg version="1.1" id="Vector_layer_1_" xmlns="http://www.w3.org/2000/svg" xmlns:xlink="http://www.w3.org/1999/xlink" x="0px"
	 y="0px" viewBox="0 0 500 500" style="enable-background:new 0 0 500 500;" xml:space="preserve">
<style type="text/css">
	.st0{fill:#3A9E31;}
	.st1{fill:#F20519;}
	.st2{fill:#FFFFFF;}
</style>
<path class="st0" d="M188.88,83.28c-8.17-2.15-19.59-2.2-23.91-10.69c-0.67-1.51-0.66-3.84,0.58-5.07c1.3-1.41,3.06-2.18,4.78-2.96
	c6.78-3.27,14.01-5.36,21.32-7.07c10.96-2.58,21.89-5.4,32.98-7.38c15.89-3.19,32.14-4.1,48.32-4.06
	c13.24-0.04,26.5,0.59,39.67,1.95c8.05,0.99,16.49,1.08,24.02,4.41c0.24,0.11,0.95,0.4,1.16,0.55c0.62,0.44,0.43,0.23,0.84,0.82
	c0.07,0.11-0.02,0.24-0.13,0.25c-1.93,0.15-3.83-0.3-5.73-0.62c1.69,0.05,3.66,0.61,5.43,0.34c-8.7-4.65-23.87-2.59-33.79-2.71
	c-13.71,0.49-27.38,1.93-41,3.5c-19.97,1.97-39.75,5.32-59.51,8.77c-11.74,2.05-24.09,2.5-35.14,7.25
	C169.14,77.46,183.57,80.83,188.88,83.28z"/>
<path class="st0" d="M168.42,104.07c-4.19-0.24-8.85-0.69-12.26-3.37c-3.96-3.22-2.75-7.5,2.11-8.88
	c7.28-2.33,14.89-3.14,22.41-4.25c21.51-3.38,43.13-6.14,64.92-6.65c22.28-0.8,44.72-0.52,66.86,2.22
	c5.77,0.8,11.48,1.87,17.17,3.14c2.41,0.39,4.81,1.41,7.23,1.34c-2.24,0.24-4.89-0.73-7.26-1.03c-2.92-0.45-5.87-1.04-8.81-1.43
	c-12.02-1.57-24.14-1.59-36.23-1.1c-19.25,0.58-38.35,3.19-57.51,4.97c-10.64,1.13-21.26,2.44-31.85,4
	c-10.88,1.74-21.98,2.07-32.77,4.3c6.56,2.55,13.76,2.47,20.65,3.35c8.71,0.86,17.35,2.16,26,3.47
	C195.63,103.38,181.94,104.25,168.42,104.07z"/>
<path class="st0" d="M193.73,141.95c-9.06-0.97-48.01-2.76-42.98-16.96c1.25-2.33,4.46-2.75,6.79-3.2
	c8.28-1.73,16.52-3.6,24.84-5.14c43.7-7.86,88.92-9.42,132.87-2.74c5.02,0.77,10.13,1.85,14.81,3.68
	c-24.85-4.49-50.32-1.95-75.36-0.63c-31.69,2.96-63.36,6.42-94.72,11.94c15.78,7.9,33.5,11.06,50.78,13.75
	c-5.62-0.14-11.48-0.47-17.17-0.7C193.59,141.94,193.73,141.95,193.73,141.95z"/>
<path class="st0" d="M197.94,175.36c-16.66-1.25-33.54,0.1-50.04-2.86c-5.48-0.77-17.49-3.88-10.81-11.1
	c6.57-3.68,14.15-5.31,21.38-7.25c44.37-9.31,90.46-14.2,135.73-10.14c6.91,0.75,13.93,1.81,20.7,3.01
	c-20.69-1.21-41.39-1.04-61.97,1.47c-15.48,1.54-30.87,3.8-46.25,6.12c-20.21,3.36-40.84,4.83-60.53,10.75
	c18.51,5.32,37.9,6.38,56.74,10.22c-1.57,0-3.34-0.17-4.99-0.21C197.9,175.36,197.94,175.36,197.94,175.36z"/>
<path class="st0" d="M142.13,210.09c-2.4-0.4-4.98-1.07-7.14-2.22c-3.15-1.68-2.25-6.39,1.13-7.11
	c21.18-7.53,43.41-11.75,65.75-13.92c32.35-3.1,65.13-5.15,97.53-1.79c6.14,0.61,12.27,1.58,18.39,2.44
	c-8.37-0.19-16.92-0.57-25.36-0.63c-24.49,0.09-48.82,3.09-73.15,5.55c-27.4,2.9-55.22,4.96-81.82,12.36
	c8.85,4.1,18.74,5.31,28.18,7.48C157.87,211.87,149.88,211.35,142.13,210.09z"/>
<path class="st0" d="M155.6,264.16c-5.62-0.1-11.24-0.62-16.77-1.63c-4.82-1.07-10.78-1.91-13.18-6.81
	c-2.04-3.23,0.88-6.67,3.86-7.94c25.48-8.91,52.63-11.39,79.34-14.12c22.3-1.89,44.67-2.31,67.03-1.76
	c9.06,0.29,18.1,0.97,27.14,1.61c6.62,0.52,13.35,1.06,19.67,3.23c0.51,0.18,1.36,0.37,1.82,0.68c0.55,0.36,0.39,0.17,0.67,0.71
	c0.04,0.07-0.02,0.14-0.09,0.16c-1.49,0.27-3,0.28-4.51,0.36c1.31-0.21,2.95-0.19,4.32-0.55c-0.57-0.73-1.49-0.65-2.32-1
	c-3.89-1.11-7.85-1.55-11.86-1.79c-10.17-0.45-20.4,0.04-30.58,0.43c-14.26,0.77-28.3,2.27-42.39,3.92
	c-16.49,1.97-32.95,4.23-49.42,6.35c-16.48,2.09-33.27,4.12-49.26,8.21c12.12,3.93,24.74,5.06,37.29,6.72
	c8.64,1.09,17.28,2.22,25.93,3.21C186.83,263.98,171.14,264.3,155.6,264.16z"/>
<path class="st0" d="M158.08,296.36c-4.58-1.04-11.3-1.03-13.49-5.9c-5.15-9.58,41.46-15.91,48.04-16.53
	c30.94-3.77,62.2-4.24,93.32-2.9c12.3,1.43,25.48,0.24,37.01,5.26c-3.02-1.07-6.42-1.75-9.68-1.8c-29.58-0.67-59.06,2.52-88.51,4.95
	c-24.5,2.87-49.56,2.95-73.38,9.96c9.12,4.6,19.46,6.15,29.37,7.54C173.2,297.18,165.59,297.57,158.08,296.36z"/>
<path class="st0" d="M193.22,324.87c-11.7-1.1-23.85,0.65-35.21-2.84c-8.77-2.82-7.61-11.7,1.77-11.53
	c22.33-2.41,44.55-6.26,67.09-5.83c23.22-0.29,46.46,0.82,69.63,2.35c3.58,0.43,7.53,0.45,10.74,2.22
	c-0.13,0.26-0.11,0.29-0.31,0.32c-0.05-0.03,0.08-0.04,0.11-0.05c0.05-0.08,0.09-0.15,0.14-0.22c-7.64-2.37-16.14-0.79-24.07-0.81
	c-10.99,0.49-21.99,0.94-32.96,1.72c-25.06,1.93-50.09,3.98-75.01,7.28c13,2.24,25.9,5.68,38.66,8.73
	C206.93,325.69,200.08,325.26,193.22,324.87z"/>
<path class="st0" d="M228.2,429.03c-12.88-1.02-26.07-1.83-38.33-6.16c-3.61-1.82-5.16-4.75-1.52-7.68c2.1-1.09,4.62-0.88,6.87-1.53
	c8.08-1.45,16.28-2.48,24.49-2.64c32.63-1.64,65.11,1.85,97.61,4.11c-17.59-0.43-35.39-1.42-53.07-1.1
	c-11.45,0.23-22.88,1.36-34.3,2.07c-10.63,0.69-21.3,1.24-31.8,3.2C207.88,423.33,218.06,426.45,228.2,429.03z"/>
<path class="st0" d="M213.76,452.2c-3.65-0.08-7.4-0.21-10.7-1.93c-1.66-0.77-1.91-3.36-0.44-4.45c1.73-1.42,3.92-1.6,6.06-1.57
	c2.3-0.31,4.61-0.54,6.9-0.88c5.81-0.87,11.64-1.62,17.5-2.04c15.3-1.42,30.7-0.22,46.04-0.49c6.72-0.01,13.46-0.03,20.14,0.29
	c2.21-0.12,4.57,0.52,6.67-0.08c0.02-0.06,0.04-0.11,0.06-0.16c0.01-0.07,0.02-0.13,0.03-0.2c-0.45-0.19-0.9-0.37-1.36-0.54
	c0.4,0.05,0.99,0.31,1.43,0.45c0.12,0.93-1,0.92-1.74,0.92c-15.71,0.21-31.79,2.11-47.29,3.29c-13.66,1.07-27.28,2.44-40.87,4.17
	c4.02,0.96,8.24,1.7,12.2,2.61C223.53,451.9,218.65,452.23,213.76,452.2z"/>
<path class="st1" d="M308.45,340.34c0.96,0.07,1.97,0.04,2.84,0.14c-17.79-0.45-35.57-0.99-53.36-0.18
	c-22,0.69-43.95,2.37-65.89,4.07c-18.1,1.79-36.16,3.95-54.31,5.26c11.4,4.45,23.67,6.72,35.51,9.33
	c-6.41-0.44-12.86-0.73-19.24-1.41c-4.57-0.21-36.02-3.88-27.38-11.81c3.57-2.03,7.89-1.74,11.84-2.48
	c8.25-0.97,16.52-1.76,24.76-2.73c22.21-2.66,44.57-3.3,66.92-2.91C256.28,337.88,282.39,338.8,308.45,340.34z"/>
<path class="st1" d="M262.43,371.72c15.57,0.73,31.35,1.02,46.66,3.79c-42.57,1.84-85.13,5.36-127.57,9.06
	c8.61,1.45,17.23,2.76,25.9,3.84c-12.44,0.72-25.14,1.31-37.66,0.7c-4.37,0.33-12.22-3.58-6.91-8.13
	c10.52-4.25,22.14-5.6,33.31-7.38C218.17,371.4,240.33,370.46,262.43,371.72z"/>
<path class="st2" d="M108.14,252.16c-47.25-11.19-2.79-26.97,17.96-33.74c18.67-5.81,37.89-9.49,57.16-12.63
	c47.95-7.24,96.76-5.01,144.89-2.43c0.27-0.18,0.42-0.46,0.58-0.63c-0.09,0.27-0.21,0.63-0.54,0.73c-9.13-0.15-18.3,0.61-27.44,1.37
	c-38.9,1.82-77.82,3.29-116.54,7.56c-26.16,3.35-52.51,7.24-77.24,16.72C82.49,238.29,85.64,243.63,108.14,252.16z"/>
</svg>
