<?xml version="1.0" encoding="utf-8"?>
<!-- Generator: Adobe Adobe Illustrator 24.2.0, SVG Export Plug-In . SVG Version: 6.00 Build 0)  -->
<svg version="1.1" xmlns="http://www.w3.org/2000/svg" xmlns:xlink="http://www.w3.org/1999/xlink" x="0px" y="0px"
	 viewBox="0 0 500 500" style="enable-background:new 0 0 500 500;" xml:space="preserve">
<style type="text/css">
	.st0{fill:#000B25;}
	.st1{fill:#3A9E31;}
	.st2{fill:#FFFFFF;}
	.st3{fill:#F20519;}
</style>
<g id="Vector_layer_3_">
	<path class="st0" d="M506.39-6.39v512.79H-6.39V-6.39H506.39z"/>
</g>
<g id="Vector_layer_2_">
	<path class="st1" d="M189.1,85.54c-5.12-0.31-29.32-1.44-16.59-10.42c18.16-7.21,37.59-10.13,56.49-14.1
		c41.95-6.73,84.81-9.75,126.83-2.07c1.73,0.57,8.21,1.22,7.68,3.1c-1.11,0.38-2.24,0.23-3.37,0.25c0.96-0.17,2.2-0.03,3.18-0.48
		c-0.02-0.08-0.04-0.17-0.07-0.25c-28.8-6.02-58.94-0.96-88.04,0.47c-33.58,4.21-67.41,8.01-100.29,17.14
		c11.96,4.65,24.84,5.12,37.13,7.69c-7.66-0.49-15.33-0.78-22.99-1.31C189.06,85.54,189.1,85.54,189.1,85.54z"/>
	<path class="st1" d="M199.28,102.55c-4.52-0.37-12.48-1.59-9.64-8.91c4.33-9.54,51.94-15.63,62.89-17.28
		c27.26-3.6,54.77-4.14,82.12-1.55c13.01,1.24,26.1,2.81,38.67,6.98c-0.74-0.09-1.5-0.38-2.28-0.52
		c-28.04-5.09-57.25-3.87-85.4-2.16c-30.38,2.93-61.15,5.19-90.75,13.93c-1.18,0.47-2.13,0.98-2.61,2.29
		c-1.81,4.16,7.32,4.82,9.59,5.28c5.36,0.17,10.73,0.13,16.09-0.06C211.84,101.33,205.51,102.65,199.28,102.55z"/>
	<path class="st1" d="M187.71,131c-2.86-0.62-4.67-3.23-6.58-5.48c-2.17-2.1,3.56-7.64,5.02-8.94c5-3.5,10.91-4.46,16.48-6.23
		c16.76-5.33,34.08-7.51,51.3-9.91c31.3-3.43,62.97-3.49,94.34-1.39c9.62,0.84,19.24,1.65,28.7,3.85c-4.12-0.54-8.39-1-12.57-1.43
		c-41.48-1.57-83.13,0.97-124.29,7.03c-13.25,1.62-26.39,4.13-39.36,7.66c-5.67,1.53-12.39,2.02-16,7.94
		c2.39,4.63,7.3,4.34,11.44,4.35c7.74,0.39,15.48-0.29,23.19-0.88C209.04,129.23,198.23,132.23,187.71,131z"/>
	<path class="st1" d="M179.98,147.9c-4.21-2.05,3.54-7.42,5.24-8.55c9-4.53,18.91-6.16,28.4-8.89c34.4-8.66,69.67-10.06,104.77-9.85
		c17.2,0.14,34.57,0.37,51.61,3.18c0.12,0.03,0.1,0.23-0.02,0.21c-0.99-0.05-2.16-0.04-3.09-0.22c0.62,0.03,1.23,0.04,1.85,0.03
		c-29.96-2.41-59.97,1.58-89.9,3.1c-27.98,2.72-55.79,6.67-83.19,13.41c-4.1,1.09-8.69,1.87-11.92,5.1
		c4.96,2.24,10.32,0.86,15.44,0.62c4.22-0.22,8.54-0.61,12.68-0.88C201.31,146.47,190.4,152.21,179.98,147.9z"/>
	<path class="st1" d="M180.83,168.32c-2.08-0.22-3.67-1.91-4.24-4.19c-1.87-3.91,9.04-5.37,11.21-6.46
		c20.49-5.63,41.28-10.33,62.2-13.12c23.51-3.12,47.09-4.29,70.74-3.74c8.12,0.06,16.23,0.35,24.32,1.21
		c3.95,0.42,7.92,0.94,11.66,2.52c0.07,0.03,0.08,0.13,0.03,0.19c-0.12,0.16-0.09,0.17-0.2,0.2c-0.53-0.08-1.28-0.12-1.73-0.3
		c0.55,0.05,1.11,0.11,1.66,0.09c-22.87-3.84-46.22,1.72-69.2,2.5c-34.91,5-70.03,8.83-104.49,17.12
		c10.59,0.57,21.19-0.36,31.77-1.02C203.48,165.31,192.14,168.72,180.83,168.32z"/>
	<path class="st1" d="M177.44,229.16c-4.68,0.51-8.95-4.45-5.84-9.48c2.32-3.17,6.26-3.47,9.56-4.32
		c33.68-11.49,68.79-15.62,103.69-19.09c30.17-2.25,60.67-1.6,90.5,4.41c3.77,0.85,7.86,1.8,11.22,3.86
		c-6.83-2.88-14.28-3.17-21.46-3.84c-32.92-2.58-65.75,0.52-98.3,5.3c-30.61,3.65-61.51,8.27-91.16,17.24c0,0.01,0,0.01,0,0.02
		c0,0.01,0,0.02,0,0.03c18.4,3,37.23,0.62,55.77,0.65C213.52,225.8,195.51,229.47,177.44,229.16z"/>
	<path class="st1" d="M168.89,251.36c-1.17-0.06-2.34-0.3-3.5-0.47c-1.57-0.23-1.7-2.78-0.21-3.29c8.35-2.81,16.81-5.22,25.3-7.41
		c55.69-14.95,113.27-20.12,170.28-14.45c4.69,0.36,9.5,0.83,14.08,1.66c-3.8-0.35-7.55-0.74-11.35-0.78
		c-63.66-3.37-127.36,5.33-189.33,21.82c16.32,0.4,32.65,0.3,48.97,0.31C205.15,249.6,186.97,251.47,168.89,251.36z"/>
	<path class="st1" d="M186.75,283.96c-5.52-0.57-13.41,0-14.93-7.77c-0.38-0.92,0-2.08,0.75-2.59c6.23-4.79,13.91-5.75,21.02-7.92
		c20.27-6.01,41.01-9.37,61.68-13.02c31.79-4.1,64.03-5.54,95.92-2.07c3.6,0.88,11.64,0.95,13.21,4.9
		c-0.8-2.59-8.34-3.37-12.48-3.66c-34.72-1.18-69.49,2.34-103.79,8.28c-19.85,3.42-39.66,6.9-59.28,11.79
		c-4.42,1.23-9.14,1.73-13.12,4.42c1.82,6.83,31.04,5.98,37.52,6.69C204.5,283.53,195.56,284.46,186.75,283.96z"/>
	<path class="st1" d="M174.67,305.61c-1.21-0.3-1.88-1.24-2.7-2.2c-0.6-0.7-0.32-1.79,0.46-2.09c3.01-1.16,6.01-2.29,9.05-3.3
		c6.47-2.1,12.92-4.33,19.45-6.18c48.49-13.45,98.9-23.27,148.88-17.28c0.14,0.02,0.2,0.21,0.1,0.32c-0.8,1.13-2.49,0.69-3.61,0.61
		c-1.04-0.05-2.23,0.1-3.21,0.05c2.08-0.49,4.38,0.21,6.33-0.63c-26.51-2.05-53.09,1.37-79.16,6.65
		c-32.07,5.65-63.95,12.78-95.48,21.6c0,0,0,0,0,0c5.81,2,12.04,1.1,18.03,1.46C186.88,305.17,180.67,306.61,174.67,305.61z"/>
	<path class="st1" d="M185.83,363.24c-5.14-0.58-12.79,0.3-14.65-6.66c-0.59-1.02-0.6-2.43,0.39-3.12
		c11.14-7.88,24.79-9.66,37.33-13.26c34.2-7.69,69.02-11.75,103.88-11.55c2.66,0.36,42.91-0.81,35.76,3.55
		c0.21-0.32,0.9-0.49,0.98-1.02c-8.82-2.95-18.33-0.06-27.39-0.14c-24.11,1.42-48.2,4.24-72.09,8.17
		c-18.03,3.24-36.21,5.5-54.08,9.82c-7.16,2.01-14.87,2.83-21.4,6.93c2.25,6.39,20.54,5.7,26.19,6.34
		C195.87,362.75,190.78,363.19,185.83,363.24z"/>
	<path class="st1" d="M197.03,388.24c-4.66,0.2-9.23-0.81-12.76-4.5c-3.11-3.01,5.52-6.79,7.34-7.72
		c16.53-5.31,33.92-6.42,50.87-9.28c24.47-2.13,48.99-3,73.53-2.44c2.24-0.13,24.66,0.71,21.53,3.33c0.09-0.16,0.48-0.33,0.51-0.63
		c-10.96-2.65-22.35-0.2-33.44,0.17c-17.55,0.91-35.01,3.04-52.5,4.75c-13.44,1.08-26.77,3.46-40.18,4.9
		c-7.93,1.37-16.61,1.02-23.73,5.68c4.62,4.49,20.63,4.39,27.42,5.83C209.49,388.37,203.2,388.39,197.03,388.24z"/>
	<path class="st1" d="M204.29,419.53c-4.42-0.2-8.9-0.27-13.23-1.39c-3.55-1.51-9.97-3.92-4.31-8.36
		c20.06-6.49,40.73-11.59,61.62-13.16c21.86-1.62,43.8-1.84,65.7-1.38c0.12,0,0.16,0.2,0.05,0.25c-0.77,0.28-1.7,0.1-2.52,0.15
		c-41.25,2.93-82.49,7.13-122.9,17.39C192.96,418.38,224.16,420,204.29,419.53z"/>
	<path class="st1" d="M236.28,433.92c-2.98,0.46-6.67-1.69-4.07-5.34c1.38-1.36,3.39-1.3,5.09-1.69c14.56-4.08,29.79-3.7,44.62-1.95
		c-15.87,2.94-32.24,4.18-48.22,5.87c0.61,2.13,6.66,2.12,8.67,2.78C240.38,433.86,238.3,434.01,236.28,433.92z"/>
	<path class="st2" d="M201.42,184.03c-2.06-0.03-7.84-0.35-7.97-3.29c0.09-2.69,2.67-3.16,4.53-3.31
		c11.95-3.01,24.35-1.87,36.37-1.99c-0.67-0.48-0.24-0.26,0.17-0.05c-0.9,1.14-2.99,0.97-4.36,1.15c-2.65,0.22-5.29,0.63-7.93,0.92
		c-8.73,1.17-17.63,1.98-26.34,3.1c3.15,2.37,7.12,2.44,10.7,3.46C204.93,184.09,203.12,184.02,201.42,184.03z"/>
	<path class="st2" d="M271.59,169.62c-0.79,0.01-3.01-0.91-2.01-1.95c11.05-4.14,22.89-5.19,34.47-5.25
		c2.88,0.18,13.62-0.58,13.07,1.26c-2.13-1.41-4.9,0.15-7.23,0.21c-4.17,0.57-8.35,1.07-12.54,1.46c-8.84,1.35-17.8,1.55-26.61,3.16
		c0.97,0.62,2.19,0.96,3.13,1.49C273.1,169.89,272.35,169.74,271.59,169.62z"/>
	<path class="st3" d="M175.73,330.19c-3.49-0.19-13.41-0.63-10.45-6.94c2.85-2.26,6.47-3.24,9.74-4.56
		c25.24-9.09,51.38-14.34,77.62-17.99c27.63-3.81,55.54-2.67,83.29-3.19c-0.49-0.47-1.18-0.73-1.71-0.94
		c0.68,0.11,1.37,0.5,1.93,0.94c0.05,0.03,0.04,0.12-0.02,0.13c-24.14,1.71-48.35,2.39-72.4,5.74
		c-32.11,5.23-64.82,10.26-95.68,21.94c10.61,4.63,22.47,2.3,33.57,2.07C193.12,328.69,184.4,330.35,175.73,330.19z"/>
	<path class="st3" d="M171.18,340.31c-3.25-0.24-17.09-1.13-9.96-6.75c5.22-2.1,10.73-3.47,16.02-5.45
		c19.39-6.09,39.19-9.87,59.1-12.93c30.54-3.91,61.4-5.38,92.07-2.77c5.01,0.67,10.18,1.3,15.06,2.43
		c-4.9-0.76-9.86-0.99-14.79-1.38c-54.88-0.43-110.08,6.95-163.24,22.58c13.33,3.36,27,1.77,40.5,1.33
		C194.49,338.82,182.81,340.92,171.18,340.31z"/>
</g>
</svg>
