<?xml version="1.0" encoding="utf-8"?>
<!-- Generator: Adobe Adobe Illustrator 24.2.0, SVG Export Plug-In . SVG Version: 6.00 Build 0)  -->
<svg version="1.1" xmlns="http://www.w3.org/2000/svg" xmlns:xlink="http://www.w3.org/1999/xlink" x="0px" y="0px"
	 viewBox="0 0 500 500" style="enable-background:new 0 0 500 500;" xml:space="preserve">
<style type="text/css">
	.st0{fill:#000B25;}
	.st1{fill:#3A9E31;}
	.st2{fill:#FFFFFF;}
	.st3{fill:#F20519;}
	.st4{opacity:0.02;}
	.st5{opacity:0;}
</style>
<g id="Vector_layer_7_">
	<path class="st0" d="M-6.39-6.39v512.79h512.79V-6.39H-6.39z"/>
</g>
<g id="Vector_layer_6_">
	<path class="st1" d="M336.34,100.29c26.57-12.64-44.71-18.79-51.27-20.57c-30.78-3.47-61.61-6.72-92.62-6.64
		c-10.83-0.25-21.65-0.56-32.44,0.56c4.49,0.06,9.19-0.15,13.7,0c37.82,2.01,75.44,5.84,113.08,9.95c7.18,1.67,78.4,6.35,44.4,17.2
		c-2.94,0.55-5.91,0.9-8.88,1.15C326.87,101.95,331.93,101.94,336.34,100.29z"/>
	<path class="st1" d="M346.4,121.15c5.41,0.02,12.58-5.41,5.17-9.29c-22.6-7.42-46.4-10.85-69.9-14.18
		c-23.49-2.68-47.21-4.09-70.86-3.37c-18.32,0.86-36.7,1.92-54.8,4.92c4.1-0.46,8.41-0.72,12.58-1.06
		c55.79-3.32,111.71,2.87,166.54,12.97c10.14,1.51,28.37,5.51,5.88,8.61c-5.43,0.42-10.9,0.35-16.34,0.37
		C331.78,120.66,339.18,121.65,346.4,121.15z"/>
	<path class="st1" d="M339.52,144.4c4.4-0.31,10.95-3.9,8.4-9.06c-4.34-3.6-10.75-3.48-16.05-4.79c-8.36-1.63-16.73-3.15-25.16-4.36
		c-31.46-4.93-63.34-6.79-95.16-7.21c-6.42-0.09-12.83-0.07-19.25-0.07c-4.49,0.32-9.6-0.69-13.7,1.4c0.19,0.33,0.61,0.39,1,0.52
		c-0.07-0.11-0.52-0.16-0.68-0.27c0,0,0,0,0,0.01c-0.08-0.07-0.16-0.14-0.24-0.21c10.26-2.32,21.43,0.38,31.97,0.28
		c16.36,0.86,32.67,2.48,48.98,3.97c28.25,3.87,57.2,6.04,84.83,13.02c-4.51,7.21-31.25,4.58-39.94,5.33
		C316.04,143.73,327.93,145.97,339.52,144.4z"/>
	<path class="st1" d="M325.16,178.14c5.57-0.26,12.05-0.26,16.25-4.48c1.15-1.1,1.81-2.83,1.16-4.37c-0.43-1.05-1.36-1.45-2.33-1.89
		c-3.33-1.55-6.97-2.5-10.51-3.42c-8.57-2.43-17.31-4.03-26.11-5.39c-38.78-6.15-78.24-6.06-117.32-6.76
		c19.12,1.06,38.29,1.32,57.39,2.76c19.28,1.34,38.46,3.89,57.61,6.39c8.02,1.39,16.09,2.42,23.96,4.51
		c3.58,0.84,7.15,1.66,10.65,2.74c1.64,0.83,5.98,1.15,4.16,3.63c-4.9,5.87-15.17,5.32-22.19,6.45
		C320.21,178.31,322.76,178.17,325.16,178.14z"/>
	<path class="st1" d="M336.43,199.95c0.98-0.13,1.82-0.45,2.68-0.9c1.53-0.98,2.67-3.74,0.67-4.83c-1.77-1.09-3.79-1.39-5.8-1.76
		c-4.14-0.89-8.29-1.76-12.44-2.63c-9.35-2-18.88-2.83-28.39-3.75c-26.3-2.7-52.73-3.87-79.15-4.5c-9.1-0.2-18.23-0.48-27.32-0.42
		c-0.62,0.09-0.56,0.05-0.88,0.28c-0.04,0.03-0.02,0.09,0.03,0.09c3.45-0.35,6.95,0.04,10.39,0.11c26.3,1.52,52.48,4.34,78.64,7.34
		c19.21,2.33,38.47,4.19,57.51,7.71c-9,0.99-18.27,0.1-27.23,0.08c4.64,0.65,9.27,1.38,13.9,2.07
		C324.81,199.68,330.61,200.86,336.43,199.95z M186,181.43C186,181.43,186,181.43,186,181.43c0.24-0.05,0.47-0.1,0.71-0.14
		c0,0,0,0-0.01,0c0.25,0,0.49-0.01,0.74-0.01c0.26,0.02,0.51,0.03,0.77,0.04C187.47,181.37,186.73,181.41,186,181.43z"/>
	<path class="st1" d="M338.12,224.65c19.13-7.82-48.23-18.12-52.61-18.66c-19.44-2.85-39.07-4.06-58.72-3.89
		c-3.06-0.13-26.14,0.06-23.64,2.96c-0.06-0.07-0.45-0.11-0.57-0.23c3.64-2,8.07-1.03,12.06-1.11c7.93,0.4,15.84,1.25,23.75,1.91
		c10.01,0.76,19.98,2.14,29.94,3.38c13.17,2.03,26.43,3.42,39.58,5.56c10.59,2.25,22.28,2.17,32.11,6.81
		c-1.12,3.14-5.2,3.36-7.96,4.28C334.01,225.58,336.15,225.18,338.12,224.65z"/>
	<path class="st1" d="M312.2,278.81c5.92-0.48,13.04-0.57,17.36-5.19c3.53-3.64-0.42-8.03-4.49-8.63
		c-31.86-8.85-64.99-12.05-97.92-13.92c-4.96,0.05-33.91-2.69-34.31,1.69c0.52,0.38,1.16,0.57,1.75,0.83
		c-0.42-0.35-1.17-0.54-1.62-0.95c-0.02-0.07-0.03-0.15-0.05-0.22c0.01-0.07,0.03-0.13,0.04-0.2c3.56-1.64,7.88-0.67,11.7-0.72
		c11.95,0.84,23.82,2.52,35.68,4.15c28.46,3.97,57.24,8.33,85.14,14.98c-9.79,7.02-23.21,5.95-34.72,7.34
		C297.79,278.37,305.08,278.94,312.2,278.81z"/>
	<path class="st1" d="M328.57,305.96c3.43-0.74,6.41-4.65,3.5-7.71c-2.91-2.77-7.25-3.1-10.93-4.33
		c-15.42-4.08-31.15-7.16-46.95-9.34c-32.55-4.2-65.43-5.44-98.2-6.46c0.02-0.06,0.03-0.11,0.05-0.17c0.12-0.09,0.25-0.18,0.37-0.27
		c0.01-0.01,0-0.03-0.02-0.02c-0.25,0.16-0.37,0.2-0.46,0.47c0,0.01,0,0.03,0.02,0.03c3.2,0.36,6.44,0.38,9.65,0.52
		c31.2,2.2,62.31,5.95,93.13,11.26c6.92,1.33,13.85,2.63,20.8,3.84c8.85,1.87,17.8,3.39,26.49,5.91c1.03,0.41,2.22,0.62,3,1.44
		c-5.09,4.71-23.34,3.46-30.59,3.76c-0.02,0-0.02,0.02,0,0.02C308.37,305.82,318.69,308.46,328.57,305.96z"/>
	<path class="st1" d="M344.54,328.65c4.61-6.06-42.96-13.8-47.95-15c-36.87-5.95-74.45-10.38-111.83-8.02
		c4.45-0.02,9.1,0.03,13.56,0.11c24.61,1.04,48.98,4.6,73.31,8.26c22.88,4.26,46.31,7.39,68.58,14.19
		c-7.53,4.99-22.69,2.5-31.7,3.16C317.41,331.59,339.96,338.35,344.54,328.65z"/>
	<path class="st1" d="M340.42,359.71c3.63,0.07,10.55-3.4,6.5-7.42c-14.08-5.49-29.28-8.15-43.98-11.61
		c-29.7-5.42-59.89-9.85-90.11-10.05c-4.58,0.24-9.28,1.18-13.68,2.05c3.39-0.43,6.78-0.89,10.18-1.18
		c19.02-0.36,37.89,3.53,56.65,6.26c26.26,4.69,52.71,9.47,78.27,17.14c-9.22,4.82-20.64,1.61-30.64,1.74
		C322.39,357.92,331.42,360.44,340.42,359.71z"/>
	<path class="st1" d="M313.53,407.06c9.34-0.61,20.66-0.7,28.49-6.34c3.31-2.44,2.11-7.59-1.68-8.82
		c-7.22-2.91-14.8-4.91-22.43-6.37c-40.45-7.9-81.69-10.59-122.81-11.43c3.01-0.5,6.24-0.81,9.18-1.29
		c-3.37,0.44-6.77,0.66-10.11,1.23c-0.13,0.03-0.11,0.23,0.02,0.25c26.78,1.62,53.49,4.43,79.94,9.04
		c12.09,1.89,24.31,4.05,36.29,6.28c9.31,1.98,18.72,3.87,27.63,7.3c-11.93,7.4-33.23,8.47-47.16,9.83
		C298.42,407.04,305.99,407.33,313.53,407.06z"/>
	<path class="st1" d="M309.54,430.51c33.72-13.57-105.66-21.51-106.06-19.21c17.35,0.27,34.78,3.88,52.04,6.14
		c17.21,3.04,34.64,4.99,51.68,8.91c-8.92,1.84-18.22,2.37-27.21,3.12C289.79,430.27,299.72,431.67,309.54,430.51z"/>
	<path class="st1" d="M249.95,441.66c3.88,0.45,15.81-1.92,8.29-6.64c-12.85-3.62-26.3-3.97-39.57-4.1
		c-6.58-0.75-14.07,2.07-20.17,0.01c0.31,0.54,0.68,0.66,1.28,0.88c18.14,1.87,36.62,2.38,54.57,6.1
		c-7.22,1.55-14.67,2.07-21.93,2.65C238.24,441.2,244.08,441.86,249.95,441.66z"/>
	<path class="st2" d="M334.11,253.89c4.79-0.89,20.15-2.97,16.34-10.05c-5.4-2.84-11.65-3.53-17.49-5.11
		c-24.65-5.05-49.54-9.03-74.56-11.71c-20.03-1.89-40.15-2.58-60.27-2.21c-9.4,0.28-18.87,0.14-28.22,1.17
		c-0.19,0.04-0.82,0.21-0.97,0.36c-0.08,0.12-0.31,0.22-0.29,0.36c0.23,0.12,0.41,0.07,0.66,0.02c-0.1-0.07-0.43,0.07-0.58-0.06
		c32.47-1.46,65.67,3.39,98.06,7.28c27.02,4.04,54.74,5.84,81.3,12.06c-7.33,7.34-21.47,7.45-31.44,8.59
		C322.38,254.6,328.37,254.68,334.11,253.89z"/>
	<path class="st3" d="M353.1,372.47c2.12-0.24,3.82-1.65,4.64-3.61c1.62-4.42-10.74-5.63-13.64-6.86
		c-24.19-6.54-49.05-10.03-73.89-13.08c-30.94-3.48-62.1-5.42-93.2-6c-1.24-0.08-2.56-0.28-3.7,0.3c0.43,0.67,2.15,0.62,3.04,1
		c-0.74-0.31-1.83-0.59-2.66-0.91c32.99,2.05,66.05,6.21,98.8,11.03c26.93,4.14,54.2,7.23,80.53,14.37
		c-16.35,2.9-33.36-0.13-49.88-0.33C319.6,369.87,336.56,374.03,353.1,372.47z"/>
</g>
<g id="Vector_layer_5_" class="st4">
	<path class="st1" d="M310.9,85.54c5.12-0.31,29.32-1.44,16.59-10.42c-18.16-7.21-37.59-10.13-56.49-14.1
		c-41.95-6.73-84.81-9.75-126.83-2.07c-1.73,0.57-8.21,1.22-7.68,3.1c1.11,0.38,2.24,0.23,3.37,0.25c-0.96-0.17-2.2-0.03-3.18-0.48
		c0.02-0.08,0.04-0.17,0.07-0.25c28.8-6.02,58.94-0.96,88.04,0.47c33.58,4.21,67.41,8.01,100.29,17.14
		c-11.96,4.65-24.84,5.12-37.13,7.69c7.66-0.49,15.33-0.78,22.99-1.31C310.94,85.54,310.9,85.54,310.9,85.54z"/>
	<path class="st1" d="M300.72,102.55c4.52-0.37,12.48-1.59,9.64-8.91c-4.33-9.54-51.94-15.63-62.89-17.28
		c-27.26-3.6-54.77-4.14-82.12-1.55c-13.01,1.24-26.1,2.81-38.67,6.98c0.74-0.09,1.5-0.38,2.28-0.52
		c28.04-5.09,57.25-3.87,85.4-2.16c30.38,2.93,61.15,5.19,90.75,13.93c1.18,0.47,2.13,0.98,2.61,2.29c1.81,4.16-7.32,4.82-9.59,5.28
		c-5.36,0.17-10.73,0.13-16.09-0.06C288.16,101.33,294.49,102.65,300.72,102.55z"/>
	<path class="st1" d="M312.29,131c2.86-0.62,4.67-3.23,6.58-5.48c2.17-2.1-3.56-7.64-5.02-8.94c-5-3.5-10.91-4.46-16.48-6.23
		c-16.76-5.33-34.08-7.51-51.3-9.91c-31.3-3.43-62.97-3.49-94.34-1.39c-9.62,0.84-19.24,1.65-28.7,3.85c4.12-0.54,8.39-1,12.57-1.43
		c41.48-1.57,83.13,0.97,124.29,7.03c13.25,1.62,26.39,4.13,39.36,7.66c5.67,1.53,12.39,2.02,16,7.94
		c-2.39,4.63-7.3,4.34-11.44,4.35c-7.74,0.39-15.48-0.29-23.19-0.88C290.96,129.23,301.77,132.23,312.29,131z"/>
	<path class="st1" d="M320.02,147.9c4.21-2.05-3.54-7.42-5.24-8.55c-9-4.53-18.91-6.16-28.4-8.89
		c-34.4-8.66-69.67-10.06-104.77-9.85c-17.2,0.14-34.57,0.37-51.61,3.18c-0.12,0.03-0.1,0.23,0.02,0.21
		c0.99-0.05,2.16-0.04,3.09-0.22c-0.62,0.03-1.23,0.04-1.85,0.03c29.96-2.41,59.97,1.58,89.9,3.1c27.98,2.72,55.79,6.67,83.19,13.41
		c4.1,1.09,8.69,1.87,11.92,5.1c-4.96,2.24-10.32,0.86-15.44,0.62c-4.22-0.22-8.54-0.61-12.68-0.88
		C298.69,146.47,309.6,152.21,320.02,147.9z"/>
	<path class="st1" d="M319.17,168.32c2.08-0.22,3.67-1.91,4.24-4.19c1.87-3.91-9.04-5.37-11.21-6.46
		c-20.49-5.63-41.28-10.33-62.2-13.12c-23.51-3.12-47.09-4.29-70.74-3.74c-8.12,0.06-16.23,0.35-24.32,1.21
		c-3.95,0.42-7.92,0.94-11.66,2.52c-0.07,0.03-0.08,0.13-0.03,0.19c0.12,0.16,0.09,0.17,0.2,0.2c0.53-0.08,1.28-0.12,1.73-0.3
		c-0.55,0.05-1.11,0.11-1.66,0.09c22.87-3.84,46.22,1.72,69.2,2.5c34.91,5,70.03,8.83,104.49,17.12
		c-10.59,0.57-21.19-0.36-31.77-1.02C296.52,165.31,307.86,168.72,319.17,168.32z"/>
	<path class="st1" d="M322.56,229.16c4.68,0.51,8.95-4.45,5.84-9.48c-2.32-3.17-6.26-3.47-9.56-4.32
		c-33.68-11.49-68.79-15.62-103.69-19.09c-30.17-2.25-60.67-1.6-90.5,4.41c-3.77,0.85-7.86,1.8-11.22,3.86
		c6.83-2.88,14.28-3.17,21.46-3.84c32.92-2.58,65.75,0.52,98.3,5.3c30.61,3.65,61.51,8.27,91.16,17.24c0,0.01,0,0.01,0,0.02
		c0,0.01,0,0.02,0,0.03c-18.4,3-37.23,0.62-55.77,0.65C286.48,225.8,304.49,229.47,322.56,229.16z"/>
	<path class="st1" d="M331.11,251.36c1.17-0.06,2.34-0.3,3.5-0.47c1.57-0.23,1.7-2.78,0.21-3.29c-8.35-2.81-16.81-5.22-25.3-7.41
		c-55.69-14.95-113.27-20.12-170.28-14.45c-4.69,0.36-9.5,0.83-14.08,1.66c3.8-0.35,7.55-0.74,11.35-0.78
		c63.66-3.37,127.36,5.33,189.33,21.82c-16.32,0.4-32.65,0.3-48.97,0.31C294.85,249.6,313.03,251.47,331.11,251.36z"/>
	<path class="st1" d="M313.25,283.96c5.52-0.57,13.41,0,14.93-7.77c0.38-0.92,0-2.08-0.75-2.59c-6.23-4.79-13.91-5.75-21.02-7.92
		c-20.27-6.01-41.01-9.37-61.68-13.02c-31.79-4.1-64.03-5.54-95.92-2.07c-3.6,0.88-11.64,0.95-13.21,4.9
		c0.8-2.59,8.34-3.37,12.48-3.66c34.72-1.18,69.49,2.34,103.79,8.28c19.85,3.42,39.66,6.9,59.28,11.79
		c4.42,1.23,9.14,1.73,13.12,4.42c-1.82,6.83-31.04,5.98-37.52,6.69C295.5,283.53,304.44,284.46,313.25,283.96z"/>
	<path class="st1" d="M325.33,305.61c1.21-0.3,1.88-1.24,2.7-2.2c0.6-0.7,0.32-1.79-0.46-2.09c-3.01-1.16-6.01-2.29-9.05-3.3
		c-6.47-2.1-12.92-4.33-19.45-6.18c-48.49-13.45-98.9-23.27-148.88-17.28c-0.14,0.02-0.2,0.21-0.1,0.32
		c0.8,1.13,2.49,0.69,3.61,0.61c1.04-0.05,2.23,0.1,3.21,0.05c-2.08-0.49-4.38,0.21-6.33-0.63c26.51-2.05,53.09,1.37,79.16,6.65
		c32.07,5.65,63.95,12.78,95.48,21.6c0,0,0,0,0,0c-5.81,2-12.04,1.1-18.03,1.46C313.12,305.17,319.33,306.61,325.33,305.61z"/>
	<path class="st1" d="M314.17,363.24c5.14-0.58,12.79,0.3,14.65-6.66c0.6-1.02,0.6-2.43-0.39-3.12
		c-11.14-7.88-24.79-9.66-37.33-13.26c-34.2-7.69-69.02-11.75-103.88-11.55c-2.66,0.36-42.91-0.81-35.76,3.55
		c-0.21-0.32-0.9-0.49-0.98-1.02c8.82-2.95,18.33-0.06,27.39-0.14c24.11,1.42,48.2,4.24,72.09,8.17c18.03,3.24,36.21,5.5,54.08,9.82
		c7.16,2.01,14.87,2.83,21.4,6.93c-2.25,6.39-20.54,5.7-26.19,6.34C304.13,362.75,309.22,363.19,314.17,363.24z"/>
	<path class="st1" d="M302.97,388.24c4.66,0.2,9.23-0.81,12.76-4.5c3.11-3.01-5.52-6.79-7.34-7.72
		c-16.53-5.31-33.92-6.42-50.87-9.28c-24.47-2.13-48.99-3-73.53-2.44c-2.24-0.13-24.66,0.71-21.53,3.33
		c-0.09-0.16-0.48-0.33-0.51-0.63c10.96-2.65,22.35-0.2,33.44,0.17c17.55,0.91,35.01,3.04,52.5,4.75
		c13.44,1.08,26.77,3.46,40.18,4.9c7.93,1.37,16.61,1.02,23.73,5.68c-4.62,4.49-20.63,4.39-27.42,5.83
		C290.51,388.37,296.8,388.39,302.97,388.24z"/>
	<path class="st1" d="M295.71,419.53c4.42-0.2,8.9-0.27,13.23-1.39c3.55-1.51,9.97-3.92,4.31-8.36
		c-20.06-6.49-40.73-11.59-61.62-13.16c-21.86-1.62-43.8-1.84-65.7-1.38c-0.12,0-0.16,0.2-0.05,0.25c0.77,0.28,1.7,0.1,2.52,0.15
		c41.25,2.93,82.49,7.13,122.9,17.39C307.04,418.38,275.84,420,295.71,419.53z"/>
	<path class="st1" d="M263.72,433.92c2.98,0.46,6.67-1.69,4.07-5.34c-1.38-1.36-3.39-1.3-5.09-1.69
		c-14.56-4.08-29.79-3.7-44.62-1.95c15.87,2.94,32.24,4.18,48.22,5.87c-0.61,2.13-6.66,2.12-8.67,2.78
		C259.62,433.86,261.7,434.01,263.72,433.92z"/>
	<path class="st2" d="M298.58,184.03c2.06-0.03,7.84-0.35,7.97-3.29c-0.09-2.69-2.67-3.16-4.53-3.31
		c-11.95-3.01-24.35-1.87-36.37-1.99c0.67-0.48,0.24-0.26-0.17-0.05c0.9,1.14,2.99,0.97,4.36,1.15c2.65,0.22,5.29,0.63,7.93,0.92
		c8.73,1.17,17.63,1.98,26.34,3.1c-3.15,2.37-7.12,2.44-10.7,3.46C295.07,184.09,296.88,184.02,298.58,184.03z"/>
	<path class="st2" d="M228.41,169.62c0.79,0.01,3.01-0.91,2.01-1.95c-11.05-4.14-22.89-5.19-34.47-5.25
		c-2.88,0.18-13.62-0.58-13.07,1.26c2.13-1.41,4.9,0.15,7.23,0.21c4.17,0.57,8.35,1.07,12.54,1.46c8.84,1.35,17.8,1.55,26.61,3.16
		c-0.97,0.62-2.19,0.96-3.13,1.49C226.9,169.89,227.65,169.74,228.41,169.62z"/>
	<path class="st3" d="M324.27,330.19c3.49-0.19,13.41-0.63,10.45-6.94c-2.85-2.26-6.47-3.24-9.74-4.56
		c-25.24-9.09-51.38-14.34-77.62-17.99c-27.63-3.81-55.54-2.67-83.29-3.19c0.49-0.47,1.18-0.73,1.71-0.94
		c-0.68,0.11-1.37,0.5-1.93,0.94c-0.05,0.03-0.04,0.12,0.02,0.13c24.14,1.71,48.35,2.39,72.4,5.74
		c32.11,5.23,64.82,10.26,95.68,21.94c-10.61,4.63-22.47,2.3-33.57,2.07C306.88,328.69,315.6,330.35,324.27,330.19z"/>
	<path class="st3" d="M328.82,340.31c3.25-0.24,17.09-1.13,9.96-6.75c-5.22-2.1-10.73-3.47-16.02-5.45
		c-19.39-6.09-39.19-9.87-59.1-12.93c-30.54-3.91-61.4-5.38-92.07-2.77c-5.01,0.67-10.18,1.3-15.06,2.43
		c4.9-0.76,9.86-0.99,14.79-1.38c54.88-0.43,110.08,6.95,163.24,22.58c-13.33,3.36-27,1.77-40.5,1.33
		C305.51,338.82,317.19,340.92,328.82,340.31z"/>
</g>
<g id="Vector_layer_4_" class="st5">
	<path class="st1" d="M306.06,86.7c12.27-0.61,40.34-5.67,11-12.38c-18.76-5.66-38.35-7.56-57.77-9.5
		c-21.31-2.26-42.75-2.85-64.17-2.63c-8.32,0.32-16.64,0.64-24.94,1.37c-3.63,0.47-9.13,0.32-11.49,2.26
		c-0.01-0.01-0.02-0.02-0.03-0.03c11.29-2.83,23.62-0.41,35.25-0.68c17.44,0.92,34.82,2.41,52.22,3.88
		c25.37,2.58,51.12,3.86,75.69,11.2c-17.05,5.21-35.18,4.94-52.81,6.53C281.25,86.93,293.75,87.32,306.06,86.7z"/>
	<path class="st1" d="M305.7,104.37c2.83-0.07,5.87,0.15,8.47-1.15c1.32-0.99,4.64-2.6,2.52-4.17c-5.86-3.75-12.8-4.74-19.49-6.12
		c-12.39-2.46-24.82-4.73-37.37-6.16c-22.45-3.27-45.09-4.59-67.75-5.45c-8.61,0.07-17.37-0.24-25.88,1.12
		c-0.76,0.22-1.32,0.52-2,0.93c-0.05,0.03-0.03,0.11,0.03,0.12c0.64,0.15,1.28,0.25,1.94,0.34c-0.43-0.17-1.25-0.22-1.75-0.42
		c1.68-1.03,3.77-0.96,5.66-1.06c5.39-0.02,10.77,0.06,16.15,0.32c15.69,0.86,31.28,3.15,46.95,4.46
		c18.85,2.83,37.84,4.61,56.61,7.94c8.04,1.52,16.66,1.76,24.12,5.36c-2.93,2.51-7.25,1.92-10.75,2.6
		c-4.12,0.53-8.27,0.77-12.42,0.96c4.93,0.4,10.07,0.49,15.07,0.37C305.8,104.37,305.7,104.37,305.7,104.37z"/>
	<path class="st1" d="M293.81,124.84c5.92-0.55,22.8,1.15,23.4-6.72c0.34-1.3-0.09-2.66-1.42-3.15c-11.63-4.42-24.25-5.51-36.4-7.89
		c-27.57-3.61-55.27-5.33-83.06-5.6c-11.06-0.04-22.15,0.43-33.14,1.72c-2.68,0.6-6,0.5-8.17,2.28c-0.25,0.66,0.57,0.7,1,0.71
		c-0.18-0.08-0.68-0.09-0.89-0.33c0.01-0.1,0.02-0.21,0.02-0.31c5.42-2.37,12.07-1.44,17.84-1.74c15.71-0.18,31.35,1.53,47,2.73
		c30.79,2.89,62.1,4.54,92.2,11.84c-13.58,4.6-28.5,4.48-42.59,6C277.66,124.67,285.74,124.86,293.81,124.84z"/>
	<path class="st1" d="M300.39,142.83c5.67-0.73,21.22,2.27,21.29-5.62c0.4-0.93,0.2-2.12-0.85-2.48c-9.5-4.13-19.86-5.27-30.05-6.52
		c-25.71-3.32-51.63-4.34-77.54-4.36c-14.59,0.68-34.23-1.33-46.03,2.5c-0.02-0.03-0.04-0.06-0.06-0.09
		c9.7-2.14,19.69-0.73,29.51-0.49c17,0.64,33.96,1.8,50.93,3.01c18.32,0.96,36.97,3.03,55.04,4.99c5.4,0.6,10.75,1.6,15.84,3.52
		c0.95,3.73-21.11,4.46-24.82,5.6c2.18,0.04,4.56-0.06,6.8-0.07C300.45,142.83,300.39,142.83,300.39,142.83z"/>
	<path class="st1" d="M313.61,166.02c6.44-0.45,20.31-3.25,16.18-12.26c-7.49-4.51-17.19-4.78-25.67-6.67
		c-22.25-3.73-44.87-4.26-67.38-4.91c-17.14,0.9-35.93-0.83-52.22,2.57c1.75,1.14,4.12,0.24,6.12,0.58
		c-1.7-0.39-3.79-0.03-5.51-0.59c27.43-1.52,54.95,1.23,82.31,3.16c19.83,1.5,39.85,2.81,58.93,8.41
		c-2.43,8.04-25.81,8.77-33.36,9.73C299.78,166.37,306.79,166.64,313.61,166.02z"/>
	<path class="st1" d="M300.23,181.15c4.81-0.21,9.85,0.14,14.44-1.57c2.62-1.14,8.15-4.65,3.72-7.12c-8.12-3.54-17.02-4.2-25.7-5.41
		c-17.38-2.58-34.91-3.57-52.46-4.12c-17.67-0.23-35.67,0.17-53.06,3.13c41.73-1.31,83.65,3.75,124.91,9.48
		c-11.75,3.15-23.93,3.64-35.81,5.4C284.24,181.1,292.25,181.47,300.23,181.15z"/>
	<path class="st1" d="M294.1,206.29c5.11-0.27,11.94-0.39,15.15-4.95c1.85-4.72-3.04-7.9-7.2-8.22
		c-24.09-7.29-49.27-10.09-74.3-11.81c-6.39,0.03-15.93-1.66-21.34,1.93c-0.11,0.53,0.21,0.76,0.78,0.63
		c-0.1-0.05-0.53,0.01-0.66-0.18c0.01-0.12,0.02-0.24,0.02-0.37c9.76-3.43,26.33,1.9,36.87,3.08c10.87,1.84,21.77,3.56,32.55,5.9
		c9.44,2.24,20.57,2.96,28.81,7.14c-9.73,5.03-21.41,4.71-32.06,6.53C279.75,206.47,287,206.39,294.1,206.29z"/>
	<path class="st1" d="M290.66,247.7c7.05-0.62,16.26,0.36,21.13-5.72c1.56-5.03-4.3-7.21-8.32-7.43
		c-27.17-6.1-55.22-8.74-83.06-8.13c-4.16,0.45-19.24,0.6-20.79,3.91c0.61,0.03,1.18-0.14,1.78-0.26c-0.41-0.05-1.13,0.18-1.6,0.09
		c4.08-2.44,9.83-1.37,14.51-1.86c21.17,0.04,42.11,3.83,62.91,5.59c10.27,1.53,20.77,2.74,30.86,4.94
		C313.38,244.19,293.83,246.91,290.66,247.7z"/>
	<path class="st1" d="M304.51,270.39c6.02,0.53,9.62-4.73,4.03-8.64c-11.8-5.74-25.31-6.53-38.01-9.29
		c-19.3-2.46-38.73-3.7-58.18-3.96c-6.43,0-12.99-0.04-19.36,0.08c7.62,0.8,15.27,1.39,22.88,2.27c22.31,2.47,44.66,4.88,66.78,8.8
		c6.16,1.62,21.55,1.86,24.92,6.76c-7.71,2.49-16.2,2.11-24.24,2.79C290.28,269.83,297.46,270.88,304.51,270.39z"/>
	<path class="st1" d="M295.24,287.28c4.29,0.22,8.71-2.65,5.05-6.89c-5.7-3.24-12.5-4.22-18.85-5.68
		c-16.55-3.14-32.65-5.67-49.34-5.73c-7.03-0.07-14.17,0.24-21.04,1.81c0.88,0.03,1.91-0.13,2.86-0.12
		c16.01,0.26,31.46,3.13,47.1,5.93c9.09,1.67,18.3,2.59,27.42,4.09c2.99,1.02,8.59,0.51,10,3.1c-4.32,2.24-9.25,2.28-13.95,2.96
		C287.95,287.11,291.69,287.58,295.24,287.28z"/>
	<path class="st1" d="M295.82,309.4c2.78-0.11,15.2-0.27,13.86-4.62c-0.33-2.91-3.07-4.11-5.57-4.83
		c-20.84-6.05-42.79-7.64-64.4-8.03c-8.26,0.08-16.67-0.09-24.85,0.36c3.65,0.25,7.3,0.69,10.94,1.06
		c20.9,1.86,41.69,4.59,62.51,7.2c4.01,0.97,17.25,1.15,18.83,4.64C303.97,307.96,299.6,308.2,295.82,309.4z"/>
	<path class="st1" d="M303.36,363.05c5.98-0.63,18.93,0.77,18.81-7.83c0.11-0.9-0.56-1.75-1.37-2.04
		c-15.62-5.25-32.08-7.9-48.34-10.26c-13.35-1.41-26.78-2.95-40.21-2.57c1.49,0.09,3.18,0.26,4.69,0.47
		c27.23,3.81,54.4,8.95,81.05,15.7c-1.6,1.95-5.11,2.14-7.27,2.98c-6.88,1.58-13.91,2.4-20.87,3.55
		C294.26,363.11,298.88,363.17,303.36,363.05z"/>
	<path class="st1" d="M301.55,387.82c3.67-0.89,7.58-1.67,10.8-3.74c5.84-5.52,0.78-10.42-5.71-11.18
		c-17.65-4.89-36.22-5.01-54.41-5.19c-4.86,0.03-9.79,0.18-14.57,0.9l-0.89,0.71c0,0,0,0,0,0c-0.01-0.01-0.01-0.03-0.02-0.03
		c0-0.02,0-0.04,0-0.06c0.02-0.04,0.03-0.07,0.05-0.11c11.94-0.6,24.02,2.63,35.99,3.43c12.44,2.48,26.23,2.08,37.92,6.53
		c0.8,4.33-14.45,8.49-17.95,10.09C295.62,388.84,298.65,388.34,301.55,387.82z"/>
	<path class="st1" d="M290.81,405.1c4.01-0.33,8.22-0.17,12.04-1.55c1.63-0.59,2.71-2,3.93-3.16c1.55-1.3-0.82-4.15-2.1-4.84
		c-5.46-1.9-11.22-3.21-16.92-4.28c-6.92-1.15-13.85-2.22-20.8-3.14c-7.35-0.76-14.76-0.97-22.13-1.36
		c-4.11-0.15-8.21,0.03-12.31,0.21c-0.93,0.01-2.83,0.02-2.75,1.35c0.01,0.14,0.12,0.24,0.25,0.25c1.98,0.23,4.13,0.48,6.06,0.58
		c-1.92-0.35-3.84-0.69-5.76-1.07c0,0,0-0.01,0-0.01c0.33-0.27,0.83-0.31,1.22-0.34c2.12,0.09,4.23,0.2,6.35,0.22
		c9.05,0.55,18.01,2.08,27.03,3.01c9.23,1.83,18.62,2.79,27.81,4.76c3.13,0.67,6.25,1.43,9.36,2.18c0.67,0.2,1.43,0.41,1.74,1.1
		c-1.17,1.79-3.23,2.77-5.2,3.2c-4.78,1.28-9.66,2.17-14.5,3.15C286.26,405.33,288.6,405.15,290.81,405.1z"/>
	<path class="st1" d="M282.49,419.23c6.14-0.78,25.23,0.56,25.92-7.17c0.29-0.9-0.18-2-1.13-2.27c-7.39-2.36-15.21-2.79-22.85-3.88
		c-21.71-2.87-43.65-4.01-65.54-4.22c-11.65-0.56-23.42,1.1-34.87-1.11c0-0.14,0.15-0.34,0.14-0.41c-0.9,1.1,7.01,2.04,8.06,2.15
		c12.43,0.88,24.89,1.55,37.33,2.32c24.89,2.37,50.26,3.62,74.82,8.03c-12.36,5.07-26.48,4.77-39.54,7.25
		C270.64,419.75,276.63,419.46,282.49,419.23z"/>
	<path class="st1" d="M243.03,429.03c5.47-0.25,12,0.61,15.78-4.16c0.79-0.71,0.55-2.02-0.46-2.37c-1.47-0.51-2.93-1.06-4.4-1.57
		c-4.69-1.59-9.64-2.15-14.55-2.59c-10.75-0.73-21.54-1.08-32.31-0.84c-2.41,0.07-5.63-0.7-7.41,1.32
		c-0.23,0.27-0.09,0.67,0.25,0.75c4.79,1.11,9.6,2.14,14.41,3.16c-4.35-1.32-8.95-2.54-13.39-3.81c1.99-0.68,4.08-0.18,6.11-0.12
		c6.31,0.17,12.61,0.63,18.89,1.23c9.85,1.03,19.97,0.97,29.34,4.41c-2.86,2.46-6.88,2.25-10.36,3.08c-2.84,0.55-5.7,0.92-8.54,1.39
		C238.5,429,240.83,429.01,243.03,429.03z"/>
	<path class="st2" d="M309.38,224.54c3.9,0.12,7.71-1.01,9.96-4.38c1.17-1.48-1.03-2.77-1.84-3.84c-2.78-2.23-6.58-2.64-9.88-3.5
		c-14.73-4.04-29.94-5.78-45.05-7.77c-22.2-2.31-44.71-0.99-66.8-0.8c5.29,1.47,13.67,0.54,20.02,1.13
		c15.31,0.65,30.57,1.92,45.82,3.39c12.62,1.97,25.03,3.12,37.46,5.51c5.66,1.69,12.85,1.13,17.46,5.01
		c-4.1,5.45-16.12,3.6-22.48,4.74C299.06,224.26,304.29,224.81,309.38,224.54z"/>
	<path class="st3" d="M326.63,330.72c2.34-0.33,10.36-2.34,9.59-5.02c-1.27-4.36-6.44-4.69-10.22-5.39
		c-19.57-4.61-39.42-7.48-59.45-9.24c-19.43-0.93-38.91-1.73-58.37-0.99c-1.03,0.21-2.83,0.06-3.19,0.63
		c0.79,0.24,1.56,0.24,2.38,0.3c-0.75-0.21-1.11-0.11-1.9-0.34c20.24-0.11,40.41,3.04,60.58,4.52c15.68,2.21,31.49,3.39,47.06,6.31
		c5.18,1.6,16.97,1,20.26,4.28c-5.27,3.88-12.08,4.42-18.15,6.03C319.04,331.53,322.84,331.25,326.63,330.72z"/>
	<path class="st3" d="M317.91,341.34c8.81,0.8,19.36-6.12,4.62-9.13c-29.63-5.02-59.53-8.37-89.6-8.35c-6.72,0-13.45-0.22-20.16,0.2
		c-2.26,0.37-5.2-0.17-6.98,1.47c0.22,0.5,1.47,0.2,2.03,0.36c-0.44-0.15-1.2-0.2-1.72-0.35c12.3-1.87,25.43,1.63,37.96,2.12
		c26.59,3.37,53.29,5.93,79.72,9.4c-7.78,2.56-16.38,1.99-24.4,2.58c6.24,0.62,12.46,1.72,18.74,1.7
		C318.1,341.34,317.91,341.34,317.91,341.34z"/>
</g>
</svg>
