<?xml version="1.0" encoding="utf-8"?>
<!-- Generator: Adobe Adobe Illustrator 24.2.0, SVG Export Plug-In . SVG Version: 6.00 Build 0)  -->
<svg version="1.1" xmlns="http://www.w3.org/2000/svg" xmlns:xlink="http://www.w3.org/1999/xlink" x="0px" y="0px"
	 viewBox="0 0 500 500" style="enable-background:new 0 0 500 500;" xml:space="preserve">
<style type="text/css">
	.st0{fill:#000B25;}
	.st1{fill:#3A9E31;}
	.st2{fill:#F20519;}
	.st3{fill:#FFFFFF;}
</style>
<g id="Vector_layer_3_">
	<path class="st0" d="M506.39-6.39v512.79H-6.39V-6.39H506.39z"/>
</g>
<g id="Vector_layer_2_">
	<path class="st1" d="M289.28,73.45c0.79-0.01,1.59-0.02,2.36,0c6.94-0.05,13.84,0.23,20.66-1.44c6.23-1.53,5.67-6.57-0.37-8.05
		c-18.6-5.35-37.84-7.94-56.98-8.55c-20.06-0.49-40.11,1.41-59.97,4.48c-11.88,2.4-23.81,5.05-35.14,9.93
		c-0.96,0.46-2.43,0.73-2.93,1.6c33.04-13.54,121.65-12.79,156.34-3.14c-8.33,4.42-17.99,3.86-26.96,5.17
		c0.43,0.01,0.86,0.01,1.3,0.01C288.15,73.46,288.71,73.46,289.28,73.45z"/>
	<path class="st1" d="M156.9,71.41c-0.01,0-0.01,0.01-0.02,0.01c-0.02,0.05-0.04,0.09-0.05,0.14
		C156.85,71.51,156.87,71.46,156.9,71.41z"/>
	<path class="st1" d="M289.67,91.2c3.34-0.03,6.66-0.12,9.99-0.29c4.52-0.41,9.51-0.24,13.52-2.97c2.8-1.94,2.83-5.36-0.4-6.82
		c-11.37-2.84-23.09-3.55-34.67-4.41c-16.03-0.8-32.09-0.9-48.11,0.16c-18.47,2.01-36.93,4.66-55.03,9.42
		c-4.48,1.26-9.07,2.77-13.1,5.25c6.07-3.41,12.75-4.85,19.36-6.12c12.66-2.68,25.51-3.95,38.35-4.92
		c16.75-1.2,33.56-0.35,50.3,0.75c12.98,0.87,26.01,1.63,38.88,3.88c-12.22,4.18-25.04,4.85-37.53,6.51
		C277.38,91.4,283.53,91.32,289.67,91.2z"/>
	<path class="st1" d="M304.4,106.39c4.62-0.19,9.6,0.02,13.77-2.6c1.04-0.89,2.7-2.21,1.8-3.88c-0.99-2.27-3.33-2.32-5.23-2.75
		c-24.29-4.75-49.02-5.7-73.62-5.02c-23.04,0.97-46.24,3.25-68.71,9.06c12.23-2.89,24.64-4.65,37.11-5.35
		c9.63-0.6,19.26-0.63,28.91-0.55c25.18,0.7,50.39,2.68,75.4,6.18c-4.29,1.72-8.87,1.99-13.33,2.7c-7.21,0.93-14.57,1.6-21.74,2.22
		c3.71-0.04,7.42-0.01,11.14,0.02c2.51,0.02,5.03,0.04,7.54,0.04C299.76,106.46,302.08,106.44,304.4,106.39z"/>
	<path class="st1" d="M316.63,126.54c3.05-0.27,6.75-0.93,8.64-4.04c1.2-2.09-0.35-4.57-2.17-5.28c-9.52-3.87-19.67-5.26-29.65-6.56
		c-8.98-1.02-17.96-1.83-26.99-1.88c-19.09-0.53-38.16,1.39-57.1,3.98c-3.81,0.78-21.85,3.22-23.71,6.21
		c1.01-1.07,2.58-1.38,3.87-1.84c6.38-1.69,12.92-2.19,19.42-2.86c10.81-0.85,21.64-1.07,32.47-1.2
		c14.09,0.27,28.19,0.84,42.23,2.25c12.24,1.24,24.66,2.05,36.55,5.85c-5.57,2.64-11.88,2.19-17.8,2.93
		c-7.79,0.64-15.61,1.08-23.42,1.36c10.17,0.25,20.48,1.27,30.73,1.27C312.01,126.72,314.32,126.67,316.63,126.54z"/>
	<path class="st1" d="M185.51,119.6c-0.04-0.21,0.01-0.42,0.14-0.63c-0.06,0.06-0.11,0.12-0.16,0.18c0,0,0,0,0,0
		c-0.01,0.07-0.02,0.14-0.02,0.21C185.48,119.44,185.49,119.52,185.51,119.6C185.51,119.6,185.51,119.6,185.51,119.6z"/>
	<path class="st1" d="M325.91,143.08c2.43-2.07,2.7-5.59-0.34-7.16c-14.12-4.48-28.95-5.65-43.54-6.48
		c-19.84-0.96-39.73,0.21-59.44,2.94c-6.3,0.93-12.6,1.97-18.85,3.34c-4.09,0.93-8.35,1.5-12.14,3.55
		c3.26-1.48,7.32-2.11,10.97-2.67c5.58-0.98,11.14-1.46,16.76-2.03c14.83-1.23,29.73-1.28,44.59-0.64
		c19.84,1.21,39.81,1.52,59.24,5.79c-0.03,0.06-0.05,0.12-0.04,0.12c-0.02,0.02-0.03,0.05-0.05,0.07c-0.02,0.05-0.05,0.1-0.08,0.14
		c0.02-0.04,0.04-0.08,0.07-0.13c0.02-0.05,0.05-0.09,0.07-0.14c-5.02,5.52-27.24,6.29-34.96,7.19c5.02,0.05,10.23,0.14,15.31,0.19
		C310.98,146.79,319.28,147.8,325.91,143.08z"/>
	<path class="st1" d="M191.6,139.26c-0.04,0.02-0.08,0.04-0.12,0.06h0c0,0,0,0,0.01,0.01C191.52,139.3,191.56,139.28,191.6,139.26z"
		/>
	<path class="st1" d="M296.45,167.67l-0.04,0c9.42-0.41,19.15,0.58,28.29-2.58c2.88-0.91,7.23-5.12,4.52-8.61
		c-0.92-1.2-2.32-1.51-3.61-1.86c-2.12-0.61-4.34-0.88-6.49-1.24c-3.06-0.46-6.13-0.8-9.2-1.15c-17.54-1.96-35.21-1.82-52.79-0.71
		c-13.16,0.75-26.34,2.23-39.31,4.73c-5.86,1.05-11.66,2.46-17.46,3.91c10.46-1.79,21-3.34,31.59-4.07
		c19.16-1.33,38.38-1.21,57.55-0.37c12.02,0.68,24.2,0.87,36.05,3.37c-0.13,0.43-0.64,1.22-0.87,1.41
		c-0.89,0.89-1.52,1.11-2.47,1.58c-4.52,1.89-9.34,2.51-14.07,3.29c-6.78,0.92-13.56,1.79-20.36,2.46
		C290.59,167.81,293.58,167.69,296.45,167.67z"/>
	<path class="st1" d="M311.06,182.67c3.36-0.4,7.58,0.57,10.31-2.08c0.4-0.66,1.16-1.75,0.43-2.44c-5.18-3.73-11.91-3.57-17.81-4.72
		c-18.18-1.82-36.52-1.63-54.69,0.21c-12.18,1.18-24.37,2.91-36.36,4.96c21.17-1.27,42.35-2.25,63.55-2.36
		c3.87,0.13,7.77,0.11,11.69,0.1c10.6-0.05,21.27-0.11,31.46,2.92c-0.06,0.36-0.44,0.67-0.64,0.77c-5.33,1.73-11.03,1.85-16.44,2.68
		C305.39,182.72,308.23,182.7,311.06,182.67z"/>
	<path class="st1" d="M325.55,252.91c2.69-1.19,4.87-5.29,2.49-8.07c-4.14-3.93-9.82-4.83-14.79-6.78c-13.76-4.51-28-6.59-42.2-8.13
		c-17.23-1.49-34.54-0.84-51.74,0.94c-5.5,0.59-11.04,1.03-16.48,2.24c-1,0.27-2.02,0.52-2.84,1.17c0.05,0.55,1.12,0.06,1.43,0
		c-0.34,0.03-0.85,0.2-1.25,0.13c-0.01-0.04-0.02-0.07-0.02-0.11c5.36-1.98,11.24-1.21,16.81-1.53c3.4,0.04,6.8,0.07,10.2,0.1
		c11.54,0.3,23.11,0.84,34.6,2.16c11.87,1.13,23.7,2.75,35.47,4.8c3.73,0.84,7.46,1.67,11.2,2.48c5.16,1.73,10.81,2.45,15.56,5.44
		c0.05,0.15,0.08,0.3,0.03,0.44c-3.1,4.43-21.3,4.04-33.77,3.64c-4.31-0.14-7.94-0.27-10.02-0.21c-0.02,0-0.02,0.02,0,0.02
		c6.9,0.65,13.79,1.54,20.68,2.27c4.51,0.32,9.19,1.08,13.8,1.08C318.41,255.01,322.07,254.52,325.55,252.91z"/>
	<path class="st1" d="M303.13,272.64c6.32-0.62,18.62,0.95,22.21-6.09c0.4-1.46-0.05-3.12-1.24-3.86c-8.73-4.39-18.67-4.87-28-6.66
		c-19.95-2.83-40.14-3.11-60.19-1.54c-12.09,0.99-24.34,2.11-36.05,5.89c-2.47,0.84-4.96,2.01-7.19,3.32
		c0.19-0.09,0.42-0.2,0.61-0.28c15.9-6.58,33.21-5.19,49.84-5.64c16.53,0.11,33.02,1.22,49.5,2.73c9.58,1.48,19.98,1.67,29.11,5.05
		c-4.09,6.01-24.72,5.84-31.88,7.17c1.4,0,2.82,0.01,4.25,0.01C297.09,272.74,300.14,272.72,303.13,272.64z"/>
	<path class="st1" d="M297.14,297.08c8.25-1.02,29.53,2.23,32.43-8.78c0.68-5.54-6.19-5.27-9.42-6.18
		c-5.66-1.12-11.36-1.85-17.06-2.63c-22.03-2.52-44.24-2.82-66.28-0.59c-9.59,1.19-19.17,2.68-28.61,5.03
		c-2.36,0.75-5.56,1.04-7.37,2.61c15.28-4.35,31.55-4.26,47.44-4.17c2.69,0.02,5.37,0.03,8.02,0.03
		c23.02,0.91,46.39,0.68,69.11,5.27c-0.68,7.73-33.89,8.18-40.75,9.77C288.74,297.35,292.99,297.18,297.14,297.08z"/>
	<path class="st1" d="M200.84,286.54c-0.03,0.01-0.07,0.02-0.1,0.03c-0.01,0.03-0.02,0.05-0.02,0.08
		C200.75,286.62,200.79,286.58,200.84,286.54z"/>
	<path class="st1" d="M309.65,309.83c1.37-0.01,2.74-0.02,4.09-0.01c3.46-0.3,7.59,0.41,10.48-2.13c1.62-1.91,0.56-3.17-1.26-4.05
		c-14.57-3.21-29.61-3.15-44.4-3.92c-17.11-0.29-34.21,1.21-51.16,3.82c-2.68,0.54-13.29,1.72-14.92,3.97
		c0.52-0.48,1.32-0.58,1.92-0.83c4.25-1.09,8.61-1.27,12.93-1.5c11.25-0.65,22.53-0.62,33.79-0.76c20.31,0.75,40.9-0.58,61.08,1.81
		c-5.35,3.15-12.07,2.37-17.96,3.61c0.66,0.01,1.33,0.01,2,0.01C307.37,309.85,308.51,309.84,309.65,309.83z"/>
	<path class="st1" d="M212.26,308.09c0-0.2,0.08-0.4,0.21-0.59c-0.13,0.13-0.25,0.28-0.34,0.46c0.02,0.04,0.04,0.07,0.07,0.11
		C212.22,308.08,212.24,308.09,212.26,308.09C212.27,308.1,212.27,308.09,212.26,308.09z"/>
	<path class="st2" d="M310.45,326.16c4.29-0.27,9.59-0.5,12.52-4.6c0.91-1.36,0.93-3.54-0.26-4.69c-3.01-2.6-7.16-2.43-10.73-3.17
		c-6.96-1.02-13.88-1.7-20.86-2.24c-18.91-1.33-37.9-0.74-56.81,0.49c-6.88,0.62-13.73,1.57-20.5,3.04
		c-1.13,0.32-5.24,0.99-4.32,2.2c0.4,0.4,0.85,0.39,1.35,0.36c3.46,0.04,6.93,0,10.39-0.09c-2.55-0.33-5.3-0.51-7.92-0.78
		c24.8-1.62,49.68-1.48,74.51-0.46c7.98,0.4,15.96,0.87,23.93,1.55c1.3,0.25,8.64,0.41,8.19,2.07l0.02,0.01
		c-2.49,5.44-14.84,5.51-19.77,6.21c2.6,0.05,5.31,0.1,7.99,0.1C308.94,326.18,309.7,326.17,310.45,326.16z"/>
	<path class="st3" d="M307.48,213.12c0.65-0.02,1.31-0.03,1.94-0.03c4.27-0.18,9.45,0.43,12.88-2.58c1.71-2.18-0.57-3.72-2.68-3.89
		c-14.73-2.86-29.84-2.85-44.7-1.14c-11.52,0.98,5.89,0.55,8.25,0.83c12.25,0.55,24.55,0.96,36.68,2.88
		c-0.32,0.59-1.16,0.96-1.64,1.23c-4.11,1.82-8.68,2.11-13.08,2.73c0.16,0,0.32,0,0.49,0C306.21,213.15,306.85,213.13,307.48,213.12
		z"/>
	<path class="st3" d="M254.63,210.81l-0.08,0c2.48-0.28,9.47-0.78,8.68-4.4c-0.33-0.83-1.38-0.95-2.16-1.06
		c-4.03-0.62-8.09-1.02-12.16-1.25c-6.65-0.3-13.32-0.16-19.95,0.54c-3.45,0.46-7.12,0.42-10.4,1.7c-0.81,0.46-0.16,0.76,0.51,0.66
		c-0.12-0.1-0.5-0.05-0.69-0.16c0-0.05-0.01-0.1-0.01-0.14c0.46-0.39,1.15-0.44,1.72-0.5c4.34-0.32,9,0.07,13.27,0.12
		c8.96,0.34,17.95,0.36,26.89,1.23c-3.23,2.28-7.41,2.75-11.05,3.74C251.01,211.11,252.82,210.95,254.63,210.81z"/>
	<path class="st1" d="M317.87,361.46c5.47-0.86,12.26-0.75,16.05-6.05c1.24-1.91,0.28-4.65-1.53-5.53c-5.86-3-12.46-3.49-18.75-4.52
		c-7.61-0.97-15.24-1.58-22.89-1.89c-21.86-1-43.37,2.98-64.95,6.02c1.56-0.64,3.27-1.26,4.77-1.94c-1.08,0.44-6.44,1.76-5.44,2.33
		c32.34-1.82,64.88-2.98,97.12,1.33c-0.05,0-0.09-0.01-0.14-0.02c-0.02,0-0.05-0.01-0.07-0.01c2.57,0.46,4.73,0.87,7,1.65
		c1.11,0.47,1.6,0.61,0.58,1.73c-1.77,1.76-4.15,2.54-6.36,3.25c-8.62,2.39-17.43,3.8-26.2,5.3
		C303.94,362.6,310.96,362.1,317.87,361.46z"/>
	<path class="st1" d="M230.7,347.5c-0.04,0.02-0.08,0.04-0.12,0.06C230.63,347.53,230.67,347.52,230.7,347.5z"/>
	<path class="st1" d="M314.24,384.76c5.98-0.44,15.14,0.64,19.23-5.24c0.69-1.05,0.62-2.52-0.14-3.52
		c-3.25-4.36-23.28-4.75-29.12-5.52c-16.78-1.21-33.65-0.68-50.38,1.17c-7.88,0.98-15.8,1.91-23.57,3.77
		c-1.07,0.16-4.21,1.45-2.48,1.61c-0.02-0.05-0.25-0.04-0.33-0.09c-0.04-0.05-0.09-0.09-0.13-0.14c1.16-0.92,2.7-0.91,4.02-1.17
		c4.57-0.56,9.17-0.74,13.76-0.98c12.46-0.38,24.93-0.07,37.4,0.14c9.23,0.09,18.45,0.38,27.68,0.84c4.65,0.25,9.3,0.39,13.93,0.88
		c2.08,0.39,4.42,0.33,6.29,1.49l-0.02,0.02c0,0.01,0.01,0.02,0.02,0.03c-2.46,5.17-18.88,5.77-24.14,6.85
		C308.83,384.89,311.59,384.78,314.24,384.76z"/>
	<path class="st1" d="M309.3,406.41c6.37-1.43,16.03-0.54,20.57-6.41c2.9-6.82-13.11-5.26-16.4-6.25c-24.78-2.32-50.68-1-74.78,4.47
		c28.7-2.52,57.66,0.1,86.42,1.06c-8.48,4.22-17.79,5.82-26.7,8.43C301.96,407.3,305.69,406.87,309.3,406.41z"/>
	<path class="st1" d="M238.69,398.23c-0.12,0.01-0.24,0.02-0.36,0.03c0,0.02,0.01,0.03,0.01,0.05
		C238.46,398.28,238.57,398.25,238.69,398.23z"/>
	<path class="st1" d="M315.36,427.2c2.91-1.28,7.52-4.53,5.36-8.69c-3.1-3.95-8.45-4.08-12.73-5.01
		c-26.27-2.51-53.35,0.84-78.34,10.66c22.57-5.7,45.94-6.06,69-6.55c35.28,0.26,12.59,10.27-5.59,13.2
		C300.53,430.07,308.26,430.37,315.36,427.2z"/>
	<path class="st1" d="M273.32,435.65c9.1-0.75,18.71-3.65,27.66-2.36c-0.2,1.89-2.17,2.89-3.2,4.05c16.5-9.43-19.53-6.41-23.37-5.89
		c-11.18,1.5-22.27,4.69-32.98,8.41C252.29,438.58,262.64,437.25,273.32,435.65z"/>
	<path class="st2" d="M333.38,343.97c2.17-5.23-3.53-6.96-6.92-7.27c-4.02-0.66-8.07-1.07-12.11-1.41
		c-17.26-0.84-34.53,0.53-51.71,2.4c-15.46,1.71-30.88,3.97-46.17,7.13c0.62-0.28,1.45-0.54,2-0.84c-0.69,0.16-1.38,0.32-2.06,0.5
		c-0.49,0.14-1.14,0.13-1.49,0.57c-0.14,0.2,0.02,0.38,0.19,0.41c16.69,0.5,33.29-2.03,49.93-3.11c5.42-0.02,69.21-6.45,65.31,0.72
		c-2.41,4.25-8.28,6.25-13.59,7.7c0.16,0.02,0.32,0.04,0.46,0.06c0.88,0.03,1.76,0.11,2.63,0.22c-0.7,0.12-1.39,0.24-2.08,0.34
		C323.84,350.46,330.41,348.97,333.38,343.97z"/>
	<path class="st2" d="M310.26,352.54c1.4-0.45,3.08-0.88,4.89-1.36c-1.82,0.48-3.52,0.91-4.92,1.36
		C310.24,352.55,310.25,352.54,310.26,352.54z"/>
	<path class="st1" d="M323.36,351.45c0.28-0.01,0.56-0.07,0.82-0.19c0.52,0.09,1.04,0.18,1.56,0.16c0.44-0.01,0.92-0.2,1.25-0.52
		c0.23,0.02,0.45,0.01,0.68-0.06c0.24-0.07,0.47-0.19,0.66-0.36c0.85-0.12,1.64-1.22,0.79-1.87c-0.77-0.57-1.77-0.68-2.67-0.96
		c-2.28-0.54-4.57-1.31-6.93-1.31c-0.6-0.07-1.3-0.12-1.78,0.31c-0.69-0.08-1.58,0.21-1.68,1c-0.29,0.06-0.57,0.09-0.76,0.32
		c0,0.02,0,0.03,0.02,0.04c-0.57,0.29-1.08,0.95-0.91,1.62c0.4,1.11,1.86,1.01,2.83,1.18C319.29,350.89,321.31,351.26,323.36,351.45
		z"/>
</g>
</svg>
