<svg enable-background="new 0 0 500 500" viewBox="0 0 500 500" xmlns="http://www.w3.org/2000/svg"><path d="m506.39-6.39v512.79h-512.78v-512.79z" fill="#000b25"/><g fill="#3a9e31"><path d="m295.06 48.9c10.36-1.13 20.99-1.25 31.02-4.32 2.38-.83 5.21-3.55 1.73-5.37-15.52-4.34-31.92-4.22-47.91-5.16-20.71-.96-41.45-1.04-62.14.39-10.94.77-21.85 1.76-32.7 3.34-2.11.29-4.25.5-6.34.93-.06.01-.07.09 0 .09.39-.05.8-.06 1.18-.13 25.99-2.25 52.55-1.46 78.53-1.27 14.16.45 28.25.6 42.36 1.27 8.43.55 17.85.52 25.82 3.09-.05.05-.1.11-.15.16-.14.14-.28.26-.29.26-3.32 1.94-7.26 2.51-10.94 3.48-6.64 1.4-13.5 2.31-20.17 3.24z"/><path d="m303.28 64.89c9.15-.37 18.33-.39 27.43-1.52 2.63-.41 5.43-.68 7.75-2.07 1.67-1.17 1.31-3.33-.91-3.55-11.5-1.62-23.16-2.27-34.75-3.02-41.45-1.91-83.1-1.49-124.47 1.84-4.82.46-9.74.92-14.5 1.48 23.23-2.18 46.57-2.75 69.9-2.51 34.21.35 68.35.92 102.36 4.41-8.33 2.72-17.31 2.87-25.9 3.84-6.01.53-12 .99-18.02 1.45 3.61-.07 7.44-.26 11.11-.35z"/><path d="m327.85 89.45c4.3-.28 9.42.03 12.7-3.21 1.82-2.33.25-4.73-2.38-5.36-9.25-1.96-18.82-2-28.21-2.96-14.52-1.17-29.07-1.77-43.63-2.27-14.53-.22-29.05-.21-43.57.23-15.18.45-30.39 1.62-45.55 1.68 0-.04 0-.09 0-.13.04-.03.08-.06.13-.08.02-.01 0-.02-.01-.02-.17.11-.14.05-.15.24.68.11 1.38.14 2.08.16 4.9-.09 9.8-.24 14.7-.3 16.26-.3 32.53-.36 48.78.06 18.96.76 37.91 1.92 56.81 3.6 12.15 1.27 24.49 1.4 36.5 3.67-5.68 2.08-11.83 1.97-17.74 2.62-9.57.7-19.15 1.22-28.74 1.52-.02 0-.02.02 0 .02 12.75.07 25.51.65 38.28.53z"/><path d="m313.31 117.82c6.75-.36 13.52-.51 20.27-.95 3.52-.36 7.32-.38 10.42-2.26 2.67-1.57 2.15-5.06-.93-5.76-15.93-3.31-32.25-4.72-48.45-6.07-22.56-1.55-45.19-2.04-67.8-1.66-11.37.4-22.75.96-34.12 1.42-3.44.16-6.88.28-10.32.48-1.4-.11-3.34.5-4.41-.23.03-.04.06-.08.09-.11.01-.01 0-.02-.02-.02-.05.05-.02.02-.11.12v.02c.29.58 1.44.38 1.92.38 2.31.08 4.62-.04 6.93-.06 13.07-.14 26.14-.14 39.21-.12 37.91 1.23 75.87 3.83 113.4 9.39-15.27 3.09-31 4.5-46.39 6.56 6.77-.45 13.54-.8 20.31-1.13z"/><path d="m324.4 142.21c3.45.2 14.04-.9 10.62-6.25-1.48-1.42-3.62-1.81-5.55-2.3-4.47-1.01-8.97-1.93-13.5-2.65-21.5-3.53-43.3-4.34-65.06-4.3-19.17-.01-38.36 1.52-57.5 1.45 1.01.23 2.28.07 3.39.14 19.53-.02 39.12-.64 58.61.46 15.37.65 30.69 2.02 45.96 3.84 7.07.95 14.13 1.92 21.15 3.2 3.02.7 6.39 1 9.17 2.33-3.46 1.86-7.65 1.75-11.47 2.26-7.35.58-14.84.77-22.15 1.04 8.78.22 17.55.95 26.33.78z"/><path d="m325.43 163.41c1.95 0 6.87-1.31 5.44-3.7-.71-1.02-1.83-1.5-3.02-1.68-21.85-4.94-44.29-6.4-66.59-7.82-18.55-1.2-37.16-1.1-55.72-1.54-5.17-.31-10.35-.51-15.44-1.47 2.49.54 5.23.97 7.84 1.26 16.08 1.53 32.26 1.56 48.35 2.9 26.7 2.55 53.62 4.16 79.96 9.39-9.96 1.78-20.16 2.01-30.17 2.5 9.81.04 19.56.85 29.35.16z"/><path d="m305.45 188.81c6.53-.9 13.34-.77 19.67-2.69.85-.4 1.4-1.02 2.03-1.69.33-.34.61-.91.28-1.36-.35-.48-.68-1.12-1.2-1.45-6.32-2.94-13.53-3.55-20.31-4.89-9.87-1.57-19.81-2.58-29.76-3.48-15.4-1.08-30.83-1.67-46.27-1.74-5.74-.04-11.48-.04-17.17-.05-2.9-.1-5.8.04-8.5-1.14.01-.11.01-.21.02-.31.03-.1.06-.21.08-.31.26-.31.89-.39 1.14-.61-.4.2-.9.25-1.23.57-.12.18-.2.59-.13.77 4.53 2.07 9.73 1.51 14.59 2.02 6.22.38 12.43.85 18.64 1.27 18.42 1.6 36.84 3.14 55.24 4.88 6.99.82 13.99 1.61 20.95 2.64 3.34.58 6.67 1.09 9.95 1.98.45.13.9.33 1.18.72-.35.54-.95.74-1.48.95-5.83 1.79-11.83 2.8-17.72 3.92z"/><path d="m323.25 252.52c7.19-.28 14.99-.28 21.41-3.92 1.75-.97 3.27-3.01 2.43-5.07-.97-1.97-3.4-2.59-5.38-2.98-1.91-.41-3.81-.81-5.72-1.2-20.52-3.22-41.19-4.58-61.89-5.94-25.49-1.48-51.15-2.08-76.62.08 1.21-.23 2.59-.39 3.73-.66-3.03.44-6.06.86-9.09 1.29-.2.04-.21.34.03.28 10.6-.94 21.25-.39 31.86.05 17.58.82 35.17 1.58 52.73 2.86 12.78.8 25.55 1.78 38.31 2.8 6.58.58 13.15 1.14 19.69 2.1 2.49.5 5.02.84 7.49 1.43.74.33 1.82.52 1.98 1.42-.01-.04-.01-.09-.02-.13-.01-.03-.02-.06-.01-.05.3 2.97-7.26 4.54-9.55 5.16-9.35 2.06-19 2.13-28.54 2.1 5.62.16 11.46.46 17.16.38z"/><path d="m319.89 273.07c2.93-.07 5.93-.33 8.68-1.39 3.63-1.56 5.24-5.28.67-7.06-14.62-3.43-29.79-3.76-44.71-5.09-28.07-2.24-56.32-1.06-84.4-1.29-.11-.05-.22-.05-.31-.14-.19.36 4.11.37 5.53.36 2.5.02 4.99.05 7.49.07 23.1.49 46.16 1.45 69.17 3.62 10.24.93 20.48 1.83 30.7 2.92 4.86.57 9.75 1.17 14.48 2.46.4.11.75.35 1.01.67-5.31 4.45-30.55 2.62-38.69 2.86 10.03.67 20.25 2.02 30.38 2.01z"/><path d="m317.68 291.81c4.15-.25 10.65-.63 12.98-4.54.57-1.02.21-2.33-.77-2.97-2.06-1.38-4.71-1.49-7.08-2.01-8.28-1.55-16.67-2.44-25.07-3.1-18.81-1.31-37.64-2.05-56.49-2.21-11.14-.13-22.28.09-33.42-.15-1.9-.24-4.05.41-5.8-.35.23-.11.68-.16.86-.27-.32.07-.63.15-.94.23-.03.01-.05.04-.02.06.32.28.58.34 1 .41 6.31.27 12.61.78 18.93 1.09 18.29.84 36.56 2.19 54.83 3.47 11.13.72 22.24 1.39 33.35 2.36 5.73.95 11.83.97 17.3 2.93-6.62 5.22-19.84 3.69-28.1 4.19 6.04.29 12.31.89 18.44.86z"/><path d="m311.31 318.28c9.53-3.02 9.01-11.45-.68-13.73-7-1.86-14.26-2.59-21.44-3.43-14.11-1.52-28.26-2.62-42.44-2.98-12.93-.29-25.86.83-38.8.71-2.45-.09-5.02.23-7.37-.42 3.18.93 7.62.42 11.23.7 6.94.16 14.05.22 20.95.34 15.41.45 30.73 2.33 46.03 4.13 7.84.89 15.68 1.83 23.48 3.01 3.32.83 13.05 1.42 11.78 6.35-.13.29-.17.44-.37.68.03-.05.07-.09.1-.14.02-.04.05-.09.07-.13-5.75 6.17-22.05 5.15-30.26 5.74-.01 0-.02.02 0 .02 9.2-.03 18.74 1.88 27.72-.85z"/><path d="m299.64 379.17c6.19-1.29 24-2.77 26.16-9.07.58-1.63-.33-2.85-1.74-3.6-4.7-1.87-10.37-1.58-15.38-2.21-5.4-.5-10.82-.71-16.23-1-16.82-.77-33.63.48-50.42 1.43-12.84.82-29.54 1.91-40.25 3.28 24.13-1.2 48.49-1.25 72.7-1.53 11.53.09 23.06.36 34.56 1.23 4.04.3 8.13.43 12.12 1.23.41.16.92.37 1.21.73-.07.35-.24.66-.46.93 0 0-.01-.02-.01-.02-5.47 3.87-12.43 4.95-18.77 6.78-6.52 1.62-13.08 2.89-19.67 4.09 5.31-.73 10.8-1.53 16.18-2.27z"/><path d="m301.1 404.08c6.62-.74 14.55.14 20.12-4.05 2.09-1.64 1.65-4.79-.83-5.79-3.14-1.53-6.72-1.74-10.13-2.25-5.05-.63-10.12-1.12-15.2-1.28-18-.75-36.03.55-53.98 1.77-10.8.82-21.56 2.35-32.37 2.74 0-.04-.01-.08-.01-.12s.01-.07.02-.11c.38-.33 1.09-.27 1.48-.5-.51.18-1.08.15-1.53.46-.07.05-.04.24-.04.3 0 .02.02.02.04.03.98.01 1.96.05 2.93.01 5.07-.2 10.14-.49 15.21-.74 15.71-.75 31.45-.56 47.18-.62 8.59.07 17.18.16 25.75.73 3.87.62 17.33.62 19.13 3.31v.01c-.01-.03-.02-.06-.03-.1.01.04.02.08.02.13-3.08 4.08-20.4 5.62-25.98 6.52 2.64-.09 5.5-.32 8.22-.45z"/><path d="m280.95 436.2c11.1-.93 22.57.12 33.33-3.21 1.64-.57 3.24-1.22 4.71-2.16 2.38-1.46 3.8-5.14 1.22-7.1-2.01-1.68-4.8-2.03-7.27-2.64-3.09-.77-6.23-1.21-9.38-1.63-20.12-2.2-40.54-1.44-60.71-.18-7.27.5-14.59 1.43-21.82 2.09-3.04.34-6.12.46-9.16.76-.44.02-.95.12-1.29-.19.27-.17.77-.25 1-.39-.37.13-.82.18-1.09.41.28.26.12.16.56.28 2.38.05 4.83-.16 7.25-.18 15.28-.77 30.6-1.05 45.87-.24 10.3.57 20.63.81 30.91 1.63 3.87.15 7.69.79 11.53 1.29 3.21.84 6.95.8 9.75 2.66-7.18 6.29-25.84 7.22-35.41 8.8z"/><path d="m282.7 458.15c5.47-.04 11.25-.25 16.18-2.86 2.46-1.17 4.4-4.31 1.74-6.39-2.4-1.62-5.54-1.48-8.31-1.83-14.81-1.41-29.73-1.37-44.59-.98-3.02-.27-20.82 1.58-20.86-1.13.06-.24.43-.42.48-.59-.26.22-.79.52-.57.97 1.3 2.43 16.66 1.98 20.16 2.42 10.97.44 21.93 1.11 32.89 1.8 5.09.36 10.2.71 15.27 1.36 1.09.31 2.26.09 2.71 1.07-6.7 5.26-19.06 4.91-27.37 6.15 3.99.01 8.2-.04 12.27.01z"/></g><path d="m305.39 209.26c3.95-.24 7.92-.46 11.84-1.02 2.17-.36 4.47-.76 6.19-2.23 3.79-3.99-2.35-5.54-5.47-5.81-13.38-1.97-27-.44-40.39.35 8.77.12 18.64.09 27.74.99 5.22.71 10.79.66 15.69 2.72-2 1.7-4.82 1.89-7.24 2.63-4.79 1.04-9.6 1.97-14.44 2.77 1.94-.09 4.07-.3 6.08-.4z" fill="#fff"/><path d="m258.46 206.37c2.13-.45 8.1-.22 8.16-3.09.01-.43-.25-.84-.61-1.05-4.85-1.31-10.12-1.07-15.13-1.38-10.7-.33-21.41.66-32.02 1.98-.42.35 1.12.12 1.29.16-.19-.08-.67-.03-.95-.06 14.97-.27 30.02-.51 44.94.79-4.32 1.57-9.01 2.34-13.41 3.35 2.57-.21 5.16-.41 7.73-.7z" fill="#fff"/><path d="m331.5 348.88c1.91-.17 3.88-.55 5.61-1.4 3.15-1.38 3.82-5.43.53-7.13-11.34-4.86-24.02-5.47-36.21-5.98-16.8-.6-33.6.08-50.38.69-15.08.6-30.09 2.08-44.97 4.59.22-.07.66-.08.83-.18-1.11.06-2.22.13-3.34.22-.95.12-1.94.1-2.86.38-.21.07-.34.28-.33.5-.02.23.18.38.38.4 12.86.96 25.78-.02 38.65-.4 14.99-.56 30.01-.58 45.02-.42 16.5.68 33.4.06 49.49 4.21.06.03.12.06.18.09-8.51 3.59-18.22 2.78-27.27 2.59 8.09.97 16.42 2.57 24.67 1.84z" fill="#f20519"/><path d="m317.94 336.26c7.08-.64 23.43-.89 27.47-7.15.97-1.72-.07-3.9-1.87-4.53-19.05-4.91-39.05-4.47-58.6-5.02-24.13.17-48.43.71-72.28 4.68-1.44.33-7.09.94-6.31 2.5.07.05.29.22.43.25 1.89.25 3.8.31 5.7.45-1.62-.41-3.56-.69-5.26-1.04 4.07-.86 8.32-.49 12.47-.59 6.23 0 12.46-.08 18.7-.24 21.09-.57 42.18-.59 63.27-.01 9.28.21 18.56.17 27.81.92 3.74.61 8.6.35 11.97 1.71-5.46 5.53-20 6.99-27.64 8.39 1.32-.05 2.8-.22 4.18-.3-.01-.02-.04-.02-.04-.02z" fill="#f20519"/></svg>