<?xml version="1.0" encoding="utf-8"?>
<!-- Generator: Adobe Adobe Illustrator 24.2.0, SVG Export Plug-In . SVG Version: 6.00 Build 0)  -->
<svg version="1.1" xmlns="http://www.w3.org/2000/svg" xmlns:xlink="http://www.w3.org/1999/xlink" x="0px" y="0px"
	 viewBox="0 0 500 500" style="enable-background:new 0 0 500 500;" xml:space="preserve">
<style type="text/css">
	.st0{fill:#000B25;}
	.st1{opacity:0.02;}
	.st2{fill:#3A9E31;}
	.st3{fill:#FFFFFF;}
	.st4{fill:#F20519;}
</style>
<g id="Vector_layer_5_">
	<path class="st0" d="M506.39-6.39v512.79H-6.39V-6.39H506.39z"/>
</g>
<g id="Vector_layer_4_" class="st1">
	<path class="st2" d="M189.1,85.54c-5.12-0.31-29.32-1.44-16.59-10.42c18.16-7.21,37.59-10.13,56.49-14.1
		c41.95-6.73,84.81-9.75,126.83-2.07c1.73,0.57,8.21,1.22,7.68,3.1c-1.11,0.38-2.24,0.23-3.37,0.25c0.96-0.17,2.2-0.03,3.18-0.48
		c-0.02-0.08-0.04-0.17-0.07-0.25c-28.8-6.02-58.94-0.96-88.04,0.47c-33.58,4.21-67.41,8.01-100.29,17.14
		c11.96,4.65,24.84,5.12,37.13,7.69c-7.66-0.49-15.33-0.78-22.99-1.31C189.06,85.54,189.1,85.54,189.1,85.54z"/>
	<path class="st2" d="M199.28,102.55c-4.52-0.37-12.48-1.59-9.64-8.91c4.33-9.54,51.94-15.63,62.89-17.28
		c27.26-3.6,54.77-4.14,82.12-1.55c13.01,1.24,26.1,2.81,38.67,6.98c-0.74-0.09-1.5-0.38-2.28-0.52
		c-28.04-5.09-57.25-3.87-85.4-2.16c-30.38,2.93-61.15,5.19-90.75,13.93c-1.18,0.47-2.13,0.98-2.61,2.29
		c-1.81,4.16,7.32,4.82,9.59,5.28c5.36,0.17,10.73,0.13,16.09-0.06C211.84,101.33,205.51,102.65,199.28,102.55z"/>
	<path class="st2" d="M187.71,131c-2.86-0.62-4.67-3.23-6.58-5.48c-2.17-2.1,3.56-7.64,5.02-8.94c5-3.5,10.91-4.46,16.48-6.23
		c16.76-5.33,34.08-7.51,51.3-9.91c31.3-3.43,62.97-3.49,94.34-1.39c9.62,0.84,19.24,1.65,28.7,3.85c-4.12-0.54-8.39-1-12.57-1.43
		c-41.48-1.57-83.13,0.97-124.29,7.03c-13.25,1.62-26.39,4.13-39.36,7.66c-5.67,1.53-12.39,2.02-16,7.94
		c2.39,4.63,7.3,4.34,11.44,4.35c7.74,0.39,15.48-0.29,23.19-0.88C209.04,129.23,198.23,132.23,187.71,131z"/>
	<path class="st2" d="M179.98,147.9c-4.21-2.05,3.54-7.42,5.24-8.55c9-4.53,18.91-6.16,28.4-8.89c34.4-8.66,69.67-10.06,104.77-9.85
		c17.2,0.14,34.57,0.37,51.61,3.18c0.12,0.03,0.1,0.23-0.02,0.21c-0.99-0.05-2.16-0.04-3.09-0.22c0.62,0.03,1.23,0.04,1.85,0.03
		c-29.96-2.41-59.97,1.58-89.9,3.1c-27.98,2.72-55.79,6.67-83.19,13.41c-4.1,1.09-8.69,1.87-11.92,5.1
		c4.96,2.24,10.32,0.86,15.44,0.62c4.22-0.22,8.54-0.61,12.68-0.88C201.31,146.47,190.4,152.21,179.98,147.9z"/>
	<path class="st2" d="M180.83,168.32c-2.08-0.22-3.67-1.91-4.24-4.19c-1.87-3.91,9.04-5.37,11.21-6.46
		c20.49-5.63,41.28-10.33,62.2-13.12c23.51-3.12,47.09-4.29,70.74-3.74c8.12,0.06,16.23,0.35,24.32,1.21
		c3.95,0.42,7.92,0.94,11.66,2.52c0.07,0.03,0.08,0.13,0.03,0.19c-0.12,0.16-0.09,0.17-0.2,0.2c-0.53-0.08-1.28-0.12-1.73-0.3
		c0.55,0.05,1.11,0.11,1.66,0.09c-22.87-3.84-46.22,1.72-69.2,2.5c-34.91,5-70.03,8.83-104.49,17.12
		c10.59,0.57,21.19-0.36,31.77-1.02C203.48,165.31,192.14,168.72,180.83,168.32z"/>
	<path class="st2" d="M177.44,229.16c-4.68,0.51-8.95-4.45-5.84-9.48c2.32-3.17,6.26-3.47,9.56-4.32
		c33.68-11.49,68.79-15.62,103.69-19.09c30.17-2.25,60.67-1.6,90.5,4.41c3.77,0.85,7.86,1.8,11.22,3.86
		c-6.83-2.88-14.28-3.17-21.46-3.84c-32.92-2.58-65.75,0.52-98.3,5.3c-30.61,3.65-61.51,8.27-91.16,17.24c0,0.01,0,0.01,0,0.02
		c0,0.01,0,0.02,0,0.03c18.4,3,37.23,0.62,55.77,0.65C213.52,225.8,195.51,229.47,177.44,229.16z"/>
	<path class="st2" d="M168.89,251.36c-1.17-0.06-2.34-0.3-3.5-0.47c-1.57-0.23-1.7-2.78-0.21-3.29c8.35-2.81,16.81-5.22,25.3-7.41
		c55.69-14.95,113.27-20.12,170.28-14.45c4.69,0.36,9.5,0.83,14.08,1.66c-3.8-0.35-7.55-0.74-11.35-0.78
		c-63.66-3.37-127.36,5.33-189.33,21.82c16.32,0.4,32.65,0.3,48.97,0.31C205.15,249.6,186.97,251.47,168.89,251.36z"/>
	<path class="st2" d="M186.75,283.96c-5.52-0.57-13.41,0-14.93-7.77c-0.38-0.92,0-2.08,0.75-2.59c6.23-4.79,13.91-5.75,21.02-7.92
		c20.27-6.01,41.01-9.37,61.68-13.02c31.79-4.1,64.03-5.54,95.92-2.07c3.6,0.88,11.64,0.95,13.21,4.9
		c-0.8-2.59-8.34-3.37-12.48-3.66c-34.72-1.18-69.49,2.34-103.79,8.28c-19.85,3.42-39.66,6.9-59.28,11.79
		c-4.42,1.23-9.14,1.73-13.12,4.42c1.82,6.83,31.04,5.98,37.52,6.69C204.5,283.53,195.56,284.46,186.75,283.96z"/>
	<path class="st2" d="M174.67,305.61c-1.21-0.3-1.88-1.24-2.7-2.2c-0.6-0.7-0.32-1.79,0.46-2.09c3.01-1.16,6.01-2.29,9.05-3.3
		c6.47-2.1,12.92-4.33,19.45-6.18c48.49-13.45,98.9-23.27,148.88-17.28c0.14,0.02,0.2,0.21,0.1,0.32c-0.8,1.13-2.49,0.69-3.61,0.61
		c-1.04-0.05-2.23,0.1-3.21,0.05c2.08-0.49,4.38,0.21,6.33-0.63c-26.51-2.05-53.09,1.37-79.16,6.65
		c-32.07,5.65-63.95,12.78-95.48,21.6c0,0,0,0,0,0c5.81,2,12.04,1.1,18.03,1.46C186.88,305.17,180.67,306.61,174.67,305.61z"/>
	<path class="st2" d="M185.83,363.24c-5.14-0.58-12.79,0.3-14.65-6.66c-0.59-1.02-0.6-2.43,0.39-3.12
		c11.14-7.88,24.79-9.66,37.33-13.26c34.2-7.69,69.02-11.75,103.88-11.55c2.66,0.36,42.91-0.81,35.76,3.55
		c0.21-0.32,0.9-0.49,0.98-1.02c-8.82-2.95-18.33-0.06-27.39-0.14c-24.11,1.42-48.2,4.24-72.09,8.17
		c-18.03,3.24-36.21,5.5-54.08,9.82c-7.16,2.01-14.87,2.83-21.4,6.93c2.25,6.39,20.54,5.7,26.19,6.34
		C195.87,362.75,190.78,363.19,185.83,363.24z"/>
	<path class="st2" d="M197.03,388.24c-4.66,0.2-9.23-0.81-12.76-4.5c-3.11-3.01,5.52-6.79,7.34-7.72
		c16.53-5.31,33.92-6.42,50.87-9.28c24.47-2.13,48.99-3,73.53-2.44c2.24-0.13,24.66,0.71,21.53,3.33c0.09-0.16,0.48-0.33,0.51-0.63
		c-10.96-2.65-22.35-0.2-33.44,0.17c-17.55,0.91-35.01,3.04-52.5,4.75c-13.44,1.08-26.77,3.46-40.18,4.9
		c-7.93,1.37-16.61,1.02-23.73,5.68c4.62,4.49,20.63,4.39,27.42,5.83C209.49,388.37,203.2,388.39,197.03,388.24z"/>
	<path class="st2" d="M204.29,419.53c-4.42-0.2-8.9-0.27-13.23-1.39c-3.55-1.51-9.97-3.92-4.31-8.36
		c20.06-6.49,40.73-11.59,61.62-13.16c21.86-1.62,43.8-1.84,65.7-1.38c0.12,0,0.16,0.2,0.05,0.25c-0.77,0.28-1.7,0.1-2.52,0.15
		c-41.25,2.93-82.49,7.13-122.9,17.39C192.96,418.38,224.16,420,204.29,419.53z"/>
	<path class="st2" d="M236.28,433.92c-2.98,0.46-6.67-1.69-4.07-5.34c1.38-1.36,3.39-1.3,5.09-1.69c14.56-4.08,29.79-3.7,44.62-1.95
		c-15.87,2.94-32.24,4.18-48.22,5.87c0.61,2.13,6.66,2.12,8.67,2.78C240.38,433.86,238.3,434.01,236.28,433.92z"/>
	<path class="st3" d="M201.42,184.03c-2.06-0.03-7.84-0.35-7.97-3.29c0.09-2.69,2.67-3.16,4.53-3.31
		c11.95-3.01,24.35-1.87,36.37-1.99c-0.67-0.48-0.24-0.26,0.17-0.05c-0.9,1.14-2.99,0.97-4.36,1.15c-2.65,0.22-5.29,0.63-7.93,0.92
		c-8.73,1.17-17.63,1.98-26.34,3.1c3.15,2.37,7.12,2.44,10.7,3.46C204.93,184.09,203.12,184.02,201.42,184.03z"/>
	<path class="st3" d="M271.59,169.62c-0.79,0.01-3.01-0.91-2.01-1.95c11.05-4.14,22.89-5.19,34.47-5.25
		c2.88,0.18,13.62-0.58,13.07,1.26c-2.13-1.41-4.9,0.15-7.23,0.21c-4.17,0.57-8.35,1.07-12.54,1.46c-8.84,1.35-17.8,1.55-26.61,3.16
		c0.97,0.62,2.19,0.96,3.13,1.49C273.1,169.89,272.35,169.74,271.59,169.62z"/>
	<path class="st4" d="M175.73,330.19c-3.49-0.19-13.41-0.63-10.45-6.94c2.85-2.26,6.47-3.24,9.74-4.56
		c25.24-9.09,51.38-14.34,77.62-17.99c27.63-3.81,55.54-2.67,83.29-3.19c-0.49-0.47-1.18-0.73-1.71-0.94
		c0.68,0.11,1.37,0.5,1.93,0.94c0.05,0.03,0.04,0.12-0.02,0.13c-24.14,1.71-48.35,2.39-72.4,5.74
		c-32.11,5.23-64.82,10.26-95.68,21.94c10.61,4.63,22.47,2.3,33.57,2.07C193.12,328.69,184.4,330.35,175.73,330.19z"/>
	<path class="st4" d="M171.18,340.31c-3.25-0.24-17.09-1.13-9.96-6.75c5.22-2.1,10.73-3.47,16.02-5.45
		c19.39-6.09,39.19-9.87,59.1-12.93c30.54-3.91,61.4-5.38,92.07-2.77c5.01,0.67,10.18,1.3,15.06,2.43
		c-4.9-0.76-9.86-0.99-14.79-1.38c-54.88-0.43-110.08,6.95-163.24,22.58c13.33,3.36,27,1.77,40.5,1.33
		C194.49,338.82,182.81,340.92,171.18,340.31z"/>
</g>
<g id="Vector_layer_3_">
	<path class="st2" d="M193.94,86.7c-12.27-0.61-40.34-5.67-11-12.38c18.76-5.66,38.35-7.56,57.77-9.5
		c21.31-2.26,42.75-2.85,64.17-2.63c8.32,0.32,16.64,0.64,24.94,1.37c3.63,0.47,9.13,0.32,11.49,2.26c0.01-0.01,0.02-0.02,0.03-0.03
		c-11.29-2.83-23.62-0.41-35.25-0.68c-17.44,0.92-34.82,2.41-52.22,3.88c-25.37,2.58-51.12,3.86-75.69,11.2
		c17.05,5.21,35.18,4.94,52.81,6.53C218.75,86.93,206.25,87.32,193.94,86.7z"/>
	<path class="st2" d="M194.3,104.37c-2.83-0.07-5.87,0.15-8.47-1.15c-1.32-0.99-4.64-2.6-2.52-4.17c5.86-3.75,12.8-4.74,19.49-6.12
		c12.39-2.46,24.82-4.73,37.37-6.16c22.45-3.27,45.09-4.59,67.75-5.45c8.61,0.07,17.37-0.24,25.88,1.12c0.76,0.22,1.32,0.52,2,0.93
		c0.05,0.03,0.03,0.11-0.03,0.12c-0.64,0.15-1.28,0.25-1.94,0.34c0.43-0.17,1.25-0.22,1.75-0.42c-1.68-1.03-3.77-0.96-5.66-1.06
		c-5.39-0.02-10.77,0.06-16.15,0.32c-15.69,0.86-31.28,3.15-46.95,4.46c-18.85,2.83-37.84,4.61-56.61,7.94
		c-8.04,1.52-16.66,1.76-24.12,5.36c2.93,2.51,7.25,1.92,10.75,2.6c4.12,0.53,8.27,0.77,12.42,0.96c-4.93,0.4-10.07,0.49-15.07,0.37
		C194.2,104.37,194.3,104.37,194.3,104.37z"/>
	<path class="st2" d="M206.19,124.84c-5.92-0.55-22.8,1.15-23.4-6.72c-0.34-1.3,0.09-2.66,1.42-3.15
		c11.63-4.42,24.25-5.51,36.4-7.89c27.57-3.61,55.27-5.33,83.06-5.6c11.06-0.04,22.15,0.43,33.14,1.72c2.68,0.6,6,0.5,8.17,2.28
		c0.25,0.66-0.57,0.7-1,0.71c0.18-0.08,0.68-0.09,0.89-0.33c-0.01-0.1-0.02-0.21-0.02-0.31c-5.42-2.37-12.07-1.44-17.84-1.74
		c-15.71-0.18-31.35,1.53-47,2.73c-30.79,2.89-62.1,4.54-92.2,11.84c13.58,4.6,28.5,4.48,42.59,6
		C222.34,124.67,214.26,124.86,206.19,124.84z"/>
	<path class="st2" d="M199.61,142.83c-5.67-0.73-21.22,2.27-21.29-5.62c-0.4-0.93-0.2-2.12,0.85-2.48
		c9.5-4.13,19.86-5.27,30.05-6.52c25.71-3.32,51.63-4.34,77.54-4.36c14.59,0.68,34.23-1.33,46.03,2.5c0.02-0.03,0.04-0.06,0.06-0.09
		c-9.7-2.14-19.69-0.73-29.51-0.49c-17,0.64-33.96,1.8-50.93,3.01c-18.32,0.96-36.97,3.03-55.04,4.99c-5.4,0.6-10.75,1.6-15.84,3.52
		c-0.95,3.73,21.11,4.46,24.82,5.6c-2.18,0.04-4.56-0.06-6.8-0.07C199.55,142.83,199.61,142.83,199.61,142.83z"/>
	<path class="st2" d="M186.39,166.02c-6.44-0.45-20.31-3.25-16.18-12.26c7.49-4.51,17.19-4.78,25.67-6.67
		c22.25-3.73,44.87-4.26,67.38-4.91c17.14,0.9,35.93-0.83,52.22,2.57c-1.75,1.14-4.12,0.24-6.12,0.58c1.7-0.39,3.79-0.03,5.51-0.59
		c-27.43-1.52-54.95,1.23-82.31,3.16c-19.83,1.5-39.85,2.81-58.93,8.41c2.43,8.04,25.81,8.77,33.36,9.73
		C200.22,166.37,193.21,166.64,186.39,166.02z"/>
	<path class="st2" d="M199.77,181.15c-4.81-0.21-9.85,0.14-14.44-1.57c-2.62-1.14-8.15-4.65-3.72-7.12
		c8.12-3.54,17.02-4.2,25.7-5.41c17.38-2.58,34.91-3.57,52.46-4.12c17.67-0.23,35.67,0.17,53.06,3.13
		c-41.73-1.31-83.65,3.75-124.91,9.48c11.75,3.15,23.93,3.64,35.81,5.4C215.76,181.1,207.75,181.47,199.77,181.15z"/>
	<path class="st2" d="M205.9,206.29c-5.11-0.27-11.94-0.39-15.15-4.95c-1.85-4.72,3.04-7.9,7.2-8.22
		c24.09-7.29,49.27-10.09,74.3-11.81c6.39,0.03,15.93-1.66,21.34,1.93c0.11,0.53-0.21,0.76-0.78,0.63c0.1-0.05,0.53,0.01,0.66-0.18
		c-0.01-0.12-0.02-0.24-0.02-0.37c-9.76-3.43-26.33,1.9-36.87,3.08c-10.87,1.84-21.77,3.56-32.55,5.9
		c-9.44,2.24-20.57,2.96-28.81,7.14c9.73,5.03,21.41,4.71,32.06,6.53C220.25,206.47,213,206.39,205.9,206.29z"/>
	<path class="st2" d="M209.34,247.7c-7.05-0.62-16.26,0.36-21.13-5.72c-1.56-5.03,4.3-7.21,8.32-7.43
		c27.17-6.1,55.22-8.74,83.06-8.13c4.16,0.45,19.24,0.6,20.79,3.91c-0.61,0.03-1.18-0.14-1.78-0.26c0.41-0.05,1.13,0.18,1.6,0.09
		c-4.08-2.44-9.83-1.37-14.51-1.86c-21.17,0.04-42.11,3.83-62.91,5.59c-10.27,1.53-20.77,2.74-30.86,4.94
		C186.62,244.19,206.17,246.91,209.34,247.7z"/>
	<path class="st2" d="M195.49,270.39c-6.02,0.53-9.62-4.73-4.03-8.64c11.8-5.74,25.31-6.53,38.01-9.29
		c19.3-2.46,38.73-3.7,58.18-3.96c6.43,0,12.99-0.04,19.36,0.08c-7.62,0.8-15.27,1.39-22.88,2.27c-22.31,2.47-44.66,4.88-66.78,8.8
		c-6.16,1.62-21.55,1.86-24.92,6.76c7.71,2.49,16.2,2.11,24.24,2.79C209.72,269.83,202.54,270.88,195.49,270.39z"/>
	<path class="st2" d="M204.76,287.28c-4.29,0.22-8.71-2.65-5.05-6.89c5.7-3.24,12.5-4.22,18.85-5.68
		c16.55-3.14,32.65-5.67,49.34-5.73c7.03-0.07,14.17,0.24,21.04,1.81c-0.88,0.03-1.91-0.13-2.86-0.12
		c-16.01,0.26-31.46,3.13-47.1,5.93c-9.09,1.67-18.3,2.59-27.42,4.09c-2.99,1.02-8.59,0.51-10,3.1c4.32,2.24,9.25,2.28,13.95,2.96
		C212.05,287.11,208.31,287.58,204.76,287.28z"/>
	<path class="st2" d="M204.18,309.4c-2.78-0.11-15.2-0.27-13.86-4.62c0.33-2.91,3.07-4.11,5.57-4.83
		c20.84-6.05,42.79-7.64,64.4-8.03c8.26,0.08,16.67-0.09,24.85,0.36c-3.65,0.25-7.3,0.69-10.94,1.06
		c-20.9,1.86-41.69,4.59-62.51,7.2c-4.01,0.97-17.25,1.15-18.83,4.64C196.03,307.96,200.4,308.2,204.18,309.4z"/>
	<path class="st2" d="M196.64,363.05c-5.98-0.63-18.93,0.77-18.81-7.83c-0.11-0.9,0.56-1.75,1.37-2.04
		c15.62-5.25,32.08-7.9,48.34-10.26c13.35-1.41,26.78-2.95,40.21-2.57c-1.49,0.09-3.18,0.26-4.69,0.47
		c-27.23,3.81-54.4,8.95-81.05,15.7c1.6,1.95,5.11,2.14,7.27,2.98c6.88,1.58,13.91,2.4,20.87,3.55
		C205.74,363.11,201.12,363.17,196.64,363.05z"/>
	<path class="st2" d="M198.45,387.82c-3.67-0.89-7.58-1.67-10.8-3.74c-5.84-5.52-0.78-10.42,5.71-11.18
		c17.65-4.89,36.22-5.01,54.41-5.19c4.86,0.03,9.79,0.18,14.57,0.9l0.89,0.71c0,0,0,0,0,0c0.01-0.01,0.01-0.03,0.02-0.03
		c0-0.02,0-0.04,0-0.06c-0.02-0.04-0.03-0.07-0.05-0.11c-11.94-0.6-24.02,2.63-35.99,3.43c-12.44,2.48-26.23,2.08-37.92,6.53
		c-0.8,4.33,14.45,8.49,17.95,10.09C204.38,388.84,201.35,388.34,198.45,387.82z"/>
	<path class="st2" d="M209.19,405.1c-4.01-0.33-8.22-0.17-12.04-1.55c-1.63-0.59-2.71-2-3.93-3.16c-1.55-1.3,0.82-4.15,2.1-4.84
		c5.46-1.9,11.22-3.21,16.92-4.28c6.92-1.15,13.85-2.22,20.8-3.14c7.35-0.76,14.76-0.97,22.13-1.36c4.11-0.15,8.21,0.03,12.31,0.21
		c0.93,0.01,2.83,0.02,2.75,1.35c-0.01,0.14-0.12,0.24-0.25,0.25c-1.98,0.23-4.13,0.48-6.06,0.58c1.92-0.35,3.84-0.69,5.76-1.07
		c0,0,0-0.01,0-0.01c-0.33-0.27-0.83-0.31-1.22-0.34c-2.12,0.09-4.23,0.2-6.35,0.22c-9.05,0.55-18.01,2.08-27.03,3.01
		c-9.23,1.83-18.62,2.79-27.81,4.76c-3.13,0.67-6.25,1.43-9.36,2.18c-0.67,0.2-1.43,0.41-1.74,1.1c1.17,1.79,3.23,2.77,5.2,3.2
		c4.78,1.28,9.66,2.17,14.5,3.15C213.74,405.33,211.4,405.15,209.19,405.1z"/>
	<path class="st2" d="M217.51,419.23c-6.14-0.78-25.23,0.56-25.92-7.17c-0.29-0.9,0.18-2,1.13-2.27c7.39-2.36,15.21-2.79,22.85-3.88
		c21.71-2.87,43.65-4.01,65.54-4.22c11.65-0.56,23.42,1.1,34.87-1.11c0-0.14-0.15-0.34-0.14-0.41c0.9,1.1-7.01,2.04-8.06,2.15
		c-12.43,0.88-24.89,1.55-37.33,2.32c-24.89,2.37-50.26,3.62-74.82,8.03c12.36,5.07,26.48,4.77,39.54,7.25
		C229.36,419.75,223.37,419.46,217.51,419.23z"/>
	<path class="st2" d="M256.97,429.03c-5.47-0.25-12,0.61-15.78-4.16c-0.79-0.71-0.55-2.02,0.46-2.37c1.47-0.51,2.93-1.06,4.4-1.57
		c4.69-1.59,9.64-2.15,14.55-2.59c10.75-0.73,21.54-1.08,32.31-0.84c2.41,0.07,5.63-0.7,7.41,1.32c0.23,0.27,0.09,0.67-0.25,0.75
		c-4.79,1.11-9.6,2.14-14.41,3.16c4.35-1.32,8.95-2.54,13.39-3.81c-1.99-0.68-4.08-0.18-6.11-0.12c-6.31,0.17-12.61,0.63-18.89,1.23
		c-9.85,1.03-19.97,0.97-29.34,4.41c2.86,2.46,6.88,2.25,10.36,3.08c2.84,0.55,5.7,0.92,8.54,1.39
		C261.5,429,259.17,429.01,256.97,429.03z"/>
	<path class="st3" d="M190.62,224.54c-3.9,0.12-7.71-1.01-9.96-4.38c-1.17-1.48,1.03-2.77,1.84-3.84c2.78-2.23,6.58-2.64,9.88-3.5
		c14.73-4.04,29.94-5.78,45.05-7.77c22.2-2.31,44.71-0.99,66.8-0.8c-5.29,1.47-13.67,0.54-20.02,1.13
		c-15.31,0.65-30.57,1.92-45.82,3.39c-12.62,1.97-25.03,3.12-37.46,5.51c-5.66,1.69-12.85,1.13-17.46,5.01
		c4.1,5.45,16.12,3.6,22.48,4.74C200.94,224.26,195.71,224.81,190.62,224.54z"/>
	<path class="st4" d="M173.37,330.72c-2.34-0.33-10.36-2.34-9.59-5.02c1.27-4.36,6.44-4.69,10.22-5.39
		c19.57-4.61,39.42-7.48,59.45-9.24c19.43-0.93,38.91-1.73,58.37-0.99c1.03,0.21,2.83,0.06,3.19,0.63c-0.79,0.24-1.56,0.24-2.38,0.3
		c0.75-0.21,1.11-0.11,1.9-0.34c-20.24-0.11-40.41,3.04-60.58,4.52c-15.68,2.21-31.49,3.39-47.06,6.31c-5.18,1.6-16.97,1-20.26,4.28
		c5.27,3.88,12.08,4.42,18.15,6.03C180.96,331.53,177.16,331.25,173.37,330.72z"/>
	<path class="st4" d="M182.09,341.34c-8.81,0.8-19.36-6.12-4.62-9.13c29.63-5.02,59.53-8.37,89.6-8.35c6.72,0,13.45-0.22,20.16,0.2
		c2.26,0.37,5.2-0.17,6.98,1.47c-0.22,0.5-1.47,0.2-2.03,0.36c0.44-0.15,1.2-0.2,1.72-0.35c-12.3-1.87-25.43,1.63-37.96,2.12
		c-26.59,3.37-53.29,5.93-79.72,9.4c7.78,2.56,16.38,1.99,24.4,2.58c-6.24,0.62-12.46,1.72-18.74,1.7
		C181.9,341.34,182.09,341.34,182.09,341.34z"/>
</g>
</svg>
