<?xml version="1.0" encoding="utf-8"?>
<!-- Generator: Adobe Adobe Illustrator 24.2.0, SVG Export Plug-In . SVG Version: 6.00 Build 0)  -->
<svg version="1.1" xmlns="http://www.w3.org/2000/svg" xmlns:xlink="http://www.w3.org/1999/xlink" x="0px" y="0px"
	 viewBox="0 0 500 500" style="enable-background:new 0 0 500 500;" xml:space="preserve">
<style type="text/css">
	.st0{fill:#000B25;}
	.st1{fill:#3A9E31;}
	.st2{fill:#F20519;}
	.st3{fill:#FFFFFF;}
</style>
<g id="Vector_layer_3_">
	<path class="st0" d="M506.39-6.39v512.79H-6.39V-6.39H506.39z"/>
</g>
<g id="Vector_layer_2_">
	<path class="st1" d="M168.54,90.15c-3.94-0.66-2.24-6.53,0.37-7.92c7.27-3.66,14.86-6.83,22.55-9.55
		c31.93-11.87,65.62-19.07,99.78-18.88c10.58,0.1,21.52,0.12,31.65,3.5c0.82,0.66-3.19-0.26-1.43-0.02
		c-17.71-2.14-35.41,1.79-52.82,4.63c-32.48,6.08-63.63,14.08-94.89,24.23c8.92,1.45,18.22,0.16,27.14,0.04
		C190.18,87.83,179.46,91.83,168.54,90.15z"/>
	<path class="st1" d="M172.84,107.86c-31.56-3.44,46.24-19.9,50.6-21.04c32.51-7.18,65.91-10.21,99.16-7.87
		c3.46,0.19,6.92,0.5,10.39,0.75c-4.01,0.04-8.22-0.17-12.3-0.11c-35.43-0.6-70.34,5-104.78,12.72
		c-15.56,4.37-32.38,5.93-47.09,12.66c7.45,2.74,15.77,0.97,23.55,1.14C185.97,106.81,179.36,107.85,172.84,107.86z"/>
	<path class="st1" d="M181.53,127.9c-25.8-4.84,45.18-22.51,49.44-22.81c32.35-6,65.93-8.76,98.52-3.13c0,0,0,0,0,0
		c-30.53-3.86-72,1.95-105.28,9.83c-5.44,1.28-10.82,2.87-16.23,4.29c-8.78,2.51-18.15,3.94-26.2,8.42
		c8.74,0.36,17.6-1.89,26.23-2.72C199.18,123.68,190.58,127.37,181.53,127.9z"/>
	<path class="st1" d="M179.16,148.46c-2.09-0.09-4.5-0.34-6.06-1.84c-1.08-1.29-2.01-3.76,0.01-4.64
		c22.75-7.46,46.59-11.04,70.28-14.08c18.02-2.05,36.02-3.8,54.06-5.06c7.98-0.54,15.96-1.46,23.97-1.36
		c1.08,0.03,2.32-0.22,3.3,0.33c-0.4-0.12-0.82-0.25-1.3-0.27c0,0,0,0,0,0c-21.58,0.8-42.93,4.53-64.25,7.77
		c-26.98,4.48-54.06,8.77-80.64,15.25c3.62,0.76,7.33,0.15,10.98-0.01c5.75-0.29,11.64-0.69,17.31-1.04
		c-5.57,1.04-11.13,2.17-16.69,3.3C186.51,147.56,182.87,148.5,179.16,148.46z"/>
	<path class="st1" d="M171.23,170.22c-1.65-0.73-6.81-2.73-4.92-4.89c1.75-2,3.58-3.96,6.05-5.07
		c22.91-7.74,47.18-11.31,71.09-14.68c23.28-2.25,46.71-4.1,70.1-3.25c3.16,0.26,6.56,0.32,9.53,1.26c-1.34-0.31-2.73-0.33-4.1-0.42
		c-32.61,0.54-64.79,7.21-96.99,11.85c-11.46,1.51-22.77,3.96-34.18,5.83c-5.95,1.37-13.22,1.03-17.85,5.46
		c4.43,4.06,13.24,1.78,18.95,1.96C183.22,169.18,177.08,171.44,171.23,170.22z"/>
	<path class="st1" d="M161,190.56c-3.52-1.67,1.68-4.42,3.04-5.74c9.95-5.72,21.55-8.2,32.61-10.97
		c26.14-6.12,52.78-10.35,79.64-11.22c8.21-0.27,16.42-0.51,24.62-0.07c3.33,0.28,7.56-0.22,10.33,1.3c-0.5-0.04-0.28,0-0.68-0.11
		c0.03-0.06,0.22,0.02,0.3,0.01c-27.53,0.13-54.7,7.09-81.87,11.1c-16.19,3.27-33.17,5.47-49.14,8.96c-5.14,1.33-10.7,2-15.24,4.91
		c5.06,1.21,10.42-0.79,15.42-1.23C173.86,189.14,167.44,193.03,161,190.56z"/>
	<path class="st1" d="M153.48,247.72c-3.59,0-6.82-1.53-10.04-2.94c-5.31-2.75,2.18-8.58,5.02-10.19c9.85-4.43,20.84-5.87,31.3-8.4
		c16.85-3.15,33.78-6.06,50.81-8.05c26.99-2.94,54.22-4.82,81.37-3.2c6.63,0.37,22.43,1.68,22.62,5.62
		c-6.62-7.28-57.44,1.57-69.69,2.43c-25.02,3.82-50.12,7.05-75.22,10.33c-8.7,1.09-17.35,2.54-25.97,4.14
		c-4.86,0.97-10.28,1.11-14.47,3.96c4.8,2.66,10.8,1.84,15.98,2.15c8.65,0.11,17.45-0.46,26.02-0.71
		C178.67,244.64,166.16,247.62,153.48,247.72z"/>
	<path class="st1" d="M173.75,266.4c-21.04-7.93,53.04-20.04,57.51-20.07c25-3.41,50.24-5.33,75.47-5.13
		c4.09,0.18,8.36,0.72,11.93,2.69c-2.54-1.08-5.4-1.45-8.11-1.58c-25.8,1.28-51.23,6.6-76.77,10.22
		c-19.24,3.02-39.33,4.54-57.73,10.8c8.05,0.13,16.2-1.28,24.19-1.6c-5.62,1.2-11.25,2.42-16.7,3.66
		C180.35,266.07,177.01,267.24,173.75,266.4z"/>
	<path class="st1" d="M177.06,294.43c-24.78-9.31,50.11-20.44,55.42-20.99c16.91-2.41,34.01-3.46,51.07-4.17
		c7.28,0.32,20.5-2.72,25.65,3.08c-0.48-0.29-1-0.82-1.5-1.13c-5.87-2.32-12.39-0.04-18.4,0.61c-14.69,2.29-29.32,4.96-44.01,7.23
		c-14.75,2.59-29.62,4.43-44.42,6.68c-7.8,1.62-16.25,1.65-23.54,5.03c1.35,0.79,2.94,0.87,4.41,0.97
		c5.09,0.13,10.19-0.15,15.27-0.37C190.59,292.62,183.71,295.24,177.06,294.43z"/>
	<path class="st1" d="M194.26,318.5c-3.37,0.38-6.45-0.09-7.48-3.83c0.96-7.29,33.23-13.96,40.6-15.06
		c17.01-2.43,34.27-3.06,51.4-1.57c4.71,0.36,9.57,0.93,14.12,1.93c-3.47,0-6.93,0.2-10.27,0.3c-17.95,1.36-35.73,4.12-53.57,6.43
		c-13.07,2.22-27.12,2.68-39.3,8.17c0.78,3.13,7.16,2.41,9.82,3.1C197.9,318.22,196.02,318.41,194.26,318.5z"/>
	<path class="st1" d="M161.76,378.76c-3.74,0.02-7.04-1.71-9.96-3.91c-3.03-2.08,7.06-6.55,8.64-7.21c17.3-5.3,35.54-7.52,53.43-10
		c28.87-3,57.98-4.75,86.99-3.06c6.21,0.35,12.38,0.77,18.57,1.36c-7.28,0.17-14.74,0.37-22.08,0.62
		c-29.45,0.98-58.71,4.86-88.06,7.41c-10.9,1.59-21.84,2.81-32.75,4.32c-7.32,1.08-15.09,1.57-21.48,5.65
		c5.4,4.57,13.22,3.78,19.81,5.15C170.58,379.07,166.11,378.95,161.76,378.76z"/>
	<path class="st1" d="M167.53,398.92c-6.82-1.22,6.73-6.81,8.6-7.02c11.46-2.92,23.24-4.5,34.9-6.48
		c24.17-3.71,48.51-3.88,72.9-3.85c4.56,0.03,9.25,0.04,13.74-0.04c-32.28,3.17-64.69,5.28-96.78,10.25
		c-10.22,1.84-21.19,1.44-30.85,5.52c4.57,1.32,9.4,0.64,14.09,0.82c-5.47,0.73-11.18,2.1-16.74,0.78
		C167.39,398.9,167.53,398.92,167.53,398.92z"/>
	<path class="st1" d="M209.99,423.01c-6.09-0.46-14.05,2.31-18.69-2.75c-1.26-1.02-1.47-3.2,0.24-3.92
		c15.49-6.88,32.61-8.39,49.31-9.79c10.69-0.69,21.55-0.64,32.18-0.06c-16.2,2.45-32.33,5.22-48.5,7.81
		c-9.27,1.44-18.68,2.4-27.72,4.99c6.88,1.57,13.96,2.2,20.92,3.37C215.26,422.83,212.54,422.86,209.99,423.01z"/>
	<path class="st2" d="M169.69,339.04c-5.11,0.26-7.51-5.29-1.47-6.36c16.65-5.72,34.04-8.85,51.43-11.33c27.54-2.67,55.5-3.49,83,0
		c3.8,0.6,7.73,1.35,11.36,2.34c-4.41-0.53-8.85-0.89-13.29-1.03c-16.78-0.38-33.52,1.52-50.28,2.26
		c-27.81,2.76-55.82,4.7-83.13,10.97c3.63,2.66,9.13,2.04,13.52,2.52C177.22,338.84,173.4,339.39,169.69,339.04z"/>
	<path class="st2" d="M167.09,352.42c-3.92-0.37-8.53-0.6-11.44-3.54c-1.09-0.99-0.7-2.95,0.76-3.34
		c21.23-5.42,43.07-8.42,64.92-9.89c26.45-2.28,53.12-0.35,79.5,0.67c-0.8,0.57-3.04,0.02-4.34-0.05
		c-10.28-0.12-20.57,0.04-30.85,0.25c-8.99,0.2-17.96,1.16-26.95,1.67c-25.57,3.05-51.28,5.25-76.6,10.05
		c6.9,2.47,14.48,2.84,21.65,3.36C178.2,352.13,172.67,352.66,167.09,352.42z"/>
	<path class="st3" d="M163.55,212.5c-4.06-0.29-9.43,0.52-12.43-2.72c-1.87-3.11,0.71-6.37,3.9-6.95
		c15.16-5.3,53.8-11.85,67.95-7.27c0,0,0.01-0.01,0.01-0.01c-12.55-1.28-25.46,2.76-37.86,4.86c-10.37,2.2-20.71,3.43-30.58,7.04
		c0,0,0,0,0,0c0,0.07,0,0.13,0,0.2c0,0.01,0,0.01,0,0.02c8.81,3.08,18.53,2.78,27.76,3.76C176.15,211.87,169.79,212.31,163.55,212.5
		z"/>
	<path class="st3" d="M248.49,202.86c-3.52-1.1-8.37-1.74-8.62-6.29c-0.11-0.37,0.08-0.76,0.42-0.92
		c5.49-3.16,11.64-4.74,17.86-5.74c16.52-2.73,33.56-3.52,50.18-1.2c3.29,0.56,6.74,1.17,9.83,2.25
		c-10.62-1.85-21.51-1.26-32.23-0.58c-14.82,1.44-30.49,1.01-44.45,6.47C241.46,200.59,245.99,201.25,248.49,202.86z"/>
</g>
</svg>
