<?xml version="1.0" encoding="utf-8"?>
<!-- Generator: Adobe Adobe Illustrator 24.2.0, SVG Export Plug-In . SVG Version: 6.00 Build 0)  -->
<svg version="1.1" xmlns="http://www.w3.org/2000/svg" xmlns:xlink="http://www.w3.org/1999/xlink" x="0px" y="0px"
	 viewBox="0 0 500 500" style="enable-background:new 0 0 500 500;" xml:space="preserve">
<style type="text/css">
	.st0{fill:#000B25;}
	.st1{fill:#3A9E31;}
	.st2{fill:#FFFFFF;}
	.st3{fill:#F20519;}
</style>
<g id="Vector_layer_3_">
	<path class="st0" d="M506.39-6.39v512.79H-6.39V-6.39H506.39z"/>
</g>
<g id="Vector_layer_2_">
	<path class="st1" d="M211.86,87.41c-5.04-0.84-12.83-1.33-5.53-7.29c3.45-2.62,7.95-3.24,12.02-4.45
		c25.95-6.98,52.64-11.54,79.45-13.46c5.59-0.27,11.18-0.88,16.77-0.67c2.81,0.24,7.76,1.06,1.05,1.32
		c0.72-0.16,1.69-0.21,2.47-0.43c-17.67-0.25-35.07,4.98-52.48,7.63c-18.63,4.82-38.93,6.69-56.87,13.17
		c8.32,2.55,17.28,1.99,25.88,2.78C227.15,86.68,219.43,87.68,211.86,87.41z"/>
	<path class="st1" d="M217.95,102.13c-2.68-0.14-5.71-0.3-7.7-2.3c-1.62-1.74-2.67-5.2,0.31-6.14c6.38-1.94,12.91-3.22,19.48-4.31
		c24.72-4.45,49.77-6.68,74.86-7.4c6.2-0.26,12.42-0.45,18.61-0.08c1.09,0.23,5.71,0.2,5.13,1.17c-1.28,0.15-1.86,0.26-0.09-0.15
		c0-0.05,0-0.1,0-0.15c-15.16-0.34-30.14,3.03-45.17,4.6c-21.59,3.45-43.3,6.12-64.84,9.85c11.24,1.62,22.73,2.11,33.98,3.07
		C241.02,101.18,229.5,102.64,217.95,102.13z"/>
	<path class="st1" d="M212.91,119.56c-5.77,0.51-9.13-6.74-3.11-9.33c23.8-7.8,48.86-11.9,73.88-13.12
		c8.49-0.02,17.24-0.93,25.61,0.16c-5.79,0.19-11.51,1.37-17.25,2.19c-27.06,4.41-54.13,9.35-80.89,15.28
		c6.41,3.32,15.07,1.51,22.26,1.84C226.74,117.98,219.83,119.87,212.91,119.56z"/>
	<path class="st1" d="M207.35,139.25c-3.5-0.55-5.05-4.87-3.21-7.74c9.58-8.65,36.25-12.13,49.35-14.78
		c14.81-1.86,29.78-3.05,44.71-2.8c3.66,0.11,7.34,0.19,10.95,0.84c1.02,0.12,5.47,1.42,1.97,1.24c0.19-0.09,0.66-0.07,0.93-0.12
		c-18.76-0.92-37.37,4.7-55.78,7.03c-15.6,3.32-31.58,5.04-46.82,9.92c-1.38,0.44-2.39,1.06-1.99,2.5c1.82,1.42,4.25,1.58,6.42,2.18
		c4.15,0.58,8.26,0.71,12.41,0.9C220.16,139.4,213.61,140.72,207.35,139.25z"/>
	<path class="st1" d="M220.89,160.3c-6.32,0.01-19.51-1.87-13.66-10.93c4.41-4.76,10.84-5.62,16.66-7.42
		c26.21-5.66,53.31-4.99,79.86-5.95c-1.04-0.34-2.3-0.58-3.27-0.92c1.28,0.33,6.17,0.45,2.53,1.68
		c-23.62,2.36-47.33,5.29-70.86,8.84c-4.29,0.91-23.86,2.88-22.27,8.84c5.19,3.72,11.82,4.52,17.92,5.87
		C225.6,160.4,223.18,160.39,220.89,160.3z"/>
	<path class="st1" d="M206.33,175.92c-4.27-0.8-6.03-5.44-1.61-7.62c7.96-4,17.16-5.3,25.82-7.18c17.52-3.05,35.41-3.24,53.15-3.36
		c7.25,0.04,14.65,0.11,21.82,0.52c-17.84,2.59-35.71,5.08-53.68,6.64c-10.33,0.89-20.68,1.66-30.94,3.18
		c-5.38,1.28-11.81,0.58-16.41,3.89c1.38,3.56,6.3,3.34,9.42,4.46C211.51,176.42,208.77,176.46,206.33,175.92z"/>
	<path class="st1" d="M208.68,197.33c-3.07-0.24-6.51,0.42-9.23-1.29c-1.85-1.34-2.51-4.26-1.05-6.12c1.28-1.6,3.45-2.03,5.33-2.56
		c6.53-2.12,13.17-3.92,19.96-5.03c17.89-2.88,36.04-3.81,54.14-4.17c4.03-0.07,8.05-0.31,12.08-0.3c1.36,0.04,2.82,0.13,3.96,0.93
		c0.04,0.03,0.02,0.1-0.03,0.11c-0.71,0.06-1.42,0.08-2.14,0.1c0.52-0.12,1.37-0.07,1.96-0.19c-1.59-0.88-3.59-0.57-5.36-0.52
		c-9,0.91-18.04,1.62-27,2.84c-19.88,3.17-40.17,5.39-59.43,11.4c1.09,1.28,3.33,1.04,4.89,1.46c5.4,1.21,11.06,1.88,16.46,2.62
		C218.37,196.92,213.54,197.42,208.68,197.33z"/>
	<path class="st1" d="M207.14,223.59c-3.57-0.1-7.5-3.46-6.48-7.26c1.19-5.08,6.7-6.43,11.07-7.63c22.23-6.29,45.54-6.21,68.45-6.94
		c-5.66,1.67-20.89,3.09-29.8,4.72c-14.32,2.96-28.97,4.35-43.12,8.12c-3.01,0.98-4.43,4.07-1.37,6c3.36,1.69,7.22,2.03,10.85,2.84
		C213.64,223.63,210.31,223.95,207.14,223.59z"/>
	<path class="st1" d="M219.85,271.46c-5.37-0.07-11.47,0.14-15.21-4.39c-0.83-0.71-0.89-2.08-0.26-2.93
		c4.48-6.03,14.86-6.62,21.74-8.67c14.44-3.54,29.32-4.62,44.11-5.63c5-0.1,10.08-0.59,15.05-0.05c2.14,0.66,2.9,1.14,0.06,1.61
		c0.34-0.23,1.02-0.37,1.42-0.63c-2.51-0.97-5.32,0.16-7.91,0.35c-7.5,1.06-14.93,2.57-22.36,4.03c-15.77,3.33-32.2,4.84-47.38,10.3
		c4.8,4.37,12.33,4.18,18.36,5.73C225.02,271.34,222.37,271.44,219.85,271.46z"/>
	<path class="st1" d="M220.48,293.12c-4.13-0.21-8.01-1.65-11.03-4.5c-3.53-3.39,4.37-6.83,6.98-7.59
		c17.74-3.52,35.95-4.71,54.02-4.86c5.91,0.13,12.96-0.37,18.3,0.36c-16.2,1.92-32.44,3.78-48.56,6.32
		c-8.47,1.76-17.77,0.8-25.79,4.13c6.08,4.26,14.18,4.62,21.14,6.89C230.59,293.77,225.48,293.51,220.48,293.12z"/>
	<path class="st1" d="M214.7,313.85c-4.01,0.15-7.94-0.99-10.33-4.41c-2.81-3.35,6.22-6.22,8.52-7.02
		c17.94-3.78,36.36-5.52,54.7-5.4c2.37,0.1,14.45-0.11,14.93,1.67c-0.03,0.01-0.01-0.03-0.01-0.05c-0.02-0.05-0.05-0.11-0.07-0.16
		c-6.82-0.38-13.74,1.84-20.52,2.73c-9.05,1.29-18.05,3.04-27.13,4.14c-8.6,1.55-18.13,0.24-26.23,3.54c0,0,0,0,0,0c0,0,0,0-0.01,0
		c3.33,3.67,9.24,3.56,13.68,5.34c-2.46-0.03-5.11-0.26-7.63-0.39C214.59,313.84,214.7,313.85,214.7,313.85z"/>
	<path class="st1" d="M219.62,359.77c-6.3-0.51-21.51-0.48-18.49-10.28c5.01-5.14,15.24-5.09,22.06-6.45
		c19.15-2.22,38.51-1.7,57.74-1.18c3.45,0.24,7.3-0.34,10.36,1.55c0.11,0.07,0.09,0.24-0.05,0.26c-0.92,0.11-2.01,0.35-2.86,0.36
		c0.82-0.15,1.63-0.34,2.44-0.54c-5.33-1.73-11.26,0.01-16.79-0.11c-12.36,0.46-24.67,1.75-37.03,2.37
		C223.26,346.99,181.9,349.35,219.62,359.77z"/>
	<path class="st1" d="M216.57,377.09c-2.5-0.6-8.87-1.04-7.73-4.77c0.53-1.78,1.57-3.33,3.27-4.21c12.19-4.57,25.5-5.04,38.4-5.4
		c9.51,0.24,19.23,0.43,28.59,1.89c-21.34,3.02-43.29,4.98-64.53,8c4.54,2.52,9.83,2.37,14.79,3.42
		C225.18,376.45,220.82,377.18,216.57,377.09z"/>
	<path class="st1" d="M217.29,398.65c-3.8-0.24-7.36-1.86-8.74-5.63c-0.4-0.65-0.33-1.61,0.23-2.16c4.73-5.66,12.39-6.6,19.11-8.45
		c17.27-4.04,35.34-3.29,52.72-0.34c-3.18,0.36-6.55,0.67-9.8,1.03c-17.53,1.65-35.04,3.89-52.37,7.02
		c-2.46,0.52-4.48,1.16-6.24,2.65c1.28,4.41,7.07,4.67,10.66,6.48C221.08,399.15,219.13,398.95,217.29,398.65z"/>
	<path class="st1" d="M253.25,420.94c-10.06-1.22-21.29-0.71-30.38-5.58c-5.81-5.39-2.03-7.62,4.01-9.02
		c17.03-2.93,34.4-3.31,51.64-2.67c-16.86,3.87-34.04,6.68-51.27,8.53C235.64,415.92,244.65,418.08,253.25,420.94z"/>
	<path class="st2" d="M209.5,239.19c-5.71-0.84-11.98-0.38-17.27-2.92c-1.54-0.91-2.21-2.63-2.39-4.33
		c-0.61-4.2,4.41-5.92,7.48-7.07c26.29-9.55,54.67-11.57,82.35-13.99c13.59-0.73,27.21-1.14,40.82-0.77
		c8,0.29,16.33-0.11,23.93,2.79c-2.15-0.55-4.56-0.85-6.8-1.01c-38.29,0.87-76.29,6.54-114.27,11.1
		C207.65,225.15,170.62,231.44,209.5,239.19z"/>
	<path class="st3" d="M226.27,330.27c-9.72-1.15-24.57,0.29-31.77-7.09c-0.94-1.08-0.35-2.98,1.06-3.31
		c5.53-1.29,11.15-2.15,16.75-3.03c33-3.73,66.67-5.73,99.58-0.35c3.38,0.56,6.91,1.05,10.09,2.15
		c-12.22-1.73-24.58-1.48-36.89-1.45c-28.08,1.72-56.31,2.32-84.23,5.9C208.78,327.04,217.82,328.31,226.27,330.27z"/>
	<path class="st3" d="M209.05,345.36c-6.6-0.84-13.39-0.8-19.17-4.55c-2.08-1.11,0.96-6.28,2.66-6.74
		c7.95-2.51,16.81-3.54,25.05-4.54c22.73-2.03,45.57-1.87,68.33-0.42c8.53,0.51,17.06,0.97,25.56,1.88c1.94,0.08,7.23,1.5,6.58,2.3
		c0.03-0.07,0.06-0.14,0.09-0.22c-8.54-2.9-18.03-0.7-26.92-1.18c-16.36,0.26-32.7,0.98-49.07,1.23
		c-12.18,0.81-24.42,0.77-36.54,2.26c-3.53,0.49-7.05,0.87-10.57,1.34c-1.43,0.24-2.22,0.94-2.6,2.27
		C197.2,342.97,203.46,343.47,209.05,345.36z"/>
	<path class="st2" d="M202.45,252.77c-4.72-0.64-11.35-1.06-12.37-6.77c-0.21-0.52,0.04-1.2,0.5-1.49
		c6.09-3.87,14.02-3.4,20.89-5.19c20.97-3.66,42.16-5.57,63.41-6.65c15.05-0.24,30.17-0.72,45.19,0.37
		c5.67,0.92,13.23,0.3,17.74,3.4c-0.83,0.42-2.23-0.3-3.2-0.45c0.79,0.05,1.84,0.28,2.71,0.34c0.02-0.01,0.04-0.02,0.05-0.03
		c-11.76-2.77-24.22-1.22-36.19-0.65c-9.8,0.73-19.62,1.03-29.4,2.03c-19.25,1.72-38.53,3.09-57.73,5.32
		c-6.94,1.33-14.64,0.73-21.21,3.2c2.04,5.91,12.44,5.36,17.61,7.22C207.88,253.25,205.1,252.95,202.45,252.77z"/>
</g>
</svg>
