<?xml version="1.0" encoding="utf-8"?>
<!-- Generator: Adobe Adobe Illustrator 24.2.0, SVG Export Plug-In . SVG Version: 6.00 Build 0)  -->
<svg version="1.1" xmlns="http://www.w3.org/2000/svg" xmlns:xlink="http://www.w3.org/1999/xlink" x="0px" y="0px"
	 viewBox="0 0 500 500" style="enable-background:new 0 0 500 500;" xml:space="preserve">
<style type="text/css">
	.st0{fill:#000B25;}
	.st1{fill:#3A9E31;}
	.st2{fill:#F20519;}
	.st3{fill:#FFFFFF;}
</style>
<g id="Vector_layer_3_">
	<path class="st0" d="M506.39-6.39v512.79H-6.39V-6.39H506.39z"/>
</g>
<g id="Vector_layer_2_">
	<path class="st1" d="M194.01,106.41c-3.54-0.58-7.02-1.41-10.5-2.25c-3.86-0.87-8.26-1.73-10.84-5c-0.89-1.25-1.57-2.63-2.33-3.95
		c-0.66-0.81-0.83-2.1,0.15-2.76c1.91-1.28,3.67-2.75,5.73-3.79c5.81-2.69,12.38-3.06,18.61-4.16c3.66-0.61,7.31-1.2,10.97-1.79
		c16.93-2.78,33.92-5.26,51-6.93c19.47-1.77,39.24-5.24,58.75-2.35c2.69,0.7,8.39,0.22,8.48,3.98c0.15,2.37-3.78,1.9-5.36,2.59
		c1.47-0.64,3.63-0.49,4.93-1.59c0.38-0.82,0.3-1.97-0.37-2.61c-2.38-1.77-5.67-1.37-8.45-1.9c-12.29-1.32-24.59,0.62-36.75,2.2
		c-14.48,2.15-28.95,4.36-43.46,6.29c-13.13,2.12-26.28,4.1-39.19,5.94c-7.56,1.37-15.53,1.08-21.71,6.07
		c1.67,5.32,7.32,6.63,12.03,8.12c6.47,2.29,13.14,3.96,19.7,5.98C201.7,107.86,197.8,107.04,194.01,106.41z"/>
	<path class="st1" d="M188.15,127.92c-30.81-12.17,62.16-23.47,68.59-24.02c21.3-1.91,43.12-3.29,64.34-0.51
		c3.01,1.69-0.58,1.32-1.97,1.11c0.81-0.1,1.88,0.04,2.75-0.1c-0.02-0.05-0.04-0.11-0.06-0.16c-20.85-2.07-42.41,2.25-63.26,4.57
		c-17.51,3.12-35.24,4.91-52.68,8.44c-6.37,1.95-14.49,1.49-19.62,5.98c3.46,4.13,18.91,0.02,24.37-0.22
		C203.34,124.98,195.81,127.69,188.15,127.92z"/>
	<path class="st1" d="M186.88,157.64c-6.92-0.59-24.43-1.62-19.98-12.31c1.95-3.23,6.2-3.52,9.5-4.4
		c19.74-5.31,40.25-7.25,60.48-9.88c28.85-1.53,57.94-2.47,86.7,0.77c-8.62-0.2-17.39,0.53-26.06,1.03
		c-36.73,1.9-73.31,6.08-109.78,10.76c-3.06,1.13-23.12,1.57-16.4,7.18c7.16,4.69,15.9,5.87,24.23,6.92
		C192.76,157.75,189.75,157.79,186.88,157.64z"/>
	<path class="st1" d="M159.37,176.49c-0.34-0.28-0.48-0.83-0.27-1.23c1.38-2.88,2.83-5.88,6.03-7.04
		c22.48-6.56,46.05-9.82,69.37-12.11c22.96-1.92,46.14-1.57,69.07,0.6c2.95,0.67,7.81-0.62,9.27,2.64
		c-0.52,0.29-1.34,0.14-1.97,0.26c0.46-0.13,1.26-0.18,1.81-0.29c-1.16-2.36-9.22-2.24-15.46-2.11c-2.76,0.05-5.17,0.11-6.46-0.05
		c-31.42,0.03-62.65,3.86-93.7,8.32c-8.38,1.12-16.75,2.93-25.14,3.92c-4.31,0.53-8.9,1.75-10.6,6.18
		c2.49,3.64,6.52,5.17,10.34,6.87l-0.67,0.17C166.67,181.44,162.52,180,159.37,176.49z"/>
	<path class="st1" d="M186.73,280.73c-4.93-0.21-12.58-0.59-14.42-6.02c-0.53-4.39,3.01-7.69,6.83-9.13
		c19.15-7.48,40.19-8.32,60.35-11.53c14.93-1.12,29.88-2.57,44.87-2.68c5.9-0.36,23.45,2.61,6.82,4.78c1.98-0.67,4.27-1.07,6.25-1.9
		c0.01-0.06,0.03-0.12,0.04-0.18c0-0.02,0-0.03,0-0.05c-8.27-2-16.77-0.28-25.08,0.58c-10.76,1.5-21.54,2.91-32.32,4.21
		c-12.02,3.27-60.84,5.1-64.49,14.21c-0.5,6.47,15.11,6.72,19.86,7.71C192.61,280.8,189.63,280.82,186.73,280.73z"/>
	<path class="st1" d="M192.65,304.5c-9.65-0.52-23.25,0.35-26.61-10.99c-0.54-0.97-0.21-2.3,0.71-2.92
		c10.22-8.79,23.54-11.35,36.47-13.54c22.78-4.35,46.08-5.06,69.2-3.77c7.69,0.75,16.82-0.28,23.61,3.07
		c-1.11,0.16-1.78,0.2-0.33-0.09c-10.79-2.18-21.97,0.12-32.9,0.13c-15.57,0.71-31.81,2.4-46.99,4.66
		c-15.15,3.04-32.01,2.94-44.88,12.3c1.6,9.28,27.09,9.59,35.15,11.15C201.7,304.58,197.11,304.52,192.65,304.5z"/>
	<path class="st1" d="M192.34,322.49c-6.86,0.14-13.24-2.22-19.18-5.44c-2.96-1.65,0.17-6.71,2.22-7.95
		c31.01-7.48,63.26-9.64,95.09-11.57c8.57-0.5,17.21-1.08,25.79-0.52c3.44,0.35,10.9-0.83,10.13,4.54
		c-0.03-1.11-0.24-2.64-1.56-3.01c-19.29-1.34-38.74,3.72-58,5.25c-14.38,1.52-28.67,3.76-43.05,5.21
		c-6.47,1.03-12.95,2.01-19.43,2.95c-2.33,0.74-6.08-0.32-7.4,2.08c11.63,7.48,26.3,6.48,39.49,8.79
		C208.49,322.86,200.34,322.8,192.34,322.49z"/>
	<path class="st1" d="M188.64,379.68c-6.51-1.48-21.19-0.02-19.2-10.23c0.54-5.71,25.33-9.35,31.07-11.08
		c23.54-5.21,47.3-9.62,71.3-12.05c7.1-0.69,14.2-1.38,21.32-1.73c-12.18,2.4-26.73,3.93-39.55,6.95
		c-18.09,3.42-35.95,7.85-53.96,11.61c-27.3,5.39-41.01,9.34-3.18,15.47c4.27,0.72,8.69,1.28,12.9,1.95
		C202.43,380.39,195.53,380.25,188.64,379.68z"/>
	<path class="st1" d="M207.66,406.58c-8.67-0.82-25-0.03-27.07-10.82c-2.23-5.06,17.24-7.64,20.81-8.82c20.7-4.5,41.81-6.82,63-6.48
		c12.7,0.27,25.56,1.01,38.11,2.49c-39.01,1.79-78.17,5.23-116.24,13.71c4.96,6.93,27.4,8.45,35.98,9.92
		C217.47,406.72,212.5,406.65,207.66,406.58z"/>
	<path class="st1" d="M248.77,450.8c-14.89-2.27-56.61,0.49-56.91-20.2c-0.27-1.16,0.32-2.52,1.41-3.03
		c22.32-11.73,49.19-11.97,73.91-12.69c8.91,0.06,17.82,0.81,26.67,1.83c-16.78,0.06-33.75,1.47-50.36,3.92
		c-15.45,2.77-31.67,3.91-45.89,11.04C197.29,444.26,238.67,447.92,248.77,450.8z"/>
	<path class="st2" d="M167.21,355.98c-5.06-0.76-13.38,0.58-14.86-5.83c-0.5-0.87-0.51-2.17,0.47-2.72
		c5.68-3.47,12.05-5.45,18.41-7.24c23.6-7.14,48.09-10.24,72.48-13.34c20.35-1.84,40.71-3.42,61.15-3.5
		c6.74,0.35,18.63-1.05,22.55,1.27c-1.26-0.67-2.77-0.73-4.18-0.82c-4.19-0.06-8.41,0.33-12.59,0.59
		c-12.39,0.76-24.62,1.93-36.9,3.5c-19.87,2.58-39.66,5.6-59.47,8.61c-12.89,1.65-25.89,4.28-38.49,7.2
		c-6.69,1.68-13.64,2.95-19.81,6.16c0.1,0.79,0.82,1.39,1.45,1.68c8.26,2.84,17.18,3.35,25.72,4.16
		C177.84,355.91,172.53,356.18,167.21,355.98z"/>
	<path class="st3" d="M177.77,217.69c-2.33-0.05-4.89,0.09-6.97-1.11c-1.31-0.9-4.13-2.55-1.95-4.09c10.8-6.31,23.96-7,36.06-9.25
		c10.71-1.19,21.45-2.03,32.23-1.71c-1.05,0.21-2.33,0.27-3.45,0.44c-14.31,1.97-28.52,4.57-42.66,7.48
		c-6.43,1.37-13.08,1.79-18.95,4.66c5.64,2.56,12.28,2.24,18.34,3.29C186.3,217.65,181.97,217.8,177.77,217.69z"/>
	<path class="st3" d="M256.09,209.25c-24.74-4.02-14.92-9.08,2.64-12.06c16.54-2.49,33.97-3.75,50.32,0.54
		c-2.69-0.25-5.54-0.46-8.23-0.49c-18.99,0.73-38.37,1.85-56.79,6.57C247.77,206.12,252.17,207.42,256.09,209.25z"/>
</g>
</svg>
