<svg enable-background="new 0 0 500 500" viewBox="0 0 500 500" xmlns="http://www.w3.org/2000/svg"><path d="m506.39-6.39v512.79h-512.78v-512.79z" fill="#000b25"/><g fill="#3a9e31"><path d="m305.08 65.33c-3.04.09-6.22.22-9.19.37 7.25-1.62 14.66-2.98 21.45-6.11-30.8-6.23-62.48-7.11-93.75-4.79-4.98.45-9.96.89-14.95 1.34-16.95 2.3-33.99 4.48-50.61 8.57-2.12.55-4.2 1.27-6.37 1.6-.01 0-.02-.02-.01-.02.08-.03.16-.06.23-.08 9.8-5.03 20.08-9.21 30.78-11.91 14.49-3.51 29.37-5.1 44.2-6.3 25-1.97 50.22-1.61 75.06 2.01 6.58.92 13.14 2.36 19.27 4.98 1.48.68 3.16 1.78 3.29 3.56.35 6.11-15.02 6.33-19.4 6.78z"/><path d="m332.06 84.16c-6.28.36-12.73.52-18.94.85 4.02-.39 8.02-.86 12.01-1.39 5.93-.96 12.1-1.14 17.22-4.3-17.44-3.66-35.48-3.7-53.24-4.3-23.39-.29-46.76.67-70.05 2.79-12.9 1.08-25.8 2.62-38.45 5.4-4.64 1.04-9.24 2.09-13.69 3.76-1.05.54-2.62.83-3.13 1.96.03.02.05.04.08.06.28-.03-.03.1-.12-.06.12-.78 1.19-1.19 1.78-1.52 1.78-.94 3.69-1.6 5.57-2.31 8.06-2.79 16.31-4.97 24.59-6.97 24.72-5.64 49.98-8.73 75.33-9.3 21.28-.43 42.69.76 63.6 4.9 3.5.85 7.17 1.37 10.39 3.02.96.53 1.5 1.61 1.2 2.69-1.43 4.22-10.33 4.31-14.15 4.72z"/><path d="m312.61 104.9c6.28-1.76 12.51-3.83 18.35-6.36.59-.31.83-.42 1.23-.82-21.03-2.28-42.26-1.92-63.37-1.13-16.78.64-77.17 1.82-86.76 13.89.02.05.03.1.04.15.02.01.03.01.04.02.1-.01-.01.05-.06 0 1.21-4.83 17.79-9.29 22.6-10.59 22.38-5.65 45.39-8.39 68.42-9.5 20.71-.73 41.76-.08 62.01 4.6.69.2 1.43.93 1.13 1.72-.31 1.28-.95 2.41-2.15 3.06-6.83 2.81-14.37 3.39-21.48 4.96z"/><path d="m315.24 126.4c1.7-.3 19.35-3.9 14.83-5.85-17.39-3.13-35.22-2.5-52.82-2.3-17.28.39-34.57 1.6-51.78 3.22-8.29.73-16.43 1.71-24.44 3.7-3.07.91-6.41 1.54-8.9 3.64.03.04.05.08.08.11s.07.06.1.09c.77-.06 1.67-.53 2.37-.66-.6.21-1.2.44-1.81.63l-.31.1c-.35.03-.37.02-.59-.27-.02-.02-.01-.05.01-.07 2.55-2.33 6.03-3.22 9.22-4.37 21.86-6.77 44.77-9.51 67.55-10.74 17.49-.39 35.07-.05 52.38 2.67 3.65.95 8.16 1.1 11.34 3.09 1.26 1.23 1.04 2.61-.54 3.52-5.01 2.77-11.23 2.52-16.69 3.49z"/><path d="m291.18 156.62c8.75-2.83 17.86-5.75 25.65-10.58-21.09-3.53-102.37-.21-118.9 10.57.04.02.09.05.14.07.09-.01.35-.15.4-.1-.33.13-.32.18-.57.05 2.51-2.24 6.1-3.04 9.22-4.22 7.5-2.35 15.13-4.21 22.82-5.83 17.14-3.68 34.54-6.22 52.05-7.11 9.73-.35 19.54-.44 29.2.97 3.48.63 7.07.65 10.07 2.5 9.02 8.08-25.76 12.34-30.08 13.68z"/><path d="m302.96 179.58c-4.13.19-8.4.37-12.46.46 4.81-.65 9.63-1.53 14.15-2.67 1.16-.39 2.59-.65 3.48-1.47-14.63-2.41-29.58-1.34-44.35-1.24-13.57.43-27.08 1.61-40.53 3.47-4.89 1-10.15 1.18-14.79 2.92-.02.08-.04.15-.06.23.03.03.18.08.12.1-.05-.03-.13-.04-.17-.09 0 0 .05-.27.05-.27 8.15-3.33 17.12-4.6 25.7-6.57 11-2.08 22.11-3.67 33.3-4.21 14.16-.56 28.79-.81 42.55 3 3.09 1.53 2.11 4.3-.82 5.31-1.96.68-4.09.92-6.17 1.03z"/><path d="m302.01 241.24c5.85-1.55 11.75-3.2 17.17-5.93-10.1-1.61-20.39-1.1-30.59-1.12-7.61.26-15.22.33-22.81.79-9.12.4-18.26 1.08-27.3 2.35-4 .52-7.98 1.17-11.9 2.13-.98.24-1.95.59-2.73 1.26.11.15.27.27.45.27.28.03.8-.01 1.01.07-.52-.04-1.17.15-1.55-.33.24-.3.65-.58 1.01-.78 8.78-3.01 18.08-4.47 27.21-6.05 12.2-2.04 24.53-3.38 36.89-3.77 10.75-.01 21.8-.32 32.23 2.59 2.1.85 2.84 2.79.55 4.13-6.12 2.65-13.2 3.04-19.64 4.39z"/><path d="m292.11 267.78c6.68-1.87 13.78-3.19 19.82-6.76-17.52-2.19-73.89-1.41-87.75 7.22-.01.07-.02.15-.03.23.01.08.01.16.02.25.31.07.61.06.93.04-.22.06-.7.06-.98-.02.07-3.39 21.23-7.18 24.93-8.15 16.85-3.3 34.03-5.75 51.25-5.41 3.96.36 16.41.11 17.94 3.91.89 2.32-1.15 4.18-3.09 5.06-7.2 3.13-15.48 2.38-23.04 3.63z"/><path d="m298.13 286.37c-2.69.06-5.54.05-8.15-.08 4.85-.61 9.64-1.71 14.28-3.27-20.31-1.54-40.75-.74-60.99 1.34-5.06.54-10 1.26-15 2.05-1.07.17-2.2.61-3.26.24.2-.39.88-.65 1.28-.96-.27.28-.86.56-1.18.91 2.42.18 4.85-1.01 7.27-1.3 3.85-.81 7.69-1.66 11.54-2.4 12.33-2.47 24.77-4.41 37.35-4.96 9.18.23 18.81-.25 27.64 2.51 1.11.72 2.23 2.27.88 3.36-3.08 2.71-7.8 2.15-11.66 2.56z"/><path d="m286.86 368.22c6.56-1.76 14.35-2.18 19.48-7.04 1.29-1.53 3.5-3.64 2.31-5.77.02.04.05.07.07.11.01.03.03.06.06.1-.02-.04-.05-.09-.08-.13-.08-.12-.16-.24-.25-.35-.18-.19-.37-.37-.37-.36-9.18-5.74-20.61-5.87-31.1-6.71-13.82-.93-27.73-.79-41.55.02-7.19.59-39.26 2.98-41.45 9.7.2.32.63.25.88.2-.31.27-1.1.03-.95-.47 2.06-4.08 12.35-6.16 16.68-7.54 21.9-5.5 44.71-8.12 67.27-6.44 6.94.47 13.93 1.04 20.66 2.9 4.86 1.72 14.77 3.98 14.48 10.39-.49 2.99-3.2 5.09-5.54 6.75-6.1 3.72-13.8 3.45-20.6 4.64z"/><path d="m299.43 385.86c-2.76.1-5.65.28-8.35.32 4.41-.75 9.4-.68 13.32-2.91-15.59-5.9-81.64-6.09-95.9 1.45.76.13 1.68-.18 2.37-.16-.83.11-1.63.31-2.47.25-.04-.01-.08-.04-.06-.08.1-.16.18-.31.31-.45 5.96-2.74 12.72-3.62 19.16-4.7 13.65-2.1 27.44-3.21 41.26-3.37 11.55.6 23.45.59 34.5 4.41 1.55.36 4.51 1.83 2.78 3.63-1.86 1.59-4.6 1.42-6.92 1.61z"/><path d="m300.99 412.13c-3.77.1-7.51.17-11.27.31 7.79-1.15 16.4-1.79 23.35-5.95-14.18-4.07-29.1-3.79-43.71-4.39-15.13.24-30.52.08-45.44 2.79.56.37 1.43.06 2 .16-.75-.01-1.84.31-2.14-.21 8.18-2.03 16.67-2.54 25.01-3.63 13.89-1.58 27.86-2.33 41.82-1.82 8.55.52 17.41 1.3 25.45 4.38.96.56 1.93 1.57 1.77 2.76-1.33 5.17-12.55 5.26-16.97 5.62 0-.02.13-.02.13-.02z"/><path d="m280.78 435.12c-9.49.46-18.98-.5-28.45-.96 8.99-.32 18.3-.84 27.25-2.06 3.51-.67 7.5-.98 10.47-3.09-10.49-4.01-21.91-5.15-33.07-5.8-6.46-.52-12.98-.6-19.44-.63-4.79.26-9.69-.09-14.38.97.32.27.96.17 1.26.3-.38-.04-.65-.03-1.06-.11l-.32-.17c-.03-.02-.02-.05.01-.06 4.11-1.14 8.44-1.08 12.66-1.53 10.5-.76 21.05-1.11 31.57-.65 5.91.29 11.78 1.1 17.56 2.39 3.14.9 6.8 1.06 9.35 3.27 1.02.9 1.2 2.36.47 3.51-2.98 4.17-9.25 4.08-13.88 4.62z"/></g><path d="m235.34 204.02c5.37-.86 11-1.94 16.37-3.27 1.71-.55 3.67-.81 5.06-2.01-5.8-2.06-12.11-1.41-18.17-1.54-8.94.28-17.87.71-26.75 1.8-8.06.98-16.14 1.73-23.75 4.61 3.27-1.71 7-3.02 10.65-3.94 16.92-4.09 40.32-8.45 57.36-4.64 3.42.62 6.68 4.04 2.27 6.2-2.89 1.3-6.19 1.33-9.29 1.68-4.58.4-9.16.75-13.75 1.11z" fill="#fff"/><path d="m298.1 210.57c8.08-2.48 16.39-3.8 24.23-6.7.4-.22.5-.27.7-.54-4.91-1.28-10.16-.71-15.2-.97-6.48-.11-13-.26-19.46.17-.73-.06-1.86.34-2.35-.01 8.42-1.45 17.05-2.38 25.65-2.43 4.19.1 8.58-.25 12.63.99 3.8 1.41 1.4 4.65-1.48 5.28-8.03 2.26-16.56 2.9-24.72 4.21z" fill="#fff"/><path d="m296.22 313.25c3.34-.6 6.91-1.32 10.24-2.2 4.11-1.26 8.62-1.9 12.32-4.17-4.87-1.91-10-2.14-15.08-3.06-11.84-1.58-23.8-2.05-35.73-2.39-14.75-.06-29.52.41-44.18 2.19-9.65 1.15-19.15 2.93-28.7 4.62-.07.01-.65.17-.72.17-.21-.03-.25.08-.39-.08.01-.04.06-.07.09-.1.01-.01.03 0 .02.01-.02.02-.05.05-.07.08.01.01.03.02.04.04 29.48-7.55 59.8-12.7 90.34-11.61 8.28.23 16.55 1.03 24.63 2.91 3.83 1.09 12.95 2.18 14.29 6.27.6 4.96-7.3 4.97-10.67 5.65-5.45.8-10.94 1.28-16.43 1.67z" fill="#f20519"/><path d="m310.05 327.89c-2.53-.02-4.96-.11-7.45.18 3.22-.96 6.76-1.38 9.9-2.24-11.26-1.54-22.63-1.74-33.97-1.85-22.3-.35-44.69.35-66.82 3.28.05 0 .11 0 .1 0 2.16-.04 4.24-.11 6.39-.18-3.42.43-7.12 1.17-10.62.98-3.33-1.21 11.1-4.15 11.95-4.6 17.29-4.44 35.19-5.31 52.96-5.63 10.88-.12 21.84.48 32.52 2.61 3.12.63 6.22 1.37 9.3 2.18 1.5.38 3.13.64 4.1 1.98 1.61 3.29-6.48 3.37-8.36 3.29z" fill="#f20519"/></svg>