<?xml version="1.0" encoding="utf-8"?>
<!-- Generator: Adobe Adobe Illustrator 24.2.0, SVG Export Plug-In . SVG Version: 6.00 Build 0)  -->
<svg version="1.1" xmlns="http://www.w3.org/2000/svg" xmlns:xlink="http://www.w3.org/1999/xlink" x="0px" y="0px"
	 viewBox="0 0 500 500" style="enable-background:new 0 0 500 500;" xml:space="preserve">
<style type="text/css">
	.st0{fill:#000B25;}
	.st1{fill:#F20519;}
	.st2{fill:#3A9E31;}
	.st3{fill:#FFFFFF;}
</style>
<g id="Vector_layer_3_">
	<path class="st0" d="M506.39-6.39v512.79H-6.39V-6.39H506.39z"/>
</g>
<g id="Vector_layer_2_">
	<path class="st1" d="M176.51,327.41l-0.8,0l-0.14,0c-3.76-0.6-7.23-1.93-8.84-5.47c-2.61-5.6,47.32-10.86,52.96-11.49
		c27.18-2.33,54.65-2.4,81.74,0.93c8.53,1.14,17.39,2.39,24.93,6.8c-1.17-0.52-2.47-1.15-3.75-1.53
		c-25.7-6.54-52.73-3.12-78.96-3.02c-24.64,2.03-49.66,2.9-73.82,8.41c3.64,3.22,8.44,4.37,13.36,5.04l-0.36,0.05l-0.44,0.05
		l-0.48,0.05l-0.52,0.05l-0.57,0.04l-0.63,0.03l-0.67,0.02l-0.71,0.02l-0.75,0.01l-0.76,0.01H176.51z"/>
	<path class="st2" d="M194.34,305.91c-6.59-0.02-13.26-1.1-18.37-5.59c-3.25-2.11,0.4-7.57,2.73-9.09
		c8.71-4.42,18.73-6.02,28.3-7.72c20.18-3.01,40.71-3.17,61.05-2.25c4.6,0.26,9.27,0.46,13.66,1.94c0.48,0.79-1.71,0.49-2.1,0.27
		c0.16-0.01,0.36,0,0.57,0.02c0.38,0.03,0.79,0.05,1.13-0.05c-10.39-1.45-20.91,0.71-31.34,0.99c-17.25,2.06-34.62,3.39-51.32,6.62
		c-4.09,1.21-16.29,2.69-18.09,6.14c7.54,6.9,26.91,6.93,37.19,8.14c-5.67,0.38-11.46,0.69-17.23,0.69
		C198.46,306.05,196.4,306.01,194.34,305.91z"/>
	<path class="st2" d="M190.86,276.3c-6.04-0.39-12.95-0.66-17.18-5.57c-3.71-5.23,9.97-6.37,13.02-7.07
		c26.2-4.21,53.03-4.52,79.33-1.02c10.19,1.37,20.48,3.09,30.42,5.42c-38.8-3.01-78.13-2.85-116.72,2
		c10.91,4.88,23.13,4.25,34.78,5.32c-6.95,0.44-14.08,0.92-21.13,0.92C192.54,276.32,191.7,276.31,190.86,276.3z"/>
	<path class="st2" d="M185.74,254.55c-3.19-0.05-10.27-4.98-5.82-7.81c12.06-6.27,25.94-7.04,39.24-8.35
		c19.02-1.18,38.28-1.08,57,2.87c5.15,0.97,10.24,2.18,15.26,3.66c-7.24-1-15.04-1.8-22.33-2.23c-18.93-1.17-37.9,0.47-56.75,2.21
		c-9.16,1.11-18.7,1.41-27.34,4.95c9.13,1.78,18.62,1.55,28.04,1.31c3.44-0.08,6.88-0.17,10.27-0.15
		c-11.77,1.53-23.55,3.56-35.35,3.56C187.21,254.58,186.48,254.57,185.74,254.55z"/>
	<path class="st2" d="M191.88,230.24c-2.61,0.15-11.2-1.8-6.81-5.19c8.95-2.97,18.29-4.55,27.64-5.69
		c9.92-1.2,19.95-1.64,29.93-1.51c14.83,0.17,29.54,2.16,44.16,4.56c4.7,0.76,9.35,1.77,14.02,2.7c-8.84-0.52-17.87-1.05-26.79-1.35
		c-26.94-1.1-54.14-0.64-80.83,3.4c7.7,0.99,15.41,1.04,23.15,1.43c-7.4,0.68-15.02,1.66-22.56,1.66
		C193.14,230.26,192.51,230.25,191.88,230.24z"/>
	<path class="st2" d="M211.47,208.03h0.01c-5.33,0-10.57-0.7-15.46-2.93c-4-2.22,7.01-6.79,8.82-7.06
		c11.45-2.61,23.4-2.52,35.09-2.49c16.27,0.54,32.62,2.11,48.69,4.22c-19.5,0.8-39.02,0.78-58.54,0.96
		c-3.09,0.23-6.25,0.2-9.42,0.16c-7.21-0.08-14.46-0.15-20.95,2.89c5.59,3.04,12.09,3.18,18.16,4.68
		C215.84,208.38,213.59,208.14,211.47,208.03z"/>
	<path class="st2" d="M197.78,160.08c-5.7,0.26-11.5-0.69-15.08-5.55c-2.33-2.84,2.33-4.74,4.04-6.37
		c3.95-2.55,8.77-3.26,13.33-3.96c7.85-1.27,15.72-2.4,23.65-3c26.5-1.81,53.2-1.4,79.62,1.38c3.07,0.52,15.65,1.31,16.71,3.92
		c-1.76-1.42-4.41-1.33-6.57-1.65c-7.68-0.36-15.39-0.43-23.08-0.34c-14.59,0.41-29.19,0.66-43.75,1.61
		c-14.75,0.66-28.79,1.17-43.29,3.11c-5.3,0.77-11.5,0.55-15.81,4.12c3.04,5.06,26.68,5.2,33.52,6.45
		c-6.01,0.07-12.14,0.34-18.23,0.34C201.17,160.16,199.47,160.13,197.78,160.08z"/>
	<path class="st2" d="M320.06,146.51c0.05,0.04,0.09,0.08,0.14,0.12c-0.02,0.11-0.05,0.21-0.07,0.32
		C320.14,146.79,320.12,146.65,320.06,146.51z"/>
	<path class="st2" d="M197.75,137.75c-5.82-0.36-20.57-0.08-21.11-7.7c0.53-4.64,9.75-4.46,13.4-5.84
		c31.52-6.35,63.95-5.15,95.86-3.27c15.55,1.78,31.18,3.17,46.56,6.11c-2.74-0.09-5.7-0.37-8.48-0.52
		c-16.31-0.45-32.65-1.44-48.97-1.18c-30.36,0.95-61.12-0.25-91.04,5.77c14.83,5.36,31.17,4.01,46.6,4.96
		c-10.74,0.6-21.51,1.65-32.3,1.65C198.1,137.75,197.92,137.75,197.75,137.75z"/>
	<path class="st2" d="M211.91,109.67c-2.14-0.29-11.13-0.39-10.62-3.15c-0.31-5.99,7.36-4.9,11.39-5.14
		c31.26-3.63,63.33-6.54,94.51-0.77c6.94,1.41,13.77,3.3,20.55,5.34c-13.74-2.33-27.84-4.15-41.88-3.85
		c-26.98,0.45-54.04,2.64-80.93,3.51c7.73,2.8,16.11,2.4,24.11,2.84c-5.63,0.42-11.24,1.22-16.89,1.22
		C212.07,109.67,211.99,109.67,211.91,109.67z"/>
	<path class="st2" d="M287.74,84.51c-4.12,0.12-8.3,0-12.5-0.12c-9.47-0.28-19-0.56-28.04,2.01c4.07,3.18,9.6,3.25,14.29,5.09
		c-1.74-0.18-3.7-0.52-5.52-0.74c-4.3-0.29-8.57-0.95-12.06-3.66c-3.61-3.11,10.93-6.24,12.93-6.32
		c15.05-1.84,30.29-2.22,45.44-1.46c19.64,0.76,39.32,4.73,57.4,12.36C335.99,85.63,311.93,84.71,287.74,84.51z"/>
	<path class="st3" d="M198.27,183.02c-3.72-0.11-7.76-0.22-11-2.28c-1.54-1.1-1.79-3.93-0.54-5.32c1.78-1.9,4.58-1.91,6.95-2.57
		c15.05-3.47,30.74-2.71,45.98-0.96c1.68,0.37,4.03,0.34,5.19,1.71c-2.36-1.24-5.32-0.63-7.91-0.63c-5.21,0.17-10.58,0.3-15.73,0.67
		c-10.61,0.94-21.54,1.38-31.85,3.99c2.05,3.86,12.6,4.02,16.88,5.24c-2.18,0.1-4.52,0.15-6.8,0.15
		C199.05,183.02,198.66,183.02,198.27,183.02z"/>
	<path class="st3" d="M244.85,173.6c0.05,0.03,0.1,0.05,0.15,0.08c0,0.04-0.01,0.07-0.01,0.1
		C244.95,173.72,244.9,173.66,244.85,173.6z"/>
	<path class="st3" d="M260.21,181.03c-0.86-0.93-0.64-2.32-0.64-3.47c0.42-2.44,4.48-2.11,6.41-2.78
		c16.51-1.28,33.06,1.67,49.29,4.49c0.01,0,0.01,0.02,0,0.02c-13.65,0.06-27.29-0.39-40.92-1.01c-3.91-0.05-7.88-0.42-11.71,0.57
		c1.64,3.1,12.9,5.38,16.51,7.23C272.92,184.57,265.45,185.04,260.21,181.03z"/>
	<path class="st1" d="M219.9,325.68c1.91,0.21,3.79,0.41,5.59,0.69C223.69,326.09,221.81,325.89,219.9,325.68z"/>
	<path class="st1" d="M210.58,351.01h0.02c-9.26-0.64-18.55-1.04-27.74-2.35c-7.12-1.07-15.33-1.36-19.99-7.68
		c-1.25-1.22-0.73-3.3,0.81-3.97c16.29-7.65,35.05-6.75,52.57-9.28c32.68-2.84,65.65-2.88,98.24,0.88
		c7.91,0.67,15.73,2.02,23.57,3.25c3.41,0.72,9.12,1.12,11.07,3.17c-8.34-3.24-17.96-1.93-26.77-3.16
		c-20.76-0.91-41.51-0.56-62.27,0c-18.89,1.3-37.82,1.85-56.67,3.69c-11.54,1.3-23.65,0.76-34.69,4.69
		c3.76,3.37,9.23,3.77,13.92,5.11c9.87,2.52,19.9,4.06,29.92,5.75c-0.08,0.01-0.15,0.01-0.23,0.01
		C211.79,351.12,211.14,351.02,210.58,351.01z"/>
	<path class="st1" d="M349.11,335.03c0.1,0.04,0.2,0.08,0.31,0.12c-0.04,0.04-0.06,0.09-0.09,0.13
		C349.26,335.2,349.19,335.11,349.11,335.03z"/>
	<path class="st2" d="M186.72,364.64c-7.82-4.49-6.37-10.41,1.67-13.27c5.69-1.67,11.17-2.41,16.92-3.43
		c27.03-3.88,54.47-1.64,81.24,3.09c-5.02-0.17-10.25-0.53-15.34-0.69c-26.61-1.16-53.25-0.6-79.41,4.03
		c-5.35,1.2-10.03,3.32-3.68,7.82c6.42,3.69,13.95,4.8,20.84,6.98C201.55,367.89,193.66,367.78,186.72,364.64z"/>
	<path class="st2" d="M204.72,390.75c-5.84-0.32-17.87-0.18-18.12-8.13c0.16-4.15,5.09-3.79,8.01-4.9
		c32.86-7.5,66.67-7.32,100.12-8.5c-6.44,1.89-24.96,2.62-35.85,4.11c-22.65,3.06-45.59,4.85-67.93,9.79
		c3.5,5.29,18.56,6.27,24.78,7.53c-2.38,0.08-4.85,0.12-7.3,0.12C207.19,390.79,205.95,390.78,204.72,390.75z"/>
	<path class="st2" d="M207.88,420.08c-6.45-0.84-18.3-3.11-13.58-12.13c5.17-5.29,18.56-6.87,25.81-8.25
		c22.01-2.91,51.44-2.32,69.97-0.5c-17.7,0.97-35.3,2.54-52.94,4.01c-6.1,0.82-38.95,2.96-39.95,8.38
		c-0.52,4.79,14.31,7.72,18.07,9.57C212.89,420.86,210.33,420.36,207.88,420.08z"/>
</g>
</svg>
