<?xml version="1.0" encoding="utf-8"?>
<!-- Generator: Adobe Adobe Illustrator 24.2.0, SVG Export Plug-In . SVG Version: 6.00 Build 0)  -->
<svg version="1.1" xmlns="http://www.w3.org/2000/svg" xmlns:xlink="http://www.w3.org/1999/xlink" x="0px" y="0px"
	 viewBox="0 0 500 500" style="enable-background:new 0 0 500 500;" xml:space="preserve">
<style type="text/css">
	.st0{fill:#000B25;}
	.st1{fill:#3A9E31;}
	.st2{fill:#FFFFFF;}
	.st3{fill:#F20519;}
</style>
<g id="Vector_layer_3_">
	<path class="st0" d="M506.39-6.39v512.79H-6.39V-6.39H506.39z"/>
</g>
<g id="Vector_layer_2_">
	<path class="st1" d="M198.23,83.82c-6.57-0.97-15.23-0.01-18.25-7.36c0.07-7.02,36.77-12.56,43.79-13.51
		c34.79-4.07,69.99-4.9,104.97-3.62c14.56,0.94,29.3,1.66,43.72,3.38c-15.48-0.65-30.81-0.4-46.27-0.59
		c-28.46,0.51-56.87,2.46-85.29,4.07c-19.45,1.8-39.79,2.41-57.9,10.15c2.23,6.37,18.34,6.5,24.52,8.09
		C204.51,84.27,201.3,84.08,198.23,83.82z"/>
	<path class="st1" d="M207.27,102.12c-4.57,0.07-48.67-2.8-37.56-11.34c12.01-2.11,24.09-3.67,36.23-4.84
		c41.19-4.47,82.77-3.18,124,0.14c7.04,0.53,14.21,1.28,21.18,1.73c-30.06-0.74-60.12-1.52-90.19-0.61
		c-27.75,1.42-55.52,3.09-83.05,6.98c16.73,4.74,34.09,6.61,51.35,8.14C222.01,102.37,214.57,102.19,207.27,102.12z"/>
	<path class="st1" d="M210.52,127.52c-8.01,0.24-15.84-0.93-22.58-5.52c-0.95-0.48-1.53-1.7-1.11-2.73c0.74-3.15,2.42-6.03,5.7-7.05
		c11.46-2.66,23.42-3.6,35.11-5.23c34.44-3.45,69.24-1.64,103.49,2.98c4.16,0.56,8.49,1.02,12.49,2.05
		c-9.43-0.88-18.91-0.7-28.37-1.17c-29.44-0.2-58.88,0.39-88.25,2.69c-7.83,0.56-15.61,1.56-23.43,2.26
		c-3.79,0.65-10.07-0.89-11.87,3.35c9.7,7.41,22.83,6.59,34.41,8.05C221.03,127.42,215.7,127.64,210.52,127.52z"/>
	<path class="st1" d="M200.26,152.79c-8.34-0.1-15.23-1.56-21.14-7.85c-0.78-0.61-0.81-1.88-0.17-2.59
		c4.84-8.1,14.71-7.94,23.01-8.59c38.66-5.12,77.7-4.14,116.43-0.22c2.45,0.23,4.88,0.44,7.31,0.81c-0.76,0.03-1.62-0.1-2.43-0.11
		c-30.92-0.21-61.92-0.4-92.75,2.19c-9.68,0.83-19.38,1.41-29.08,2.12c-6.25,0.74-14.4-0.86-18.55,4.94
		c6.65,8.3,18.14,7.52,27.6,9.91C207.17,153.29,203.65,153.09,200.26,152.79z"/>
	<path class="st1" d="M205.13,171.97c-7.36-0.57-17.93,1.76-20.42-7.43c-0.39-0.7-0.11-1.71,0.57-2.13
		c5.3-3.93,11.2-6.97,17.91-7.37c35.53-3.09,71.58-3.91,106.93,1.4c2.22,0.33,4.52,0.73,6.64,1.22
		c-19.82-1.52-39.65-0.11-59.49,0.15c-13.31,0.66-26.62,1.35-39.96,1.47c-9.85,0.45-20.51-0.75-28.98,5.28
		c0.5,1.25,0.77,2.55,1.82,3.35c3.45,2.59,30.34,4.62,14.94,4.05C205.08,171.97,205.13,171.97,205.13,171.97z"/>
	<path class="st1" d="M199.92,235.57c-8.14-0.5-16.89-0.65-24.27-4.43c-2.94-1.84-4.99-6.1-3.44-9.4c3.02-4.06,8.9-4.28,13.36-5.93
		c29.22-6.42,59.34-4.84,89.02-3.87c21.24,1.58,42.69,3.5,63.54,7.56c-34.69-3.6-69.57-3.22-104.4-3.08
		c-19.22,1.24-39.9,0.09-57.94,7.4c-0.24,2.03,1.16,4.03,2.81,4.85c10.28,4.85,21.88,5.49,32.93,7.46
		C207.76,235.98,203.77,235.72,199.92,235.57z"/>
	<path class="st1" d="M200.93,256.14c-2.84-0.21-14.22-3.84-12.76-7.21c1.8-6.73,9.42-6.16,15-6.58
		c38.95-4.23,86.18,0.14,121.09,3.11c-31.08-0.96-62.01-0.47-93.07-0.25c-8.91,0.22-17.83,0.44-26.72,1.15
		c-3.85,0.84-10.11-1.21-12.31,2.76c7,5.65,16.31,6.3,24.77,8.31C211.67,257.18,206.21,256.85,200.93,256.14z"/>
	<path class="st1" d="M204.64,277.98c-3.16,0.29-15.78-2.9-14.5-6.92c1.04-5.44,6.75-6.39,11.4-7.08
		c26.51-5.35,53.78-4.45,80.59-2.13c15.14,1.25,30.12,3.9,45.01,6.84c-3.46-0.03-7.07-0.26-10.46-0.33
		c-28.89-0.71-57.78-0.58-86.68-0.38c-8.83,0.12-17.7,0.33-26.48,1.34c-2.72,0.63-6.36-0.16-8.46,1.74
		c7.31,5.63,17.27,5.34,25.97,7.24C215.64,278.32,210.08,278.23,204.64,277.98z"/>
	<path class="st1" d="M200.91,332.78c-7-0.98-17.45-1.46-20.39-9.03c-1.13-4.22,1.26-8.29,5.32-9.74
		c13.72-5.54,28.73-6.51,43.34-7.44c33.5-1.64,67.06,2.78,100.06,7.2c-26.38-0.7-54.37-2.44-81.33-1.38
		c-20.29,0.68-41.3-0.03-60.82,6.23c-2.54,0.64-3.34,3.83-1.82,5.73c7.29,6.14,17.36,7.2,26.38,9.11
		C208.15,333.34,204.46,333.12,200.91,332.78z"/>
	<path class="st1" d="M219.69,356.36c-7.46-1.21-18.34-0.58-22.52-8.03c-1.07-3.97,1.69-8.03,5.59-8.98
		c6.48-1.9,13.3-2.43,20.04-2.32c16.34,0.22,32.72,0.39,48.97,2.25c15.56,1.71,31.29,3.61,46.44,7.37
		c-8.58-0.79-17.18-1.33-25.78-1.74c-24.66-0.93-49.39-1.14-74.04-2.05c-5.25,0.08-10.81,0.02-15.77,1.89
		c-0.91,0.55-1.21,1.82-1,2.71C206.77,354.13,247.99,359.31,219.69,356.36z"/>
	<path class="st1" d="M269.63,398.34c-11.12-1.64-53.65-2.03-50.61-18.66c3.64-9.38,41.75-7.23,51.33-6.95
		c15.76,0.83,31.57,3.28,47.24,4.09c-30.7,2.09-62.76-3.12-92.74,4.83c0.02,0.11,0.05,0.22,0.07,0.33c0.11,0.35,0.23,0.69,0.38,1.02
		c0,0,0.03-0.02,0.03-0.02c2.47,3.1,6.63,3.8,10.03,5.47C246.59,392.8,258.16,395.26,269.63,398.34z"/>
	<path class="st2" d="M193.66,188.94c-5.55-0.6-18.61-1.05-18.8-8.39c0.11-1.27,0.98-2.67,2.25-3.06
		c26.84-5.09,54.56-4.21,81.78-3.76c20.65,0.94,41.65,2.21,61.66,7.37c-23.55-2.73-47.33-1.77-70.99-1.59
		c-23.62,0.61-47.44-1.18-70.93,1.64c0,0.01-0.01,0.02-0.01,0.02c0,0.03-0.01,0.07-0.01,0.11c7,6.17,17.42,6.35,26.21,8.12
		C201.19,189.34,197.35,189.25,193.66,188.94z"/>
	<path class="st3" d="M198.03,295.13c-6.53-0.59-13.11-1.34-19.4-3.28c-2.53-0.65-4.7-2.17-6.68-3.83c-1.28-0.7-1.72-2.46-0.41-3.39
		c2.73-2.45,6.55-2.17,9.97-2.56c6.23-0.56,12.44-1.43,18.7-1.64c28.61-1.51,57.3-0.84,85.86,1.41c12.77,0.86,25.51,2.45,38.11,4.61
		c1.39,0.32,2.64,0.94,3.94,1.5c0.88,0.38,0.48,1.59-0.35,1.69c-3.65,0.35-7.35,0.09-11-0.1c-3.88-0.26-7.75-0.63-11.62-0.97
		c5.66-0.1,11.56,0.2,17.3-0.1c-48.85-1.72-97.92-6.19-146.73-2.02c3.67,3.16,8.88,4.16,13.3,5.56c6.24,1.62,12.59,2.75,18.92,3.94
		C204.72,295.75,201.31,295.42,198.03,295.13z"/>
	<path class="st3" d="M174.17,310.2c-2.18-0.66-9.61-1.76-8.77-4.3c0.7-1.69,1.06-3.43,2.69-4.49c16.96-6.49,35.87-7.36,53.91-8.24
		c23.91-0.75,47.79,0.29,71.54,3.15c10.89,1.32,21.78,3.34,32.32,6.41c1.17,0.54,3.6,0.91,3.78,1.87c0-0.03,0-0.07-0.01-0.1
		c-13.69-4.28-28.79-4.41-43.12-5.04c-16.42-0.77-32.84-0.46-49.27-0.3c-20.88-0.12-41.56,0.36-62.04,3.71
		c-2.27,0.44-5.52,0.33-6.45,2.85c6.34,3.79,13.88,3.84,21,4.78C184.68,310.46,179.28,310.87,174.17,310.2z"/>
</g>
</svg>
