<?xml version="1.0" encoding="utf-8"?>
<!-- Generator: Adobe Adobe Illustrator 24.2.0, SVG Export Plug-In . SVG Version: 6.00 Build 0)  -->
<svg version="1.1" xmlns="http://www.w3.org/2000/svg" xmlns:xlink="http://www.w3.org/1999/xlink" x="0px" y="0px"
	 viewBox="0 0 500 500" style="enable-background:new 0 0 500 500;" xml:space="preserve">
<style type="text/css">
	.st0{fill:#000B25;}
	.st1{fill:#3A9E31;}
	.st2{fill:#FFFFFF;}
	.st3{fill:#F20519;}
</style>
<g id="Vector_layer_3_">
	<path class="st0" d="M506.39-6.39v512.79H-6.39V-6.39H506.39z"/>
</g>
<g id="Vector_layer_2_">
	<path class="st1" d="M187.03,250.26c7.98-5.86,17.99-8.31,27.38-11.02c11.86-3.33,23.93-5.88,36.12-7.55
		c8.19-1.37,71.91-7.1,71.21,1.54c-3.28-9.52-132.77,12.08-134.1,21.18c-0.47,1.25-0.81,2.58-0.05,3.7
		c3.79,4.18,9.57,5.12,14.48,7.11C194.37,264.01,177.85,260.95,187.03,250.26z"/>
	<path class="st1" d="M321.75,233.22c0.08,0.23,0.09,0.47,0.02,0.73c-0.16,0.16-0.32,0.31-0.48,0.47
		C321.57,234,321.72,233.6,321.75,233.22z"/>
	<path class="st1" d="M192.26,281.13c-2.27-2.29,5.55-8.26,7.84-8.56c27.44-5.95,55.25-9.36,83.25-11.18
		c6.78-0.68,64.96-2.4,37.63,0.02c-13.88,1.7-27.73,3.54-41.6,5.37c-13.18,1.75-26.36,3.48-39.55,5.12
		c-7.89,0.98-15.78,1.86-23.69,2.66c-1.9,0.3-3.95,0.4-6.01,0.5c-5.57,0.27-11.32,0.56-14.98,5.03c3.52,5.62,10.21,6.3,16.02,7.64
		C204.21,287.6,196.89,286.89,192.26,281.13z"/>
	<path class="st1" d="M175.06,98.45c-2.64-1-0.66-5.81,0.73-7.25c12.23-7.29,27.06-10.01,40.72-13.88
		c40.09-10,81.21-14.87,122.48-16.34c5.33-0.24,10.81-0.27,16.07-0.25c-5.79,0.58-11.57,1.06-17.34,1.8
		c-34.96,4.14-69.87,9.05-104.24,16.75c-13.15,2.7-26.32,5.37-39.23,9.11c-4.14,1.98-15.29,2.73-16.5,7.18
		c5.04,2.77,10.78,2.61,16.41,2.45c1.36-0.04,2.71-0.08,4.04-0.07c7.49-0.15,14.95-0.28,22.43-0.48
		c-6.62,0.75-13.44,1.43-20.12,2.17c-4.58,0.41-9.29,1.18-13.91,1.18C182.65,100.83,178.76,100.27,175.06,98.45z"/>
	<path class="st1" d="M171.33,117.81c-1.33-0.88-1.65-2.91-0.09-3.76c16.09-9.79,35.45-11.28,53.55-14.99
		c33.59-6.03,67.79-8.45,101.87-9.27c7.73-0.26,15.61-0.4,23.28-0.14c-4.64,0.39-9.29,0.66-13.93,1.18
		c-31.14,2.93-62.1,7.21-93.12,11.23c-22.3,4.95-46.3,4.89-67.3,14.41c3.39,2.84,17.44,2.16,28.57,1.49
		c5.14-0.31,9.67-0.62,12.24-0.58c-6.14,0.89-12.38,1.89-18.63,2.68c-3.09,0.39-6.18,0.72-9.26,0.96c-2.48,0.25-5.21,0.68-7.85,0.68
		C177.09,121.7,173.68,120.91,171.33,117.81z"/>
	<path class="st1" d="M161.49,139.87c-7.41-7.28,34.74-14.3,39.33-14.91c35.47-6.76,71.37-10.58,107.4-12.76
		c11.31-0.33,23.95-1.75,34.59,0.91c-0.95,0.35-1.73,0.61-2.78,0.54c0.64-0.09,1.58-0.2,2.23-0.56c-20.52-0.76-40.87,2.4-61.2,5.56
		c-10.94,1.7-21.88,3.4-32.83,4.49c-19.62,3.5-39.24,6.48-58.56,9.44c-7.75,1.29-15.7,2.38-22.79,5.96l0.01,0.02
		c5.27,3.32,12.06,2.18,18.01,2.95c7.96,0.48,15.95,0.65,23.93,0.93c-3.44,0.28-7.1,0.47-10.6,0.75c-3.11-0.03-6.66,0.32-10.36,0.68
		c-3.55,0.34-7.24,0.68-10.78,0.68C171.04,144.55,165.39,143.55,161.49,139.87z"/>
	<path class="st1" d="M158.2,166.3c-1.81-0.6-2.6-2.92-1.33-4.43c2.76-4.46,8.29-5.15,13.08-5.62
		c44.19-7.27,88.68-12.67,133.34-15.95c6.66-0.6,13.34-0.81,20.03-0.75c0.52,0.03,1.09,0,1.67-0.02c1.7-0.07,3.52-0.15,4.55,1.22
		c0.05,0.62-1.63,0.66-3.12,0.69c-0.73,0.01-1.42,0.02-1.82,0.09c1.32-0.3,2.88-0.51,4.25-0.8c-0.01-0.01-0.01-0.02-0.02-0.03
		c-13.04-0.01-26.09,2.3-39.12,4.6c-7.71,1.36-15.42,2.72-23.1,3.61c-33.88,5.51-67.98,10.01-102.04,14.06
		c16.98,5.14,35.3,4.23,52.68,6.82c-8.55,0.05-17.1,0.14-25.64,0.19c-1.83-0.01-3.67,0.01-5.51,0.03c-1.48,0.02-2.97,0.03-4.45,0.03
		C173.65,170.03,165.66,169.58,158.2,166.3z"/>
	<path class="st1" d="M324.61,141.51c-0.06,0.02-0.13,0.03-0.2,0.04C324.47,141.54,324.53,141.52,324.61,141.51z"/>
	<path class="st1" d="M187.22,194.78c-4.23-2.73-7.45-3.73-2.26-8.11c3.9-2.84,8.94-2.99,13.43-4.36
		c11.78-3.01,23.78-4.99,35.83-6.55c25.96-4,52.11-5.9,78.33-6.91c7.01-0.16,14.05,0.04,21.05,0.45c0.87,0.09,1.79,0.08,2.71,0.07
		c2.12-0.02,4.27-0.04,6.02,1.18c-0.32,0.32-1.03,0.27-1.71,0.21c-0.39-0.04-0.78-0.06-1.08-0.03c0.34-0.05,0.74-0.06,1.16-0.08
		c0.45-0.02,0.91-0.04,1.32-0.1c-23-2.42-46.52,2.84-69.57,4.5c-22.11,3.7-44.45,5.77-66.49,9.87c-6.34,1.9-14.25,1.24-19.58,5.32
		c7.72,6.31,18.79,4.59,28.11,5.89c-2.94,0.21-6.1,0.36-9.12,0.48c-1.36-0.03-2.74-0.01-4.13,0.02c-0.94,0.02-1.89,0.03-2.84,0.03
		C194.56,196.67,190.72,196.4,187.22,194.78z"/>
	<path class="st1" d="M339.54,170.74c-0.02,0-0.03,0-0.04,0.01C339.51,170.74,339.53,170.74,339.54,170.74z"/>
	<path class="st2" d="M192.26,215.28c-2.75-0.04-5.91-0.14-7.14-3.06c-0.27-0.41-0.07-1.01,0.38-1.19
		c13.73-5.75,28.92-6.93,43.64-7.7c7.48-0.15,15.12-0.32,22.53,0.06c-21.52,2.85-43.59,3.4-64.64,8.91c2.03,2.7,6.49,2.12,9.5,3.2
		c-0.04,0-0.08,0-0.12,0C195.11,215.5,193.62,215.38,192.26,215.28z"/>
	<path class="st2" d="M261.63,208.38c-0.73-1.14,2.95-3.49,3.94-3.91c12.77-3.32,26.44-3.07,39.6-2.98
		c5.64,0.13,11.27,0.5,16.9,0.93c-8.45,0.92-17.13,1.54-25.68,2.09c-6.72,0.38-13.45,0.75-20.18,0.93
		c-0.88,0.03-1.79,0.02-2.71,0.02c-3.79-0.03-7.78-0.06-10.66,2.62c1.16,1.99,3.43,2.78,5.27,3.82
		C265.72,211.11,263.24,210.47,261.63,208.38z"/>
	<path class="st1" d="M194.93,303.04c-0.19-1.02-0.72-2.42,0.49-3.01c13.41-7.3,28.38-10.65,43.24-13.6
		c24-4.25,48.19-6.97,72.52-8.3c12.19-0.68,24.47-0.98,36.65-0.15c0.54-0.02,1.73,0.29,2.57,0.59c1.07,0.39,1.56,0.79-0.63,0.49
		c0.14-0.03,0.41-0.03,0.68-0.02c0.2,0.01,0.39,0.01,0.54,0c-15.99-0.66-31.99,1.78-47.96,4.2c-8.42,1.28-16.84,2.55-25.23,3.38
		c-26.66,5.11-54.62,5.5-80.03,15.74c-0.82,7.46,14.3,5.68,19.24,7.18c-1.68-0.2-3.92-0.09-6.33,0.02
		c-1.44,0.07-2.94,0.13-4.42,0.13C200.53,309.71,195.15,308.74,194.93,303.04z"/>
	<path class="st1" d="M189.3,328.76c-0.36-2.14-0.54-4.64,1.52-6c19.57-7.98,40.82-11.16,61.62-14.67
		c26.22-4.35,52.82-5.94,79.33-7.38c1.33-0.23,5.28-0.16,8.39,0c4.1,0.22,6.74,0.62,0.05,0.8c0.63-0.13,1.6-0.16,2.32-0.25
		c-24.55,1.19-48.86,6.29-73.24,9.48c-25.7,5.25-51.82,7.3-76.52,15.38c-0.01,0.02-0.01,0.05-0.01,0.07
		c0.01,0.27,0.03,0.55,0.05,0.82c6.79,1.34,13.61,1.33,20.41,1.33c2.34,0,4.68,0,7.02,0.05c-2.49,0.3-4.98,0.63-7.46,0.96
		c-1.89,0.25-3.79,0.5-5.68,0.74c-0.59,0.07-1.19,0.15-1.79,0.22c-1.49,0.01-5.55,0.43-9.21,0.43
		C192.53,330.75,189.33,330.34,189.3,328.76z"/>
	<path class="st3" d="M196.95,338.03c6.14-2.8,13.16-2.93,19.64-4.7c31.2-6.95,62.95-10.76,94.84-12.64
		c10.05-0.09,25.9-1.47,32.96-0.61c-48.31,4.16-96.19,12.3-143.87,20.8c11.01,2.05,22.52,1.05,33.61,1.67
		c-6.99,0.59-13.97,1.33-20.96,1.84c-1.23,0.21-4.03,0.41-7.13,0.41C198.36,344.81,188.85,343.56,196.95,338.03z"/>
	<path class="st3" d="M195.33,363.17c-3.1-0.04-11.51-4.11-7.35-7.56c7.84-5.63,17.52-7.12,26.75-9.12
		c33.03-7.54,66.94-10.52,100.79-9.86c8.91,0.27,17.98-0.26,26.78,1.41c-12.18-0.89-24.62,1.05-36.88,1.45
		c-23.55,2.03-47,4.95-70.31,8.88c-13.75,3.34-28.68,3.68-41.57,9.66c3.45,1.37,7.13,1.36,10.8,1.36c1.59,0,3.19,0,4.77,0.11
		c10.11,0.31,20.22,0.61,30.34,0.7c-4.21,0.43-8.65,0.82-12.95,1.16l0.09-0.01c-9.69,0.49-19.04,1.85-28.58,1.85
		C197.12,363.21,196.23,363.2,195.33,363.17z"/>
	<path class="st1" d="M227.18,390.47c-5.5-0.01-11-0.32-16.4-1.39c-5.17-0.59-9.8-2.84-10.39-8.52c-1.07-4.2,19.25-8.98,22.88-9.84
		c30.46-7.06,61.9-7.14,93-7.62c-8.3,1.07-17.56,2.05-27.13,3.06c-14.34,1.52-29.38,3.13-42.95,5.29
		c-14.24,2.49-28.43,3.85-41.58,9.74c0.32,6.63,24.88,8.23,30.65,9.39c-0.16,0-0.32,0-0.49,0
		C232.31,390.59,229.68,390.49,227.18,390.47z"/>
	<path class="st1" d="M248.57,412.3c-11.31,0.04-43.99,0.08-35.71-6.94c15.92-4.24,32.16-7.23,48.48-9.49
		c19.12-1.89,38.38-5.6,57.64-4.22c-2.1-0.04-4.41,0.02-6.56,0.2c-30.54,3.55-60.84,9.27-90.94,15.49
		c10.07,2.26,20.43,3.57,30.57,4.97C251.55,412.29,250.31,412.29,248.57,412.3z"/>
	<path class="st1" d="M280.23,437.74l0.1,0c-9.71-0.55-19.54-1.01-29.02-3.29c-20.28-6.82-2.19-10.86,8.04-12.21
		c21.25-3.43,42.87-5.09,64.29-5.82c-24.32,4.64-48.83,8.21-73.16,12.71c13.1,4.78,27.18,6.21,40.74,9.24
		C287.65,438.23,283.87,437.92,280.23,437.74z"/>
</g>
</svg>
