<?xml version="1.0" encoding="utf-8"?>
<!-- Generator: Adobe Adobe Illustrator 24.2.0, SVG Export Plug-In . SVG Version: 6.00 Build 0)  -->
<svg version="1.1" xmlns="http://www.w3.org/2000/svg" xmlns:xlink="http://www.w3.org/1999/xlink" x="0px" y="0px"
	 viewBox="0 0 500 500" style="enable-background:new 0 0 500 500;" xml:space="preserve">
<style type="text/css">
	.st0{fill:#000B25;}
	.st1{fill:#3A9E31;}
	.st2{fill:#F20519;}
	.st3{fill:#FFFFFF;}
</style>
<g id="Vector_layer_3_">
	<path class="st0" d="M506.39-6.39v512.79H-6.39V-6.39H506.39z"/>
</g>
<g id="Vector_layer_2_">
	<path class="st1" d="M306.83,73.13c6.23-0.9,13.32-1.15,18.34-5.37c3.59-3.77-4.54-5.13-7.08-6.1c-7.88-1.98-15.98-2.94-23.96-4.39
		c-27.85-4.62-55.93-8.21-84.13-9.63c-16.19-0.94-32.48-0.77-48.62,0.87c-11.83,1.02-24.23,2.5-34.22,9.33
		c9.88-7.62,22.59-9.27,34.59-10.96c21.64-3.12,43.61-3.54,65.42-2.39c19.38,0.88,38.73,2.99,57.82,6.52
		c6.68,1.23,13.33,2.56,19.98,3.95c6,1.38,12.16,2.41,17.83,4.89c4.52,1.6,9.67,5.76,4.29,9.94c-4.86,3.29-11.08,3.35-16.74,3.75
		c-3.76,0.18-7.65,0.3-11.36,0.4C301.61,73.71,304.2,73.43,306.83,73.13z"/>
	<path class="st1" d="M298.17,108.33c2.23-0.01,6.3,0.24,11.05,0.48c11.59,0.6,27.26,1.21,30.23-1.89
		c-5.22-2.17-10.83-3.23-16.36-4.29c-7.42-1.42-14.83-2.88-22.27-4.2c-24.91-4.55-50.01-8.08-75.22-10.45
		c-26.68-2.25-53.48-3.72-80.27-3.38c-7.73,0.19-15.46,0.57-23.13,1.54c-1.81,0.12-3.71,0.82-5.5,0.54
		c-0.04-0.02-0.06-0.07-0.07-0.11c0-0.02,0.03-0.01,0.03,0.01c1.63,0.45,3.74-0.5,5.56-0.67c3.48-0.57,6.96-1.06,10.46-1.52
		c9.93-1.35,19.92-2.12,29.91-2.77c27.63-1.04,55.28,0.41,82.78,3.05c26.34,3.08,52.45,7.9,78.23,14.1
		c4.29,0.95,8.54,2.06,12.71,3.46c2.07,0.85,4.49,1.39,6.12,3.01c0.58,0.87,1.69,2.24,0.67,3.18c-2.04,2.23-5.06,2.72-7.96,2.8
		c-0.66,0.01-1.33,0.02-1.99,0.02C321.46,111.26,309.74,109.26,298.17,108.33z"/>
	<path class="st1" d="M316.09,236.03c-5.33-4.87-24.69-5.89-32.57-7.01c-17.82-1.73-35.68-2.9-53.58-3.52
		c-26.41-0.73-53.03-0.3-79.24,3.39c2.77-0.5,5.79-0.91,8.66-1.32c40.05-4.53,80.58-6.06,120.76-2.41
		c9.62,1.15,31.59,2.47,38.42,8.76c3.72,4.03-1.24,8.91-5.02,10.61c-9.6,4.72-20.57,4.83-30.95,6.45
		C289.96,249.31,316.75,246.02,316.09,236.03z"/>
	<path class="st1" d="M270.54,271.4c0.27-0.04,0.6-0.02,0.94,0c0.24,0.01,0.48,0.02,0.71,0.02c1.59-0.04,3.84,0,6.47,0.05
		c11.31,0.19,29.62,0.38,32.86-6.15c-3.87-2.16-8.46-2.52-12.72-3.5c-7.7-1.41-15.45-2.46-23.19-3.6
		c-14.87-1.75-29.77-3.29-44.73-3.89c-21.23-1.31-42.5-0.71-63.63,1.7c25.06-4.61,50.83-5.66,76.34-4.88
		c13.97,0.41,27.94,1.29,41.79,3.23c9.05,1.36,18.33,2.62,26.92,5.87c3.22,1.09,6.59,4.7,4.17,8.06c-2.39,3.24-6.7,4.34-10.49,4.82
		c-2.44,0.25-4.89,0.36-7.33,0.36C289.27,273.49,279.9,271.95,270.54,271.4z"/>
	<path class="st1" d="M280.11,294.68c7.42-0.45,25.11,0.69,30.52-3.75c-9.19-3.41-19.1-4.36-28.73-5.91
		c-11.61-1.54-23.23-3-34.86-4.38c-27.68-3.01-55.4-5.78-83.29-5c-0.09,0-0.13-0.12-0.03-0.13c1.88-0.16,3.74-0.53,5.61-0.82
		c-1.19,0.28-2.69,0.49-3.97,0.72c26.91-1.32,53.89-1.54,80.76,0.68c12.59,1.19,25.15,2.79,37.63,4.84
		c9.19,1.61,18.44,3.28,27.19,6.62c4.08,1.38,5.02,5.06,0.59,6.77c-2.1,0.73-4.33,1.06-6.54,1.23c-1.66,0.1-3.32,0.15-4.99,0.15
		C293.35,295.7,286.67,295.01,280.11,294.68z"/>
	<path class="st1" d="M279.89,324.38c11.42-0.45,26.52,0.87,36.84-4.48c0.38-0.29,1.41-1.2,0.81-1.79
		c-6.1-4.09-13.94-4.46-21.14-6.12c-10.68-1.86-21.42-3.32-32.16-4.85c-25.43-3.46-51.02-6.5-76.72-6.1
		c-1.5-0.02-3.01,0.11-4.51,0.23c-2.14,0.17-4.27,0.35-6.38,0.14c-0.01,0-0.02-0.01-0.02-0.02c0.08-0.21,0.03-0.15,0.12-0.24
		c0.05-0.01-0.01,0.04-0.02,0.05c-0.02,0.06-0.04,0.12-0.06,0.18c27.95-2.82,56.3-2.17,84.27,0.66c18.05,2,36.38,4.02,53.67,9.77
		c4.42,1.47,11.66,6.13,6.01,10.73c-3.44,2.32-7.79,2.8-11.84,3.16c-1.74,0.11-3.48,0.16-5.22,0.16
		C295.66,325.86,287.77,324.89,279.89,324.38z"/>
	<path class="st1" d="M242.89,400.15c12.6,0.22,25.2,0.16,37.8,0.15c5.09,0,10.17-0.03,15.25-0.05c5.52-0.22,11.24,0.1,16.55-1.59
		c-13.46-6.07-28.36-7.7-42.69-10.73c-17.28-2.94-34.66-5.39-52.12-6.96c-8.09-0.07-35.19-3.02-40.23,2.22
		c0.01,0.09,0.02,0.18,0.03,0.28c0.11,0.09,0.24,0.1,0.37,0.1c0.01,0,0.02,0.02,0,0.02c-0.29,0.01-0.52-0.04-0.48-0.42
		c3-4.06,17.94-4.05,23.25-4.51c23.28-1.02,46.63,0.54,69.68,3.79c14.92,2.63,30.27,4.3,44.26,10.44c4.4,1.55,8.92,6.47,3.88,10.2
		c-2.8,1.68-6.16,1.94-9.36,2.05C286.98,404.6,264.92,401.25,242.89,400.15z"/>
	<path class="st1" d="M222.09,422.63c-0.01,0-0.02-0.02,0-0.02c10.52,0.17,21.05,0.3,31.57,0.12c7.45-0.34,15.26,0.2,22.41-2.18
		c-11-3.86-23.05-5.39-34.67-7.18c0.13,0.02,0.17,0.03,0.34,0.05c-10.82-1.53-22.32-3.34-33.37-4c-11.47-0.84-23.1-1.05-34.51-1.67
		c13.3-0.27,26.61-0.7,39.91-0.36c14.89,0.68,29.78,1.96,44.51,4.27c7.34,1.38,14.94,2.68,21.75,5.81c2.16,1.09,3.13,3.89,1.36,5.79
		c-2.2,2.05-5.45,2.37-8.33,2.68c-2.41,0.14-4.81,0.2-7.22,0.2C251.23,426.13,236.64,423.83,222.09,422.63z"/>
	<path class="st1" d="M292.49,133.28c0.55-0.02,1.18,0,1.81,0.02c0.45,0.01,0.91,0.03,1.34,0.03c1.89-0.04,4.7-0.01,7.99,0.03
		c12.71,0.13,32.85,0.26,37.55-3.74c-37.88-8.7-76.7-12.96-115.35-16.68c-15.63-1.27-31.28-2.34-46.95-2.98
		c-7.38-0.23-14.79-0.73-22.16-0.09c-0.77,0.12-1.57,0.19-2.22,0.73c3.87,1.54,8.55,1.46,12.67,2.21
		c-2.01-0.28-14.05-0.09-13.79-2.43c0.86-3.14,17.59-2.98,27.96-2.81c3.29,0.05,5.93,0.11,7.23,0.05
		c44.59,1.19,89.23,5.08,132.98,13.99c5.68,1.18,11.32,2.53,16.96,3.92c2.3,0.45,4.6,1,6.31,2.71c0.56,0.45,0.96,1.29,0.55,1.97
		c-0.22,0.38-0.42,0.77-0.64,1.15c-1.77,2.42-5.18,2.67-7.93,3.18c-3.53,0.31-7.05,0.43-10.58,0.43
		C314.98,134.95,303.71,133.71,292.49,133.28z"/>
	<path class="st1" d="M306.02,152.76c11.55,1.27,23.3,3.78,34.88,1.7c-8.21-2.48-16.64-4.2-25.09-5.68
		c-14.09-2.64-28.23-5.04-42.4-7.24c-31.99-4.75-64.19-8.33-96.55-9.11c-7.18-0.12-14.49,0.05-21.64,1.28
		c8.11-1.82,16.67-2.14,25.02-2.16c32.35-0.22,64.71,2.08,96.77,6.35c22.04,3.34,44.27,6.78,65.49,13.75
		c1.33,0.39,2.48,1.18,3.08,2.45c0.39,0.64,0.17,1.4-0.42,1.8c-1.26,1.11-2.91,1.54-4.57,1.61c-0.88,0.04-1.75,0.06-2.63,0.06
		C327.17,157.57,316.53,154.64,306.02,152.76z"/>
	<path class="st2" d="M300.72,382.42c0.04,0,0.09,0.01,0.13,0.01l0.01,0.01C300.81,382.43,300.76,382.42,300.72,382.42z"/>
	<path class="st3" d="M246.43,177.59c-7.38-2.79-15.59-2.67-23.38-3.39c-8.69-0.52-17.41-0.81-26.11-0.79
		c-10.25,0.32-20.73,0.38-30.68,2.91c-1.88,0.54-3.66,1.5-5.34,2.31c4.59-3.38,10.26-4.56,15.76-5.55
		c7.3-1.27,14.67-2.07,22.07-2.43c13.17-0.45,26.43,0.19,39.38,2.7c2,0.69,11.61,2.02,9.68,5.14c-0.53,0.71-1.4,1.01-2.23,1.22
		c-3.54,0.83-7.38,0.63-10.94,0.75C237.44,180.02,245.02,180.04,246.43,177.59z"/>
	<path class="st3" d="M332.92,189.7c-6.28-0.36-12.62-0.45-18.82-0.59c6.43-0.32,12.86-0.61,19.28-0.99
		c1.46-0.22,3.17-0.18,4.39-1.08c-11.95-4.85-25.09-6.02-37.78-7.93c-11.38-1.46-22.84-2.93-34.34-2.73
		c-2.89,0.14-6.02,0.2-8.61,1.44c4.32-2.09,9.36-1.7,14.03-2.15c4.5-0.14,8.99-0.16,13.47-0.05c13.29,0.27,26.64,1.02,39.73,3.4
		c3.7,0.85,7.42,1.72,10.93,3.2c1.88,0.85,4.04,1.47,5.41,3.09c1.98,3.7-2.83,4.46-6.05,4.46
		C333.93,189.77,333.36,189.74,332.92,189.7z"/>
	<path class="st1" d="M288.68,343.15c3.71-0.19,7.41-0.48,11.12-0.69c3.52-0.37,7.26-0.25,10.47-2.14c0.05-0.03,0.4-0.3,0.47-0.45
		c0-0.02,0-0.05,0-0.07c-0.01-0.04-0.01-0.08-0.02-0.12c-7.06-2.51-14.66-3.04-21.95-4.31c-11.47-1.85-23.16-3.04-34.75-4.43
		c-11.45-1.36-22.93-2.59-34.44-2.87c-7.41-0.23-14.82-0.33-22.23-0.34c-1-0.02-2.64,0.22-3.26-0.45c0.59,0.49,1.41,0.39,2.11,0.42
		c7.03-0.22,14.08-0.29,21.11-0.49c11.64-0.43,23.29-0.17,34.93,0.55c12.68,0.78,25.35,2.02,37.92,4.33
		c6.96,1.36,14.07,2.28,20.78,4.92c1.39,0.43,2.6,1.6,2.46,3.38c-0.03,0.96-0.95,1.7-1.63,2.03c-1.18,0.57-2.44,0.98-3.72,1.14
		c-0.72,0.06-1.43,0.1-2.15,0.13C300.17,343.93,294.36,343.32,288.68,343.15z"/>
	<path class="st2" d="M301.26,361.65c7.18,0.08,17.29,1.69,23.58-2.58c0.66-0.48,0.76-1.61,0.04-2.16c-3.88-2.99-8.62-4.2-13.1-5.48
		c-7.24-1.63-14.47-3.28-21.72-4.88c-24.89-5.02-50.01-8.43-75.21-9.95c-11.25-0.76-22.66-0.85-33.81-2.47
		c12.97,0.82,25.94-0.04,38.92,0.07c20.02,0.33,40.07,1.79,59.86,5.66c8.5,1.56,16.94,3.58,25.33,5.83
		c5.89,1.56,11.87,3.04,17.36,6.03c2.28,1.44,5.74,2.87,6,6.29c-0.13,3.46-3.71,4.44-6.18,4.85c-1.14,0.17-2.29,0.27-3.44,0.32
		C313.01,363.42,307.07,362.22,301.26,361.65z"/>
	<path class="st2" d="M291.42,378.17L291.42,378.17c5.86,0.24,11.66,0.63,17.52-0.23c2.05-0.42,4.32-0.82,6-2.35
		c1.17-1.07,1.08-2.27-0.42-2.69c-6.97-2.65-14.13-4.22-21.38-5.44c-23.89-3.54-47.71-7.79-71.65-10.81
		c-7.21-0.96-14.38-1.81-21.61-2.55c-5.99-0.5-12.09-1.59-18.05-0.51c0,0,0,0,0,0c-0.25,0.09-0.51,0.17-0.74,0.33
		c2.03-1.67,13.55-0.79,16.24-0.7c12.6,0.66,25.19,1.48,37.78,2.48c22.3,1.93,44.69,3.96,66.72,8.68c3.86,1.1,7.73,2.22,11.5,3.71
		c2.01,0.83,4.22,1.53,5.66,3.46c2.37,3.27-0.53,6.9-3.42,7.7c-1.88,0.53-3.78,0.79-5.7,0.87
		C303.74,380.35,297.46,378.73,291.42,378.17z"/>
	<path class="st2" d="M180.77,354.25c0.09-0.14,0.2-0.25,0.33-0.34c-0.18,0.15-0.29,0.32-0.3,0.51
		C180.79,354.37,180.78,354.31,180.77,354.25z"/>
</g>
</svg>
