<?xml version="1.0" encoding="utf-8"?>
<!-- Generator: Adobe Adobe Illustrator 24.2.0, SVG Export Plug-In . SVG Version: 6.00 Build 0)  -->
<svg version="1.1" xmlns="http://www.w3.org/2000/svg" xmlns:xlink="http://www.w3.org/1999/xlink" x="0px" y="0px"
	 viewBox="0 0 500 500" style="enable-background:new 0 0 500 500;" xml:space="preserve">
<style type="text/css">
	.st0{fill:#000B25;}
	.st1{fill:#3A9E31;}
	.st2{fill:#FFFFFF;}
	.st3{fill:#F20519;}
</style>
<g id="Vector_layer_3_">
	<path class="st0" d="M-6.39-6.39v512.79h512.79V-6.39H-6.39z"/>
</g>
<g id="Vector_layer_2_">
	<path class="st1" d="M338.66,104.43c2.24-0.17,4.81-0.23,6.49-2.29c1.42-2.09,0.31-4.27-1.37-5.46
		c-19.69-12.91-42.02-17.96-63.79-22.7c-31.84-6.09-64.26-9.45-96.45-6.4c-4.33,0.59-8.72,0.81-12.96,2.06
		c-3.77,1.72-0.09,2.47,1.81,2.67c1.25,0.19,2.66,0.43,3.86,0.54c-2.14-0.64-4.45-0.81-6.48-1.8c1.23-0.96,3.02-0.69,4.36-0.91
		c2.55-0.15,5.11-0.09,7.66-0.11c7.43,0.07,14.85,0.53,22.26,0.93c18.32,0.9,36.62,2.47,54.82,5.33c14.2,2.45,27.44,5.3,41.33,8.74
		c14.23,3.62,28.73,7.22,41.94,14.84c-0.07-0.07-0.12-0.12-0.19-0.18c0.15,0.13,0.28,0.27,0.41,0.42c0,0,0,0.01,0,0.01
		c-3.38,4.24-18.96,1.77-24.06,1.51C324.98,102.77,331.83,104.61,338.66,104.43z"/>
	<path class="st1" d="M330.06,121.23c2.62-0.08,6.86-1.24,6.23-5.44c-0.48-3.73-14.82-9.31-18.03-10.41
		c-15.33-5.11-31.03-8.13-46.77-10.56c-24-3.31-48.16-5.17-72.3-3.34c-4.4,0.31-8.79,0.66-13.18,1.17
		c-3.7,0.65-7.66,0.54-11.15,2.32c0.2,0.26,0.79,0,1.1-0.03c-0.21-0.05-0.75,0.16-1.02,0.05c3.25-1.44,6.87-1.23,10.28-1.56
		c6.26-0.33,12.55-0.26,18.82-0.01c14.24,0.37,28.45,1.76,42.64,3.32c19.15,2.42,38.26,5.75,57.06,10.93
		c8.01,2.38,16.25,4.07,23.79,8.25c-14.03,1.41-27.98-0.69-41.96-1.73c-0.01,0-0.02,0.02,0,0.02c8.81,1.65,17.58,3.71,26.39,5.33
		C317.94,120.64,323.99,121.79,330.06,121.23z"/>
	<path class="st1" d="M335.81,146.45c3.18-0.32,7.81-0.12,8.83-4.75c0.35-1.04-0.26-2.17-0.92-2.75c-3.14-2.88-7.06-4.03-10.71-5.6
		c-6.8-2.66-13.66-5.08-20.59-7.21c-19.03-5.37-38.32-9.22-57.68-12.25c-17.55-2.29-35.18-3.35-52.84-3.01
		c-10.22,0.33-23.12,0.03-31.84,2.25c9.77-1.81,20.07-0.39,29.86-0.12c19.56,1.32,39.05,3.87,58.38,7.78
		c26.64,5.64,53.58,10.42,79.43,20.4c-6.22,1.31-12.59,0.66-18.87,0.75c-9.88-0.05-19.89,0.19-29.7,0.21
		c10.32,0.79,20.62,1.79,30.9,3.02C325.29,145.78,330.55,146.56,335.81,146.45z"/>
	<path class="st1" d="M337.8,169.55c2.24-0.06,5.64-1.11,5.02-4.68c-0.61-3.37-13.79-8.73-16.84-10.06
		c-12.73-4.97-25.77-8.54-38.87-11.64c-23.09-4.99-46.57-6.93-70-6.95c-11.6-0.13-23.19,0.32-34.72,1.93
		c-5.34,0.96-11.46,0.77-16.27,3.71c0.01,0.02,0.05,0,0.02-0.01c0-0.01,0-0.01,0-0.02c5.87-3.05,12.66-2.5,18.94-3.29
		c12.5-0.78,25.01,0.19,37.5,1.11c26.41,2.39,52.68,6.71,78.62,13.27c12.19,3.4,24.81,6.35,36.25,12.5
		c-5.48,1.11-11.04-0.34-16.5-1.03c-7.78-1.16-15.55-2.46-23.3-3.94c-0.01,0-0.02,0.02,0,0.02c8.6,2.11,17.14,4.57,25.72,6.79
		C328.12,168.46,332.92,169.95,337.8,169.55z"/>
	<path class="st1" d="M340.26,193.15c19.14-9.74-45.17-25.94-49.84-26.61c-24.11-5.82-48.64-7.9-73.17-7.34
		c-17.28,0.21-34.6,0.63-51.81,2.46c13.53-1.27,31.08-0.51,45.86,0.2c20.83,1.27,41.55,3.91,62.14,7.86
		c13.95,2.92,27.93,5.71,41.69,9.81c7.79,2.38,16.01,4.43,23.04,9.17c-3.07,0.68-6.19,0.62-9.3,0.42
		c-14.07-1.39-28.15-2.65-42.2-4.21c-0.01,0-0.02,0.02,0,0.02c11.26,1.9,22.48,4.11,33.69,6.38
		C326.93,192.49,333.61,194.57,340.26,193.15z"/>
	<path class="st1" d="M335.08,215.41c1.31-0.09,2.55-0.66,3.42-1.89c2.39-3.63-10.83-7.69-12.8-8.55
		c-15.03-5.47-30.27-10.1-45.69-13.58c-11.73-2.83-23.69-4.08-35.6-5.09c-18.34-1.45-36.74-2.24-55.11-1.25
		c-5.82,0.42-11.63,1.29-17.46,1.28c-0.22-0.01-0.43-0.01-0.65-0.02c-0.23,0-0.22,0.34-0.01,0.38c2.77,0.53,5.59,0.66,8.38,0.93
		c11.28,1.11,22.6,1.23,33.89,1.99c16.67,1.02,33.34,2.5,49.93,4.66c13.77,1.94,27.38,5.16,40.96,8.55
		c10.2,2.98,20.85,5.03,30.6,9.6c-12.16,0.88-24.32-1.82-36.43-3.08C310.61,211.4,322.78,215.33,335.08,215.41z"/>
	<path class="st1" d="M338.25,268c2.92-0.06,10.3-1.47,7.66-6.62c-0.65-1.1-1.73-1.59-2.69-2.14c-2.25-1.31-4.63-2.28-7-3.17
		c-20.11-7.99-40.67-14.14-61.57-18.07c-25.86-4.96-52.12-6.93-78.26-5.03c-6.45,0.75-24.7,0.93-28.36,6.97
		c4.36-5.85,22.3-4.28,28.91-4.5c26.18,0.55,52.2,4.49,78.08,9.12c13.46,2.58,26.87,5.55,40.14,9.3c9.16,3.08,18.66,5.02,27.51,9.3
		c-8.59,5.16-28.79,0.23-38.61-0.95C315.39,264.53,326.69,268.5,338.25,268z"/>
	<path class="st1" d="M342.72,289.12c1.87,0,3.17-2.29,1.56-4.3c-0.71-0.79-1.59-1.05-2.5-1.23c-3.34-0.91-6.66-2-10.01-2.86
		c-13.84-4.12-27.74-7.91-41.77-10.95c-25.64-5.4-51.54-9.3-77.57-9.9c-7.9-0.16-15.81-0.13-23.7,0.38
		c-3.46,0.51-7.09,0.27-10.39,1.73c-0.41,0.25-0.87,0.49-1.07,1.03c0.02,0.04,0.03,0.01,0.02-0.02c0,0,0,0,0,0
		c2.61-3.04,16.17-1.48,20.33-1.6c10.67,0.66,21.18,1.7,31.75,3.3c29.17,4.52,58.17,10.97,86.97,17.69
		c-7.31-0.67-14.63-1.26-21.94-2.02c11.05,2.02,22.28,4.16,33.33,6.64C332.69,288.02,337.66,289.48,342.72,289.12z"/>
	<path class="st1" d="M336.52,320.54c3.25-0.67,7.85-1.26,9.18-5.55c0.64-3.27-1.81-5.52-4.1-6.3
		c-25.62-9.74-52.27-15.12-78.81-19.58c-20.87-2.92-41.89-3.79-62.89-3.35c-5.18,0.09-10.37,0.15-15.55,0.61
		c-0.02-0.06-3.25,0.37-2.71,1c-0.01-0.03-0.03-0.09-0.03-0.14c3.11-1.26,6.77-0.09,10.04-0.12c13.88,1.36,27.75,2.93,41.58,4.87
		c35.65,4.59,71.17,11.63,106.01,21.98c-5.24,2.76-11.55,2.15-17.05,2.78c-10.64,0.33-21.29,0.33-31.92-0.46
		C305.5,318.67,321.06,321.78,336.52,320.54z"/>
	<path class="st1" d="M327.3,379.59c4.02-0.31,10.71-3.86,5.86-9.27c-7.09-5.39-15.51-7.54-23.4-10.58
		c-16.45-5.5-33.14-9.84-49.93-13.48c-12.9-2.45-31.2-4.71-46.05-5.09c-8.01-0.12-16.25-0.79-24.11,1.51
		c-0.53,0.15-1.64,0.6-1.38,1.56c0.62,0.67,1.65,0.5,2.44,0.47c-0.68-0.09-1.61,0.01-2.23-0.53c1.18-3.57,18.13-1.01,21.54-0.86
		c10.24,1.35,20.43,3.22,30.62,5.07c-0.11-0.03-0.25-0.06-0.36-0.08c18.41,3.93,36.77,8.18,55.02,13.07
		c6.27,1.83,12.6,3.42,18.82,5.53c2.61,0.87,5.24,1.68,7.49,2.52c2.86,1.3,6.3,2.01,8.65,4.38c-1.54,1.4-3.48,1.74-5.32,2.15
		c-5.95,1.16-12,0.98-18.01,0.88c-7.56-0.11-15.12-0.44-22.68-0.88c-0.01,0-0.01,0.02,0,0.02c6.82,0.86,13.62,1.85,20.45,2.65
		C312.21,379.47,319.77,380.7,327.3,379.59z"/>
	<path class="st1" d="M328.38,407.7c1.39-0.12,2.89-0.15,4.19-0.8c2.01-0.96,2.3-4.24,0.2-5.42c-9.58-5.95-20.25-8.53-30.6-11.69
		c-11.07-3.23-22.24-5.95-33.42-8.47c-14.88-2.96-29.84-5.15-44.87-6.44c-6.08-0.35-12.19-0.93-18.28-0.51
		c-1.97,0.23-4.07,0.35-5.88,1.39c-0.25,0.23-0.23,0.12-0.28,0.29c-0.01,0.03,0.05,0.02,0.02,0c0-0.01,0.01-0.02,0.01-0.03
		c0,0,0,0,0,0c0,0,0,0,0,0c0,0,0,0,0,0c0,0,0,0,0,0c3.6-2.01,7.86-1.24,11.71-1.13c5.41,0.52,10.81,1.27,16.17,2.31
		c13.47,2.4,26.81,5.73,40.17,8.88c12.84,3.26,25.71,6.35,38.53,9.69c8.41,2.23,17.03,4.11,24.94,8.37c0,0.01-0.01,0.03-0.01,0.04
		c-5.89,1.97-12.2,0.93-18.24,0.74c-3.39-0.2-6.91-0.5-10.24-0.67C311.1,405.52,319.68,407.91,328.38,407.7z"/>
	<path class="st1" d="M312.93,432c2.88-0.16,6.72-2.64,5.74-6.83c-3.73-8.95-31.42-15.85-39.87-18.24
		c-14.48-3.46-29.22-5.87-43.99-5.78c-4.46-0.05-9.13,0.04-13.38,1.56c2.49-0.4,5.15-0.49,7.61-0.28c16,1.43,31.77,5.37,47.46,9.39
		c12.16,3.27,24.51,5.96,36.15,11.56c2.11,0.88,4.78,3.22,1.86,5.39c-5.56,2.87-11.89,1.37-17.76,1.41
		C302.02,431.25,307.51,432.62,312.93,432z"/>
	<path class="st1" d="M287.67,446.27c4.46-0.44,13.61-0.79,15.38-6.76c0.34-1.35-0.41-2.6-1.26-3.35c-4.14-3.03-9.21-3.49-13.8-4.98
		c-4.26-1.1-8.54-2.07-12.83-2.98c-7.44-1.58-14.94-2.68-22.45-3.57c-5.74-0.37-13.58-1.54-18.22-0.48
		c-0.01-0.01-0.02-0.02-0.02-0.03c10.78-0.55,21.47,2.7,32.01,5.12c10.74,3.16,21.87,5.03,32.28,9.6
		c-5.52,6.06-26.41,5.91-34.6,7.21C271.92,446.09,279.86,446.49,287.67,446.27z"/>
	<path class="st1" d="M254.11,459.26c3.33-0.26,11-0.65,10.59-6.42c-1.19-3.52-7.15-2.9-9.84-3.57
		c-14.33-1.85-28.73-2.79-43.13-1.77c-3.05,0.23-6.08,0.5-9.12,0.86c6.89-0.27,13.96-0.24,20.9,0.22c7.27,0.39,14.5,1.3,21.72,2.38
		c5.26,0.89,10.63,1.22,15.8,2.68c-0.02,0.03-0.04,0.06-0.06,0.09c0,0,0.02,0.01,0.02,0.01c-5.93,4.82-27.34,2.57-35.47,2.74
		C234.95,457.6,244.56,459.47,254.11,459.26z"/>
	<path class="st1" d="M296.85,70.85c6.22-0.66,20-0.07,23.82-6.36c0.65-1.78-0.1-4.17-1.52-5.01c-4.23-2.16-8.84-2.93-13.28-4.19
		c-7.99-2.04-16.02-3.81-24.14-4.89c-26.88-4.07-53.98-5.62-81.06-5.5c-5.4,0.05-10.84-0.25-16.2,0.49c-0.36,0.12-0.3,0.1-0.52,0.38
		c-0.01,0.01-0.01,0.02,0,0.03c0.12,0.12,0.22,0.15,0.37,0.19c0.01,0,0.02-0.01,0.01-0.02c-0.12-0.05-0.25-0.07-0.33-0.18
		c0.2-0.31,0.57-0.33,0.85-0.38c2.26-0.2,4.52-0.09,6.78-0.01c4.48,0.12,8.95,0.47,13.42,0.71c17.03,0.97,33.98,2.63,50.93,4.87
		c20.43,2.82,41.2,5.17,61.09,11.56c0,0.01,0.01,0.03,0.01,0.04c0.02,0.09,0.04,0.19,0.06,0.28c-0.01-0.1-0.02-0.17-0.03-0.26
		c-1.38,5.79-32.87,8.19-38.83,9.08C284.39,71.4,290.68,71.11,296.85,70.85z"/>
	<path class="st2" d="M308.07,230.37c4.31-0.64,9,0.32,13.05-1.88c1.13-0.7,1.45-2.77,0.24-3.6c-4.8-2.81-10.25-3.73-15.44-5.05
		c-12.77-2.53-25.81-2.8-38.65-3.62c1.15,0.65,3.3,0.64,4.81,0.9c4,0.51,7.99,1.14,11.98,1.86c11.91,2.3,24.05,3.61,35.67,7.64
		c-0.46,0.75-1.27,0.94-1.92,1.27C314.64,228.96,311.23,229.64,308.07,230.37z"/>
	<path class="st2" d="M239.32,219.87c3.9-0.51,8.13,0.03,11.8-1.8c0.47-0.34,0.6-0.97,0.68-1.6c-0.02-1.48-2.68-1.54-3.6-1.86
		c-14.14-3.19-28.48-4.6-42.82-5.42c-4.47-0.25-9.07-0.36-13.49-0.29c19.26,2.33,38.79,4.59,57.88,7.99
		c-3.59,1.68-7.45,2.22-11.21,3.01C238.75,219.94,239.08,219.86,239.32,219.87C239.33,219.86,239.32,219.86,239.32,219.87z"/>
	<path class="st3" d="M330.83,341.94c3.57-0.25,7.35-0.52,10.46-2.9c2.69-2.1,2.69-6.06-0.14-8.07c-4.1-2.78-8.41-3.6-12.76-5.32
		c-5.01-1.74-10.08-3.24-15.14-4.77c-14.04-3.58-28.12-7.05-42.3-9.71c-27.52-5.46-55.35-8.1-83.21-8.67
		c-1.56,0.12-10.12-0.65-8.79,0.78c2.37,0.55,4.94,0.89,7.28,1.27c-2.33-0.52-4.69-0.96-7.01-1.49c11.21,0.21,22.33,2.96,33.49,4.26
		c23.51,3.01,46.97,6.64,70.25,11.68c13.35,2.85,26.11,5.38,39.21,9.07c4.91,1.36,9.81,2.85,14.65,4.59
		c0.94,0.4,1.95,0.79,2.72,1.59l0.11,0.22c0.03,0.09,0.06,0.19,0.09,0.28l0.02-0.04c0.02,0.12,0.03,0.24,0.05,0.36
		c0,0.02,0,0.04,0,0.06c0,0,0.05-0.08,0.05-0.08c-3.09,7.24-29,5-35.77,5.09C312.91,340.95,321.92,342.37,330.83,341.94z"/>
	<path class="st3" d="M328.32,356.65c3.2-0.24,6.96-1.08,8.8-4.66c1.21-2.15,0.4-4.64-1.28-5.98c-4.26-3.18-9.29-4.49-14-6.35
		c-6-1.87-12-3.75-18.05-5.35c-18.51-5.06-37.21-9.08-56.02-12.01c-21.48-2.92-43.16-4.65-64.76-3.92c0-0.01-0.01-0.02-0.01-0.04
		c0-0.01,0-0.01,0-0.02c37.64,1.41,75.44,11.5,112.66,19.85c-0.05-0.01-0.09-0.02-0.14-0.03c-0.07-0.02-0.15-0.03-0.31-0.07
		c8.4,2.05,16.79,4.23,25.16,6.48c4.25,1.56,8.95,2.29,12.78,5.1c-0.15,0.54-0.46,1-0.8,1.37c0.06-0.06,0.11-0.12,0.17-0.17
		c0.03-0.04,0.06-0.08,0.09-0.12c-0.03,0.04-0.06,0.08-0.05,0.09c-6.23,6.07-34.05-0.13-43.07-1c3.16,0.73,6.51,1.41,9.68,2.14
		C308.82,353.9,318.48,356.94,328.32,356.65z"/>
</g>
</svg>
