<?xml version="1.0" encoding="utf-8"?>
<!-- Generator: Adobe Adobe Illustrator 24.2.0, SVG Export Plug-In . SVG Version: 6.00 Build 0)  -->
<svg version="1.1" xmlns="http://www.w3.org/2000/svg" xmlns:xlink="http://www.w3.org/1999/xlink" x="0px" y="0px"
	 viewBox="0 0 500 500" style="enable-background:new 0 0 500 500;" xml:space="preserve">
<style type="text/css">
	.st0{fill:#000B25;}
	.st1{fill:#3A9E31;}
	.st2{fill:#F20519;}
	.st3{fill:#FFFFFF;}
</style>
<g id="Vector_layer_3_">
	<path class="st0" d="M506.39-6.39v512.79H-6.39V-6.39H506.39z"/>
</g>
<g id="Vector_layer_2_">
	<path class="st1" d="M280.63,70.31c5-0.12,9.98-0.22,14.97-0.64c4.64-0.82,11.88-0.57,14.07-7.52c0.86-3.34-1.45-6.19-3.52-7.15
		c-7.55-5.12-15.97-6.96-24.16-9.01c-14.5-2.86-29.11-4.64-43.76-4.96c-11.04-0.38-22.13,0.18-33.02,2.95
		c-4.77,1.14-9.57,2.21-14.09,4.73c-1.51,0.85-3.09,1.89-4.2,3.61c-0.16,0.25-0.56,1.05-0.43,1.46c0.06,0.19,0.29,0.38,0.4,0.52
		c0.04-0.15-0.25-0.36-0.29-0.54c1.92-6.18,21.99-6.15,32.56-6.12c2.24,0.01,4.05,0.01,5.18-0.04c15.3,0.25,30.62,0.7,45.81,3.48
		c7.83,1.24,15.63,2.88,23.32,5.32c3.54,1.09,7.06,2.43,10.34,4.64c-1.07,1.21-2.45,1.77-3.75,2.29c-4.81,1.74-9.75,2.59-14.66,3.59
		c-7.98,1.45-16,2.61-24.02,3.5C267.74,70.38,274.24,70.42,280.63,70.31z"/>
	<path class="st1" d="M304.81,93.21c3.07-0.88,7.21-2.03,8.31-6.73c0.34-2.74-0.99-4.71-2.7-5.63c-5.3-3.65-11.12-5.61-16.92-7
		c-8.26-2.06-16.58-3.59-24.94-4.61c-17.64-2.17-35.44-2.56-53.06,0.21c-13.75,2.19-27.85,4.73-40.94,11.03
		c12.8-4.42,26.07-5.27,39.19-6.1c18.36-1,36.72,0.35,55.04,2.21c6.54,0.73,13.05,1.6,19.56,2.71c6.96,1.23,14.06,2.32,20.56,6.23
		c0.01,0.04,0.02,0.07,0.03,0.1c0-0.03-0.01-0.06-0.02-0.09c0,0,0,0,0,0c0.04,0.19,0.05,0.37-0.01,0.53
		c-4.66,7.25-25.2,6.15-32.53,6.79c-0.71,0.04-1.5,0-2.16,0.07c6.96,0.11,13.96,1.04,20.94,1.04
		C298.38,93.98,301.6,93.78,304.81,93.21z M308.87,86.16c0.01-0.01,0.01-0.02,0.02-0.04C308.88,86.14,308.88,86.15,308.87,86.16z
		 M308.97,85.98c-0.01,0.02-0.02,0.03-0.03,0.05C308.95,86.01,308.96,85.99,308.97,85.98C308.97,85.98,308.97,85.98,308.97,85.98z"
		/>
	<path class="st1" d="M288.8,117.39c3.84-1.24,8.04-2.19,11.05-6c2.55-3.12,1.84-8.14-1.33-9.82
		c-21.84-9.15-45.11-11.99-67.87-11.62c-17.91,0.84-50.54,4.96-60.23,13.23c9.6-5.12,20.3-4.63,30.42-6.13
		c17.88-1.29,35.78-0.8,53.64,0.78c14.11,1.66,28.39,3.02,42.24,7.14c2.75,0.91,1.34,4.91-0.33,6.3c-4.46,4.31-9.99,5.7-14.96,8.17
		C283.89,118.73,286.34,118.07,288.8,117.39z"/>
	<path class="st1" d="M312.31,133.73c-3.02-8.68-28.12-11.98-35.4-14.27c-33.14-7.34-67.05-3.82-99.87,5
		c-1.46,0.69-3.59,0.84-4.36,2.88c0.89-1.84,3.04-1.75,4.47-2.22c6.12-1.12,12.3-1.48,18.46-1.99c9.25-0.7,18.54-0.68,27.8-0.75
		c17.39-0.27,34.72,2.06,52.02,4.47c10.74,2.5,22.25,2.38,32.39,8.15c-4.3,9.01-15.86,9.4-22.85,11.45
		C292.15,145.29,311.6,147.31,312.31,133.73z"/>
	<path class="st1" d="M310.77,163.93c4.4,0.34,12.08-5.63,4.75-10.05c-21.14-7.99-43.29-10.79-65.14-12.31
		c-22.11-0.65-44.32,1.2-65.95,7.93c-3.48,1.15-7.28,2.29-10.06,5.49c2.81-2.47,6.29-3.15,9.45-3.8c22.1-3.99,44.44-3.41,66.64-1.9
		c21.23,2.26,42.77,3.41,63.68,9.17c-0.07,0.09-0.13,0.17-0.2,0.25c-0.2,0.2-0.41,0.37-0.42,0.36c-6.7,3.8-14.23,3.09-21.28,3.79
		c5.11,0.34,10.21,1.2,15.32,1.2C308.64,164.05,309.7,164.01,310.77,163.93z"/>
	<path class="st1" d="M297.87,237.97c4.48-0.53,13.66-0.71,16.02-6.65c1.54-4.67-2.41-8.51-5.03-10.3
		c-5.73-3.62-12.02-5.23-18.17-6.77c-9.51-2.32-19.15-3.36-28.79-3.97c-11.53-0.89-23.09-0.57-34.63-0.14
		c-14.59,1.04-29.43,2.71-43.2,9.99c-1.63,0.93-3.32,2.04-4.68,3.48c7.28-5.49,15.81-6.71,23.92-7.84
		c10.23-1.19,20.55-0.61,30.8-0.03c10.98,0.58,21.96,1.32,32.91,2.6c8.5,1.13,16.97,2.56,25.41,4.34c4.2,1.11,8.44,2.03,12.5,3.93
		c1.25,0.66,2.57,1.36,3.45,2.81c-4.32,3.56-9.88,4.32-14.62,5.45c-7.89,1.41-15.82,2.27-23.76,3.05c-0.01,0-0.01,0.02,0,0.02
		c3.68-0.04,7.36,0.03,11.03,0.1c2.94,0.06,5.89,0.11,8.83,0.11C292.54,238.15,295.2,238.1,297.87,237.97z"/>
	<path class="st1" d="M308.95,256.53c-5.9-4.55-13.11-4.88-19.66-6.48c-7.39-1.37-14.8-2.77-22.23-3.62
		c-21.63-2.76-43.4-0.92-65.01,1.55c-9.04,1.74-18.84,1.11-27.11,7.07c2.09-1.3,4.34-2.23,6.63-2.6c25.67-2.93,51.6-1.67,77.29,0.77
		c15.66,2.23,30.86,2.63,46.23,6.76c-7.71,4.69-16.55,4.05-24.79,5.05c5.94,0.3,12.01,0.98,17.99,0.95
		c0.21,0.02,0.46,0.02,0.72,0.02C303.27,266,313.47,263.93,308.95,256.53z"/>
	<path class="st1" d="M295.83,293.33c3.99-0.55,8.12-1.43,11.68-4.15c1.34-1.03,2.39-2.55,2.62-4.73c0.14-3.91-3.21-5.19-5.32-6.25
		c-6.64-3-13.65-3.73-20.54-4.88c-12.25-1.93-24.54-3.22-36.85-3.69c-15.29-0.27-30.54,1.41-45.68,4.31
		c-6.32,1.25-12.76,2.14-18.91,4.66c-0.48,0.23-0.89,0.39-1.22,0.85c-0.01,0.43,0.48,0.06,0.63-0.04c-0.11,0.02-0.37,0.21-0.54,0.16
		c-0.01-0.04-0.01-0.08-0.02-0.12c3.4-1.91,7.25-1.83,10.88-2.33c4.38-0.5,8.78-0.58,13.17-0.85c11.92-0.37,23.84-0.21,35.74,0.57
		c11.52,0.55,23.05,1.28,34.55,2.4c9.66,1.23,19.82,0.56,29.16,4.31c2.55,0.97-0.8,3.61-1.82,4.46c-2.36,1.72-4.72,2.81-7.19,3.77
		c-2.47,0.93-5.05,1.77-7.5,2.58C291.06,294.01,293.45,293.65,295.83,293.33z"/>
	<path class="st1" d="M283.33,319.58c2.46-0.27,4.99-0.27,7.54-0.26c5.99,0.02,12.05,0.03,17.43-3.62c3.53-2.56,2.35-8.04-1.1-9.57
		c-5.26-2.36-10.81-3.18-16.23-4.59c-30.07-6.31-60.7-9.56-90.99-4.59c-2.89,0.46-8.68,2.07-9.55,3.92
		c3.94-3.06,9.04-2.43,13.35-2.87c9.15-0.19,18.29,0.31,27.41,1.02c11.91,1.14,23.78,3.11,35.63,5.16
		c12.62,2.36,25.43,3.43,37.86,7.35c-5.24,4.12-11.84,4.11-17.54,5.57c-5.77,1.12-11.55,2.12-17.35,3.01
		C274.25,319.91,278.83,319.73,283.33,319.58z"/>
	<path class="st1" d="M292.29,344.09c3.07-0.14,11.12-0.44,9.39-7.03c-2.6-3.43-6.6-3.49-9.9-4.82
		c-12.04-3.54-24.23-5.89-36.48-7.34c-18.55-1.63-37.23-2.16-55.72,0.73c-5.11,0.91-10.46,2.07-14.86,5.89
		c6.95-4.33,14.6-4.33,22.12-4.33c2.05,0,4.1,0,6.11-0.09c28.5,1.69,57.48,3.97,85.45,11.81c-6.26,4.5-13.97,3.52-20.85,4.53
		c4.33,0.18,8.77,0.66,13.15,0.66C291.24,344.12,291.76,344.11,292.29,344.09z"/>
	<path class="st1" d="M326.83,384.5c-21.09-10.52-43.71-15.2-65.77-20.35c-21.14-3.96-42.65-7.2-63.93-3.82
		c-2.6,0.54-9.47,2.14-4.43,6.47c-5.09-6.41,7.77-5.23,16.55-4.04c3.55,0.48,6.43,0.95,7.2,0.93
		c35.68,6.03,71.31,13.55,106.34,24.88c-4.8,2.57-10.17,2-15.23,2.65c-8.2,0.58-16.42,0.87-24.61,1.06
		c11.48,0.91,23.1,2.44,34.65,2.69c0.35,0.05,0.75,0.08,1.18,0.08C323.43,395.06,331.63,391.84,326.83,384.5z"/>
	<path class="st1" d="M298.66,414.93c3.09-0.14,6.46-0.69,8.93-3.58c3.34-4.64-0.94-9-4.27-9.84c-23.87-8.14-48.65-9.78-73.13-10.51
		c-8.95-0.16-17.91,0.06-26.85,0.97c-4.18,0.73-9.07,0.06-12.59,3.77c2.18-2.18,5.32-1.88,7.88-2.14c19.79-0.16,39.48,3,59.14,5.78
		c14.86,2.81,30,4.07,44.63,8.73c-9.52,4.65-20.18,3.25-30.05,3.95c8.44,1.01,16.86,2.87,25.35,2.87
		C298.02,414.94,298.34,414.93,298.66,414.93z"/>
	<path class="st1" d="M271.44,425.47c11.46-8.2-30.7-11.88-33.44-12.09c-14.31-0.45-28.86-1.9-43.05,1.29
		c6.38-0.36,13.11,0.73,19.42,1.52c18.57,3.03,37.38,2.92,55.87,6.81c0,0,0,0,0,0c-3.14,1.52-6.61,1.76-9.81,2.49
		c2.32,0.09,4.66,0.45,6.99,0.45C268.77,425.95,270.11,425.83,271.44,425.47z"/>
	<path class="st2" d="M312.65,353c-2.23-2.73-5.38-3.4-8.15-4.5c-14.92-5.09-30.07-8.8-45.34-11.07
		c-18.28-2.52-36.81-3.51-55.11-0.73c-3.76,0.85-7.94,1.79-10.68,5.7c6.12-5.68,15.36-4.93,23.61-4.19
		c2.82,0.25,5.54,0.51,7.96,0.51c19.44,1.84,38.8,5.38,58.06,9.35c8.92,2.6,18.57,2.85,27.1,7.25c-5.43,4.55-13.28,3.71-19.49,4.79
		c3.8,0.16,7.74,0.44,11.59,0.46c0.04,0,0.09,0,0.13,0C305.53,360.56,316.18,359.85,312.65,353z"/>
	<path class="st2" d="M303.6,370.55c2.85-0.44,5.88-0.94,8.15-3.61c1.7-1.74,1.43-5.58-0.34-7.07c-3.96-2.97-8.67-3.18-13-4.54
		c-10.52-2.64-21.15-4.36-31.79-5.84c-13.64-1.96-27.36-2.6-41.07-2.68c-1.5,0.02-3,0.02-4.5,0.02c-5,0-10,0-14.96,0.78
		c16.88,0.07,34.5,4.07,51.54,6.85c12.81,2.29,25.68,4,38.48,6.4c4.08,0.93,8.33,1.14,12.29,2.89c-3.77,4.97-19.93,5.65-25.68,6.58
		c4.78,0.12,9.63,0.53,14.46,0.53C299.32,370.86,301.46,370.78,303.6,370.55z"/>
	<path class="st3" d="M324.93,190.79c4.11-0.09,12.52-5.57,4.33-9.36c-21.25-7.77-43.21-10.63-64.86-12.5
		c-24.85-1.64-49.77-0.12-74.1,5.05c-3.33,0.8-6.64,1.97-9.7,3.89c4.63-2.2,9.67-2.73,14.6-3.2c28.73-2.24,57.71-1.01,86.61,1.88
		c10.22,1.08,20.43,2.55,30.63,4.37c5.76,1.18,11.8,1.53,17.34,4.34c-3.45,4.59-11.97,5.03-18.82,5.32
		c-2.33,0.1-4.47,0.19-6.15,0.42c5.59,0.05,11.34,0.64,16.98,0.17C322.84,191.09,323.89,190.96,324.93,190.79z"/>
	<path class="st3" d="M322.25,206.88c2.9-0.72,11.87-1.74,10.16-7.72c-2.69-4.66-17.65-5.97-22.4-7.44
		c-16.28-2.67-32.59-4.95-48.91-5.77c-23.33-0.96-53.02,1.06-72.64,5.05c32.57-1.54,65.44,0.22,98.15,3.46
		c14.33,1.85,28.99,1.74,43.12,6.13c-5.4,5.54-13.07,5.67-19.43,8.15C314.29,208.08,318.27,207.47,322.25,206.88z"/>
</g>
</svg>
