<?xml version="1.0" encoding="utf-8"?>
<!-- Generator: Adobe Adobe Illustrator 24.2.0, SVG Export Plug-In . SVG Version: 6.00 Build 0)  -->
<svg version="1.1" xmlns="http://www.w3.org/2000/svg" xmlns:xlink="http://www.w3.org/1999/xlink" x="0px" y="0px"
	 viewBox="0 0 500 500" style="enable-background:new 0 0 500 500;" xml:space="preserve">
<style type="text/css">
	.st0{fill:#000B25;}
	.st1{opacity:0.02;}
	.st2{fill:#3A9E31;}
	.st3{fill:#F20519;}
	.st4{fill:#FFFFFF;}
	.st5{opacity:0.01;}
</style>
<g id="Vector_layer_7_">
	<path class="st0" d="M-6.39-6.39v512.79h512.79V-6.39H-6.39z"/>
</g>
<g id="Vector_layer_6_" class="st1">
	<path class="st2" d="M212.41,82.08c-7.88-4.09-16.45-6.44-24.76-9.48c26.08-6.28,53.07-7.83,79.79-9.02
		c13.42,0.03,27.3-1.95,40.45,0.82c-6.66-2.69-13.91-3.05-20.95-4.03c-29.97-3.44-60.47-4.78-90.37-0.07
		c-7.52,1.44-25.05,3.61-22.33,14.53C177.12,82.21,204.46,80.37,212.41,82.08z"/>
	<path class="st2" d="M243.15,104.91c-19.48-4.29-39.75-7.11-57.68-16.26c35.17-7.96,71.72-9.2,107.68-8.69
		c4.27,0.32,8.65-0.13,12.82,0.87c-5.11-1.72-10.83-2.11-16.19-3.19c-33.78-5.13-68.9-8.13-102.52-0.57c-3.17,1-6.45,1.98-9.09,4.09
		c-4.29,3.19-5.3,10.23-0.26,13.24c9.44,4.67,20.24,5.95,30.6,7.27C219.98,103.16,231.67,104.29,243.15,104.91z"/>
	<path class="st2" d="M237.59,125.39c-17.37-3.33-35.47-6.16-50.82-15.37c7.81-5.76,21.28-5.2,30.75-7.06
		c15.82-1.8,31.67-3.45,47.59-3.98c11.58-0.56,23.3-0.26,34.8,0.02c-5.89-0.66-11.74-1.59-17.6-2.4
		c-17.83-2.1-35.87-3.05-53.81-2.07c-12.25,0.77-24.84,1.13-36.58,5c-5.59,1.54-16.23,8.52-9.23,14.41
		c4.06,2.62,8.93,3.21,13.49,4.49C209.7,122.12,223.78,123.79,237.59,125.39z"/>
	<path class="st2" d="M235.4,143.43c-13.94-3.09-28.5-4.83-41.53-10.9c6.79-4.77,15.8-4.84,23.72-6.47
		c17.24-2.82,34.63-4.4,52.09-4.93c6.24,0.11,13.02-0.76,18.83,1.57c-5.33-3.28-11.89-3.58-17.91-4.76
		c-23.25-2.92-47.35-2.77-69.98,3.83c-5.83,1.49-17.47,8.09-10.3,14.58c7.15,2.86,15.14,3.89,22.77,4.8
		C220.5,141.92,228.01,143.12,235.4,143.43z"/>
	<path class="st2" d="M236.92,170.22c-14.73-5.44-31.23-6.61-44.99-14.44c7.68-3.02,16.25-3.36,24.35-4.71
		c18.11-2.29,36.39-3.02,54.62-3.73c5.57-0.08,11.33-0.72,16.79-0.1c-5.06-1.58-10.52-1.74-15.75-2.53
		c-25.95-2.85-52.92-4.2-78.21,3.38c-8.08,1.89-12.04,9.94-2.25,13.18C206.25,165.7,222.02,166.64,236.92,170.22z"/>
	<path class="st2" d="M216.98,239.28c-11.23-3.37-23.38-4.09-34.17-8.62c4.99-7.92,63.16-7.2,75.14-7.58
		c9.95,0.41,20.35-0.39,30.06,1.37c-4.75-1.93-10.05-2.09-15.08-2.94c-27.15-3.64-55.15-4.67-82.05,1.3
		c-4.2,0.98-14.53,4.57-9.71,10.09C192.44,237.18,205.24,237.03,216.98,239.28z"/>
	<path class="st2" d="M208.27,257.27c-5.53-0.79-11.04-1.58-16.53-2.61c-4.17-0.8-8.63-1.35-12.42-3.31
		c-0.36-7.39,64.35-8.05,73.03-8.54c6.98,0.11,14.24-0.15,21.11,0.02c3.61,0.13,7.21,0.32,10.77,0.84c2.44,0.21,4.63,1.08,6.18,2.99
		c0.31,0.26,0.49,0.7,0.75,0.9c-1.31-2.69-3.65-4.65-6.59-5.22c-10.51-3.07-21.56-3.42-32.4-4.27c-16.93-0.64-33.87,0.3-50.58,3.18
		c-4.85,0.98-26.74,3.61-23.73,10.97c0.37,0.54,1.05,0.69,1.64,0.86c2.88,0.98,5.83,1.4,8.83,1.83
		C194.91,255.88,201.7,256.75,208.27,257.27z"/>
	<path class="st2" d="M224.92,276.46c-14.24-3-29.75-3.15-42.75-10.2c6.07-4.01,14.36-3.93,21.22-4.92
		c19.14-1.69,38.6-1.55,57.75-1.17c11.6,0.25,23.18,0.98,34.57,2.53c-8.52-1.82-17.08-3.5-25.75-4.47
		c-27.38-2.69-55.73-5.61-82.71,1.21c-4.01,0.82-12.98,5.67-6.96,9.8C194.21,275.24,210.11,274.99,224.92,276.46z"/>
	<path class="st2" d="M227.29,305.36c-7.03-1.93-14.09-3.8-21.17-5.55c-5.55-1.52-12.02-2.43-16.39-6.41
		c6.99-8.11,59.42-6.25,72.2-6.34c12.06,0.51,24.14,1.14,36.12,2.68c-4.05-0.97-8.38-1.7-12.55-2.43
		c-29.18-4.76-59.51-7.4-88.68-1.37c-4.34,0.78-14.44,5.17-8.5,10.26C200.18,302.34,214.49,302.31,227.29,305.36z"/>
	<path class="st2" d="M228.19,327.25c-11.38-1.28-23.29-1.11-34.23-4.66c10.61-5.34,23.29-3.1,34.8-4
		c19.65-0.31,39.54-1.19,59.03,1.64c1.75,0.29,3.61,0.7,5.29,0.96c-15.89-5.49-32.88-6.77-49.58-7.26
		c-13.94-0.14-28.12,0.02-41.83,2.73C170.54,327.14,220.41,327,228.19,327.25z"/>
	<path class="st2" d="M225.62,372.71c-5.65-2.23-11.93-3.56-16.91-6.82c9.83-7.85,39.66-4.67,52.99-5.72
		c16.19,0.07,32.47-0.82,48.53,1.14c-24.72-6.67-51.2-7.35-76.65-4.84c-4.83,0.51-29.15,3.33-26.17,10.56
		C212.75,370.29,219.68,371.04,225.62,372.71z"/>
	<path class="st2" d="M238.07,406.65c-10.84-1.29-21.68-3.26-31.99-6.9c0-0.02-0.01-0.03-0.01-0.05c0,0,0,0,0,0
		c4.88-2.25,10.5-2.21,15.74-3.05c8.22-1.15,16.48-1.91,24.71-2.93c12.16-1.17,24.29-2.57,36.49-3.32c4.54-0.4,9.09-0.58,13.64-0.83
		c3.21,0.1,6.63-0.37,9.71,0.52c0.05,0.08,0.09,0.17,0.14,0.25c0.01,0.1,0.02,0.2,0.04,0.3c-0.07,0.18-0.16,0.33-0.28,0.48
		c-0.01,0.01,0.01,0.03,0.02,0.02c0.2-0.23,0.49-0.5,0.35-0.85c-0.09-0.41-0.43-0.55-0.82-0.69c-5.48-1.32-11.21-1.35-16.82-1.58
		c-6.83-0.1-13.67-0.2-20.5,0.14c-17.45,0.56-34.85,2.54-51.99,5.89c-2.91,0.71-15.9,2.44-11.88,7.13c3.29,1.25,7,1.47,10.44,2.28
		C222.65,404.88,230.44,406.12,238.07,406.65z"/>
	<path class="st2" d="M227.78,431.13c-8.82-2.24-17.93-3.66-26.66-6.03c7.86-5.15,28.23-3.25,38.32-4.52
		c15.24-0.29,30.65-1.62,45.83,0.1c0.99,0.17,2.06,0.37,2.86,0.86c-4.83-2.97-10.89-3.1-16.36-4.04
		c-8.73-0.92-17.47-1.43-26.25-1.32c-5.92,0.04-51.25,0.83-46.06,10.3c0.82,0.85,2.06,0.93,3.1,1.08
		C210.91,428.92,219.46,430.12,227.78,431.13z"/>
	<path class="st2" d="M236.3,440.96c-3.84-0.15-8,0.47-11.83-0.59c-7.06-2.44,1.67-3.8,4.55-3.93c12.13-0.78,24.28-0.21,36.42-0.18
		c14.41,0.19,28.81,0.5,43.21,1.15c-4.73-0.98-9.65-2.01-14.47-2.9c-19.63-2.87-39.72-4.33-59.49-2.13
		C212.78,434.35,216,445,236.3,440.96z"/>
	<path class="st3" d="M222.58,341.37c-10.29-4.16-21.95-4.57-32.68-6.8c25.47-4.45,51.33-3.28,77.06-3.26
		c16.04,0.35,31.92,1.92,47.82,0.65c-6.66-0.3-13.32-0.6-19.92-1.6c-30.6-3.68-61.7-6.39-92.41-2.63
		c-4.34,0.93-19.47,1.87-18.8,7.59c0.65,3.4,7.86,1.9,10.56,2.55C203.61,338.88,213.58,338.52,222.58,341.37z"/>
	<path class="st3" d="M215.05,352.48c-6.55-2.71-14.12-2.09-20.48-5c9.3-7.94,50.11-2.84,64.07-3.23
		c14.89,1.14,29.91-0.32,44.74,0.37c-2.91-1.16-6.18-1.51-9.33-1.9c-28.69-3.52-57.88-8.41-86.64-3.26
		c-4.37,1.13-16.58,2.67-15.05,8.99C195.9,352.27,209.2,350.4,215.05,352.48z"/>
	<path class="st4" d="M198.31,201.88c-8.71-2.56-17.94-3.28-26.44-6.49c7.04-2.83,14.76-3.66,22.21-4.93
		c4.92-0.77,10.03-1.35,14.9-1.99c-11.96,0.44-24.24-0.53-35.87,2.82c-2.04,0.8-5.75,1.9-5.11,4.71c0.18,0.62,0.73,1.21,1.36,1.41
		C178.69,200.33,188.75,200.5,198.31,201.88z"/>
	<path class="st4" d="M237.18,191.25c-2.79-0.5-5.58-1-8.38-1.48c-3.9-0.89-8.46-0.78-11.77-3.16c2.72-4.18,18.1-4.45,23.3-5.43
		c10.76-0.93,21.21-1.61,31.93-2.45c-12.6-1-25.49-2.79-38.22-1.45c-6.55,0.94-14.4,1.55-19.19,6.59c-2.09,2.77-0.18,5.53,2.89,6.1
		C224.05,191.47,230.81,191.07,237.18,191.25z"/>
</g>
<g id="Vector_layer_5_">
	<path class="st2" d="M329.42,91.67c22.18-16.03-77.49-23.62-85.41-23.26c-30.64-1.08-61.72,0.03-91.46,8.05
		c-4.31,1.38-9.23,2.43-12.71,5.31c9.79-5.13,21.47-5.14,32.21-6.89c32.05-2.8,64.04-0.11,95.94,2.27
		c12.2,0.95,24.37,2.23,36.52,3.68c8.14,1.36,16.98,1.85,23.99,6.62c0,0,0,0,0,0c-3.71,6.58-17.37,5.47-24.18,6.71
		C312.58,93.82,321.71,95.53,329.42,91.67z"/>
	<path class="st2" d="M311.94,122.42c7.59-1.33,16.07-0.68,22.78-4.91c3.29-2.19,2.21-5.94-1.55-6.76
		c-17.76-5.65-36.8-6.07-55.25-7.87c-24.98-1.66-50.04-1.47-75.04-0.34c-5.63,0.43-32.96,1.24-31.44,4.06
		c-0.04-0.1-0.07-0.2-0.11-0.31c11.16-2.87,23.58-0.65,35.14-0.91c19.11,0.53,38.22,1.55,57.32,2.28
		c16.79,0.8,33.56,2.07,50.32,3.45c2.33,0.39,22.28,1.56,17.73,4.7C326.05,119.89,318.52,120.53,311.94,122.42z"/>
	<path class="st2" d="M322.04,148.5c8.69-1.13,10.8-7.37,0.92-9.53c-24.15-5.2-49.03-7.37-73.65-9.29
		c-24.92-1.37-50.08-2.44-74.91,0.52c-0.02-0.02-0.03-0.04-0.05-0.06c0.03-0.03-0.02-0.02-0.03-0.01
		c30.22-0.91,60.62,3.6,90.73,6.89c12.72,1.37,25.46,2.57,38.21,3.77c7.31,0.81,15.02,0.61,21.98,3.11
		c-5.32,4.65-13.62,3.74-20.25,4.96C310.59,148.83,316.4,149.23,322.04,148.5z"/>
	<path class="st2" d="M311.04,182.5c4.23-0.36,15.13-2.23,9.9-8.25c-9.23-6-20.9-7.26-31.51-9.42c-24.85-3.78-49.99-5.63-75.12-5.27
		c-7.24,0.02-14.61,0.57-21.73,1.43c2.64-0.05,5.29-0.16,7.93-0.14c21.51,0.1,42.9,2.67,64.21,5.29c17.49,2.54,35.6,3.53,52.34,9.44
		c7.07,3.67-12.28,7.02-14.66,8.04C305.22,183.33,308.18,182.86,311.04,182.5z"/>
	<path class="st2" d="M294.5,255.49c9.79-0.84,20.05-0.27,29.37-3.73c12.18-7.01-7.39-10.64-12.95-10.82
		c-37.58-4.18-75.5-6.57-113.3-4.32c-6.26,0.49-12.69,0.23-18.83,1.65c10.55-0.95,21.7,0.24,32.29,0.18
		c18.96,0.98,37.13,2.3,55.87,4.07c17.97,2.2,36.43,1.63,54.15,5.38c-8.97,4.62-19.37,5.67-29.14,7.74c0.78,0,1.72-0.12,2.56-0.15
		C294.51,255.48,294.5,255.49,294.5,255.49z"/>
	<path class="st2" d="M318.51,284.85c2.89-1.08,4.36-4.66,2.11-7.11c-2.27-2.13-5.55-2.7-8.43-3.6c-12.3-3.6-24.9-5.99-37.68-6.99
		c-21.81-2.07-43.75-2.29-65.65-2.64c-7.3-0.02-14.63-0.2-21.9,0.47c-0.62,0.08-1.39,0.05-1.78,0.62c0.03,0.06,0.04,0.05,0.07,0.07
		c0.05,0.01-0.03-0.05-0.04-0.07c0.05-0.07,0.1-0.14,0.15-0.2c10.12-1.35,20.53,0.49,30.7,1.05c9.79,0.98,19.59,1.99,29.35,3.21
		c23.27,2.95,46.78,5.28,69.52,11.23c-5.35,1.73-11.2,1.6-16.73,2.11c-3.61,0.25-7.35,0.31-10.91,0.43
		c6.16,0.54,12.28,1.47,18.43,1.96C309.95,285.66,314.47,286.46,318.51,284.85z"/>
	<path class="st2" d="M291.05,322.54c8.13-0.88,18.02,0.12,24.29-6.02c3.77-4.85-2.28-9.09-6.41-10.75
		c-16.19-6.63-34.33-6.54-51.55-7.97c-9.29-0.28-18.59-0.54-27.89-0.3c-8.14,0.09-16.27,0.46-24.4,1.01
		c-2.14-0.02-4.61,0.66-6.5-0.54c1.28,1.36,4.48,1,6.55,1.19c6.14,0.1,12.28,0.34,18.41,0.76c13.45,1.05,26.89,2.22,40.25,4.07
		c7.76,1.56,68.89,5.4,35.96,15.41c-4.25,1.3-8.57,2.41-12.9,3.41C288.19,322.76,289.68,322.61,291.05,322.54
		C291.06,322.54,291.05,322.54,291.05,322.54z"/>
	<path class="st2" d="M309.88,384.69c5.45-0.49,16.15-2.22,13.98-9.81c-4.93-7.74-25.31-10.36-34.22-12.64
		c-27.9-5.3-56.46-7.1-84.8-5.43c-3.52,0.35-7.52,0.22-10.55,2.1c2.83-1.28,6.07-0.79,9.09-0.82c24.16,1.35,48.04,5.39,71.85,9.56
		c13.92,2.91,29.1,3.33,42.03,9.35c-3.95,5.65-19.66,6.52-26.45,7.75C297.08,384.81,303.55,385.21,309.88,384.69z"/>
	<path class="st2" d="M295.56,410.21c6.07-0.24,13.15-0.07,18.01-4.25c2.51-2.09,1.63-5.7-1.28-6.91
		c-18.55-5.37-38.52-5.51-57.75-5.76c-13.04,0.15-26.08,1.24-38.92,3.57c4.64-0.12,9.42-0.23,14.11-0.26
		c14.51,0.07,29.01,1.33,43.45,2.68c11.87,1.41,24.2,1.31,35.85,3.94c-0.02,0.04-0.04,0.08-0.06,0.12c0.03-0.04,0.05-0.08,0.08-0.12
		c0,0,0,0,0.01,0c-0.19,0.29-0.41,0.55-0.43,0.55c-6.25,4.44-14.33,5.06-21.63,6.57C289.76,410.35,292.72,410.23,295.56,410.21z"/>
	<path class="st2" d="M295.61,437.87c4.42-0.2,10.96-0.72,12.54-5.67c0.2-3.78-4.47-4.29-7.26-4.76
		c-27.22-5.2-55.01-6.49-82.57-3.52c11.83,1.14,23.83,2.18,35.71,3.34c15.97,1.73,31.94,3.49,47.92,5.2
		c-7.32,3.96-16.17,3.6-24.25,4.69C283.59,437.47,289.65,438.06,295.61,437.87z"/>
	<path class="st4" d="M307.19,203.46c2.84,0.05,12.84-1.44,8.12-5.61c-3.92-1.67-8.32-1.94-12.46-2.84
		c-8.69-1.48-33.86-4.69-40.59,0.45c0.2,0.89,1.53,0.51,2.23,0.59c-0.43-0.18-1.11-0.21-1.58-0.43c-0.02-0.03-0.04-0.06-0.06-0.09
		c4.9-1.67,10.48,0.26,15.54,0.65c9.31,1.3,18.66,2.33,27.91,4.05c-5.52,1.35-11.24,2.05-16.77,2.92
		C295.42,203.25,301.3,203.79,307.19,203.46z"/>
	<path class="st4" d="M235.11,199.89c2.36-0.94,7.13-1.07,6.77-4.52c-2.9-3.82-18.4-3.74-23.53-4.14
		c-10.01,0.1-20.26,0.83-29.85,3.86c-0.59,0.25-1.35,0.61-1.46,1.13c0.33,0.05,0.21,0.06,0.42,0.03c0-0.04-0.21-0.04-0.28-0.09
		c7.19-2.28,15.3-0.63,22.82-1.02c9.57,0.26,19.19,0.23,28.71,1.28c-2.14,1.77-4.49,3.03-6.9,4.34
		C232.86,200.57,234.03,200.19,235.11,199.89z"/>
	<path class="st3" d="M331.02,337.03c24.99-8.89-55.35-18.62-60.02-18.68c-22.93-1.73-46.17-3.26-69.05-0.31
		c-4.78,0.73-9.79,1.87-13.81,4.53c2.28-1.18,4.71-1.95,7.23-2.4c19.99-2.83,40.26,0.47,60.18,2.63c22.72,3.3,45.36,6.62,67.9,10.8
		c-7.84,1.44-15.78,2.2-23.71,2.9C310.12,336.82,320.62,338.21,331.02,337.03z"/>
	<path class="st3" d="M330.99,358.49c2.72-0.26,5.72-0.37,8.03-1.95c2.5-1.74,1.43-5.29-1.38-5.98
		c-20.34-6.22-41.21-10.9-62.21-14.3c-25.87-3.84-52.08-5.66-78.24-5c-3.74,0.14-7.58,0.32-11.25,0.68
		c4.7-0.03,9.61,0.27,14.24,0.54c43.52,3.13,86.21,12.67,128.84,21.5c-11.04,1.61-22.28-0.09-33.31-0.9
		C307.4,355.11,319,358.99,330.99,358.49z"/>
</g>
<g id="Vector_layer_4_" class="st5">
	<path class="st2" d="M306.06,86.7c12.27-0.61,40.34-5.67,11-12.38c-18.76-5.66-38.35-7.56-57.77-9.5
		c-21.31-2.26-42.75-2.85-64.17-2.63c-8.32,0.32-16.64,0.64-24.94,1.37c-3.63,0.47-9.13,0.32-11.49,2.26
		c-0.01-0.01-0.02-0.02-0.03-0.03c11.29-2.83,23.62-0.41,35.25-0.68c17.44,0.92,34.82,2.41,52.22,3.88
		c25.37,2.58,51.12,3.86,75.69,11.2c-17.05,5.21-35.18,4.94-52.81,6.53C281.25,86.93,293.75,87.32,306.06,86.7z"/>
	<path class="st2" d="M305.7,104.37c2.83-0.07,5.87,0.15,8.47-1.15c1.32-0.99,4.64-2.6,2.52-4.17c-5.86-3.75-12.8-4.74-19.49-6.12
		c-12.39-2.46-24.82-4.73-37.37-6.16c-22.45-3.27-45.09-4.59-67.75-5.45c-8.61,0.07-17.37-0.24-25.88,1.12
		c-0.76,0.22-1.32,0.52-2,0.93c-0.05,0.03-0.03,0.11,0.03,0.12c0.64,0.15,1.28,0.25,1.94,0.34c-0.43-0.17-1.25-0.22-1.75-0.42
		c1.68-1.03,3.77-0.96,5.66-1.06c5.39-0.02,10.77,0.06,16.15,0.32c15.69,0.86,31.28,3.15,46.95,4.46
		c18.85,2.83,37.84,4.61,56.61,7.94c8.04,1.52,16.66,1.76,24.12,5.36c-2.93,2.51-7.25,1.92-10.75,2.6
		c-4.12,0.53-8.27,0.77-12.42,0.96c4.93,0.4,10.07,0.49,15.07,0.37C305.8,104.37,305.7,104.37,305.7,104.37z"/>
	<path class="st2" d="M293.81,124.84c5.92-0.55,22.8,1.15,23.4-6.72c0.34-1.3-0.09-2.66-1.42-3.15c-11.63-4.42-24.25-5.51-36.4-7.89
		c-27.57-3.61-55.27-5.33-83.06-5.6c-11.06-0.04-22.15,0.43-33.14,1.72c-2.68,0.6-6,0.5-8.17,2.28c-0.25,0.66,0.57,0.7,1,0.71
		c-0.18-0.08-0.68-0.09-0.89-0.33c0.01-0.1,0.02-0.21,0.02-0.31c5.42-2.37,12.07-1.44,17.84-1.74c15.71-0.18,31.35,1.53,47,2.73
		c30.79,2.89,62.1,4.54,92.2,11.84c-13.58,4.6-28.5,4.48-42.59,6C277.66,124.67,285.74,124.86,293.81,124.84z"/>
	<path class="st2" d="M300.39,142.83c5.67-0.73,21.22,2.27,21.29-5.62c0.4-0.93,0.2-2.12-0.85-2.48c-9.5-4.13-19.86-5.27-30.05-6.52
		c-25.71-3.32-51.63-4.34-77.54-4.36c-14.59,0.68-34.23-1.33-46.03,2.5c-0.02-0.03-0.04-0.06-0.06-0.09
		c9.7-2.14,19.69-0.73,29.51-0.49c17,0.64,33.96,1.8,50.93,3.01c18.32,0.96,36.97,3.03,55.04,4.99c5.4,0.6,10.75,1.6,15.84,3.52
		c0.95,3.73-21.11,4.46-24.82,5.6c2.18,0.04,4.56-0.06,6.8-0.07C300.45,142.83,300.39,142.83,300.39,142.83z"/>
	<path class="st2" d="M313.61,166.02c6.44-0.45,20.31-3.25,16.18-12.26c-7.49-4.51-17.19-4.78-25.67-6.67
		c-22.25-3.73-44.87-4.26-67.38-4.91c-17.14,0.9-35.93-0.83-52.22,2.57c1.75,1.14,4.12,0.24,6.12,0.58
		c-1.7-0.39-3.79-0.03-5.51-0.59c27.43-1.52,54.95,1.23,82.31,3.16c19.83,1.5,39.85,2.81,58.93,8.41
		c-2.43,8.04-25.81,8.77-33.36,9.73C299.78,166.37,306.79,166.64,313.61,166.02z"/>
	<path class="st2" d="M300.23,181.15c4.81-0.21,9.85,0.14,14.44-1.57c2.62-1.14,8.15-4.65,3.72-7.12c-8.12-3.54-17.02-4.2-25.7-5.41
		c-17.38-2.58-34.91-3.57-52.46-4.12c-17.67-0.23-35.67,0.17-53.06,3.13c41.73-1.31,83.65,3.75,124.91,9.48
		c-11.75,3.15-23.93,3.64-35.81,5.4C284.24,181.1,292.25,181.47,300.23,181.15z"/>
	<path class="st2" d="M294.1,206.29c5.11-0.27,11.94-0.39,15.15-4.95c1.85-4.72-3.04-7.9-7.2-8.22
		c-24.09-7.29-49.27-10.09-74.3-11.81c-6.39,0.03-15.93-1.66-21.34,1.93c-0.11,0.53,0.21,0.76,0.78,0.63
		c-0.1-0.05-0.53,0.01-0.66-0.18c0.01-0.12,0.02-0.24,0.02-0.37c9.76-3.43,26.33,1.9,36.87,3.08c10.87,1.84,21.77,3.56,32.55,5.9
		c9.44,2.24,20.57,2.96,28.81,7.14c-9.73,5.03-21.41,4.71-32.06,6.53C279.75,206.47,287,206.39,294.1,206.29z"/>
	<path class="st2" d="M290.66,247.7c7.05-0.62,16.26,0.36,21.13-5.72c1.56-5.03-4.3-7.21-8.32-7.43
		c-27.17-6.1-55.22-8.74-83.06-8.13c-4.16,0.45-19.24,0.6-20.79,3.91c0.61,0.03,1.18-0.14,1.78-0.26c-0.41-0.05-1.13,0.18-1.6,0.09
		c4.08-2.44,9.83-1.37,14.51-1.86c21.17,0.04,42.11,3.83,62.91,5.59c10.27,1.53,20.77,2.74,30.86,4.94
		C313.38,244.19,293.83,246.91,290.66,247.7z"/>
	<path class="st2" d="M304.51,270.39c6.02,0.53,9.62-4.73,4.03-8.64c-11.8-5.74-25.31-6.53-38.01-9.29
		c-19.3-2.46-38.73-3.7-58.18-3.96c-6.43,0-12.99-0.04-19.36,0.08c7.62,0.8,15.27,1.39,22.88,2.27c22.31,2.47,44.66,4.88,66.78,8.8
		c6.16,1.62,21.55,1.86,24.92,6.76c-7.71,2.49-16.2,2.11-24.24,2.79C290.28,269.83,297.46,270.88,304.51,270.39z"/>
	<path class="st2" d="M295.24,287.28c4.29,0.22,8.71-2.65,5.05-6.89c-5.7-3.24-12.5-4.22-18.85-5.68
		c-16.55-3.14-32.65-5.67-49.34-5.73c-7.03-0.07-14.17,0.24-21.04,1.81c0.88,0.03,1.91-0.13,2.86-0.12
		c16.01,0.26,31.46,3.13,47.1,5.93c9.09,1.67,18.3,2.59,27.42,4.09c2.99,1.02,8.59,0.51,10,3.1c-4.32,2.24-9.25,2.28-13.95,2.96
		C287.95,287.11,291.69,287.58,295.24,287.28z"/>
	<path class="st2" d="M295.82,309.4c2.78-0.11,15.2-0.27,13.86-4.62c-0.33-2.91-3.07-4.11-5.57-4.83
		c-20.84-6.05-42.79-7.64-64.4-8.03c-8.26,0.08-16.67-0.09-24.85,0.36c3.65,0.25,7.3,0.69,10.94,1.06
		c20.9,1.86,41.69,4.59,62.51,7.2c4.01,0.97,17.25,1.15,18.83,4.64C303.97,307.96,299.6,308.2,295.82,309.4z"/>
	<path class="st2" d="M303.36,363.05c5.98-0.63,18.93,0.77,18.81-7.83c0.11-0.9-0.56-1.75-1.37-2.04
		c-15.62-5.25-32.08-7.9-48.34-10.26c-13.35-1.41-26.78-2.95-40.21-2.57c1.49,0.09,3.18,0.26,4.69,0.47
		c27.23,3.81,54.4,8.95,81.05,15.7c-1.6,1.95-5.11,2.14-7.27,2.98c-6.88,1.58-13.91,2.4-20.87,3.55
		C294.26,363.11,298.88,363.17,303.36,363.05z"/>
	<path class="st2" d="M301.55,387.82c3.67-0.89,7.58-1.67,10.8-3.74c5.84-5.52,0.78-10.42-5.71-11.18
		c-17.65-4.89-36.22-5.01-54.41-5.19c-4.86,0.03-9.79,0.18-14.57,0.9l-0.89,0.71c0,0,0,0,0,0c-0.01-0.01-0.01-0.03-0.02-0.03
		c0-0.02,0-0.04,0-0.06c0.02-0.04,0.03-0.07,0.05-0.11c11.94-0.6,24.02,2.63,35.99,3.43c12.44,2.48,26.23,2.08,37.92,6.53
		c0.8,4.33-14.45,8.49-17.95,10.09C295.62,388.84,298.65,388.34,301.55,387.82z"/>
	<path class="st2" d="M290.81,405.1c4.01-0.33,8.22-0.17,12.04-1.55c1.63-0.59,2.71-2,3.93-3.16c1.55-1.3-0.82-4.15-2.1-4.84
		c-5.46-1.9-11.22-3.21-16.92-4.28c-6.92-1.15-13.85-2.22-20.8-3.14c-7.35-0.76-14.76-0.97-22.13-1.36
		c-4.11-0.15-8.21,0.03-12.31,0.21c-0.93,0.01-2.83,0.02-2.75,1.35c0.01,0.14,0.12,0.24,0.25,0.25c1.98,0.23,4.13,0.48,6.06,0.58
		c-1.92-0.35-3.84-0.69-5.76-1.07c0,0,0-0.01,0-0.01c0.33-0.27,0.83-0.31,1.22-0.34c2.12,0.09,4.23,0.2,6.35,0.22
		c9.05,0.55,18.01,2.08,27.03,3.01c9.23,1.83,18.62,2.79,27.81,4.76c3.13,0.67,6.25,1.43,9.36,2.18c0.67,0.2,1.43,0.41,1.74,1.1
		c-1.17,1.79-3.23,2.77-5.2,3.2c-4.78,1.28-9.66,2.17-14.5,3.15C286.26,405.33,288.6,405.15,290.81,405.1z"/>
	<path class="st2" d="M282.49,419.23c6.14-0.78,25.23,0.56,25.92-7.17c0.29-0.9-0.18-2-1.13-2.27c-7.39-2.36-15.21-2.79-22.85-3.88
		c-21.71-2.87-43.65-4.01-65.54-4.22c-11.65-0.56-23.42,1.1-34.87-1.11c0-0.14,0.15-0.34,0.14-0.41c-0.9,1.1,7.01,2.04,8.06,2.15
		c12.43,0.88,24.89,1.55,37.33,2.32c24.89,2.37,50.26,3.62,74.82,8.03c-12.36,5.07-26.48,4.77-39.54,7.25
		C270.64,419.75,276.63,419.46,282.49,419.23z"/>
	<path class="st2" d="M243.03,429.03c5.47-0.25,12,0.61,15.78-4.16c0.79-0.71,0.55-2.02-0.46-2.37c-1.47-0.51-2.93-1.06-4.4-1.57
		c-4.69-1.59-9.64-2.15-14.55-2.59c-10.75-0.73-21.54-1.08-32.31-0.84c-2.41,0.07-5.63-0.7-7.41,1.32
		c-0.23,0.27-0.09,0.67,0.25,0.75c4.79,1.11,9.6,2.14,14.41,3.16c-4.35-1.32-8.95-2.54-13.39-3.81c1.99-0.68,4.08-0.18,6.11-0.12
		c6.31,0.17,12.61,0.63,18.89,1.23c9.85,1.03,19.97,0.97,29.34,4.41c-2.86,2.46-6.88,2.25-10.36,3.08c-2.84,0.55-5.7,0.92-8.54,1.39
		C238.5,429,240.83,429.01,243.03,429.03z"/>
	<path class="st4" d="M309.38,224.54c3.9,0.12,7.71-1.01,9.96-4.38c1.17-1.48-1.03-2.77-1.84-3.84c-2.78-2.23-6.58-2.64-9.88-3.5
		c-14.73-4.04-29.94-5.78-45.05-7.77c-22.2-2.31-44.71-0.99-66.8-0.8c5.29,1.47,13.67,0.54,20.02,1.13
		c15.31,0.65,30.57,1.92,45.82,3.39c12.62,1.97,25.03,3.12,37.46,5.51c5.66,1.69,12.85,1.13,17.46,5.01
		c-4.1,5.45-16.12,3.6-22.48,4.74C299.06,224.26,304.29,224.81,309.38,224.54z"/>
	<path class="st3" d="M326.63,330.72c2.34-0.33,10.36-2.34,9.59-5.02c-1.27-4.36-6.44-4.69-10.22-5.39
		c-19.57-4.61-39.42-7.48-59.45-9.24c-19.43-0.93-38.91-1.73-58.37-0.99c-1.03,0.21-2.83,0.06-3.19,0.63
		c0.79,0.24,1.56,0.24,2.38,0.3c-0.75-0.21-1.11-0.11-1.9-0.34c20.24-0.11,40.41,3.04,60.58,4.52c15.68,2.21,31.49,3.39,47.06,6.31
		c5.18,1.6,16.97,1,20.26,4.28c-5.27,3.88-12.08,4.42-18.15,6.03C319.04,331.53,322.84,331.25,326.63,330.72z"/>
	<path class="st3" d="M317.91,341.34c8.81,0.8,19.36-6.12,4.62-9.13c-29.63-5.02-59.53-8.37-89.6-8.35c-6.72,0-13.45-0.22-20.16,0.2
		c-2.26,0.37-5.2-0.17-6.98,1.47c0.22,0.5,1.47,0.2,2.03,0.36c-0.44-0.15-1.2-0.2-1.72-0.35c12.3-1.87,25.43,1.63,37.96,2.12
		c26.59,3.37,53.29,5.93,79.72,9.4c-7.78,2.56-16.38,1.99-24.4,2.58c6.24,0.62,12.46,1.72,18.74,1.7
		C318.1,341.34,317.91,341.34,317.91,341.34z"/>
</g>
</svg>
