<?xml version="1.0" encoding="utf-8"?>
<!-- Generator: Adobe Adobe Illustrator 24.2.0, SVG Export Plug-In . SVG Version: 6.00 Build 0)  -->
<svg version="1.1" xmlns="http://www.w3.org/2000/svg" xmlns:xlink="http://www.w3.org/1999/xlink" x="0px" y="0px"
	 viewBox="0 0 500 500" style="enable-background:new 0 0 500 500;" xml:space="preserve">
<style type="text/css">
	.st0{fill:#000B25;}
	.st1{fill:#3A9E31;}
	.st2{fill:#F20519;}
	.st3{fill:#FFFFFF;}
	.st4{opacity:0.01;}
</style>
<g id="Vector_layer_5_">
	<path class="st0" d="M506.39-6.39v512.79H-6.39V-6.39H506.39z"/>
</g>
<g id="Vector_layer_4_">
	<path class="st1" d="M287.59,82.08c7.88-4.09,16.45-6.44,24.76-9.48c-26.08-6.28-53.07-7.83-79.79-9.02
		c-13.42,0.03-27.3-1.95-40.45,0.82c6.66-2.69,13.91-3.05,20.95-4.03c29.97-3.44,60.47-4.78,90.37-0.07
		c7.52,1.44,25.05,3.61,22.33,14.53C322.88,82.21,295.54,80.37,287.59,82.08z"/>
	<path class="st1" d="M256.85,104.91c19.48-4.29,39.75-7.11,57.68-16.26c-35.17-7.96-71.72-9.2-107.68-8.69
		c-4.27,0.32-8.65-0.13-12.82,0.87c5.11-1.72,10.83-2.11,16.19-3.19c33.78-5.13,68.9-8.13,102.52-0.57c3.17,1,6.45,1.98,9.09,4.09
		c4.29,3.19,5.3,10.23,0.26,13.24c-9.44,4.67-20.24,5.95-30.6,7.27C280.02,103.16,268.33,104.29,256.85,104.91z"/>
	<path class="st1" d="M262.41,125.39c17.37-3.33,35.47-6.16,50.82-15.37c-7.81-5.76-21.28-5.2-30.75-7.06
		c-15.82-1.8-31.67-3.45-47.59-3.98c-11.58-0.56-23.3-0.26-34.8,0.02c5.89-0.66,11.74-1.59,17.6-2.4
		c17.83-2.1,35.87-3.05,53.81-2.07c12.25,0.77,24.84,1.13,36.58,5c5.59,1.54,16.23,8.52,9.23,14.41c-4.06,2.62-8.93,3.21-13.49,4.49
		C290.3,122.12,276.22,123.79,262.41,125.39z"/>
	<path class="st1" d="M264.6,143.43c13.94-3.09,28.5-4.83,41.53-10.9c-6.79-4.77-15.8-4.84-23.72-6.47
		c-17.24-2.82-34.63-4.4-52.09-4.93c-6.24,0.11-13.02-0.76-18.83,1.57c5.33-3.28,11.89-3.58,17.91-4.76
		c23.25-2.92,47.35-2.77,69.98,3.83c5.83,1.49,17.47,8.09,10.3,14.58c-7.15,2.86-15.14,3.89-22.77,4.8
		C279.5,141.92,271.99,143.12,264.6,143.43z"/>
	<path class="st1" d="M263.08,170.22c14.73-5.44,31.23-6.61,44.99-14.44c-7.68-3.02-16.25-3.36-24.35-4.71
		c-18.11-2.29-36.39-3.02-54.62-3.73c-5.57-0.08-11.33-0.72-16.79-0.1c5.06-1.58,10.52-1.74,15.75-2.53
		c25.95-2.85,52.92-4.2,78.21,3.38c8.08,1.89,12.04,9.94,2.25,13.18C293.75,165.7,277.98,166.64,263.08,170.22z"/>
	<path class="st1" d="M283.02,239.28c11.23-3.37,23.38-4.09,34.17-8.62c-4.99-7.92-63.16-7.2-75.14-7.58
		c-9.95,0.41-20.35-0.39-30.06,1.37c4.75-1.93,10.05-2.09,15.08-2.94c27.15-3.64,55.15-4.67,82.05,1.3
		c4.2,0.98,14.53,4.57,9.71,10.09C307.56,237.18,294.76,237.03,283.02,239.28z"/>
	<path class="st1" d="M291.73,257.27c5.53-0.79,11.04-1.58,16.53-2.61c4.17-0.8,8.63-1.35,12.42-3.31
		c0.36-7.39-64.35-8.05-73.03-8.54c-6.98,0.11-14.24-0.15-21.11,0.02c-3.61,0.13-7.21,0.32-10.77,0.84
		c-2.44,0.21-4.63,1.08-6.18,2.99c-0.31,0.26-0.49,0.7-0.75,0.9c1.31-2.69,3.65-4.65,6.59-5.22c10.51-3.07,21.56-3.42,32.4-4.27
		c16.93-0.64,33.87,0.3,50.58,3.18c4.85,0.98,26.74,3.61,23.73,10.97c-0.37,0.54-1.05,0.69-1.64,0.86c-2.88,0.98-5.83,1.4-8.83,1.83
		C305.09,255.88,298.3,256.75,291.73,257.27z"/>
	<path class="st1" d="M275.08,276.46c14.24-3,29.75-3.15,42.75-10.2c-6.07-4.01-14.36-3.93-21.22-4.92
		c-19.14-1.69-38.6-1.55-57.75-1.17c-11.6,0.25-23.18,0.98-34.57,2.53c8.52-1.82,17.08-3.5,25.75-4.47
		c27.38-2.69,55.73-5.61,82.71,1.21c4.01,0.82,12.98,5.67,6.96,9.8C305.79,275.24,289.89,274.99,275.08,276.46z"/>
	<path class="st1" d="M272.71,305.36c7.03-1.93,14.09-3.8,21.17-5.55c5.55-1.52,12.02-2.43,16.39-6.41
		c-6.99-8.11-59.42-6.25-72.2-6.34c-12.06,0.51-24.14,1.14-36.12,2.68c4.05-0.97,8.38-1.7,12.55-2.43
		c29.18-4.76,59.51-7.4,88.68-1.37c4.34,0.78,14.44,5.17,8.5,10.26C299.82,302.34,285.51,302.31,272.71,305.36z"/>
	<path class="st1" d="M271.81,327.25c11.38-1.28,23.29-1.11,34.23-4.66c-10.61-5.34-23.29-3.1-34.8-4
		c-19.65-0.31-39.54-1.19-59.03,1.64c-1.75,0.29-3.61,0.7-5.29,0.96c15.89-5.49,32.88-6.77,49.58-7.26
		c13.94-0.14,28.12,0.02,41.83,2.73C329.46,327.14,279.59,327,271.81,327.25z"/>
	<path class="st1" d="M274.38,372.71c5.65-2.23,11.93-3.56,16.91-6.82c-9.83-7.85-39.66-4.67-52.99-5.72
		c-16.19,0.07-32.47-0.82-48.53,1.14c24.72-6.67,51.2-7.35,76.65-4.84c4.83,0.51,29.15,3.33,26.17,10.56
		C287.25,370.29,280.32,371.04,274.38,372.71z"/>
	<path class="st1" d="M261.93,406.65c10.84-1.29,21.68-3.26,31.99-6.9c0-0.02,0.01-0.03,0.01-0.05c0,0,0,0,0,0
		c-4.88-2.25-10.5-2.21-15.74-3.05c-8.22-1.15-16.48-1.91-24.71-2.93c-12.16-1.17-24.29-2.57-36.49-3.32
		c-4.54-0.4-9.09-0.58-13.64-0.83c-3.21,0.1-6.63-0.37-9.71,0.52c-0.05,0.08-0.09,0.17-0.14,0.25c-0.01,0.1-0.02,0.2-0.04,0.3
		c0.07,0.18,0.16,0.33,0.28,0.48c0.01,0.01-0.01,0.03-0.02,0.02c-0.2-0.23-0.49-0.5-0.35-0.85c0.09-0.41,0.43-0.55,0.82-0.69
		c5.48-1.32,11.21-1.35,16.82-1.58c6.83-0.1,13.67-0.2,20.5,0.14c17.45,0.56,34.85,2.54,51.99,5.89c2.91,0.71,15.9,2.44,11.88,7.13
		c-3.29,1.25-7,1.47-10.44,2.28C277.35,404.88,269.56,406.12,261.93,406.65z"/>
	<path class="st1" d="M272.22,431.13c8.82-2.24,17.93-3.66,26.66-6.03c-7.86-5.15-28.23-3.25-38.32-4.52
		c-15.24-0.29-30.65-1.62-45.83,0.1c-0.99,0.17-2.06,0.37-2.86,0.86c4.83-2.97,10.89-3.1,16.36-4.04
		c8.73-0.92,17.47-1.43,26.25-1.32c5.92,0.04,51.25,0.83,46.06,10.3c-0.82,0.85-2.06,0.93-3.1,1.08
		C289.09,428.92,280.54,430.12,272.22,431.13z"/>
	<path class="st1" d="M263.7,440.96c3.84-0.15,8,0.47,11.83-0.59c7.06-2.44-1.67-3.8-4.55-3.93c-12.13-0.78-24.28-0.21-36.42-0.18
		c-14.41,0.19-28.81,0.5-43.21,1.15c4.73-0.98,9.65-2.01,14.47-2.9c19.63-2.87,39.72-4.33,59.49-2.13
		C287.22,434.35,284,445,263.7,440.96z"/>
	<path class="st2" d="M277.42,341.37c10.29-4.16,21.95-4.57,32.68-6.8c-25.47-4.45-51.33-3.28-77.06-3.26
		c-16.04,0.35-31.92,1.92-47.82,0.65c6.66-0.3,13.32-0.6,19.92-1.6c30.6-3.68,61.7-6.39,92.41-2.63c4.34,0.93,19.47,1.87,18.8,7.59
		c-0.65,3.4-7.86,1.9-10.56,2.55C296.39,338.88,286.42,338.52,277.42,341.37z"/>
	<path class="st2" d="M284.95,352.48c6.55-2.71,14.12-2.09,20.48-5c-9.3-7.94-50.11-2.84-64.07-3.23
		c-14.89,1.14-29.91-0.32-44.74,0.37c2.91-1.16,6.18-1.51,9.33-1.9c28.69-3.52,57.88-8.41,86.64-3.26
		c4.37,1.13,16.58,2.67,15.05,8.99C304.1,352.27,290.8,350.4,284.95,352.48z"/>
	<path class="st3" d="M301.69,201.88c8.71-2.56,17.94-3.28,26.44-6.49c-7.04-2.83-14.76-3.66-22.21-4.93
		c-4.92-0.77-10.03-1.35-14.9-1.99c11.96,0.44,24.24-0.53,35.87,2.82c2.04,0.8,5.75,1.9,5.11,4.71c-0.18,0.62-0.73,1.21-1.36,1.41
		C321.31,200.33,311.25,200.5,301.69,201.88z"/>
	<path class="st3" d="M262.82,191.25c2.79-0.5,5.58-1,8.38-1.48c3.9-0.89,8.46-0.78,11.77-3.16c-2.72-4.18-18.1-4.45-23.3-5.43
		c-10.76-0.93-21.21-1.61-31.93-2.45c12.6-1,25.49-2.79,38.22-1.45c6.55,0.94,14.4,1.55,19.19,6.59c2.09,2.77,0.18,5.53-2.89,6.1
		C275.95,191.47,269.19,191.07,262.82,191.25z"/>
</g>
<g id="Vector_layer_3_" class="st4">
	<path class="st1" d="M193.94,86.7c-12.27-0.61-40.34-5.67-11-12.38c18.76-5.66,38.35-7.56,57.77-9.5
		c21.31-2.26,42.75-2.85,64.17-2.63c8.32,0.32,16.64,0.64,24.94,1.37c3.63,0.47,9.13,0.32,11.49,2.26c0.01-0.01,0.02-0.02,0.03-0.03
		c-11.29-2.83-23.62-0.41-35.25-0.68c-17.44,0.92-34.82,2.41-52.22,3.88c-25.37,2.58-51.12,3.86-75.69,11.2
		c17.05,5.21,35.18,4.94,52.81,6.53C218.75,86.93,206.25,87.32,193.94,86.7z"/>
	<path class="st1" d="M194.3,104.37c-2.83-0.07-5.87,0.15-8.47-1.15c-1.32-0.99-4.64-2.6-2.52-4.17c5.86-3.75,12.8-4.74,19.49-6.12
		c12.39-2.46,24.82-4.73,37.37-6.16c22.45-3.27,45.09-4.59,67.75-5.45c8.61,0.07,17.37-0.24,25.88,1.12c0.76,0.22,1.32,0.52,2,0.93
		c0.05,0.03,0.03,0.11-0.03,0.12c-0.64,0.15-1.28,0.25-1.94,0.34c0.43-0.17,1.25-0.22,1.75-0.42c-1.68-1.03-3.77-0.96-5.66-1.06
		c-5.39-0.02-10.77,0.06-16.15,0.32c-15.69,0.86-31.28,3.15-46.95,4.46c-18.85,2.83-37.84,4.61-56.61,7.94
		c-8.04,1.52-16.66,1.76-24.12,5.36c2.93,2.51,7.25,1.92,10.75,2.6c4.12,0.53,8.27,0.77,12.42,0.96c-4.93,0.4-10.07,0.49-15.07,0.37
		C194.2,104.37,194.3,104.37,194.3,104.37z"/>
	<path class="st1" d="M206.19,124.84c-5.92-0.55-22.8,1.15-23.4-6.72c-0.34-1.3,0.09-2.66,1.42-3.15
		c11.63-4.42,24.25-5.51,36.4-7.89c27.57-3.61,55.27-5.33,83.06-5.6c11.06-0.04,22.15,0.43,33.14,1.72c2.68,0.6,6,0.5,8.17,2.28
		c0.25,0.66-0.57,0.7-1,0.71c0.18-0.08,0.68-0.09,0.89-0.33c-0.01-0.1-0.02-0.21-0.02-0.31c-5.42-2.37-12.07-1.44-17.84-1.74
		c-15.71-0.18-31.35,1.53-47,2.73c-30.79,2.89-62.1,4.54-92.2,11.84c13.58,4.6,28.5,4.48,42.59,6
		C222.34,124.67,214.26,124.86,206.19,124.84z"/>
	<path class="st1" d="M199.61,142.83c-5.67-0.73-21.22,2.27-21.29-5.62c-0.4-0.93-0.2-2.12,0.85-2.48
		c9.5-4.13,19.86-5.27,30.05-6.52c25.71-3.32,51.63-4.34,77.54-4.36c14.59,0.68,34.23-1.33,46.03,2.5c0.02-0.03,0.04-0.06,0.06-0.09
		c-9.7-2.14-19.69-0.73-29.51-0.49c-17,0.64-33.96,1.8-50.93,3.01c-18.32,0.96-36.97,3.03-55.04,4.99c-5.4,0.6-10.75,1.6-15.84,3.52
		c-0.95,3.73,21.11,4.46,24.82,5.6c-2.18,0.04-4.56-0.06-6.8-0.07C199.55,142.83,199.61,142.83,199.61,142.83z"/>
	<path class="st1" d="M186.39,166.02c-6.44-0.45-20.31-3.25-16.18-12.26c7.49-4.51,17.19-4.78,25.67-6.67
		c22.25-3.73,44.87-4.26,67.38-4.91c17.14,0.9,35.93-0.83,52.22,2.57c-1.75,1.14-4.12,0.24-6.12,0.58c1.7-0.39,3.79-0.03,5.51-0.59
		c-27.43-1.52-54.95,1.23-82.31,3.16c-19.83,1.5-39.85,2.81-58.93,8.41c2.43,8.04,25.81,8.77,33.36,9.73
		C200.22,166.37,193.21,166.64,186.39,166.02z"/>
	<path class="st1" d="M199.77,181.15c-4.81-0.21-9.85,0.14-14.44-1.57c-2.62-1.14-8.15-4.65-3.72-7.12
		c8.12-3.54,17.02-4.2,25.7-5.41c17.38-2.58,34.91-3.57,52.46-4.12c17.67-0.23,35.67,0.17,53.06,3.13
		c-41.73-1.31-83.65,3.75-124.91,9.48c11.75,3.15,23.93,3.64,35.81,5.4C215.76,181.1,207.75,181.47,199.77,181.15z"/>
	<path class="st1" d="M205.9,206.29c-5.11-0.27-11.94-0.39-15.15-4.95c-1.85-4.72,3.04-7.9,7.2-8.22
		c24.09-7.29,49.27-10.09,74.3-11.81c6.39,0.03,15.93-1.66,21.34,1.93c0.11,0.53-0.21,0.76-0.78,0.63c0.1-0.05,0.53,0.01,0.66-0.18
		c-0.01-0.12-0.02-0.24-0.02-0.37c-9.76-3.43-26.33,1.9-36.87,3.08c-10.87,1.84-21.77,3.56-32.55,5.9
		c-9.44,2.24-20.57,2.96-28.81,7.14c9.73,5.03,21.41,4.71,32.06,6.53C220.25,206.47,213,206.39,205.9,206.29z"/>
	<path class="st1" d="M209.34,247.7c-7.05-0.62-16.26,0.36-21.13-5.72c-1.56-5.03,4.3-7.21,8.32-7.43
		c27.17-6.1,55.22-8.74,83.06-8.13c4.16,0.45,19.24,0.6,20.79,3.91c-0.61,0.03-1.18-0.14-1.78-0.26c0.41-0.05,1.13,0.18,1.6,0.09
		c-4.08-2.44-9.83-1.37-14.51-1.86c-21.17,0.04-42.11,3.83-62.91,5.59c-10.27,1.53-20.77,2.74-30.86,4.94
		C186.62,244.19,206.17,246.91,209.34,247.7z"/>
	<path class="st1" d="M195.49,270.39c-6.02,0.53-9.62-4.73-4.03-8.64c11.8-5.74,25.31-6.53,38.01-9.29
		c19.3-2.46,38.73-3.7,58.18-3.96c6.43,0,12.99-0.04,19.36,0.08c-7.62,0.8-15.27,1.39-22.88,2.27c-22.31,2.47-44.66,4.88-66.78,8.8
		c-6.16,1.62-21.55,1.86-24.92,6.76c7.71,2.49,16.2,2.11,24.24,2.79C209.72,269.83,202.54,270.88,195.49,270.39z"/>
	<path class="st1" d="M204.76,287.28c-4.29,0.22-8.71-2.65-5.05-6.89c5.7-3.24,12.5-4.22,18.85-5.68
		c16.55-3.14,32.65-5.67,49.34-5.73c7.03-0.07,14.17,0.24,21.04,1.81c-0.88,0.03-1.91-0.13-2.86-0.12
		c-16.01,0.26-31.46,3.13-47.1,5.93c-9.09,1.67-18.3,2.59-27.42,4.09c-2.99,1.02-8.59,0.51-10,3.1c4.32,2.24,9.25,2.28,13.95,2.96
		C212.05,287.11,208.31,287.58,204.76,287.28z"/>
	<path class="st1" d="M204.18,309.4c-2.78-0.11-15.2-0.27-13.86-4.62c0.33-2.91,3.07-4.11,5.57-4.83
		c20.84-6.05,42.79-7.64,64.4-8.03c8.26,0.08,16.67-0.09,24.85,0.36c-3.65,0.25-7.3,0.69-10.94,1.06
		c-20.9,1.86-41.69,4.59-62.51,7.2c-4.01,0.97-17.25,1.15-18.83,4.64C196.03,307.96,200.4,308.2,204.18,309.4z"/>
	<path class="st1" d="M196.64,363.05c-5.98-0.63-18.93,0.77-18.81-7.83c-0.11-0.9,0.56-1.75,1.37-2.04
		c15.62-5.25,32.08-7.9,48.34-10.26c13.35-1.41,26.78-2.95,40.21-2.57c-1.49,0.09-3.18,0.26-4.69,0.47
		c-27.23,3.81-54.4,8.95-81.05,15.7c1.6,1.95,5.11,2.14,7.27,2.98c6.88,1.58,13.91,2.4,20.87,3.55
		C205.74,363.11,201.12,363.17,196.64,363.05z"/>
	<path class="st1" d="M198.45,387.82c-3.67-0.89-7.58-1.67-10.8-3.74c-5.84-5.52-0.78-10.42,5.71-11.18
		c17.65-4.89,36.22-5.01,54.41-5.19c4.86,0.03,9.79,0.18,14.57,0.9l0.89,0.71c0,0,0,0,0,0c0.01-0.01,0.01-0.03,0.02-0.03
		c0-0.02,0-0.04,0-0.06c-0.02-0.04-0.03-0.07-0.05-0.11c-11.94-0.6-24.02,2.63-35.99,3.43c-12.44,2.48-26.23,2.08-37.92,6.53
		c-0.8,4.33,14.45,8.49,17.95,10.09C204.38,388.84,201.35,388.34,198.45,387.82z"/>
	<path class="st1" d="M209.19,405.1c-4.01-0.33-8.22-0.17-12.04-1.55c-1.63-0.59-2.71-2-3.93-3.16c-1.55-1.3,0.82-4.15,2.1-4.84
		c5.46-1.9,11.22-3.21,16.92-4.28c6.92-1.15,13.85-2.22,20.8-3.14c7.35-0.76,14.76-0.97,22.13-1.36c4.11-0.15,8.21,0.03,12.31,0.21
		c0.93,0.01,2.83,0.02,2.75,1.35c-0.01,0.14-0.12,0.24-0.25,0.25c-1.98,0.23-4.13,0.48-6.06,0.58c1.92-0.35,3.84-0.69,5.76-1.07
		c0,0,0-0.01,0-0.01c-0.33-0.27-0.83-0.31-1.22-0.34c-2.12,0.09-4.23,0.2-6.35,0.22c-9.05,0.55-18.01,2.08-27.03,3.01
		c-9.23,1.83-18.62,2.79-27.81,4.76c-3.13,0.67-6.25,1.43-9.36,2.18c-0.67,0.2-1.43,0.41-1.74,1.1c1.17,1.79,3.23,2.77,5.2,3.2
		c4.78,1.28,9.66,2.17,14.5,3.15C213.74,405.33,211.4,405.15,209.19,405.1z"/>
	<path class="st1" d="M217.51,419.23c-6.14-0.78-25.23,0.56-25.92-7.17c-0.29-0.9,0.18-2,1.13-2.27c7.39-2.36,15.21-2.79,22.85-3.88
		c21.71-2.87,43.65-4.01,65.54-4.22c11.65-0.56,23.42,1.1,34.87-1.11c0-0.14-0.15-0.34-0.14-0.41c0.9,1.1-7.01,2.04-8.06,2.15
		c-12.43,0.88-24.89,1.55-37.33,2.32c-24.89,2.37-50.26,3.62-74.82,8.03c12.36,5.07,26.48,4.77,39.54,7.25
		C229.36,419.75,223.37,419.46,217.51,419.23z"/>
	<path class="st1" d="M256.97,429.03c-5.47-0.25-12,0.61-15.78-4.16c-0.79-0.71-0.55-2.02,0.46-2.37c1.47-0.51,2.93-1.06,4.4-1.57
		c4.69-1.59,9.64-2.15,14.55-2.59c10.75-0.73,21.54-1.08,32.31-0.84c2.41,0.07,5.63-0.7,7.41,1.32c0.23,0.27,0.09,0.67-0.25,0.75
		c-4.79,1.11-9.6,2.14-14.41,3.16c4.35-1.32,8.95-2.54,13.39-3.81c-1.99-0.68-4.08-0.18-6.11-0.12c-6.31,0.17-12.61,0.63-18.89,1.23
		c-9.85,1.03-19.97,0.97-29.34,4.41c2.86,2.46,6.88,2.25,10.36,3.08c2.84,0.55,5.7,0.92,8.54,1.39
		C261.5,429,259.17,429.01,256.97,429.03z"/>
	<path class="st3" d="M190.62,224.54c-3.9,0.12-7.71-1.01-9.96-4.38c-1.17-1.48,1.03-2.77,1.84-3.84c2.78-2.23,6.58-2.64,9.88-3.5
		c14.73-4.04,29.94-5.78,45.05-7.77c22.2-2.31,44.71-0.99,66.8-0.8c-5.29,1.47-13.67,0.54-20.02,1.13
		c-15.31,0.65-30.57,1.92-45.82,3.39c-12.62,1.97-25.03,3.12-37.46,5.51c-5.66,1.69-12.85,1.13-17.46,5.01
		c4.1,5.45,16.12,3.6,22.48,4.74C200.94,224.26,195.71,224.81,190.62,224.54z"/>
	<path class="st2" d="M173.37,330.72c-2.34-0.33-10.36-2.34-9.59-5.02c1.27-4.36,6.44-4.69,10.22-5.39
		c19.57-4.61,39.42-7.48,59.45-9.24c19.43-0.93,38.91-1.73,58.37-0.99c1.03,0.21,2.83,0.06,3.19,0.63c-0.79,0.24-1.56,0.24-2.38,0.3
		c0.75-0.21,1.11-0.11,1.9-0.34c-20.24-0.11-40.41,3.04-60.58,4.52c-15.68,2.21-31.49,3.39-47.06,6.31c-5.18,1.6-16.97,1-20.26,4.28
		c5.27,3.88,12.08,4.42,18.15,6.03C180.96,331.53,177.16,331.25,173.37,330.72z"/>
	<path class="st2" d="M182.09,341.34c-8.81,0.8-19.36-6.12-4.62-9.13c29.63-5.02,59.53-8.37,89.6-8.35c6.72,0,13.45-0.22,20.16,0.2
		c2.26,0.37,5.2-0.17,6.98,1.47c-0.22,0.5-1.47,0.2-2.03,0.36c0.44-0.15,1.2-0.2,1.72-0.35c-12.3-1.87-25.43,1.63-37.96,2.12
		c-26.59,3.37-53.29,5.93-79.72,9.4c7.78,2.56,16.38,1.99,24.4,2.58c-6.24,0.62-12.46,1.72-18.74,1.7
		C181.9,341.34,182.09,341.34,182.09,341.34z"/>
</g>
</svg>
