<?xml version="1.0" encoding="utf-8"?>
<!-- Generator: Adobe Adobe Illustrator 24.2.0, SVG Export Plug-In . SVG Version: 6.00 Build 0)  -->
<svg version="1.1" xmlns="http://www.w3.org/2000/svg" xmlns:xlink="http://www.w3.org/1999/xlink" x="0px" y="0px"
	 viewBox="0 0 500 500" style="enable-background:new 0 0 500 500;" xml:space="preserve">
<style type="text/css">
	.st0{fill:#000B25;}
	.st1{fill:#3A9E31;}
	.st2{fill:#F20519;}
	.st3{fill:#FFFFFF;}
	.st4{opacity:0.01;}
</style>
<g id="Vector_layer_5_">
	<path class="st0" d="M506.39-6.39v512.79H-6.39V-6.39H506.39z"/>
</g>
<g id="Vector_layer_4_">
	<path class="st1" d="M290.99,75.58c6.45-0.27,14.1,0.38,19.51-3.66c2.96-3.67,3.32-4.56-0.84-7.36
		c-22.14-9.81-46.98-12.57-70.99-13.91c-12.9-0.49-25.85-0.99-38.75-0.45c3.1,0.08,6.39,0.28,9.55,0.59
		c22.54,1.75,45.16,3.54,67.34,7.96c7.82,1.53,15.35,3.48,22.88,5.76c3.12,1.05,6.67,1.58,9.14,3.86
		C306.55,75.29,265.05,75.38,290.99,75.58z"/>
	<path class="st1" d="M306.88,92.47c3.14-0.33,5.73-2.15,7.97-4.24c3.3-3.2-1.62-6.17-4.23-7.58c-8.79-3.32-18.41-4.23-27.64-5.89
		c-17.98-2.53-36.2-3.23-54.35-3.07c-5.62,0.34-12.54-0.72-17.33,2.17c0.46,0.32,0.66,0.32,1.21,0.11
		c-0.13-0.04-0.56,0.04-0.77-0.02c-0.04-0.04-0.08-0.08-0.13-0.13c6.96-1.53,14.13,0.6,21.1,1.26c10.03,1.14,20.01,2.66,30,4.07
		c14.99,2.06,30.26,3.28,44.94,7.03c-10.99,3.62-22.96,3.6-34.39,5.03C284.32,92.14,295.72,93.66,306.88,92.47z"/>
	<path class="st1" d="M308.37,112.22c27.64-14.52-45.52-19.61-52.99-20.26c-10.88-0.83-21.89-1.07-32.75-1.24
		c-4.7-0.04-9.51-0.49-14.06,0.95c-0.2,0.05-0.24,0.35-0.07,0.46c1.07,0.61,2.34,1.03,3.48,1.31c-0.89-0.45-1.85-0.78-2.68-1.35
		c17.8,0.19,35.42,4.89,53.12,6.93c15.22,2.39,30.74,3.1,45.38,7.55c-8.1,3.98-18.09,2.95-26.95,3.91
		C289.82,111.54,299.31,113.96,308.37,112.22z"/>
	<path class="st1" d="M311.66,135.81c16.12-8.84-11.82-16.64-18.75-18.69c-13.75-4.02-28.07-5-42.32-5.62
		c-9.11,0.29-19.75-1.4-27.72,3.78c1.58-0.58,3.49-1.26,5.25-1.13c14.77,0.89,29.7,4.89,43.93,6.85c11.95,2.16,23.62,3.93,34.9,7.41
		c1.96,0.55,3.44,1.02,4.74,2.41c0,0,0,0,0,0c-0.01-0.01-0.03-0.03-0.04-0.04c0.01,0.01,0.02,0.03,0.04,0.05
		c-4.07,4.41-10.8,3.99-16.27,5.06C300.66,136.37,306.53,137.64,311.66,135.81z"/>
	<path class="st1" d="M317.71,167.14c4.62-0.96,9.57-2.55,11.59-7.23c2.91-6.37-13.74-8.7-17.76-10.66
		c-21.26-6.9-43.61-8.88-65.83-9.87c-7.39,0.07-18.9-1.5-24.7,2.69c4.51-2.18,10.06-0.62,14.88-0.26
		c10.34,1.57,20.58,3.75,30.89,5.47c18.95,3.51,38.11,6.59,56.58,12.15c-6.58,6.03-16.28,6.75-24.58,8.78
		C305,168.4,311.54,168.52,317.71,167.14z"/>
	<path class="st1" d="M303.96,232.41c7.13-0.57,15.14,0.42,21.44-3.53c9.49-8.84,1.53-10.04-6.49-13.74
		c-16.67-6.01-98.74-17.55-110.15-8.06c10.72-5.84,43.8,2.76,57.48,3.6c18.52,4.53,38.56,4.64,56,12.7
		c-5.07,3.98-12.51,3.04-18.57,4.45c-12.37,1.17-24.78,1.88-37.17,2.82C278.87,231.41,291.49,232.28,303.96,232.41z"/>
	<path class="st1" d="M304.04,259.41c5.87-0.38,11.93-1.06,17.36-3.46c2.47-1.35,7.44-4.92,3.6-7.49
		c-9.98-4.64-21.42-5.21-32.09-7.51c-20.68-2.89-41.49-4.1-62.36-4.34c-12.18-0.02-24.6-0.18-36.53,2.58
		c3.11-0.21,6.41-0.34,9.52-0.26c22.35,0.91,44.57,4.15,66.8,6.56c16.25,1.91,32.59,3.34,48.71,6.27
		c-9.55,5.08-20.67,6.02-31.03,8.02C293.35,259.68,298.7,259.65,304.04,259.41z"/>
	<path class="st1" d="M307.91,291.26c5.97-0.95,14.11-1.8,15.74-8.79c0.54-1.36-0.18-3.05-1.48-3.67
		c-17.88-7.86-37.83-9.24-57.07-10.88c-12.23-0.93-24.48-1.67-36.75-1.44c-7.77,0.67-19.23-1.32-24.33,5.78
		c0.98-1.35,2.5-2.34,4.21-2.67c16.06-2.09,32.32,2.12,48.3,3.77c20.19,3.35,40.77,4.03,60.37,9.69
		c-10.34,6.14-23.05,6.41-34.67,8.21C290.68,291.69,299.39,292.22,307.91,291.26z"/>
	<path class="st1" d="M307.64,314.48c4.63-0.05,10.66,0.53,13.36-4.06c1.28-1.32,1.14-3.84-0.84-4.44
		c-3.89-1.16-7.76-2.26-11.71-3.19c-28.41-6.77-57.84-10.31-87.05-8.94c-3.87,0.47-8.05,0.66-11.48,2.68
		c0.27,0.01,0.44-0.22,0.75-0.29c17.66-1.97,35.18,3.8,52.71,5.43c16.47,3.26,33.37,4.98,49.79,8.28c-8.9,1.64-18.02,2.85-26.89,4.2
		C293.39,314.28,300.51,314.65,307.64,314.48z"/>
	<path class="st1" d="M279.59,384.36c9.56-0.48,20.68,1.05,29.11-4.17c1.51-1.94,4.53-5.9,1.52-7.7c-3.95-1.96-7.96-3.78-12.21-4.96
		c-24.24-6.83-49.67-8.5-74.76-8.23c-4.17,0.14-17.61,0.43-17.3,3.15c5.3-4.05,24.84-0.24,32.27-0.16
		c22.68,2.98,46.34,4.58,67.58,13.52C302.1,382.47,242.89,384.38,279.59,384.36z"/>
	<path class="st1" d="M277.81,410.32c6.57-0.18,13.27,0.05,19.71-1.35c2.95-0.59,5.33-2.44,7.78-4.08c3.55-2.8-1.45-7.11-4.25-8.16
		c-19.75-4.68-40.27-5.93-60.54-6.32c-15.05,0.46-30.09,1.71-44.91,4.44c3.41,0.05,7.01-0.02,10.49,0.01
		c31.22,0.14,62.52,3.3,93.39,7.53C294.14,408.17,248.75,410.97,277.81,410.32z"/>
	<path class="st1" d="M277.05,438.13c6.12-0.48,12.42-0.23,18.37-1.89c2.32-0.61,3.8-2.52,5.1-4.39c3.42-5.03-8.94-6.52-12.01-7.49
		c-22.51-3.99-45.63-3.86-68.18-0.28c-9.32,1.36-18.52,3.11-27.73,5.04c33.89,0.18,68.25-2.26,101.89,2.6
		c-8.75,3.79-18.5,4.55-27.72,6.81C270.1,438.44,273.64,438.21,277.05,438.13z"/>
	<path class="st2" d="M302.6,346.3c7.85-0.54,31.44-2.53,22.65-14.9c-7.83-4.35-17.06-5.81-25.75-7.65
		c-18.4-3.37-36.9-6.02-55.54-7.56c-33.58-3.3-67.49-1.52-100.99,0.82c-0.04-0.06-0.09-0.11-0.13-0.17
		c-0.01-0.07,0.35-0.09,0.27-0.16c-0.97,0.3,0.74,0.81,1.12,0.69c3.96-0.11,7.92-0.08,11.88-0.07c11.97-0.04,23.94,0.3,35.9,0.81
		c25.82,1.09,51.48,4.44,77.2,6.99c15.61,2.57,31.51,3.63,46.88,7.46c2.19,1.1,6.81,0.65,7.1,3.53c-0.64,4.4-10.56,6.61-14.3,7.82
		c-4.01,1.09-8.25,1.87-12.24,2.7C298.61,346.5,300.6,346.41,302.6,346.3z"/>
	<path class="st2" d="M279.74,353.12c7.59-0.85,23.45,0.68,27.45-6.69c0.83-1.34,0.38-3.39-1.27-3.87
		c-16.53-4.49-33.67-6.61-50.69-8.31c-25.71-2.43-51.59-2.93-77.38-1.92c-6.43,0.31-12.93,0.15-19.27,1.4
		c-1.37,0.41-3.1,0.83-4.13,1.63c0.29,0.57,0.41,0.66,1.04,0.65c0.32-0.02,0.88,0.08,1.15,0.02c-0.56-0.11-1.13-0.12-1.68-0.26
		c-0.05-0.07-0.09-0.14-0.14-0.22c-0.02-0.05-0.04-0.1-0.06-0.15c10.37-2.73,21.28-0.12,31.84-0.06
		c11.96,0.74,23.89,1.92,35.85,2.69c25.77,2.62,51.69,4.02,77.25,8.32c-10.35,3.52-21.22,5.13-31.97,6.97
		C271.65,353.31,275.77,353.24,279.74,353.12z"/>
	<path class="st3" d="M303.89,189.43c4.43-0.42,9.67-0.56,12.67-4.33c2.01-1.42-0.16-2.98-1.34-4.06c-3.99-2.95-9.35-2.74-14-3.94
		c-6.77-1.15-13.67-1.95-20.55-1.7c-2.2-0.23-11.58,1.3-4.93,2.99c-0.52-0.35-1.33-0.63-1.91-1.02c6.76-2.37,17.15,1.37,24.34,2.25
		c5.22,1.64,11.63,0.84,16.06,4.24C311.8,187.13,307.36,187.9,303.89,189.43z"/>
	<path class="st3" d="M247.33,185.23c3.6-1.62,14.35-2.85,12.21-8.53c-4.64-3.5-16.53-3.91-22.55-4.31
		c-6.77-0.15-13.68,0.53-20.24,1.85c13.49,0.53,27.18,1.85,40.41,3.99C255.06,181.45,250.31,182.83,247.33,185.23z"/>
</g>
<g id="Vector_layer_3_" class="st4">
	<path class="st1" d="M193.94,86.7c-12.27-0.61-40.34-5.67-11-12.38c18.76-5.66,38.35-7.56,57.77-9.5
		c21.31-2.26,42.75-2.85,64.17-2.63c8.32,0.32,16.64,0.64,24.94,1.37c3.63,0.47,9.13,0.32,11.49,2.26c0.01-0.01,0.02-0.02,0.03-0.03
		c-11.29-2.83-23.62-0.41-35.25-0.68c-17.44,0.92-34.82,2.41-52.22,3.88c-25.37,2.58-51.12,3.86-75.69,11.2
		c17.05,5.21,35.18,4.94,52.81,6.53C218.75,86.93,206.25,87.32,193.94,86.7z"/>
	<path class="st1" d="M194.3,104.37c-2.83-0.07-5.87,0.15-8.47-1.15c-1.32-0.99-4.64-2.6-2.52-4.17c5.86-3.75,12.8-4.74,19.49-6.12
		c12.39-2.46,24.82-4.73,37.37-6.16c22.45-3.27,45.09-4.59,67.75-5.45c8.61,0.07,17.37-0.24,25.88,1.12c0.76,0.22,1.32,0.52,2,0.93
		c0.05,0.03,0.03,0.11-0.03,0.12c-0.64,0.15-1.28,0.25-1.94,0.34c0.43-0.17,1.25-0.22,1.75-0.42c-1.68-1.03-3.77-0.96-5.66-1.06
		c-5.39-0.02-10.77,0.06-16.15,0.32c-15.69,0.86-31.28,3.15-46.95,4.46c-18.85,2.83-37.84,4.61-56.61,7.94
		c-8.04,1.52-16.66,1.76-24.12,5.36c2.93,2.51,7.25,1.92,10.75,2.6c4.12,0.53,8.27,0.77,12.42,0.96c-4.93,0.4-10.07,0.49-15.07,0.37
		C194.2,104.37,194.3,104.37,194.3,104.37z"/>
	<path class="st1" d="M206.19,124.84c-5.92-0.55-22.8,1.15-23.4-6.72c-0.34-1.3,0.09-2.66,1.42-3.15
		c11.63-4.42,24.25-5.51,36.4-7.89c27.57-3.61,55.27-5.33,83.06-5.6c11.06-0.04,22.15,0.43,33.14,1.72c2.68,0.6,6,0.5,8.17,2.28
		c0.25,0.66-0.57,0.7-1,0.71c0.18-0.08,0.68-0.09,0.89-0.33c-0.01-0.1-0.02-0.21-0.02-0.31c-5.42-2.37-12.07-1.44-17.84-1.74
		c-15.71-0.18-31.35,1.53-47,2.73c-30.79,2.89-62.1,4.54-92.2,11.84c13.58,4.6,28.5,4.48,42.59,6
		C222.34,124.67,214.26,124.86,206.19,124.84z"/>
	<path class="st1" d="M199.61,142.83c-5.67-0.73-21.22,2.27-21.29-5.62c-0.4-0.93-0.2-2.12,0.85-2.48
		c9.5-4.13,19.86-5.27,30.05-6.52c25.71-3.32,51.63-4.34,77.54-4.36c14.59,0.68,34.23-1.33,46.03,2.5c0.02-0.03,0.04-0.06,0.06-0.09
		c-9.7-2.14-19.69-0.73-29.51-0.49c-17,0.64-33.96,1.8-50.93,3.01c-18.32,0.96-36.97,3.03-55.04,4.99c-5.4,0.6-10.75,1.6-15.84,3.52
		c-0.95,3.73,21.11,4.46,24.82,5.6c-2.18,0.04-4.56-0.06-6.8-0.07C199.55,142.83,199.61,142.83,199.61,142.83z"/>
	<path class="st1" d="M186.39,166.02c-6.44-0.45-20.31-3.25-16.18-12.26c7.49-4.51,17.19-4.78,25.67-6.67
		c22.25-3.73,44.87-4.26,67.38-4.91c17.14,0.9,35.93-0.83,52.22,2.57c-1.75,1.14-4.12,0.24-6.12,0.58c1.7-0.39,3.79-0.03,5.51-0.59
		c-27.43-1.52-54.95,1.23-82.31,3.16c-19.83,1.5-39.85,2.81-58.93,8.41c2.43,8.04,25.81,8.77,33.36,9.73
		C200.22,166.37,193.21,166.64,186.39,166.02z"/>
	<path class="st1" d="M199.77,181.15c-4.81-0.21-9.85,0.14-14.44-1.57c-2.62-1.14-8.15-4.65-3.72-7.12
		c8.12-3.54,17.02-4.2,25.7-5.41c17.38-2.58,34.91-3.57,52.46-4.12c17.67-0.23,35.67,0.17,53.06,3.13
		c-41.73-1.31-83.65,3.75-124.91,9.48c11.75,3.15,23.93,3.64,35.81,5.4C215.76,181.1,207.75,181.47,199.77,181.15z"/>
	<path class="st1" d="M205.9,206.29c-5.11-0.27-11.94-0.39-15.15-4.95c-1.85-4.72,3.04-7.9,7.2-8.22
		c24.09-7.29,49.27-10.09,74.3-11.81c6.39,0.03,15.93-1.66,21.34,1.93c0.11,0.53-0.21,0.76-0.78,0.63c0.1-0.05,0.53,0.01,0.66-0.18
		c-0.01-0.12-0.02-0.24-0.02-0.37c-9.76-3.43-26.33,1.9-36.87,3.08c-10.87,1.84-21.77,3.56-32.55,5.9
		c-9.44,2.24-20.57,2.96-28.81,7.14c9.73,5.03,21.41,4.71,32.06,6.53C220.25,206.47,213,206.39,205.9,206.29z"/>
	<path class="st1" d="M209.34,247.7c-7.05-0.62-16.26,0.36-21.13-5.72c-1.56-5.03,4.3-7.21,8.32-7.43
		c27.17-6.1,55.22-8.74,83.06-8.13c4.16,0.45,19.24,0.6,20.79,3.91c-0.61,0.03-1.18-0.14-1.78-0.26c0.41-0.05,1.13,0.18,1.6,0.09
		c-4.08-2.44-9.83-1.37-14.51-1.86c-21.17,0.04-42.11,3.83-62.91,5.59c-10.27,1.53-20.77,2.74-30.86,4.94
		C186.62,244.19,206.17,246.91,209.34,247.7z"/>
	<path class="st1" d="M195.49,270.39c-6.02,0.53-9.62-4.73-4.03-8.64c11.8-5.74,25.31-6.53,38.01-9.29
		c19.3-2.46,38.73-3.7,58.18-3.96c6.43,0,12.99-0.04,19.36,0.08c-7.62,0.8-15.27,1.39-22.88,2.27c-22.31,2.47-44.66,4.88-66.78,8.8
		c-6.16,1.62-21.55,1.86-24.92,6.76c7.71,2.49,16.2,2.11,24.24,2.79C209.72,269.83,202.54,270.88,195.49,270.39z"/>
	<path class="st1" d="M204.76,287.28c-4.29,0.22-8.71-2.65-5.05-6.89c5.7-3.24,12.5-4.22,18.85-5.68
		c16.55-3.14,32.65-5.67,49.34-5.73c7.03-0.07,14.17,0.24,21.04,1.81c-0.88,0.03-1.91-0.13-2.86-0.12
		c-16.01,0.26-31.46,3.13-47.1,5.93c-9.09,1.67-18.3,2.59-27.42,4.09c-2.99,1.02-8.59,0.51-10,3.1c4.32,2.24,9.25,2.28,13.95,2.96
		C212.05,287.11,208.31,287.58,204.76,287.28z"/>
	<path class="st1" d="M204.18,309.4c-2.78-0.11-15.2-0.27-13.86-4.62c0.33-2.91,3.07-4.11,5.57-4.83
		c20.84-6.05,42.79-7.64,64.4-8.03c8.26,0.08,16.67-0.09,24.85,0.36c-3.65,0.25-7.3,0.69-10.94,1.06
		c-20.9,1.86-41.69,4.59-62.51,7.2c-4.01,0.97-17.25,1.15-18.83,4.64C196.03,307.96,200.4,308.2,204.18,309.4z"/>
	<path class="st1" d="M196.64,363.05c-5.98-0.63-18.93,0.77-18.81-7.83c-0.11-0.9,0.56-1.75,1.37-2.04
		c15.62-5.25,32.08-7.9,48.34-10.26c13.35-1.41,26.78-2.95,40.21-2.57c-1.49,0.09-3.18,0.26-4.69,0.47
		c-27.23,3.81-54.4,8.95-81.05,15.7c1.6,1.95,5.11,2.14,7.27,2.98c6.88,1.58,13.91,2.4,20.87,3.55
		C205.74,363.11,201.12,363.17,196.64,363.05z"/>
	<path class="st1" d="M198.45,387.82c-3.67-0.89-7.58-1.67-10.8-3.74c-5.84-5.52-0.78-10.42,5.71-11.18
		c17.65-4.89,36.22-5.01,54.41-5.19c4.86,0.03,9.79,0.18,14.57,0.9l0.89,0.71c0,0,0,0,0,0c0.01-0.01,0.01-0.03,0.02-0.03
		c0-0.02,0-0.04,0-0.06c-0.02-0.04-0.03-0.07-0.05-0.11c-11.94-0.6-24.02,2.63-35.99,3.43c-12.44,2.48-26.23,2.08-37.92,6.53
		c-0.8,4.33,14.45,8.49,17.95,10.09C204.38,388.84,201.35,388.34,198.45,387.82z"/>
	<path class="st1" d="M209.19,405.1c-4.01-0.33-8.22-0.17-12.04-1.55c-1.63-0.59-2.71-2-3.93-3.16c-1.55-1.3,0.82-4.15,2.1-4.84
		c5.46-1.9,11.22-3.21,16.92-4.28c6.92-1.15,13.85-2.22,20.8-3.14c7.35-0.76,14.76-0.97,22.13-1.36c4.11-0.15,8.21,0.03,12.31,0.21
		c0.93,0.01,2.83,0.02,2.75,1.35c-0.01,0.14-0.12,0.24-0.25,0.25c-1.98,0.23-4.13,0.48-6.06,0.58c1.92-0.35,3.84-0.69,5.76-1.07
		c0,0,0-0.01,0-0.01c-0.33-0.27-0.83-0.31-1.22-0.34c-2.12,0.09-4.23,0.2-6.35,0.22c-9.05,0.55-18.01,2.08-27.03,3.01
		c-9.23,1.83-18.62,2.79-27.81,4.76c-3.13,0.67-6.25,1.43-9.36,2.18c-0.67,0.2-1.43,0.41-1.74,1.1c1.17,1.79,3.23,2.77,5.2,3.2
		c4.78,1.28,9.66,2.17,14.5,3.15C213.74,405.33,211.4,405.15,209.19,405.1z"/>
	<path class="st1" d="M217.51,419.23c-6.14-0.78-25.23,0.56-25.92-7.17c-0.29-0.9,0.18-2,1.13-2.27c7.39-2.36,15.21-2.79,22.85-3.88
		c21.71-2.87,43.65-4.01,65.54-4.22c11.65-0.56,23.42,1.1,34.87-1.11c0-0.14-0.15-0.34-0.14-0.41c0.9,1.1-7.01,2.04-8.06,2.15
		c-12.43,0.88-24.89,1.55-37.33,2.32c-24.89,2.37-50.26,3.62-74.82,8.03c12.36,5.07,26.48,4.77,39.54,7.25
		C229.36,419.75,223.37,419.46,217.51,419.23z"/>
	<path class="st1" d="M256.97,429.03c-5.47-0.25-12,0.61-15.78-4.16c-0.79-0.71-0.55-2.02,0.46-2.37c1.47-0.51,2.93-1.06,4.4-1.57
		c4.69-1.59,9.64-2.15,14.55-2.59c10.75-0.73,21.54-1.08,32.31-0.84c2.41,0.07,5.63-0.7,7.41,1.32c0.23,0.27,0.09,0.67-0.25,0.75
		c-4.79,1.11-9.6,2.14-14.41,3.16c4.35-1.32,8.95-2.54,13.39-3.81c-1.99-0.68-4.08-0.18-6.11-0.12c-6.31,0.17-12.61,0.63-18.89,1.23
		c-9.85,1.03-19.97,0.97-29.34,4.41c2.86,2.46,6.88,2.25,10.36,3.08c2.84,0.55,5.7,0.92,8.54,1.39
		C261.5,429,259.17,429.01,256.97,429.03z"/>
	<path class="st3" d="M190.62,224.54c-3.9,0.12-7.71-1.01-9.96-4.38c-1.17-1.48,1.03-2.77,1.84-3.84c2.78-2.23,6.58-2.64,9.88-3.5
		c14.73-4.04,29.94-5.78,45.05-7.77c22.2-2.31,44.71-0.99,66.8-0.8c-5.29,1.47-13.67,0.54-20.02,1.13
		c-15.31,0.65-30.57,1.92-45.82,3.39c-12.62,1.97-25.03,3.12-37.46,5.51c-5.66,1.69-12.85,1.13-17.46,5.01
		c4.1,5.45,16.12,3.6,22.48,4.74C200.94,224.26,195.71,224.81,190.62,224.54z"/>
	<path class="st2" d="M173.37,330.72c-2.34-0.33-10.36-2.34-9.59-5.02c1.27-4.36,6.44-4.69,10.22-5.39
		c19.57-4.61,39.42-7.48,59.45-9.24c19.43-0.93,38.91-1.73,58.37-0.99c1.03,0.21,2.83,0.06,3.19,0.63c-0.79,0.24-1.56,0.24-2.38,0.3
		c0.75-0.21,1.11-0.11,1.9-0.34c-20.24-0.11-40.41,3.04-60.58,4.52c-15.68,2.21-31.49,3.39-47.06,6.31c-5.18,1.6-16.97,1-20.26,4.28
		c5.27,3.88,12.08,4.42,18.15,6.03C180.96,331.53,177.16,331.25,173.37,330.72z"/>
	<path class="st2" d="M182.09,341.34c-8.81,0.8-19.36-6.12-4.62-9.13c29.63-5.02,59.53-8.37,89.6-8.35c6.72,0,13.45-0.22,20.16,0.2
		c2.26,0.37,5.2-0.17,6.98,1.47c-0.22,0.5-1.47,0.2-2.03,0.36c0.44-0.15,1.2-0.2,1.72-0.35c-12.3-1.87-25.43,1.63-37.96,2.12
		c-26.59,3.37-53.29,5.93-79.72,9.4c7.78,2.56,16.38,1.99,24.4,2.58c-6.24,0.62-12.46,1.72-18.74,1.7
		C181.9,341.34,182.09,341.34,182.09,341.34z"/>
</g>
</svg>
